<?xml version="1.0" encoding="utf-8"?>
<!-- Generator: Adobe Illustrator 17.0.0, SVG Export Plug-In . SVG Version: 6.00 Build 0)  -->
<!DOCTYPE svg PUBLIC "-//W3C//DTD SVG 1.1//EN" "http://www.w3.org/Graphics/SVG/1.1/DTD/svg11.dtd">
<svg version="1.1" id="Layer_1" xmlns="http://www.w3.org/2000/svg" xmlns:xlink="http://www.w3.org/1999/xlink" x="0px" y="0px"
	 width="90px" height="55px" viewBox="0 0 90 55" enable-background="new 0 0 90 55" xml:space="preserve">
<g>
	<g>
		<g>
			<g>
				<g>
					<g>
						<path fill="#FFFFFF" stroke="#FFFFFF" stroke-width="4" stroke-linejoin="round" stroke-miterlimit="10" d="M19.7,13.3
							c0.1,0,0.3-0.1,0.4-0.2c0.1-0.1,0.2-0.1,0.3-0.2c0.1-0.1,0.2-0.1,0.3-0.2c0.1-0.1,0.2-0.1,0.3-0.1s0.2,0,0.2,0.2
							c0,0.1-0.1,0.3-0.3,0.6c-0.2,0.4-0.4,0.6-0.5,0.6c-0.1,0-0.3,0.1-0.6,0.1c-0.6,0-1,0.1-1.5,0.2c-0.6,0.1-1.1,0.2-1.7,0.3
							c-0.6,0.1-1.2,0.2-1.8,0.4c-0.6,0.1-1,0.2-1.5,0.3c-0.5,0.1-0.7,0.2-0.9,0.2c-0.5,0.1-0.8,0.3-1.2,0.6s-0.7,0.6-1,0.8
							c-0.3,0.4-0.5,0.7-0.6,1.1s-0.1,0.8,0,1.3c0.3,1.4,1.2,1.9,2.8,1.4c0.2,0,0.3,0,0.3,0.2s0,0.3-0.3,0.3
							c-1.1,0.3-1.9,0.3-2.6,0.1c-0.6-0.3-1.1-0.7-1.3-1.7c-0.2-0.6-0.1-1.1,0.1-1.7c0.2-0.6,0.6-1,1-1.5c0.5-0.5,1-0.8,1.6-1.1
							c0.6-0.3,1.2-0.6,1.9-0.7c0.2-0.1,0.6-0.1,0.9-0.2c0.4-0.1,0.7-0.2,1.2-0.3c0.5-0.1,0.9-0.2,1.4-0.3c0.5-0.1,0.9-0.2,1.3-0.3
							s0.7-0.2,1.1-0.3C19.4,13.4,19.6,13.3,19.7,13.3z M14.7,18c0-0.4,0-0.6,0-0.7c0-0.1-0.1-0.1-0.2-0.1c-0.1,0-0.2,0.1-0.3,0.2
							c-0.1,0.1-0.2,0.2-0.3,0.2s-0.2,0-0.2-0.1c0-0.1,0-0.2,0.2-0.3c0.1-0.2,0.3-0.4,0.4-0.5c0.2-0.2,0.4-0.4,0.5-0.5
							c0.2-0.2,0.3-0.3,0.5-0.3c0.1,0,0.2,0,0.2,0.2c0,0.1,0,0.2,0,0.4c0,0.2,0,0.4,0,0.6v1.7c0.2-0.1,0.4-0.3,0.6-0.4
							c0.2-0.1,0.5-0.2,0.7-0.3c0.4-0.1,0.7-0.2,1.1-0.1c0.4,0,0.7,0.1,1.1,0.3c0.4,0.2,0.6,0.4,0.9,0.7c0.3,0.3,0.5,0.6,0.6,1.2
							c0.2,0.6,0.2,1.1,0.1,1.8c-0.1,0.6-0.4,1.1-0.6,1.6c-0.3,0.5-0.7,0.9-1.2,1.3c-0.5,0.4-1,0.6-1.7,0.7
							c-0.7,0.2-1.4,0.3-2.1,0.3c-0.6,0-1-0.1-1,0c-0.3,0.1-0.5,0-0.5-0.1s0-0.2,0.1-0.3c0.2-0.3,0.3-0.5,0.4-0.7
							c0.1-0.3,0.2-0.6,0.2-0.9l0.3-3.6c-0.2,0.2-0.4,0.4-0.5,0.6c-0.1,0.2-0.2,0.4-0.3,0.6c-0.1,0.2-0.1,0.3-0.1,0.5
							c0,0.1,0,0.2-0.1,0.3c-0.1,0-0.1,0-0.2,0c-0.1,0-0.1,0-0.1-0.1c-0.1-0.2,0-0.4,0-0.6c0.1-0.2,0.2-0.5,0.3-0.6
							c0.1-0.2,0.3-0.5,0.5-0.6s0.4-0.4,0.5-0.5L14.7,18z M15.1,23.4c0,0.1,0,0.2,0,0.3s0,0.2-0.1,0.3c0,0.1-0.1,0.2-0.1,0.3
							c0,0.1-0.1,0.2-0.1,0.3l-0.3,0.4c0,0.1,0.4,0.2,1.1,0.2c0.4,0,0.6,0,0.9-0.1c0.3,0,0.6-0.1,0.9-0.2c0.5-0.1,0.9-0.4,1.2-0.6
							c0.4-0.3,0.6-0.6,0.8-1c0.2-0.4,0.3-0.8,0.4-1.3c0-0.5,0-1-0.2-1.5c-0.1-0.4-0.3-0.7-0.5-0.9c-0.2-0.3-0.5-0.5-0.6-0.6
							c-0.3-0.2-0.6-0.2-0.8-0.3c-0.3,0-0.6,0-0.8,0.1c-0.4,0.1-0.6,0.2-0.9,0.4c-0.3,0.1-0.5,0.3-0.6,0.6L15.1,23.4z"/>
						<path fill="#FFFFFF" stroke="#FFFFFF" stroke-width="4" stroke-linejoin="round" stroke-miterlimit="10" d="M23.1,17.6
							c0.2,0,0.3,0,0.3,0.1s0,0.2,0,0.4c0,0.2,0,0.3,0,0.5L23,22.1c0,0.3,0,0.5,0,0.6c0.1,0.2,0.2,0.3,0.4,0.3
							c0.2-0.1,0.4-0.2,0.6-0.3c0.2-0.2,0.4-0.4,0.6-0.6c0.2-0.2,0.3-0.5,0.5-0.6c0.1-0.3,0.2-0.5,0.2-0.7l0.4-3.2
							c0-0.1,0-0.2,0-0.2c0-0.1,0-0.1,0-0.2c0,0,0-0.1,0.1-0.1c0,0,0.1-0.1,0.1-0.2c0.1-0.1,0.1-0.1,0.2-0.1c0.1,0,0.1-0.1,0.2-0.1
							s0.2,0,0.2,0.1c0,0,0,0.2,0,0.6l-0.4,4c0,0.2,0,0.4,0,0.5c0,0.1,0,0.2,0,0.2c0,0.1,0.1,0.2,0.2,0.1c0.1,0,0.1-0.1,0.2-0.1
							c0.1-0.1,0.1-0.1,0.2-0.2c0.1-0.1,0.1-0.1,0.2-0.2l0.1-0.1c0.1,0,0.2,0,0.2,0.1s0,0.2-0.1,0.4c-0.1,0.1-0.2,0.3-0.4,0.4
							c-0.2,0.1-0.3,0.3-0.5,0.4c-0.2,0.1-0.3,0.2-0.4,0.2c-0.2,0.1-0.3,0-0.4-0.2c0-0.1-0.1-0.3-0.1-0.4s0-0.2,0-0.4
							c-0.1,0.2-0.3,0.4-0.4,0.6c-0.2,0.2-0.4,0.4-0.6,0.6c-0.5,0.4-0.9,0.6-1.3,0.7c-0.4,0.1-0.6-0.1-0.6-0.5
							c-0.1-0.3-0.1-0.6-0.1-0.9l0.3-3.3c0-0.2,0-0.3,0-0.3c0-0.1-0.1-0.1-0.2-0.1c0,0-0.1,0-0.1,0.1c-0.1,0-0.1,0.1-0.2,0.1
							c-0.1,0-0.1,0.1-0.2,0.1l-0.1,0.1c-0.1,0-0.2,0-0.2-0.1c0-0.1,0-0.2,0.1-0.4c0.1-0.2,0.3-0.3,0.4-0.5c0.2-0.2,0.4-0.3,0.6-0.5
							C22.8,17.7,23,17.6,23.1,17.6z"/>
						<path fill="#FFFFFF" stroke="#FFFFFF" stroke-width="4" stroke-linejoin="round" stroke-miterlimit="10" d="M32,15.7
							c0.2-0.3,0.5-0.5,0.6-0.6c0.3-0.2,0.5-0.3,0.7-0.4c0.1,0,0.2,0,0.4,0c0.2,0,0.3,0.1,0.5,0.2c0.2,0.1,0.3,0.2,0.5,0.4
							c0.1,0.2,0.3,0.4,0.3,0.6c0.1,0.5,0.2,1,0.1,1.6C35,18,34.9,18.6,34.6,19c-0.2,0.6-0.6,0.9-0.8,1.4c-0.4,0.4-0.7,0.6-1.2,0.7
							c-0.2,0.1-0.4,0.1-0.6,0c-0.2,0-0.3-0.1-0.4-0.2l-0.2,1.1C31.2,24,30.7,25,30,25.2c-0.2,0.1-0.3,0-0.3-0.1
							c0-0.2,0-0.3,0.3-0.3c0.1,0,0.3-0.2,0.4-0.4c0.1-0.2,0.2-0.5,0.3-0.7c0.1-0.3,0.1-0.6,0.2-0.8c0-0.3,0.1-0.6,0.1-0.7v-1.2
							c-0.5,0.6-0.9,0.8-1.4,1c-0.1,0-0.2,0-0.4,0c-0.2,0-0.3-0.1-0.5-0.2c-0.2-0.1-0.3-0.2-0.5-0.4c-0.2-0.2-0.3-0.4-0.3-0.6
							c-0.1-0.5-0.2-0.9-0.1-1.5c0.1-0.6,0.2-1.1,0.5-1.6c0.2-0.6,0.5-1,0.8-1.4c0.4-0.4,0.7-0.6,1.2-0.8c0.2,0,0.3-0.1,0.5,0
							c0.2,0,0.3,0,0.4,0.1l0.1-3.2c0-0.6,0-0.8,0-0.9c0-0.1-0.1-0.1-0.2-0.1c0,0-0.1,0-0.1,0.1c0,0-0.1,0.1-0.2,0.1
							s-0.1,0.1-0.1,0.1l-0.1,0.1c-0.1,0-0.2,0-0.2-0.1s0-0.2,0.1-0.4s0.3-0.3,0.4-0.5c0.2-0.2,0.4-0.3,0.6-0.4
							c0.2-0.1,0.4-0.2,0.5-0.3c0.2,0,0.3,0,0.3,0.1c0,0.1,0,1-0.1,2.8c0,0.5,0,0.8,0,1.1c0,0.3,0,0.6,0,0.7s0,0.4,0,0.5
							C32,15.6,32,15.7,32,15.7z M31,16.5c-0.1-0.3-0.2-0.5-0.4-0.5c-0.2,0-0.3-0.1-0.4,0c-0.3,0.1-0.6,0.3-0.8,0.6
							c-0.3,0.3-0.5,0.6-0.6,1c-0.2,0.4-0.3,0.8-0.3,1.4c0,0.6,0,1,0.2,1.6c0.1,0.3,0.2,0.5,0.4,0.6c0.2,0.1,0.4,0.1,0.7,0
							c0.3-0.1,0.5-0.2,0.6-0.5c0.2-0.2,0.3-0.5,0.4-0.7c0.1-0.3,0.2-0.6,0.2-1s0.1-0.6,0.1-1c0-0.3,0-0.6,0-0.8
							C31.1,16.9,31,16.7,31,16.5z M31.8,20.2c0.1,0.3,0.2,0.5,0.4,0.5s0.3,0.1,0.4,0c0.4-0.1,0.6-0.3,0.9-0.6s0.5-0.6,0.6-1.1
							c0.2-0.4,0.3-0.8,0.3-1.4c0-0.5,0-1-0.2-1.5c-0.1-0.3-0.2-0.5-0.4-0.6c-0.2-0.1-0.4-0.1-0.6,0c-0.3,0.1-0.5,0.2-0.6,0.5
							c-0.2,0.3-0.3,0.5-0.4,0.8c-0.1,0.3-0.2,0.6-0.2,1c-0.1,0.4-0.1,0.6-0.1,1c0,0.3,0,0.6,0,0.8C31.8,19.9,31.8,20.1,31.8,20.2z"
							/>
						<path fill="#FFFFFF" stroke="#FFFFFF" stroke-width="4" stroke-linejoin="round" stroke-miterlimit="10" d="M37.4,13.6
							c0.2,0,0.3,0,0.3,0.1c0,0.1,0,0.2,0,0.4c0,0.2,0,0.3,0,0.5l-0.4,3.6c0,0.3,0,0.5,0,0.6c0.1,0.2,0.2,0.3,0.4,0.2
							s0.4-0.2,0.6-0.3c0.2-0.2,0.4-0.4,0.6-0.6c0.2-0.2,0.3-0.5,0.5-0.6c0.1-0.3,0.2-0.5,0.2-0.7l0.4-3.2c0-0.1,0-0.2,0-0.2
							c0-0.1,0-0.1,0-0.2c0,0,0-0.1,0.1-0.1c0-0.1,0.1-0.1,0.1-0.2c0.1-0.1,0.1-0.1,0.2-0.1s0.1-0.1,0.2-0.1c0.1,0,0.2,0,0.2,0.1
							c0,0,0,0.2,0,0.6l-0.4,4c0,0.2,0,0.4,0,0.5c0,0.1,0,0.2,0,0.2c0,0.1,0.1,0.2,0.2,0.1c0.1,0,0.1-0.1,0.2-0.1
							c0.1-0.1,0.1-0.1,0.2-0.2c0.1-0.1,0.1-0.1,0.2-0.2c0-0.1,0.1-0.1,0.1-0.1c0.1,0,0.2,0,0.2,0.1s0,0.2-0.1,0.3
							c-0.1,0.1-0.2,0.3-0.4,0.4c-0.2,0.1-0.3,0.3-0.5,0.4c-0.2,0.1-0.3,0.2-0.4,0.2c-0.2,0.1-0.3,0-0.4-0.2c0-0.1-0.1-0.3-0.1-0.4
							c0-0.1,0-0.2,0-0.4c-0.1,0.2-0.3,0.4-0.4,0.6c-0.2,0.2-0.4,0.4-0.6,0.6c-0.5,0.4-0.9,0.6-1.3,0.7c-0.4,0.1-0.6-0.1-0.6-0.5
							c-0.1-0.3-0.1-0.6-0.1-0.9l0.3-3.3c0-0.2,0-0.3,0-0.3c0-0.1-0.1-0.1-0.2-0.1c0,0-0.1,0-0.1,0.1c-0.1,0-0.1,0.1-0.2,0.1
							c-0.1,0-0.1,0.1-0.2,0.1l-0.1,0.1c-0.1,0-0.2,0-0.2-0.1c0-0.1,0-0.2,0.1-0.4c0.1-0.2,0.3-0.3,0.4-0.5c0.2-0.2,0.4-0.3,0.6-0.5
							C37.1,13.7,37.3,13.7,37.4,13.6z"/>
						<path fill="#FFFFFF" stroke="#FFFFFF" stroke-width="4" stroke-linejoin="round" stroke-miterlimit="10" d="M46.3,11.8
							c0.2-0.3,0.5-0.5,0.6-0.6c0.3-0.2,0.5-0.3,0.7-0.4c0.1,0,0.2,0,0.4,0s0.3,0.1,0.5,0.2c0.2,0.1,0.3,0.2,0.5,0.4
							c0.1,0.2,0.3,0.4,0.3,0.6c0.1,0.5,0.2,1,0.1,1.6c-0.1,0.6-0.2,1.1-0.5,1.6c-0.2,0.6-0.6,0.9-0.8,1.4c-0.4,0.4-0.7,0.6-1.2,0.7
							c-0.2,0.1-0.4,0.1-0.6,0c-0.2,0-0.3-0.1-0.4-0.2l-0.2,1.1c-0.3,1.9-0.7,2.9-1.5,3.1c-0.2,0.1-0.3,0-0.3-0.1
							c0-0.2,0-0.3,0.3-0.3c0.1,0,0.3-0.2,0.4-0.4c0.1-0.2,0.2-0.5,0.3-0.7c0.1-0.3,0.1-0.6,0.2-0.8c0-0.3,0.1-0.6,0.1-0.7V17
							c-0.5,0.6-0.9,0.8-1.4,1c-0.1,0-0.2,0-0.4,0s-0.3-0.1-0.5-0.2c-0.2-0.1-0.3-0.2-0.5-0.4c-0.1-0.2-0.3-0.4-0.3-0.6
							c-0.1-0.5-0.2-0.9-0.1-1.5c0.1-0.6,0.2-1.1,0.5-1.7c0.2-0.6,0.5-1,0.8-1.4s0.7-0.6,1.2-0.8c0.2,0,0.3-0.1,0.5,0
							c0.1,0,0.3,0,0.4,0.1l0.1-3.2c0-0.6,0-0.8,0-0.9c0-0.1-0.1-0.1-0.2-0.1c0,0-0.1,0-0.1,0.1c0,0-0.1,0.1-0.2,0.1
							C45,7.4,45,7.5,45,7.5l-0.1,0.1c-0.1,0-0.2,0-0.2-0.1c0-0.1,0-0.2,0.1-0.4c0.1-0.2,0.3-0.3,0.4-0.5c0.2-0.2,0.4-0.3,0.6-0.4
							c0.2-0.1,0.4-0.2,0.5-0.3c0.2,0,0.3,0,0.3,0.1c0,0.1,0,1-0.1,2.9c0,0.5,0,0.8,0,1.1s0,0.6,0,0.7s0,0.4,0,0.5
							C46.3,11.7,46.3,11.7,46.3,11.8z M45.3,12.6c-0.1-0.3-0.2-0.5-0.4-0.5s-0.3-0.1-0.4,0c-0.3,0.1-0.6,0.3-0.8,0.6
							c-0.3,0.3-0.5,0.6-0.6,1c-0.2,0.4-0.3,0.8-0.3,1.4s0,1,0.2,1.6c0.1,0.3,0.2,0.5,0.4,0.6s0.4,0.1,0.7,0
							c0.3-0.1,0.5-0.2,0.6-0.5c0.2-0.2,0.3-0.5,0.4-0.8c0.1-0.3,0.2-0.6,0.2-0.9c0-0.4,0.1-0.6,0.1-1c0-0.3,0-0.6,0-0.8
							C45.4,13,45.3,12.7,45.3,12.6z M46.1,16.3c0.1,0.3,0.2,0.5,0.4,0.5c0.1,0,0.3,0.1,0.4,0c0.4-0.1,0.6-0.3,0.9-0.6
							c0.3-0.3,0.5-0.6,0.6-1.1c0.2-0.5,0.2-0.8,0.3-1.4c0-0.5,0-1-0.2-1.5c-0.1-0.3-0.2-0.5-0.4-0.6c-0.2-0.1-0.4-0.1-0.6,0
							c-0.3,0.1-0.5,0.2-0.6,0.5c-0.2,0.2-0.3,0.5-0.4,0.8c-0.1,0.3-0.2,0.6-0.2,1s-0.1,0.6-0.1,1c0,0.3,0,0.6,0,0.8
							C46.1,16,46.1,16.2,46.1,16.3z"/>
						<path fill="#FFFFFF" stroke="#FFFFFF" stroke-width="4" stroke-linejoin="round" stroke-miterlimit="10" d="M52,10.7
							c0.5-0.8,1-1.3,1.7-1.6c0.7-0.2,1.3,0.2,1.5,1.1c0.1,0.3,0.1,0.6,0.1,0.9s-0.1,0.7-0.1,1.1c-0.1,0.4-0.2,0.7-0.4,1.1
							c-0.2,0.4-0.4,0.7-0.6,1c-0.2,0.3-0.5,0.6-0.7,0.8c-0.3,0.3-0.6,0.4-0.9,0.5c-0.5,0.1-0.8,0.1-1-0.2l-0.2,1.1
							c-0.1,0.9-0.3,1.7-0.6,2.1c-0.3,0.5-0.6,0.8-0.9,0.9c-0.2,0.1-0.3,0-0.3-0.1c0-0.2,0-0.3,0.3-0.3c0.3-0.1,0.5-0.3,0.6-0.7
							c0.2-0.5,0.3-1,0.3-1.9l0.3-4.9c0-0.3,0-0.5,0-0.6s0-0.3,0-0.3c0-0.1-0.1-0.1-0.2-0.1c-0.1,0-0.2,0.1-0.3,0.2
							c-0.1,0.1-0.2,0.2-0.2,0.2c-0.1,0-0.2,0-0.2-0.1c0-0.1,0-0.2,0.1-0.4c0.2,0,0.4-0.2,0.6-0.4c0.2-0.2,0.4-0.3,0.6-0.5
							c0.2-0.1,0.4-0.2,0.5-0.3c0.2,0,0.3,0,0.3,0.1c0,0.1,0,0.2,0,0.4C52,10.3,52,10.5,52,10.7L52,10.7z M53.3,10
							c-0.4,0.1-0.6,0.4-0.9,0.6c-0.3,0.4-0.5,0.7-0.6,1.2c-0.1,0.6-0.2,1-0.2,1.5s0,0.8,0.1,1.2c0.2,0.6,0.5,0.8,0.9,0.6
							c0.3-0.1,0.6-0.3,0.7-0.6c0.3-0.3,0.5-0.6,0.6-1.1c0.2-0.5,0.3-0.9,0.3-1.4c0.1-0.5,0-0.9-0.1-1.4C54.2,10,53.8,9.8,53.3,10z"
							/>
						<path fill="#FFFFFF" stroke="#FFFFFF" stroke-width="4" stroke-linejoin="round" stroke-miterlimit="10" d="M57.8,8
							c0.2,0,0.3,0,0.3,0.1c0,0.1,0,0.2,0,0.4s0,0.3,0,0.5l-0.4,3.6c0,0.2,0,0.5,0,0.6c0.1,0.2,0.2,0.3,0.4,0.3
							c0.3-0.1,0.5-0.2,0.7-0.4c0.2-0.2,0.4-0.5,0.6-0.7c0.2-0.3,0.3-0.6,0.4-0.8c0.2-0.4,0.3-0.6,0.3-0.8L60.3,8
							c0-0.2,0.1-0.3,0.1-0.4c0-0.1,0.1-0.2,0.2-0.3c0.1-0.1,0.3-0.2,0.3-0.2c0.1,0,0.2,0,0.2,0.1c0,0,0,0.2,0,0.6l-0.4,4.4
							c-0.1,0.6-0.1,1.3-0.2,1.9c-0.1,0.6-0.2,1.1-0.4,1.6c-0.2,0.5-0.4,0.8-0.6,1.1c-0.3,0.3-0.6,0.6-1,0.6c-0.1,0-0.3,0-0.5,0.1
							c-0.2,0-0.4,0-0.6-0.1c-0.2,0-0.4-0.1-0.6-0.2s-0.3-0.2-0.3-0.4c-0.1-0.3,0-0.5,0.3-0.5c0.1,0,0.2,0,0.3,0.1s0.2,0.2,0.4,0.3
							c0.1,0.1,0.3,0.2,0.4,0.3c0.2,0.1,0.4,0.1,0.6,0c0.3-0.1,0.6-0.3,0.7-0.5c0.2-0.2,0.4-0.5,0.5-0.8c0.1-0.4,0.2-0.8,0.3-1.3
							c0.1-0.6,0.1-1.1,0.1-1.9l0,0c-0.1,0.3-0.3,0.5-0.5,0.6c-0.2,0.2-0.4,0.4-0.6,0.6c-0.2,0.2-0.4,0.3-0.6,0.4
							c-0.2,0.1-0.4,0.2-0.6,0.3c-0.4,0.1-0.6-0.1-0.6-0.5C57,13.8,57,13.5,57,13.1l0.3-3.6c0-0.1,0-0.3,0-0.3
							c0-0.1-0.1-0.1-0.2-0.1c0,0-0.1,0-0.1,0.1c-0.1,0-0.1,0.1-0.2,0.1c-0.1,0.1-0.1,0.1-0.2,0.1l-0.1,0.1c-0.1,0-0.2,0-0.2-0.1
							c0-0.1,0-0.2,0.1-0.4s0.3-0.3,0.4-0.5c0.2-0.2,0.3-0.3,0.5-0.5C57.5,8.1,57.7,8,57.8,8z"/>
						<path fill="#FFFFFF" stroke="#FFFFFF" stroke-width="4" stroke-linejoin="round" stroke-miterlimit="10" d="M63.8,6.3
							c0.2,0,0.3,0,0.3,0.1c0.1,0.2,0.1,0.5,0,0.8c0.1-0.1,0.2-0.3,0.4-0.5c0.2-0.2,0.4-0.4,0.6-0.5c0.2-0.2,0.5-0.3,0.6-0.5
							c0.3-0.1,0.5-0.3,0.6-0.3c0.3-0.1,0.4,0,0.4,0.1s0,0.3,0,0.4c0.6-0.6,1.1-0.9,1.7-1.1c0.4-0.1,0.6,0.1,0.7,0.5
							c0.1,0.2,0.1,0.6,0,0.9l-0.4,3.3c0,0.3,0,0.5,0,0.5c0,0.1,0.1,0.2,0.2,0.1c0,0,0.1,0,0.2-0.1s0.1-0.1,0.2-0.2
							c0.1-0.1,0.1-0.1,0.2-0.2c0.1-0.1,0.1-0.1,0.1-0.1c0.1,0,0.1,0,0.2,0.1c0,0.1,0,0.2-0.1,0.3s-0.2,0.3-0.3,0.4
							c-0.1,0.1-0.3,0.3-0.5,0.4c-0.2,0.1-0.3,0.2-0.5,0.2c-0.2,0.1-0.4,0-0.5-0.2c0-0.1,0-0.5,0-0.9l0.4-3.2c0-0.3,0-0.5,0-0.6
							c0-0.2-0.2-0.2-0.5-0.2c-0.2,0.1-0.4,0.2-0.6,0.3c-0.2,0.2-0.4,0.4-0.6,0.6l-0.5,4.3c0,0.2-0.1,0.4-0.2,0.6s-0.2,0.3-0.4,0.4
							c-0.1,0-0.2,0-0.2-0.1c0,0,0-0.1,0-0.2c0-0.1,0-0.2,0-0.4l0.3-3.6c0.1-0.6,0.1-1,0.1-1c0-0.1-0.1-0.2-0.3-0.1
							c-0.2,0.1-0.6,0.3-0.9,0.6c-0.5,0.6-0.7,1-0.8,1.6l-0.4,3.1c0,0.2-0.1,0.4-0.2,0.6c-0.1,0.2-0.2,0.3-0.4,0.4
							c-0.1,0-0.2,0-0.2-0.1c0,0,0-0.1,0-0.2c0-0.1,0-0.2,0-0.4L63,8.7c0.1-0.6,0.1-0.8,0-0.9c0-0.1-0.1-0.1-0.2-0.1
							c0,0-0.1,0-0.1,0.1l-0.1,0.1l-0.1,0.1L62.4,8c-0.1,0-0.2,0-0.2-0.1c0-0.1,0-0.2,0.1-0.3c0.1-0.2,0.3-0.3,0.4-0.5
							c0.2-0.2,0.4-0.3,0.5-0.5C63.6,6.4,63.7,6.3,63.8,6.3z"/>
					</g>
				</g>
			</g>
		</g>
		<g>
			<path fill="#FFFFFF" stroke="#FFFFFF" stroke-width="4" stroke-linejoin="round" stroke-miterlimit="10" d="M9.5,33.7
				c0.2-0.1,0.5-0.1,0.7-0.2c0.3,0,0.5-0.1,0.7-0.1c0.2,0,0.5,0,0.6,0.1c0.1,0.2,0.2,0.3,0.3,0.4c0.1,0.5,0,0.7-0.3,0.8
				c-0.3,0.1-0.6,0-0.8-0.2c-0.3-0.2-0.7-0.3-1.3-0.1c-0.5,0.2-0.9,0.4-1.2,0.8c-0.3,0.4-0.6,0.8-0.7,1.4c-0.2,0.5-0.3,1-0.3,1.7
				c0,0.6,0.1,1.1,0.2,1.6c0.1,0.3,0.2,0.6,0.4,0.8C8,41,8.1,41.2,8.2,41.4c0.2,0.2,0.4,0.3,0.6,0.4c0.3,0.1,0.6,0.1,0.8,0
				c0.2-0.1,0.4-0.1,0.6-0.3c0.2-0.1,0.4-0.3,0.6-0.5c0.2-0.2,0.3-0.4,0.5-0.6c0.1-0.2,0.2-0.4,0.2-0.6c0.1-0.5,0.3-0.6,0.5-0.7
				c0.1,0,0.2,0,0.3,0.2c0.1,0.2,0.1,0.5,0,0.7c-0.1,0.3-0.3,0.6-0.5,0.8c-0.2,0.3-0.5,0.6-0.8,0.8c-0.4,0.3-0.7,0.5-1.2,0.6
				c-0.4,0.1-0.7,0.1-1.1,0.1c-0.4-0.1-0.6-0.2-1-0.4c-0.3-0.2-0.6-0.5-0.7-0.7c-0.2-0.3-0.4-0.6-0.5-1c-0.2-0.6-0.3-1.2-0.2-1.9
				s0.3-1.4,0.6-2C7,35.7,7.4,35.1,8,34.6C8.4,34.2,8.9,33.9,9.5,33.7z"/>
			<path fill="#FFFFFF" stroke="#FFFFFF" stroke-width="4" stroke-linejoin="round" stroke-miterlimit="10" d="M23.2,37.4
				c-0.6,0.9-1.4,1.6-2.5,1.9c-1.5,0.5-2.4,0-2.8-1.2c-0.1-0.3-0.1-0.6-0.1-1c0-0.4,0.1-0.7,0.2-1.1c0.1-0.4,0.3-0.7,0.5-1.1
				c0.2-0.4,0.4-0.6,0.6-0.8c-0.1-0.2-0.2-0.3-0.2-0.5c-0.1-0.3-0.1-0.6,0-1c0.1-0.4,0.3-0.6,0.5-0.9c0.2-0.3,0.5-0.6,0.8-0.8
				c0.4-0.3,0.7-0.5,1.1-0.6c1.6-0.5,2.6,0.1,3,1.7c0.1,0.2,0.1,0.6,0,1.1l-0.1,3.4c0,0.3,0,0.5,0,0.6c0,0.2,0.2,0.2,0.3,0.2
				c0,0,0.1-0.1,0.2-0.1c0.1-0.1,0.2-0.2,0.3-0.2c0.1-0.1,0.2-0.2,0.3-0.2c0.1-0.1,0.1-0.1,0.2-0.1s0.2,0,0.2,0.2
				c0,0.1,0,0.3-0.2,0.5c-0.1,0.2-0.3,0.4-0.5,0.6c-0.2,0.2-0.4,0.4-0.6,0.5c-0.2,0.1-0.4,0.2-0.5,0.3c-0.3,0.1-0.5,0-0.6-0.3
				C23.2,37.8,23.2,37.6,23.2,37.4z M21.6,32.8c-0.5,0.1-0.9,0.4-1.3,0.7s-0.6,0.7-0.8,1.3c-0.2,0.5-0.4,0.9-0.5,1.4
				s-0.1,0.9,0.1,1.3c0.1,0.5,0.3,0.8,0.6,1c0.2,0.2,0.6,0.2,1.1,0.1c0.5-0.1,0.9-0.4,1.3-0.7c0.4-0.4,0.6-0.8,0.9-1.3
				c0.2-0.5,0.4-1,0.5-1.6s0-1-0.1-1.5C23,32.8,22.4,32.6,21.6,32.8z M19.9,33.2c0.5-0.5,1.1-0.8,1.8-1c0.4-0.1,0.6-0.1,0.9-0.1
				s0.6,0.2,0.7,0.3c0-0.1,0-0.2,0-0.3c0-0.1,0-0.2,0-0.2c-0.1-0.4-0.4-0.6-0.7-0.8c-0.4-0.2-0.7-0.2-1.2-0.1
				c-0.6,0.2-1,0.5-1.3,0.9C19.9,32.3,19.8,32.8,19.9,33.2z"/>
			<path fill="#FFFFFF" stroke="#FFFFFF" stroke-width="4" stroke-linejoin="round" stroke-miterlimit="10" d="M31.4,33.8
				c0.1,0,0.2,0,0.3,0.2c0.1,0.2,0.1,0.4,0,0.6c0,0.2-0.2,0.5-0.3,0.7c-0.3,0.4-0.6,0.7-1,1c-0.4,0.3-0.8,0.5-1.4,0.6
				c-0.5,0.2-0.9,0.1-1.3-0.1c-0.4-0.2-0.6-0.6-0.7-1c-0.1-0.4-0.1-0.6-0.1-0.9c0.1-0.3,0.1-0.6,0.3-0.9c0.1-0.3,0.3-0.6,0.5-0.8
				c0.2-0.3,0.4-0.6,0.6-0.7c0.2-0.3,0.5-0.6,0.6-0.8c0.2-0.3,0.5-0.6,0.6-0.7c0.2-0.3,0.3-0.5,0.4-0.7c0.1-0.2,0.1-0.5,0.1-0.6
				c-0.1-0.3-0.2-0.6-0.4-0.6c-0.2-0.1-0.4-0.1-0.6,0c-0.4,0.1-0.6,0.3-0.9,0.5c-0.3,0.2-0.5,0.5-0.7,0.7c-0.1,0.2-0.2,0.3-0.2,0.3
				c0,0.1-0.1,0.1-0.2,0.1c-0.1,0-0.2,0-0.3-0.2c-0.1-0.4,0.1-0.7,0.6-1.2c0.1-0.1,0.3-0.3,0.4-0.4s0.3-0.2,0.5-0.3
				c0.2-0.1,0.4-0.2,0.6-0.3c0.2-0.1,0.5-0.2,0.8-0.3c0.1,0,0.2,0,0.4,0c0.2,0,0.4,0,0.6,0.1c0.2,0.1,0.4,0.2,0.5,0.4
				c0.2,0.2,0.3,0.4,0.4,0.6c0.1,0.3,0.1,0.6,0,0.8c-0.1,0.3-0.3,0.6-0.5,0.9c-0.2,0.3-0.5,0.6-0.7,0.9c-0.3,0.3-0.6,0.6-0.8,0.9
				c-0.3,0.4-0.5,0.6-0.6,0.9c-0.2,0.3-0.3,0.5-0.3,0.6C28,34.5,28,34.6,28,34.8s0.1,0.4,0.1,0.6c0.1,0.5,0.3,0.7,0.5,0.8
				s0.5,0.1,0.7,0c0.4-0.1,0.6-0.3,1-0.6c0.3-0.3,0.6-0.6,0.7-1.2C31.2,34.1,31.3,33.8,31.4,33.8z"/>
			<path fill="#FFFFFF" stroke="#FFFFFF" stroke-width="4" stroke-linejoin="round" stroke-miterlimit="10" d="M38.3,33.2
				c-0.6,0.9-1.4,1.6-2.5,1.9c-1.5,0.5-2.4,0-2.8-1.2c-0.1-0.3-0.1-0.6-0.1-1s0.1-0.7,0.2-1.1s0.3-0.7,0.5-1.1s0.4-0.6,0.6-0.8
				c-0.1-0.2-0.2-0.3-0.2-0.5c-0.1-0.3-0.1-0.6,0-1s0.3-0.6,0.5-0.9c0.2-0.3,0.5-0.6,0.8-0.8c0.4-0.3,0.7-0.5,1.1-0.6
				c1.6-0.5,2.6,0.1,3,1.7c0.1,0.2,0.1,0.6,0,1.1l-0.3,3.4c0,0.4,0,0.5,0,0.6c0,0.2,0.2,0.2,0.3,0.2c0,0,0.1-0.1,0.2-0.1
				c0.1-0.1,0.2-0.2,0.3-0.2c0.1-0.1,0.2-0.2,0.3-0.2c0.1-0.1,0.1-0.1,0.2-0.1s0.2,0,0.2,0.2c0,0.1,0,0.3-0.2,0.5
				c-0.1,0.2-0.3,0.4-0.5,0.6c-0.2,0.2-0.4,0.4-0.6,0.5c-0.2,0.1-0.4,0.2-0.5,0.3c-0.3,0.1-0.5,0-0.6-0.3
				C38.3,33.5,38.3,33.3,38.3,33.2z M36.7,28.5c-0.5,0.1-0.9,0.4-1.3,0.7c-0.4,0.4-0.6,0.8-0.8,1.3c-0.2,0.5-0.4,0.9-0.5,1.4
				c-0.1,0.5-0.1,0.9,0.1,1.3c0.1,0.5,0.3,0.8,0.6,1c0.2,0.2,0.6,0.2,1.1,0.1c0.5-0.1,0.9-0.4,1.3-0.7c0.4-0.4,0.6-0.8,0.9-1.3
				c0.2-0.5,0.4-1,0.5-1.6c0.1-0.6,0-1-0.1-1.5C38.1,28.5,37.7,28.2,36.7,28.5z M35.1,29c0.5-0.5,1.1-0.8,1.9-1
				c0.4-0.1,0.6-0.1,0.9-0.1c0.3,0,0.6,0.2,0.7,0.3c0-0.1,0-0.2,0-0.3s0-0.2,0-0.2c-0.1-0.4-0.4-0.6-0.7-0.8
				c-0.4-0.2-0.7-0.2-1.2-0.1c-0.6,0.2-1,0.5-1.3,0.9C35.1,28.1,35,28.5,35.1,29z"/>
			<path fill="#FFFFFF" stroke="#FFFFFF" stroke-width="4" stroke-linejoin="round" stroke-miterlimit="10" d="M43.5,25.5
				c0.6-1.2,1.4-1.9,2.3-2.1c1-0.3,1.8,0.2,2.1,1.5c0.1,0.4,0.2,0.7,0.2,1.3c0,0.5-0.1,1-0.2,1.5c-0.1,0.6-0.3,1-0.5,1.6
				c-0.2,0.6-0.5,1-0.7,1.5c-0.3,0.5-0.6,0.8-1,1.2c-0.4,0.4-0.8,0.6-1.3,0.6c-0.6,0.2-1.1,0.2-1.4-0.2L42.9,34
				c-0.2,1.3-0.4,2.3-0.7,3c-0.4,0.7-0.7,1.1-1.3,1.3c-0.3,0.1-0.5,0.1-0.5-0.1c-0.1-0.2,0.1-0.4,0.4-0.5c0.4-0.1,0.6-0.5,0.8-1.1
				c0.2-0.6,0.4-1.5,0.4-2.6l0.4-6.9c0-0.4,0-0.6,0-0.8s0-0.4,0-0.5s-0.1-0.2-0.2-0.1c-0.1,0-0.2,0.1-0.4,0.3
				c-0.2,0.2-0.3,0.3-0.3,0.3c-0.2,0-0.3,0-0.3-0.2c0-0.1,0-0.3,0.2-0.5c0.2-0.2,0.4-0.5,0.6-0.6s0.5-0.4,0.7-0.6
				c0.3-0.2,0.5-0.3,0.6-0.4c0.2-0.1,0.4,0,0.4,0.2c0,0.1,0,0.3,0,0.5C43.6,25.1,43.5,25.4,43.5,25.5L43.5,25.5z M45.5,24.5
				c-0.5,0.2-0.9,0.5-1.3,1c-0.4,0.6-0.6,1.1-0.7,1.8c-0.2,0.6-0.3,1.3-0.3,1.9s0,1.2,0.2,1.7c0.2,0.8,0.6,1.1,1.4,0.9
				c0.4-0.1,0.7-0.4,1.1-0.8c0.4-0.5,0.6-0.9,0.8-1.6c0.2-0.6,0.4-1.3,0.5-1.9c0.1-0.7,0-1.4-0.2-2C46.7,24.7,46.2,24.3,45.5,24.5z"
				/>
			<path fill="#FFFFFF" stroke="#FFFFFF" stroke-width="4" stroke-linejoin="round" stroke-miterlimit="10" d="M54.9,24.2
				c0.4-0.1,0.6-0.1,0.6,0.1c0,0.1,0,0.3-0.1,0.5c-0.1,0.2-0.2,0.4-0.3,0.6c-0.1,0.2-0.3,0.4-0.4,0.6c-0.1,0.2-0.3,0.3-0.4,0.3
				c-0.2,0-0.3,0-0.3-0.2c0-0.1,0-0.1,0.1-0.2s0.1-0.2,0-0.3c0-0.1-0.2-0.1-0.5,0l-4.3,1.2c-0.4,0.1-0.6,0.1-0.6-0.1
				c0-0.1,0-0.3,0.1-0.5c0.1-0.2,0.2-0.4,0.3-0.6c0.1-0.2,0.3-0.4,0.4-0.6c0.1-0.2,0.3-0.3,0.4-0.3c0.2,0,0.3,0,0.3,0.2
				c0,0,0,0.1-0.1,0.2c-0.1,0.1-0.1,0.2-0.1,0.3c0,0.1,0.2,0.1,0.5,0L54.9,24.2z"/>
			<path fill="#FFFFFF" stroke="#FFFFFF" stroke-width="4" stroke-linejoin="round" stroke-miterlimit="10" d="M38.1,47.7
				c-0.6,0.9-1.4,1.6-2.5,1.9c-1.5,0.5-2.4,0-2.8-1.2c-0.1-0.3-0.1-0.6-0.1-1c0-0.4,0.1-0.7,0.2-1.1c0.1-0.4,0.3-0.7,0.5-1.1
				c0.2-0.4,0.4-0.6,0.6-0.8c-0.1-0.2-0.2-0.3-0.2-0.5c-0.1-0.3-0.1-0.6,0-1c0.1-0.4,0.3-0.6,0.5-0.9s0.5-0.6,0.8-0.8
				c0.4-0.3,0.7-0.5,1.1-0.6c1.6-0.5,2.6,0.1,3,1.7c0.1,0.2,0.1,0.6,0,1.1l-0.1,3.3c0,0.3,0,0.5,0,0.6c0,0.2,0.2,0.2,0.3,0.2
				c0,0,0.1-0.1,0.2-0.1c0.1-0.1,0.2-0.2,0.3-0.2c0.1-0.1,0.2-0.2,0.3-0.2c0.1-0.1,0.1-0.1,0.2-0.1s0.2,0,0.2,0.2
				c0,0.1,0,0.3-0.2,0.5c-0.1,0.2-0.3,0.4-0.5,0.6c-0.2,0.2-0.4,0.4-0.6,0.5c-0.2,0.1-0.4,0.2-0.5,0.3c-0.3,0.1-0.5,0-0.6-0.3
				C38.2,48.1,38.1,47.9,38.1,47.7z M36.6,43.1c-0.5,0.1-0.9,0.4-1.3,0.7c-0.4,0.4-0.6,0.7-0.8,1.2c-0.2,0.5-0.4,0.9-0.5,1.4
				c-0.1,0.5-0.1,0.9,0.1,1.3c0.1,0.5,0.3,0.8,0.6,1c0.2,0.2,0.6,0.2,1.1,0.1c0.5-0.1,0.9-0.4,1.3-0.7s0.6-0.8,0.9-1.3
				c0.2-0.5,0.4-1,0.5-1.6s0-1-0.1-1.5C37.9,43.1,37.5,42.8,36.6,43.1z M34.9,43.6c0.5-0.5,1.1-0.8,1.8-1c0.4-0.1,0.6-0.1,0.9-0.1
				c0.3,0,0.6,0.2,0.7,0.3c0-0.1,0-0.2,0-0.3s0-0.2,0-0.2c-0.1-0.4-0.4-0.6-0.7-0.8c-0.3-0.3-0.7-0.3-1.2-0.2
				c-0.6,0.2-1,0.5-1.3,0.9C34.9,42.6,34.8,43.1,34.9,43.6z"/>
			<path fill="#FFFFFF" stroke="#FFFFFF" stroke-width="4" stroke-linejoin="round" stroke-miterlimit="10" d="M46.4,44
				c0.1,0,0.2,0,0.3,0.2c0.1,0.2,0.1,0.4,0,0.6c0,0.2-0.2,0.5-0.3,0.7c-0.3,0.4-0.6,0.7-1,1c-0.4,0.3-0.8,0.5-1.4,0.6
				c-0.5,0.2-0.9,0.1-1.3-0.1c-0.4-0.2-0.6-0.6-0.7-1c-0.1-0.4-0.1-0.6-0.1-0.9c0.1-0.3,0.1-0.6,0.3-0.9c0.1-0.3,0.3-0.6,0.5-0.8
				s0.4-0.6,0.6-0.7c0.2-0.3,0.5-0.6,0.6-0.8c0.2-0.3,0.4-0.6,0.6-0.7c0.2-0.3,0.3-0.5,0.4-0.7c0.1-0.2,0.1-0.5,0.1-0.6
				c-0.1-0.3-0.2-0.6-0.4-0.6c-0.2-0.1-0.4-0.1-0.6,0c-0.4,0.1-0.6,0.3-0.9,0.5c-0.3,0.2-0.5,0.5-0.7,0.7c-0.1,0.2-0.2,0.3-0.2,0.3
				c0,0.1-0.1,0.1-0.2,0.1c-0.1,0-0.2,0-0.3-0.2c-0.1-0.4,0.1-0.7,0.6-1.2c0.1-0.1,0.3-0.3,0.4-0.4c0.1-0.1,0.3-0.2,0.5-0.3
				c0.2-0.1,0.4-0.2,0.6-0.3c0.2-0.1,0.5-0.2,0.8-0.3c0.1,0,0.2,0,0.4,0s0.4,0,0.6,0.1c0.2,0.1,0.4,0.2,0.5,0.4
				c0.2,0.2,0.3,0.4,0.4,0.6c0.1,0.3,0.1,0.6,0,0.8c-0.1,0.3-0.3,0.6-0.5,0.9c-0.2,0.3-0.5,0.6-0.7,0.9s-0.6,0.6-0.8,0.9
				c-0.3,0.4-0.5,0.6-0.6,0.9c-0.2,0.3-0.3,0.5-0.3,0.6C43,44.7,43,44.9,43,45c0,0.2,0.1,0.4,0.1,0.6c0.1,0.5,0.3,0.7,0.5,0.8
				c0.2,0.1,0.5,0.1,0.7,0c0.4-0.1,0.6-0.3,1-0.6c0.3-0.3,0.6-0.6,0.7-1.2C46.1,44.3,46.2,44.1,46.4,44z"/>
			<path fill="#FFFFFF" stroke="#FFFFFF" stroke-width="4" stroke-linejoin="round" stroke-miterlimit="10" d="M53.3,43.4
				c-0.6,0.9-1.4,1.6-2.5,1.9c-1.5,0.5-2.4,0-2.8-1.2c-0.1-0.3-0.1-0.6-0.1-1c0-0.4,0.1-0.7,0.2-1.1c0.1-0.4,0.3-0.7,0.5-1.1
				s0.4-0.6,0.6-0.8c-0.1-0.2-0.2-0.3-0.2-0.5c-0.1-0.3-0.1-0.6,0-1c0.1-0.4,0.3-0.6,0.5-0.9c0.2-0.3,0.5-0.6,0.8-0.8
				c0.4-0.3,0.7-0.5,1.1-0.6c1.6-0.5,2.6,0.1,3,1.7c0.1,0.2,0.1,0.6,0,1.1l-0.3,3.4c0,0.4,0,0.5,0,0.6c0,0.2,0.2,0.2,0.3,0.2
				c0,0,0.1-0.1,0.2-0.1c0.1-0.1,0.2-0.2,0.3-0.2c0.1-0.1,0.2-0.2,0.3-0.2c0.1-0.1,0.1-0.1,0.2-0.1c0.1,0,0.2,0,0.2,0.2
				c0,0.1,0,0.3-0.2,0.5c-0.1,0.2-0.3,0.4-0.5,0.6c-0.2,0.2-0.4,0.4-0.6,0.5c-0.2,0.1-0.4,0.2-0.5,0.3c-0.3,0.1-0.5,0-0.6-0.3
				C53.3,43.8,53.3,43.6,53.3,43.4z M51.8,38.8c-0.5,0.1-0.9,0.4-1.3,0.7c-0.4,0.4-0.6,0.7-0.8,1.3c-0.2,0.5-0.4,0.9-0.5,1.4
				s-0.1,0.9,0.1,1.3c0.1,0.5,0.3,0.8,0.6,1c0.2,0.2,0.6,0.2,1.1,0.1c0.5-0.1,0.9-0.4,1.3-0.7c0.4-0.4,0.6-0.8,0.9-1.3
				c0.2-0.5,0.4-1,0.5-1.6c0.1-0.6,0-1-0.1-1.5C53.2,38.7,52.6,38.5,51.8,38.8z M50,39.2c0.5-0.5,1.1-0.8,1.9-1
				c0.4-0.1,0.6-0.1,0.9-0.1c0.3,0,0.5,0.2,0.7,0.3c0-0.1,0-0.2,0-0.3s0-0.2,0-0.2c-0.1-0.4-0.4-0.6-0.7-0.8
				c-0.4-0.2-0.7-0.2-1.2-0.1c-0.6,0.2-1,0.5-1.3,0.9C50,38.3,49.9,38.7,50,39.2z"/>
			<path fill="#FFFFFF" stroke="#FFFFFF" stroke-width="4" stroke-linejoin="round" stroke-miterlimit="10" d="M58.5,35.8
				c0.6-1.2,1.4-1.9,2.3-2.1c1-0.3,1.8,0.2,2.1,1.5c0.1,0.4,0.2,0.7,0.2,1.3c0,0.5-0.1,1-0.2,1.5c-0.1,0.6-0.3,1-0.5,1.6
				c-0.2,0.6-0.5,1-0.7,1.5c-0.3,0.5-0.6,0.8-1,1.2c-0.4,0.4-0.8,0.6-1.3,0.6c-0.6,0.2-1.1,0.1-1.4-0.2l-0.2,1.6
				c-0.2,1.3-0.4,2.3-0.7,3.1c-0.4,0.7-0.7,1.1-1.3,1.3c-0.3,0.1-0.5,0.1-0.5-0.1c-0.1-0.2,0.1-0.4,0.4-0.5c0.4-0.1,0.6-0.5,0.8-1.1
				c0.2-0.6,0.4-1.5,0.4-2.6l0.4-6.9c0-0.4,0-0.6,0-0.8s0-0.4,0-0.5s-0.1-0.2-0.2-0.1c-0.1,0-0.2,0.1-0.4,0.3
				c-0.1,0.2-0.3,0.3-0.3,0.3c-0.2,0-0.3,0-0.3-0.2c0-0.1,0-0.3,0.2-0.5c0.2-0.2,0.4-0.5,0.6-0.6c0.2-0.2,0.5-0.4,0.7-0.6
				c0.3-0.2,0.5-0.3,0.6-0.4c0.2-0.1,0.4,0,0.4,0.2c0,0.1,0,0.3,0,0.5C58.5,35.4,58.5,35.6,58.5,35.8L58.5,35.8z M60.5,34.8
				c-0.6,0.2-0.9,0.5-1.3,1s-0.6,1.1-0.7,1.8s-0.3,1.3-0.3,1.9c0,0.6,0,1.2,0.2,1.7c0.2,0.8,0.6,1.1,1.4,0.9
				c0.4-0.1,0.7-0.4,1.1-0.8c0.4-0.5,0.6-0.9,0.8-1.6c0.2-0.6,0.4-1.3,0.5-1.9c0.1-0.7,0-1.4-0.2-2C61.6,34.9,61.1,34.5,60.5,34.8z"
				/>
			<path fill="#FFFFFF" stroke="#FFFFFF" stroke-width="4" stroke-linejoin="round" stroke-miterlimit="10" d="M67.9,31.7
				c0.4-0.1,0.7-0.2,1.1-0.1c0.4,0.1,0.7,0.2,1,0.4c0.3,0.2,0.6,0.5,0.7,0.7c0.2,0.3,0.4,0.6,0.5,1c0.2,0.6,0.3,1.3,0.2,2
				c-0.1,0.7-0.2,1.4-0.5,2c-0.3,0.6-0.6,1.2-1.2,1.7c-0.5,0.5-1.1,0.8-1.8,1c-0.4,0.1-0.7,0.1-1.1,0.1c-0.4-0.1-0.6-0.2-0.9-0.4
				c-0.3-0.2-0.6-0.5-0.7-0.7c-0.2-0.3-0.4-0.6-0.5-1c-0.2-0.7-0.3-1.4-0.2-2.1c0.1-0.7,0.3-1.4,0.6-2c0.3-0.6,0.6-1.2,1.2-1.7
				C66.8,32.1,67.4,31.9,67.9,31.7z M67.9,32.4c-0.5,0.2-0.9,0.4-1.2,0.7c-0.4,0.4-0.6,0.8-0.7,1.3s-0.3,1-0.3,1.6s0.1,1.1,0.2,1.7
				c0.1,0.3,0.2,0.6,0.4,0.8c0.1,0.3,0.3,0.5,0.6,0.6c0.2,0.2,0.5,0.3,0.6,0.4c0.3,0.1,0.6,0.1,0.8,0c0.6-0.2,0.9-0.5,1.3-0.8
				c0.4-0.4,0.6-0.8,0.7-1.4c0.2-0.6,0.2-1,0.2-1.7c0-0.6-0.1-1.1-0.2-1.7c-0.1-0.3-0.2-0.6-0.4-0.8c-0.2-0.3-0.3-0.5-0.5-0.6
				c-0.2-0.2-0.5-0.3-0.6-0.4C68.5,32.3,68.2,32.3,67.9,32.4z"/>
			<path fill="#FFFFFF" stroke="#FFFFFF" stroke-width="4" stroke-linejoin="round" stroke-miterlimit="10" d="M76.7,29.2
				c0.4-0.1,0.7,0.3,0.9,1.3l1,3.7c0.1,0.4,0.2,0.6,0.3,0.7c0.1,0.1,0.2,0.2,0.2,0.1c0.1,0,0.3-0.5,0.5-1.2l1.2-4
				c0.2-0.6,0.4-1.1,0.6-1.5c0.2-0.4,0.5-0.6,0.8-0.7c0.3-0.1,0.4,0,0.5,0.2c0,0.1,0,0.2,0,0.3c0,0.1,0,0.3,0,0.5l0.2,4.8
				c0,0.4,0,0.6,0,0.8c0,0.2,0,0.4,0,0.4c0,0.1,0.1,0.2,0.2,0.1c0.1,0,0.2-0.1,0.4-0.3c0.2-0.2,0.3-0.3,0.3-0.3c0.2,0,0.3,0,0.3,0.2
				c0,0.1,0,0.2-0.2,0.5c-0.1,0.2-0.3,0.5-0.5,0.6c-0.2,0.2-0.4,0.4-0.6,0.6c-0.2,0.2-0.4,0.3-0.6,0.4c-0.2,0.1-0.3,0-0.4-0.2
				c0-0.1,0-0.2-0.1-0.4c0-0.2,0-0.4,0-0.5l-0.2-5.5h-0.1l-1.6,5.5c-0.2,0.6-0.3,0.9-0.5,1.2c-0.2,0.3-0.5,0.6-0.7,0.6
				c-0.1,0-0.2,0-0.4-0.2c-0.1-0.2-0.3-0.5-0.4-0.9c0-0.1-0.1-0.2-0.1-0.5c-0.1-0.3-0.1-0.6-0.2-0.8c-0.1-0.4-0.2-0.7-0.3-1.1
				c-0.1-0.4-0.2-0.7-0.3-1.1c-0.1-0.4-0.2-0.6-0.2-0.9c-0.1-0.3-0.1-0.5-0.1-0.5l0,0l-0.3,3.1c-0.1,0.7-0.2,1.3-0.3,1.9
				c-0.1,0.5-0.2,0.9-0.4,1.3c-0.2,0.4-0.4,0.6-0.6,0.8c-0.2,0.2-0.5,0.4-0.7,0.4c-0.4,0.1-0.6,0.1-0.9-0.1
				c-0.3-0.1-0.5-0.3-0.6-0.6c0-0.1,0-0.2,0-0.4c0-0.1,0.2-0.3,0.4-0.3c0.1,0,0.3,0,0.3,0c0.1,0.1,0.2,0.1,0.2,0.2
				c0.1,0.1,0.1,0.1,0.2,0.2c0.1,0.1,0.2,0.1,0.3,0c0.2,0,0.3-0.1,0.5-0.2c0.1-0.1,0.3-0.3,0.4-0.6c0.1-0.3,0.2-0.6,0.3-1.1
				c0.1-0.5,0.2-1.1,0.3-1.9l0.3-2.5c0-0.1,0-0.2,0-0.3c0-0.1,0-0.1,0-0.1c0-0.1-0.1-0.1-0.3-0.1c-0.3,0.1-0.5,0.2-0.6,0.4
				c-0.2,0.2-0.3,0.3-0.4,0.3c-0.2,0-0.3,0-0.3-0.2c0-0.1,0-0.3,0.2-0.5s0.4-0.5,0.6-0.6s0.5-0.5,0.7-0.6
				C76.4,29.4,76.6,29.3,76.7,29.2z"/>
		</g>
	</g>
	<g>
		<g>
			<g>
				<g>
					<g>
						<path fill="#EC1558" stroke="#EC1558" stroke-width="0.5" stroke-miterlimit="10" d="M19.7,13.3c0.1,0,0.3-0.1,0.4-0.2
							c0.1-0.1,0.2-0.1,0.3-0.2c0.1-0.1,0.2-0.1,0.3-0.2c0.1-0.1,0.2-0.1,0.3-0.1s0.2,0,0.2,0.2c0,0.1-0.1,0.3-0.3,0.6
							c-0.2,0.4-0.4,0.6-0.5,0.6c-0.1,0-0.3,0.1-0.6,0.1c-0.6,0-1,0.1-1.5,0.2c-0.6,0.1-1.1,0.2-1.7,0.3c-0.6,0.1-1.2,0.2-1.8,0.4
							c-0.6,0.1-1,0.2-1.5,0.3c-0.5,0.1-0.7,0.2-0.9,0.2c-0.5,0.1-0.8,0.3-1.2,0.6s-0.7,0.6-1,0.8c-0.3,0.4-0.5,0.7-0.6,1.1
							s-0.1,0.8,0,1.3c0.3,1.4,1.2,1.9,2.8,1.4c0.2,0,0.3,0,0.3,0.2s0,0.3-0.3,0.3c-1.1,0.3-1.9,0.3-2.6,0.1
							c-0.6-0.3-1.1-0.7-1.3-1.7c-0.2-0.6-0.1-1.1,0.1-1.7c0.2-0.6,0.6-1,1-1.5c0.5-0.5,1-0.8,1.6-1.1c0.6-0.3,1.2-0.6,1.9-0.7
							c0.2-0.1,0.6-0.1,0.9-0.2c0.4-0.1,0.7-0.2,1.2-0.3c0.5-0.1,0.9-0.2,1.4-0.3c0.5-0.1,0.9-0.2,1.3-0.3s0.7-0.2,1.1-0.3
							C19.4,13.4,19.6,13.3,19.7,13.3z M14.7,18c0-0.4,0-0.6,0-0.7c0-0.1-0.1-0.1-0.2-0.1c-0.1,0-0.2,0.1-0.3,0.2
							c-0.1,0.1-0.2,0.2-0.3,0.2s-0.2,0-0.2-0.1c0-0.1,0-0.2,0.2-0.3c0.1-0.2,0.3-0.4,0.4-0.5c0.2-0.2,0.4-0.4,0.5-0.5
							c0.2-0.2,0.3-0.3,0.5-0.3c0.1,0,0.2,0,0.2,0.2c0,0.1,0,0.2,0,0.4c0,0.2,0,0.4,0,0.6v1.7c0.2-0.1,0.4-0.3,0.6-0.4
							c0.2-0.1,0.5-0.2,0.7-0.3c0.4-0.1,0.7-0.2,1.1-0.1c0.4,0,0.7,0.1,1.1,0.3c0.4,0.2,0.6,0.4,0.9,0.7c0.3,0.3,0.5,0.6,0.6,1.2
							c0.2,0.6,0.2,1.1,0.1,1.8c-0.1,0.6-0.4,1.1-0.6,1.6c-0.3,0.5-0.7,0.9-1.2,1.3c-0.5,0.4-1,0.6-1.7,0.7
							c-0.7,0.2-1.4,0.3-2.1,0.3c-0.6,0-1-0.1-1,0c-0.3,0.1-0.5,0-0.5-0.1s0-0.2,0.1-0.3c0.2-0.3,0.3-0.5,0.4-0.7
							c0.1-0.3,0.2-0.6,0.2-0.9l0.3-3.6c-0.2,0.2-0.4,0.4-0.5,0.6c-0.1,0.2-0.2,0.4-0.3,0.6c-0.1,0.2-0.1,0.3-0.1,0.5
							c0,0.1,0,0.2-0.1,0.3c-0.1,0-0.1,0-0.2,0c-0.1,0-0.1,0-0.1-0.1c-0.1-0.2,0-0.4,0-0.6c0.1-0.2,0.2-0.5,0.3-0.6
							c0.1-0.2,0.3-0.5,0.5-0.6s0.4-0.4,0.5-0.5L14.7,18z M15.1,23.4c0,0.1,0,0.2,0,0.3s0,0.2-0.1,0.3c0,0.1-0.1,0.2-0.1,0.3
							c0,0.1-0.1,0.2-0.1,0.3l-0.3,0.4c0,0.1,0.4,0.2,1.1,0.2c0.4,0,0.6,0,0.9-0.1c0.3,0,0.6-0.1,0.9-0.2c0.5-0.1,0.9-0.4,1.2-0.6
							c0.4-0.3,0.6-0.6,0.8-1c0.2-0.4,0.3-0.8,0.4-1.3c0-0.5,0-1-0.2-1.5c-0.1-0.4-0.3-0.7-0.5-0.9c-0.2-0.3-0.5-0.5-0.6-0.6
							c-0.3-0.2-0.6-0.2-0.8-0.3c-0.3,0-0.6,0-0.8,0.1c-0.4,0.1-0.6,0.2-0.9,0.4c-0.3,0.1-0.5,0.3-0.6,0.6L15.1,23.4z"/>
						<path fill="#EC1558" stroke="#EC1558" stroke-width="0.5" stroke-miterlimit="10" d="M23.1,17.6c0.2,0,0.3,0,0.3,0.1
							s0,0.2,0,0.4c0,0.2,0,0.3,0,0.5L23,22.1c0,0.3,0,0.5,0,0.6c0.1,0.2,0.2,0.3,0.4,0.3c0.2-0.1,0.4-0.2,0.6-0.3
							c0.2-0.2,0.4-0.4,0.6-0.6c0.2-0.2,0.3-0.5,0.5-0.6c0.1-0.3,0.2-0.5,0.2-0.7l0.4-3.2c0-0.1,0-0.2,0-0.2c0-0.1,0-0.1,0-0.2
							c0,0,0-0.1,0.1-0.1c0,0,0.1-0.1,0.1-0.2c0.1-0.1,0.1-0.1,0.2-0.1c0.1,0,0.1-0.1,0.2-0.1s0.2,0,0.2,0.1c0,0,0,0.2,0,0.6l-0.4,4
							c0,0.2,0,0.4,0,0.5c0,0.1,0,0.2,0,0.2c0,0.1,0.1,0.2,0.2,0.1c0.1,0,0.1-0.1,0.2-0.1c0.1-0.1,0.1-0.1,0.2-0.2
							c0.1-0.1,0.1-0.1,0.2-0.2l0.1-0.1c0.1,0,0.2,0,0.2,0.1s0,0.2-0.1,0.4c-0.1,0.1-0.2,0.3-0.4,0.4c-0.2,0.1-0.3,0.3-0.5,0.4
							c-0.2,0.1-0.3,0.2-0.4,0.2c-0.2,0.1-0.3,0-0.4-0.2c0-0.1-0.1-0.3-0.1-0.4s0-0.2,0-0.4c-0.1,0.2-0.3,0.4-0.4,0.6
							c-0.2,0.2-0.4,0.4-0.6,0.6c-0.5,0.4-0.9,0.6-1.3,0.7c-0.4,0.1-0.6-0.1-0.6-0.5c-0.1-0.3-0.1-0.6-0.1-0.9l0.3-3.3
							c0-0.2,0-0.3,0-0.3c0-0.1-0.1-0.1-0.2-0.1c0,0-0.1,0-0.1,0.1c-0.1,0-0.1,0.1-0.2,0.1c-0.1,0-0.1,0.1-0.2,0.1l-0.1,0.1
							c-0.1,0-0.2,0-0.2-0.1c0-0.1,0-0.2,0.1-0.4c0.1-0.2,0.3-0.3,0.4-0.5c0.2-0.2,0.4-0.3,0.6-0.5C22.8,17.7,23,17.6,23.1,17.6z"/>
						<path fill="#EC1558" stroke="#EC1558" stroke-width="0.5" stroke-miterlimit="10" d="M32,15.7c0.2-0.3,0.5-0.5,0.6-0.6
							c0.3-0.2,0.5-0.3,0.7-0.4c0.1,0,0.2,0,0.4,0c0.2,0,0.3,0.1,0.5,0.2c0.2,0.1,0.3,0.2,0.5,0.4c0.1,0.2,0.3,0.4,0.3,0.6
							c0.1,0.5,0.2,1,0.1,1.6C35,18,34.9,18.6,34.6,19c-0.2,0.6-0.6,0.9-0.8,1.4c-0.4,0.4-0.7,0.6-1.2,0.7c-0.2,0.1-0.4,0.1-0.6,0
							c-0.2,0-0.3-0.1-0.4-0.2l-0.2,1.1C31.2,24,30.7,25,30,25.2c-0.2,0.1-0.3,0-0.3-0.1c0-0.2,0-0.3,0.3-0.3c0.1,0,0.3-0.2,0.4-0.4
							c0.1-0.2,0.2-0.5,0.3-0.7c0.1-0.3,0.1-0.6,0.2-0.8c0-0.3,0.1-0.6,0.1-0.7v-1.2c-0.5,0.6-0.9,0.8-1.4,1c-0.1,0-0.2,0-0.4,0
							c-0.2,0-0.3-0.1-0.5-0.2c-0.2-0.1-0.3-0.2-0.5-0.4c-0.2-0.2-0.3-0.4-0.3-0.6c-0.1-0.5-0.2-0.9-0.1-1.5
							c0.1-0.6,0.2-1.1,0.5-1.6c0.2-0.6,0.5-1,0.8-1.4c0.4-0.4,0.7-0.6,1.2-0.8c0.2,0,0.3-0.1,0.5,0c0.2,0,0.3,0,0.4,0.1l0.1-3.2
							c0-0.6,0-0.8,0-0.9c0-0.1-0.1-0.1-0.2-0.1c0,0-0.1,0-0.1,0.1c0,0-0.1,0.1-0.2,0.1s-0.1,0.1-0.1,0.1l-0.1,0.1
							c-0.1,0-0.2,0-0.2-0.1s0-0.2,0.1-0.4s0.3-0.3,0.4-0.5c0.2-0.2,0.4-0.3,0.6-0.4c0.2-0.1,0.4-0.2,0.5-0.3c0.2,0,0.3,0,0.3,0.1
							c0,0.1,0,1-0.1,2.8c0,0.5,0,0.8,0,1.1c0,0.3,0,0.6,0,0.7s0,0.4,0,0.5C32,15.6,32,15.7,32,15.7z M31,16.5
							c-0.1-0.3-0.2-0.5-0.4-0.5c-0.2,0-0.3-0.1-0.4,0c-0.3,0.1-0.6,0.3-0.8,0.6c-0.3,0.3-0.5,0.6-0.6,1c-0.2,0.4-0.3,0.8-0.3,1.4
							c0,0.6,0,1,0.2,1.6c0.1,0.3,0.2,0.5,0.4,0.6c0.2,0.1,0.4,0.1,0.7,0c0.3-0.1,0.5-0.2,0.6-0.5c0.2-0.2,0.3-0.5,0.4-0.7
							c0.1-0.3,0.2-0.6,0.2-1s0.1-0.6,0.1-1c0-0.3,0-0.6,0-0.8C31.1,16.9,31,16.7,31,16.5z M31.8,20.2c0.1,0.3,0.2,0.5,0.4,0.5
							s0.3,0.1,0.4,0c0.4-0.1,0.6-0.3,0.9-0.6s0.5-0.6,0.6-1.1c0.2-0.4,0.3-0.8,0.3-1.4c0-0.5,0-1-0.2-1.5c-0.1-0.3-0.2-0.5-0.4-0.6
							c-0.2-0.1-0.4-0.1-0.6,0c-0.3,0.1-0.5,0.2-0.6,0.5c-0.2,0.3-0.3,0.5-0.4,0.8c-0.1,0.3-0.2,0.6-0.2,1c-0.1,0.4-0.1,0.6-0.1,1
							c0,0.3,0,0.6,0,0.8C31.8,19.9,31.8,20.1,31.8,20.2z"/>
						<path fill="#EC1558" stroke="#EC1558" stroke-width="0.5" stroke-miterlimit="10" d="M37.4,13.6c0.2,0,0.3,0,0.3,0.1
							c0,0.1,0,0.2,0,0.4c0,0.2,0,0.3,0,0.5l-0.4,3.6c0,0.3,0,0.5,0,0.6c0.1,0.2,0.2,0.3,0.4,0.2s0.4-0.2,0.6-0.3
							c0.2-0.2,0.4-0.4,0.6-0.6c0.2-0.2,0.3-0.5,0.5-0.6c0.1-0.3,0.2-0.5,0.2-0.7l0.4-3.2c0-0.1,0-0.2,0-0.2c0-0.1,0-0.1,0-0.2
							c0,0,0-0.1,0.1-0.1c0-0.1,0.1-0.1,0.1-0.2c0.1-0.1,0.1-0.1,0.2-0.1s0.1-0.1,0.2-0.1c0.1,0,0.2,0,0.2,0.1c0,0,0,0.2,0,0.6
							l-0.4,4c0,0.2,0,0.4,0,0.5c0,0.1,0,0.2,0,0.2c0,0.1,0.1,0.2,0.2,0.1c0.1,0,0.1-0.1,0.2-0.1c0.1-0.1,0.1-0.1,0.2-0.2
							c0.1-0.1,0.1-0.1,0.2-0.2c0-0.1,0.1-0.1,0.1-0.1c0.1,0,0.2,0,0.2,0.1s0,0.2-0.1,0.3c-0.1,0.1-0.2,0.3-0.4,0.4
							c-0.2,0.1-0.3,0.3-0.5,0.4c-0.2,0.1-0.3,0.2-0.4,0.2c-0.2,0.1-0.3,0-0.4-0.2c0-0.1-0.1-0.3-0.1-0.4c0-0.1,0-0.2,0-0.4
							c-0.1,0.2-0.3,0.4-0.4,0.6c-0.2,0.2-0.4,0.4-0.6,0.6c-0.5,0.4-0.9,0.6-1.3,0.7c-0.4,0.1-0.6-0.1-0.6-0.5
							c-0.1-0.3-0.1-0.6-0.1-0.9l0.3-3.3c0-0.2,0-0.3,0-0.3c0-0.1-0.1-0.1-0.2-0.1c0,0-0.1,0-0.1,0.1c-0.1,0-0.1,0.1-0.2,0.1
							c-0.1,0-0.1,0.1-0.2,0.1l-0.1,0.1c-0.1,0-0.2,0-0.2-0.1c0-0.1,0-0.2,0.1-0.4c0.1-0.2,0.3-0.3,0.4-0.5c0.2-0.2,0.4-0.3,0.6-0.5
							C37.1,13.7,37.3,13.7,37.4,13.6z"/>
						<path fill="#EC1558" stroke="#EC1558" stroke-width="0.5" stroke-miterlimit="10" d="M46.3,11.8c0.2-0.3,0.5-0.5,0.6-0.6
							c0.3-0.2,0.5-0.3,0.7-0.4c0.1,0,0.2,0,0.4,0s0.3,0.1,0.5,0.2c0.2,0.1,0.3,0.2,0.5,0.4c0.1,0.2,0.3,0.4,0.3,0.6
							c0.1,0.5,0.2,1,0.1,1.6c-0.1,0.6-0.2,1.1-0.5,1.6c-0.2,0.6-0.6,0.9-0.8,1.4c-0.4,0.4-0.7,0.6-1.2,0.7c-0.2,0.1-0.4,0.1-0.6,0
							c-0.2,0-0.3-0.1-0.4-0.2l-0.2,1.1c-0.3,1.9-0.7,2.9-1.5,3.1c-0.2,0.1-0.3,0-0.3-0.1c0-0.2,0-0.3,0.3-0.3
							c0.1,0,0.3-0.2,0.4-0.4c0.1-0.2,0.2-0.5,0.3-0.7c0.1-0.3,0.1-0.6,0.2-0.8c0-0.3,0.1-0.6,0.1-0.7V17c-0.5,0.6-0.9,0.8-1.4,1
							c-0.1,0-0.2,0-0.4,0s-0.3-0.1-0.5-0.2c-0.2-0.1-0.3-0.2-0.5-0.4c-0.1-0.2-0.3-0.4-0.3-0.6c-0.1-0.5-0.2-0.9-0.1-1.5
							c0.1-0.6,0.2-1.1,0.5-1.7c0.2-0.6,0.5-1,0.8-1.4s0.7-0.6,1.2-0.8c0.2,0,0.3-0.1,0.5,0c0.1,0,0.3,0,0.4,0.1l0.1-3.2
							c0-0.6,0-0.8,0-0.9c0-0.1-0.1-0.1-0.2-0.1c0,0-0.1,0-0.1,0.1c0,0-0.1,0.1-0.2,0.1C45,7.4,45,7.5,45,7.5l-0.1,0.1
							c-0.1,0-0.2,0-0.2-0.1c0-0.1,0-0.2,0.1-0.4c0.1-0.2,0.3-0.3,0.4-0.5c0.2-0.2,0.4-0.3,0.6-0.4c0.2-0.1,0.4-0.2,0.5-0.3
							c0.2,0,0.3,0,0.3,0.1c0,0.1,0,1-0.1,2.9c0,0.5,0,0.8,0,1.1s0,0.6,0,0.7s0,0.4,0,0.5C46.3,11.7,46.3,11.7,46.3,11.8z
							 M45.3,12.6c-0.1-0.3-0.2-0.5-0.4-0.5s-0.3-0.1-0.4,0c-0.3,0.1-0.6,0.3-0.8,0.6c-0.3,0.3-0.5,0.6-0.6,1
							c-0.2,0.4-0.3,0.8-0.3,1.4s0,1,0.2,1.6c0.1,0.3,0.2,0.5,0.4,0.6s0.4,0.1,0.7,0c0.3-0.1,0.5-0.2,0.6-0.5
							c0.2-0.2,0.3-0.5,0.4-0.8c0.1-0.3,0.2-0.6,0.2-0.9c0-0.4,0.1-0.6,0.1-1c0-0.3,0-0.6,0-0.8C45.4,13,45.3,12.7,45.3,12.6z
							 M46.1,16.3c0.1,0.3,0.2,0.5,0.4,0.5c0.1,0,0.3,0.1,0.4,0c0.4-0.1,0.6-0.3,0.9-0.6c0.3-0.3,0.5-0.6,0.6-1.1
							c0.2-0.5,0.2-0.8,0.3-1.4c0-0.5,0-1-0.2-1.5c-0.1-0.3-0.2-0.5-0.4-0.6c-0.2-0.1-0.4-0.1-0.6,0c-0.3,0.1-0.5,0.2-0.6,0.5
							c-0.2,0.2-0.3,0.5-0.4,0.8c-0.1,0.3-0.2,0.6-0.2,1s-0.1,0.6-0.1,1c0,0.3,0,0.6,0,0.8C46.1,16,46.1,16.2,46.1,16.3z"/>
						<path fill="#EC1558" stroke="#EC1558" stroke-width="0.5" stroke-miterlimit="10" d="M52,10.7c0.5-0.8,1-1.3,1.7-1.6
							c0.7-0.2,1.3,0.2,1.5,1.1c0.1,0.3,0.1,0.6,0.1,0.9s-0.1,0.7-0.1,1.1c-0.1,0.4-0.2,0.7-0.4,1.1c-0.2,0.4-0.4,0.7-0.6,1
							c-0.2,0.3-0.5,0.6-0.7,0.8c-0.3,0.3-0.6,0.4-0.9,0.5c-0.5,0.1-0.8,0.1-1-0.2l-0.2,1.1c-0.1,0.9-0.3,1.7-0.6,2.1
							c-0.3,0.5-0.6,0.8-0.9,0.9c-0.2,0.1-0.3,0-0.3-0.1c0-0.2,0-0.3,0.3-0.3c0.3-0.1,0.5-0.3,0.6-0.7c0.2-0.5,0.3-1,0.3-1.9
							l0.3-4.9c0-0.3,0-0.5,0-0.6s0-0.3,0-0.3c0-0.1-0.1-0.1-0.2-0.1c-0.1,0-0.2,0.1-0.3,0.2c-0.1,0.1-0.2,0.2-0.2,0.2
							c-0.1,0-0.2,0-0.2-0.1c0-0.1,0-0.2,0.1-0.4c0.2,0,0.4-0.2,0.6-0.4c0.2-0.2,0.4-0.3,0.6-0.5c0.2-0.1,0.4-0.2,0.5-0.3
							c0.2,0,0.3,0,0.3,0.1c0,0.1,0,0.2,0,0.4C52,10.3,52,10.5,52,10.7L52,10.7z M53.3,10c-0.4,0.1-0.6,0.4-0.9,0.6
							c-0.3,0.4-0.5,0.7-0.6,1.2c-0.1,0.6-0.2,1-0.2,1.5s0,0.8,0.1,1.2c0.2,0.6,0.5,0.8,0.9,0.6c0.3-0.1,0.6-0.3,0.7-0.6
							c0.3-0.3,0.5-0.6,0.6-1.1c0.2-0.5,0.3-0.9,0.3-1.4c0.1-0.5,0-0.9-0.1-1.4C54.2,10,53.8,9.8,53.3,10z"/>
						<path fill="#EC1558" stroke="#EC1558" stroke-width="0.5" stroke-miterlimit="10" d="M57.8,8c0.2,0,0.3,0,0.3,0.1
							c0,0.1,0,0.2,0,0.4s0,0.3,0,0.5l-0.4,3.6c0,0.2,0,0.5,0,0.6c0.1,0.2,0.2,0.3,0.4,0.3c0.3-0.1,0.5-0.2,0.7-0.4
							c0.2-0.2,0.4-0.5,0.6-0.7c0.2-0.3,0.3-0.6,0.4-0.8c0.2-0.4,0.3-0.6,0.3-0.8L60.3,8c0-0.2,0.1-0.3,0.1-0.4
							c0-0.1,0.1-0.2,0.2-0.3c0.1-0.1,0.3-0.2,0.3-0.2c0.1,0,0.2,0,0.2,0.1c0,0,0,0.2,0,0.6l-0.4,4.4c-0.1,0.6-0.1,1.3-0.2,1.9
							c-0.1,0.6-0.2,1.1-0.4,1.6c-0.2,0.5-0.4,0.8-0.6,1.1c-0.3,0.3-0.6,0.6-1,0.6c-0.1,0-0.3,0-0.5,0.1c-0.2,0-0.4,0-0.6-0.1
							c-0.2,0-0.4-0.1-0.6-0.2s-0.3-0.2-0.3-0.4c-0.1-0.3,0-0.5,0.3-0.5c0.1,0,0.2,0,0.3,0.1s0.2,0.2,0.4,0.3
							c0.1,0.1,0.3,0.2,0.4,0.3c0.2,0.1,0.4,0.1,0.6,0c0.3-0.1,0.6-0.3,0.7-0.5c0.2-0.2,0.4-0.5,0.5-0.8c0.1-0.4,0.2-0.8,0.3-1.3
							c0.1-0.6,0.1-1.1,0.1-1.9l0,0c-0.1,0.3-0.3,0.5-0.5,0.6c-0.2,0.2-0.4,0.4-0.6,0.6c-0.2,0.2-0.4,0.3-0.6,0.4
							c-0.2,0.1-0.4,0.2-0.6,0.3c-0.4,0.1-0.6-0.1-0.6-0.5C57,13.8,57,13.5,57,13.1l0.3-3.6c0-0.1,0-0.3,0-0.3
							c0-0.1-0.1-0.1-0.2-0.1c0,0-0.1,0-0.1,0.1c-0.1,0-0.1,0.1-0.2,0.1c-0.1,0.1-0.1,0.1-0.2,0.1l-0.1,0.1c-0.1,0-0.2,0-0.2-0.1
							c0-0.1,0-0.2,0.1-0.4s0.3-0.3,0.4-0.5c0.2-0.2,0.3-0.3,0.5-0.5C57.5,8.1,57.7,8,57.8,8z"/>
						<path fill="#EC1558" stroke="#EC1558" stroke-width="0.5" stroke-miterlimit="10" d="M63.8,6.3c0.2,0,0.3,0,0.3,0.1
							c0.1,0.2,0.1,0.5,0,0.8c0.1-0.1,0.2-0.3,0.4-0.5c0.2-0.2,0.4-0.4,0.6-0.5c0.2-0.2,0.5-0.3,0.6-0.5c0.3-0.1,0.5-0.3,0.6-0.3
							c0.3-0.1,0.4,0,0.4,0.1s0,0.3,0,0.4c0.6-0.6,1.1-0.9,1.7-1.1c0.4-0.1,0.6,0.1,0.7,0.5c0.1,0.2,0.1,0.6,0,0.9l-0.4,3.3
							c0,0.3,0,0.5,0,0.5c0,0.1,0.1,0.2,0.2,0.1c0,0,0.1,0,0.2-0.1s0.1-0.1,0.2-0.2c0.1-0.1,0.1-0.1,0.2-0.2
							c0.1-0.1,0.1-0.1,0.1-0.1c0.1,0,0.1,0,0.2,0.1c0,0.1,0,0.2-0.1,0.3s-0.2,0.3-0.3,0.4c-0.1,0.1-0.3,0.3-0.5,0.4
							c-0.2,0.1-0.3,0.2-0.5,0.2c-0.2,0.1-0.4,0-0.5-0.2c0-0.1,0-0.5,0-0.9l0.4-3.2c0-0.3,0-0.5,0-0.6c0-0.2-0.2-0.2-0.5-0.2
							c-0.2,0.1-0.4,0.2-0.6,0.3c-0.2,0.2-0.4,0.4-0.6,0.6l-0.5,4.3c0,0.2-0.1,0.4-0.2,0.6s-0.2,0.3-0.4,0.4c-0.1,0-0.2,0-0.2-0.1
							c0,0,0-0.1,0-0.2c0-0.1,0-0.2,0-0.4l0.3-3.6c0.1-0.6,0.1-1,0.1-1c0-0.1-0.1-0.2-0.3-0.1c-0.2,0.1-0.6,0.3-0.9,0.6
							c-0.5,0.6-0.7,1-0.8,1.6l-0.4,3.1c0,0.2-0.1,0.4-0.2,0.6c-0.1,0.2-0.2,0.3-0.4,0.4c-0.1,0-0.2,0-0.2-0.1c0,0,0-0.1,0-0.2
							c0-0.1,0-0.2,0-0.4L63,8.7c0.1-0.6,0.1-0.8,0-0.9c0-0.1-0.1-0.1-0.2-0.1c0,0-0.1,0-0.1,0.1l-0.1,0.1l-0.1,0.1L62.4,8
							c-0.1,0-0.2,0-0.2-0.1c0-0.1,0-0.2,0.1-0.3c0.1-0.2,0.3-0.3,0.4-0.5c0.2-0.2,0.4-0.3,0.5-0.5C63.6,6.4,63.7,6.3,63.8,6.3z"/>
					</g>
				</g>
			</g>
		</g>
		<g>
			<path fill="#EC1558" stroke="#EC1558" stroke-width="0.5" stroke-miterlimit="10" d="M9.5,33.7c0.2-0.1,0.5-0.1,0.7-0.2
				c0.3,0,0.5-0.1,0.7-0.1c0.2,0,0.5,0,0.6,0.1c0.1,0.2,0.2,0.3,0.3,0.4c0.1,0.5,0,0.7-0.3,0.8c-0.3,0.1-0.6,0-0.8-0.2
				c-0.3-0.2-0.7-0.3-1.3-0.1c-0.5,0.2-0.9,0.4-1.2,0.8c-0.3,0.4-0.6,0.8-0.7,1.4c-0.2,0.5-0.3,1-0.3,1.7c0,0.6,0.1,1.1,0.2,1.6
				c0.1,0.3,0.2,0.6,0.4,0.8C8,41,8.1,41.2,8.2,41.4c0.2,0.2,0.4,0.3,0.6,0.4c0.3,0.1,0.6,0.1,0.8,0c0.2-0.1,0.4-0.1,0.6-0.3
				c0.2-0.1,0.4-0.3,0.6-0.5c0.2-0.2,0.3-0.4,0.5-0.6c0.1-0.2,0.2-0.4,0.2-0.6c0.1-0.5,0.3-0.6,0.5-0.7c0.1,0,0.2,0,0.3,0.2
				c0.1,0.2,0.1,0.5,0,0.7c-0.1,0.3-0.3,0.6-0.5,0.8c-0.2,0.3-0.5,0.6-0.8,0.8c-0.4,0.3-0.7,0.5-1.2,0.6c-0.4,0.1-0.7,0.1-1.1,0.1
				c-0.4-0.1-0.6-0.2-1-0.4c-0.3-0.2-0.6-0.5-0.7-0.7c-0.2-0.3-0.4-0.6-0.5-1c-0.2-0.6-0.3-1.2-0.2-1.9s0.3-1.4,0.6-2
				C7,35.7,7.4,35.1,8,34.6C8.4,34.2,8.9,33.9,9.5,33.7z"/>
			<path fill="#EC1558" stroke="#EC1558" stroke-width="0.5" stroke-miterlimit="10" d="M23.2,37.4c-0.6,0.9-1.4,1.6-2.5,1.9
				c-1.5,0.5-2.4,0-2.8-1.2c-0.1-0.3-0.1-0.6-0.1-1c0-0.4,0.1-0.7,0.2-1.1c0.1-0.4,0.3-0.7,0.5-1.1c0.2-0.4,0.4-0.6,0.6-0.8
				c-0.1-0.2-0.2-0.3-0.2-0.5c-0.1-0.3-0.1-0.6,0-1c0.1-0.4,0.3-0.6,0.5-0.9c0.2-0.3,0.5-0.6,0.8-0.8c0.4-0.3,0.7-0.5,1.1-0.6
				c1.6-0.5,2.6,0.1,3,1.7c0.1,0.2,0.1,0.6,0,1.1l-0.1,3.4c0,0.3,0,0.5,0,0.6c0,0.2,0.2,0.2,0.3,0.2c0,0,0.1-0.1,0.2-0.1
				c0.1-0.1,0.2-0.2,0.3-0.2c0.1-0.1,0.2-0.2,0.3-0.2c0.1-0.1,0.1-0.1,0.2-0.1s0.2,0,0.2,0.2c0,0.1,0,0.3-0.2,0.5
				c-0.1,0.2-0.3,0.4-0.5,0.6c-0.2,0.2-0.4,0.4-0.6,0.5c-0.2,0.1-0.4,0.2-0.5,0.3c-0.3,0.1-0.5,0-0.6-0.3
				C23.2,37.8,23.2,37.6,23.2,37.4z M21.6,32.8c-0.5,0.1-0.9,0.4-1.3,0.7s-0.6,0.7-0.8,1.3c-0.2,0.5-0.4,0.9-0.5,1.4
				s-0.1,0.9,0.1,1.3c0.1,0.5,0.3,0.8,0.6,1c0.2,0.2,0.6,0.2,1.1,0.1c0.5-0.1,0.9-0.4,1.3-0.7c0.4-0.4,0.6-0.8,0.9-1.3
				c0.2-0.5,0.4-1,0.5-1.6s0-1-0.1-1.5C23,32.8,22.4,32.6,21.6,32.8z M19.9,33.2c0.5-0.5,1.1-0.8,1.8-1c0.4-0.1,0.6-0.1,0.9-0.1
				s0.6,0.2,0.7,0.3c0-0.1,0-0.2,0-0.3c0-0.1,0-0.2,0-0.2c-0.1-0.4-0.4-0.6-0.7-0.8c-0.4-0.2-0.7-0.2-1.2-0.1
				c-0.6,0.2-1,0.5-1.3,0.9C19.9,32.3,19.8,32.8,19.9,33.2z"/>
			<path fill="#EC1558" stroke="#EC1558" stroke-width="0.5" stroke-miterlimit="10" d="M31.4,33.8c0.1,0,0.2,0,0.3,0.2
				c0.1,0.2,0.1,0.4,0,0.6c0,0.2-0.2,0.5-0.3,0.7c-0.3,0.4-0.6,0.7-1,1c-0.4,0.3-0.8,0.5-1.4,0.6c-0.5,0.2-0.9,0.1-1.3-0.1
				c-0.4-0.2-0.6-0.6-0.7-1c-0.1-0.4-0.1-0.6-0.1-0.9c0.1-0.3,0.1-0.6,0.3-0.9c0.1-0.3,0.3-0.6,0.5-0.8c0.2-0.3,0.4-0.6,0.6-0.7
				c0.2-0.3,0.5-0.6,0.6-0.8c0.2-0.3,0.5-0.6,0.6-0.7c0.2-0.3,0.3-0.5,0.4-0.7c0.1-0.2,0.1-0.5,0.1-0.6c-0.1-0.3-0.2-0.6-0.4-0.6
				c-0.2-0.1-0.4-0.1-0.6,0c-0.4,0.1-0.6,0.3-0.9,0.5c-0.3,0.2-0.5,0.5-0.7,0.7c-0.1,0.2-0.2,0.3-0.2,0.3c0,0.1-0.1,0.1-0.2,0.1
				c-0.1,0-0.2,0-0.3-0.2c-0.1-0.4,0.1-0.7,0.6-1.2c0.1-0.1,0.3-0.3,0.4-0.4s0.3-0.2,0.5-0.3c0.2-0.1,0.4-0.2,0.6-0.3
				c0.2-0.1,0.5-0.2,0.8-0.3c0.1,0,0.2,0,0.4,0c0.2,0,0.4,0,0.6,0.1c0.2,0.1,0.4,0.2,0.5,0.4c0.2,0.2,0.3,0.4,0.4,0.6
				c0.1,0.3,0.1,0.6,0,0.8c-0.1,0.3-0.3,0.6-0.5,0.9c-0.2,0.3-0.5,0.6-0.7,0.9c-0.3,0.3-0.6,0.6-0.8,0.9c-0.3,0.4-0.5,0.6-0.6,0.9
				c-0.2,0.3-0.3,0.5-0.3,0.6C28,34.5,28,34.6,28,34.8s0.1,0.4,0.1,0.6c0.1,0.5,0.3,0.7,0.5,0.8s0.5,0.1,0.7,0
				c0.4-0.1,0.6-0.3,1-0.6c0.3-0.3,0.6-0.6,0.7-1.2C31.2,34.1,31.3,33.8,31.4,33.8z"/>
			<path fill="#EC1558" stroke="#EC1558" stroke-width="0.5" stroke-miterlimit="10" d="M38.3,33.2c-0.6,0.9-1.4,1.6-2.5,1.9
				c-1.5,0.5-2.4,0-2.8-1.2c-0.1-0.3-0.1-0.6-0.1-1s0.1-0.7,0.2-1.1s0.3-0.7,0.5-1.1s0.4-0.6,0.6-0.8c-0.1-0.2-0.2-0.3-0.2-0.5
				c-0.1-0.3-0.1-0.6,0-1s0.3-0.6,0.5-0.9c0.2-0.3,0.5-0.6,0.8-0.8c0.4-0.3,0.7-0.5,1.1-0.6c1.6-0.5,2.6,0.1,3,1.7
				c0.1,0.2,0.1,0.6,0,1.1l-0.3,3.4c0,0.4,0,0.5,0,0.6c0,0.2,0.2,0.2,0.3,0.2c0,0,0.1-0.1,0.2-0.1c0.1-0.1,0.2-0.2,0.3-0.2
				c0.1-0.1,0.2-0.2,0.3-0.2c0.1-0.1,0.1-0.1,0.2-0.1s0.2,0,0.2,0.2c0,0.1,0,0.3-0.2,0.5c-0.1,0.2-0.3,0.4-0.5,0.6
				c-0.2,0.2-0.4,0.4-0.6,0.5c-0.2,0.1-0.4,0.2-0.5,0.3c-0.3,0.1-0.5,0-0.6-0.3C38.3,33.5,38.3,33.3,38.3,33.2z M36.7,28.5
				c-0.5,0.1-0.9,0.4-1.3,0.7c-0.4,0.4-0.6,0.8-0.8,1.3c-0.2,0.5-0.4,0.9-0.5,1.4c-0.1,0.5-0.1,0.9,0.1,1.3c0.1,0.5,0.3,0.8,0.6,1
				c0.2,0.2,0.6,0.2,1.1,0.1c0.5-0.1,0.9-0.4,1.3-0.7c0.4-0.4,0.6-0.8,0.9-1.3c0.2-0.5,0.4-1,0.5-1.6c0.1-0.6,0-1-0.1-1.5
				C38.1,28.5,37.7,28.2,36.7,28.5z M35.1,29c0.5-0.5,1.1-0.8,1.9-1c0.4-0.1,0.6-0.1,0.9-0.1c0.3,0,0.6,0.2,0.7,0.3
				c0-0.1,0-0.2,0-0.3s0-0.2,0-0.2c-0.1-0.4-0.4-0.6-0.7-0.8c-0.4-0.2-0.7-0.2-1.2-0.1c-0.6,0.2-1,0.5-1.3,0.9
				C35.1,28.1,35,28.5,35.1,29z"/>
			<path fill="#EC1558" stroke="#EC1558" stroke-width="0.5" stroke-miterlimit="10" d="M43.5,25.5c0.6-1.2,1.4-1.9,2.3-2.1
				c1-0.3,1.8,0.2,2.1,1.5c0.1,0.4,0.2,0.7,0.2,1.3c0,0.5-0.1,1-0.2,1.5c-0.1,0.6-0.3,1-0.5,1.6c-0.2,0.6-0.5,1-0.7,1.5
				c-0.3,0.5-0.6,0.8-1,1.2c-0.4,0.4-0.8,0.6-1.3,0.6c-0.6,0.2-1.1,0.2-1.4-0.2L42.9,34c-0.2,1.3-0.4,2.3-0.7,3
				c-0.4,0.7-0.7,1.1-1.3,1.3c-0.3,0.1-0.5,0.1-0.5-0.1c-0.1-0.2,0.1-0.4,0.4-0.5c0.4-0.1,0.6-0.5,0.8-1.1c0.2-0.6,0.4-1.5,0.4-2.6
				l0.4-6.9c0-0.4,0-0.6,0-0.8s0-0.4,0-0.5s-0.1-0.2-0.2-0.1c-0.1,0-0.2,0.1-0.4,0.3c-0.2,0.2-0.3,0.3-0.3,0.3c-0.2,0-0.3,0-0.3-0.2
				c0-0.1,0-0.3,0.2-0.5c0.2-0.2,0.4-0.5,0.6-0.6s0.5-0.4,0.7-0.6c0.3-0.2,0.5-0.3,0.6-0.4c0.2-0.1,0.4,0,0.4,0.2c0,0.1,0,0.3,0,0.5
				C43.6,25.1,43.5,25.4,43.5,25.5L43.5,25.5z M45.5,24.5c-0.5,0.2-0.9,0.5-1.3,1c-0.4,0.6-0.6,1.1-0.7,1.8
				c-0.2,0.6-0.3,1.3-0.3,1.9s0,1.2,0.2,1.7c0.2,0.8,0.6,1.1,1.4,0.9c0.4-0.1,0.7-0.4,1.1-0.8c0.4-0.5,0.6-0.9,0.8-1.6
				c0.2-0.6,0.4-1.3,0.5-1.9c0.1-0.7,0-1.4-0.2-2C46.7,24.7,46.2,24.3,45.5,24.5z"/>
			<path fill="#EC1558" stroke="#EC1558" stroke-width="0.5" stroke-miterlimit="10" d="M54.9,24.2c0.4-0.1,0.6-0.1,0.6,0.1
				c0,0.1,0,0.3-0.1,0.5c-0.1,0.2-0.2,0.4-0.3,0.6c-0.1,0.2-0.3,0.4-0.4,0.6c-0.1,0.2-0.3,0.3-0.4,0.3c-0.2,0-0.3,0-0.3-0.2
				c0-0.1,0-0.1,0.1-0.2s0.1-0.2,0-0.3c0-0.1-0.2-0.1-0.5,0l-4.3,1.2c-0.4,0.1-0.6,0.1-0.6-0.1c0-0.1,0-0.3,0.1-0.5
				c0.1-0.2,0.2-0.4,0.3-0.6c0.1-0.2,0.3-0.4,0.4-0.6c0.1-0.2,0.3-0.3,0.4-0.3c0.2,0,0.3,0,0.3,0.2c0,0,0,0.1-0.1,0.2
				c-0.1,0.1-0.1,0.2-0.1,0.3c0,0.1,0.2,0.1,0.5,0L54.9,24.2z"/>
			<path fill="#EC1558" stroke="#EC1558" stroke-width="0.5" stroke-miterlimit="10" d="M38.1,47.7c-0.6,0.9-1.4,1.6-2.5,1.9
				c-1.5,0.5-2.4,0-2.8-1.2c-0.1-0.3-0.1-0.6-0.1-1c0-0.4,0.1-0.7,0.2-1.1c0.1-0.4,0.3-0.7,0.5-1.1c0.2-0.4,0.4-0.6,0.6-0.8
				c-0.1-0.2-0.2-0.3-0.2-0.5c-0.1-0.3-0.1-0.6,0-1c0.1-0.4,0.3-0.6,0.5-0.9s0.5-0.6,0.8-0.8c0.4-0.3,0.7-0.5,1.1-0.6
				c1.6-0.5,2.6,0.1,3,1.7c0.1,0.2,0.1,0.6,0,1.1l-0.1,3.3c0,0.3,0,0.5,0,0.6c0,0.2,0.2,0.2,0.3,0.2c0,0,0.1-0.1,0.2-0.1
				c0.1-0.1,0.2-0.2,0.3-0.2c0.1-0.1,0.2-0.2,0.3-0.2c0.1-0.1,0.1-0.1,0.2-0.1s0.2,0,0.2,0.2c0,0.1,0,0.3-0.2,0.5
				c-0.1,0.2-0.3,0.4-0.5,0.6c-0.2,0.2-0.4,0.4-0.6,0.5c-0.2,0.1-0.4,0.2-0.5,0.3c-0.3,0.1-0.5,0-0.6-0.3
				C38.2,48.1,38.1,47.9,38.1,47.7z M36.6,43.1c-0.5,0.1-0.9,0.4-1.3,0.7c-0.4,0.4-0.6,0.7-0.8,1.2c-0.2,0.5-0.4,0.9-0.5,1.4
				c-0.1,0.5-0.1,0.9,0.1,1.3c0.1,0.5,0.3,0.8,0.6,1c0.2,0.2,0.6,0.2,1.1,0.1c0.5-0.1,0.9-0.4,1.3-0.7s0.6-0.8,0.9-1.3
				c0.2-0.5,0.4-1,0.5-1.6s0-1-0.1-1.5C37.9,43.1,37.5,42.8,36.6,43.1z M34.9,43.6c0.5-0.5,1.1-0.8,1.8-1c0.4-0.1,0.6-0.1,0.9-0.1
				c0.3,0,0.6,0.2,0.7,0.3c0-0.1,0-0.2,0-0.3s0-0.2,0-0.2c-0.1-0.4-0.4-0.6-0.7-0.8c-0.3-0.3-0.7-0.3-1.2-0.2
				c-0.6,0.2-1,0.5-1.3,0.9C34.9,42.6,34.8,43.1,34.9,43.6z"/>
			<path fill="#EC1558" stroke="#EC1558" stroke-width="0.5" stroke-miterlimit="10" d="M46.4,44c0.1,0,0.2,0,0.3,0.2
				c0.1,0.2,0.1,0.4,0,0.6c0,0.2-0.2,0.5-0.3,0.7c-0.3,0.4-0.6,0.7-1,1c-0.4,0.3-0.8,0.5-1.4,0.6c-0.5,0.2-0.9,0.1-1.3-0.1
				c-0.4-0.2-0.6-0.6-0.7-1c-0.1-0.4-0.1-0.6-0.1-0.9c0.1-0.3,0.1-0.6,0.3-0.9c0.1-0.3,0.3-0.6,0.5-0.8s0.4-0.6,0.6-0.7
				c0.2-0.3,0.5-0.6,0.6-0.8c0.2-0.3,0.4-0.6,0.6-0.7c0.2-0.3,0.3-0.5,0.4-0.7c0.1-0.2,0.1-0.5,0.1-0.6c-0.1-0.3-0.2-0.6-0.4-0.6
				c-0.2-0.1-0.4-0.1-0.6,0c-0.4,0.1-0.6,0.3-0.9,0.5c-0.3,0.2-0.5,0.5-0.7,0.7c-0.1,0.2-0.2,0.3-0.2,0.3c0,0.1-0.1,0.1-0.2,0.1
				c-0.1,0-0.2,0-0.3-0.2c-0.1-0.4,0.1-0.7,0.6-1.2c0.1-0.1,0.3-0.3,0.4-0.4c0.1-0.1,0.3-0.2,0.5-0.3c0.2-0.1,0.4-0.2,0.6-0.3
				c0.2-0.1,0.5-0.2,0.8-0.3c0.1,0,0.2,0,0.4,0s0.4,0,0.6,0.1c0.2,0.1,0.4,0.2,0.5,0.4c0.2,0.2,0.3,0.4,0.4,0.6
				c0.1,0.3,0.1,0.6,0,0.8c-0.1,0.3-0.3,0.6-0.5,0.9c-0.2,0.3-0.5,0.6-0.7,0.9s-0.6,0.6-0.8,0.9c-0.3,0.4-0.5,0.6-0.6,0.9
				c-0.2,0.3-0.3,0.5-0.3,0.6C43,44.7,43,44.9,43,45c0,0.2,0.1,0.4,0.1,0.6c0.1,0.5,0.3,0.7,0.5,0.8c0.2,0.1,0.5,0.1,0.7,0
				c0.4-0.1,0.6-0.3,1-0.6c0.3-0.3,0.6-0.6,0.7-1.2C46.1,44.3,46.2,44.1,46.4,44z"/>
			<path fill="#EC1558" stroke="#EC1558" stroke-width="0.5" stroke-miterlimit="10" d="M53.3,43.4c-0.6,0.9-1.4,1.6-2.5,1.9
				c-1.5,0.5-2.4,0-2.8-1.2c-0.1-0.3-0.1-0.6-0.1-1c0-0.4,0.1-0.7,0.2-1.1c0.1-0.4,0.3-0.7,0.5-1.1s0.4-0.6,0.6-0.8
				c-0.1-0.2-0.2-0.3-0.2-0.5c-0.1-0.3-0.1-0.6,0-1c0.1-0.4,0.3-0.6,0.5-0.9c0.2-0.3,0.5-0.6,0.8-0.8c0.4-0.3,0.7-0.5,1.1-0.6
				c1.6-0.5,2.6,0.1,3,1.7c0.1,0.2,0.1,0.6,0,1.1l-0.3,3.4c0,0.4,0,0.5,0,0.6c0,0.2,0.2,0.2,0.3,0.2c0,0,0.1-0.1,0.2-0.1
				c0.1-0.1,0.2-0.2,0.3-0.2c0.1-0.1,0.2-0.2,0.3-0.2c0.1-0.1,0.1-0.1,0.2-0.1c0.1,0,0.2,0,0.2,0.2c0,0.1,0,0.3-0.2,0.5
				c-0.1,0.2-0.3,0.4-0.5,0.6c-0.2,0.2-0.4,0.4-0.6,0.5c-0.2,0.1-0.4,0.2-0.5,0.3c-0.3,0.1-0.5,0-0.6-0.3
				C53.3,43.8,53.3,43.6,53.3,43.4z M51.8,38.8c-0.5,0.1-0.9,0.4-1.3,0.7c-0.4,0.4-0.6,0.7-0.8,1.3c-0.2,0.5-0.4,0.9-0.5,1.4
				s-0.1,0.9,0.1,1.3c0.1,0.5,0.3,0.8,0.6,1c0.2,0.2,0.6,0.2,1.1,0.1c0.5-0.1,0.9-0.4,1.3-0.7c0.4-0.4,0.6-0.8,0.9-1.3
				c0.2-0.5,0.4-1,0.5-1.6c0.1-0.6,0-1-0.1-1.5C53.2,38.7,52.6,38.5,51.8,38.8z M50,39.2c0.5-0.5,1.1-0.8,1.9-1
				c0.4-0.1,0.6-0.1,0.9-0.1c0.3,0,0.5,0.2,0.7,0.3c0-0.1,0-0.2,0-0.3s0-0.2,0-0.2c-0.1-0.4-0.4-0.6-0.7-0.8
				c-0.4-0.2-0.7-0.2-1.2-0.1c-0.6,0.2-1,0.5-1.3,0.9C50,38.3,49.9,38.7,50,39.2z"/>
			<path fill="#EC1558" stroke="#EC1558" stroke-width="0.5" stroke-miterlimit="10" d="M58.5,35.8c0.6-1.2,1.4-1.9,2.3-2.1
				c1-0.3,1.8,0.2,2.1,1.5c0.1,0.4,0.2,0.7,0.2,1.3c0,0.5-0.1,1-0.2,1.5c-0.1,0.6-0.3,1-0.5,1.6c-0.2,0.6-0.5,1-0.7,1.5
				c-0.3,0.5-0.6,0.8-1,1.2c-0.4,0.4-0.8,0.6-1.3,0.6c-0.6,0.2-1.1,0.1-1.4-0.2l-0.2,1.6c-0.2,1.3-0.4,2.3-0.7,3.1
				c-0.4,0.7-0.7,1.1-1.3,1.3c-0.3,0.1-0.5,0.1-0.5-0.1c-0.1-0.2,0.1-0.4,0.4-0.5c0.4-0.1,0.6-0.5,0.8-1.1c0.2-0.6,0.4-1.5,0.4-2.6
				l0.4-6.9c0-0.4,0-0.6,0-0.8s0-0.4,0-0.5s-0.1-0.2-0.2-0.1c-0.1,0-0.2,0.1-0.4,0.3c-0.1,0.2-0.3,0.3-0.3,0.3c-0.2,0-0.3,0-0.3-0.2
				c0-0.1,0-0.3,0.2-0.5c0.2-0.2,0.4-0.5,0.6-0.6c0.2-0.2,0.5-0.4,0.7-0.6c0.3-0.2,0.5-0.3,0.6-0.4c0.2-0.1,0.4,0,0.4,0.2
				c0,0.1,0,0.3,0,0.5C58.5,35.4,58.5,35.6,58.5,35.8L58.5,35.8z M60.5,34.8c-0.6,0.2-0.9,0.5-1.3,1s-0.6,1.1-0.7,1.8
				s-0.3,1.3-0.3,1.9c0,0.6,0,1.2,0.2,1.7c0.2,0.8,0.6,1.1,1.4,0.9c0.4-0.1,0.7-0.4,1.1-0.8c0.4-0.5,0.6-0.9,0.8-1.6
				c0.2-0.6,0.4-1.3,0.5-1.9c0.1-0.7,0-1.4-0.2-2C61.6,34.9,61.1,34.5,60.5,34.8z"/>
			<path fill="#EC1558" stroke="#EC1558" stroke-width="0.5" stroke-miterlimit="10" d="M67.9,31.7c0.4-0.1,0.7-0.2,1.1-0.1
				c0.4,0.1,0.7,0.2,1,0.4c0.3,0.2,0.6,0.5,0.7,0.7c0.2,0.3,0.4,0.6,0.5,1c0.2,0.6,0.3,1.3,0.2,2c-0.1,0.7-0.2,1.4-0.5,2
				c-0.3,0.6-0.6,1.2-1.2,1.7c-0.5,0.5-1.1,0.8-1.8,1c-0.4,0.1-0.7,0.1-1.1,0.1c-0.4-0.1-0.6-0.2-0.9-0.4c-0.3-0.2-0.6-0.5-0.7-0.7
				c-0.2-0.3-0.4-0.6-0.5-1c-0.2-0.7-0.3-1.4-0.2-2.1c0.1-0.7,0.3-1.4,0.6-2c0.3-0.6,0.6-1.2,1.2-1.7C66.8,32.1,67.4,31.9,67.9,31.7
				z M67.9,32.4c-0.5,0.2-0.9,0.4-1.2,0.7c-0.4,0.4-0.6,0.8-0.7,1.3s-0.3,1-0.3,1.6s0.1,1.1,0.2,1.7c0.1,0.3,0.2,0.6,0.4,0.8
				c0.1,0.3,0.3,0.5,0.6,0.6c0.2,0.2,0.5,0.3,0.6,0.4c0.3,0.1,0.6,0.1,0.8,0c0.6-0.2,0.9-0.5,1.3-0.8c0.4-0.4,0.6-0.8,0.7-1.4
				c0.2-0.6,0.2-1,0.2-1.7c0-0.6-0.1-1.1-0.2-1.7c-0.1-0.3-0.2-0.6-0.4-0.8c-0.2-0.3-0.3-0.5-0.5-0.6c-0.2-0.2-0.5-0.3-0.6-0.4
				C68.5,32.3,68.2,32.3,67.9,32.4z"/>
			<path fill="#EC1558" stroke="#EC1558" stroke-width="0.5" stroke-miterlimit="10" d="M76.7,29.2c0.4-0.1,0.7,0.3,0.9,1.3l1,3.7
				c0.1,0.4,0.2,0.6,0.3,0.7c0.1,0.1,0.2,0.2,0.2,0.1c0.1,0,0.3-0.5,0.5-1.2l1.2-4c0.2-0.6,0.4-1.1,0.6-1.5c0.2-0.4,0.5-0.6,0.8-0.7
				c0.3-0.1,0.4,0,0.5,0.2c0,0.1,0,0.2,0,0.3c0,0.1,0,0.3,0,0.5l0.2,4.8c0,0.4,0,0.6,0,0.8c0,0.2,0,0.4,0,0.4c0,0.1,0.1,0.2,0.2,0.1
				c0.1,0,0.2-0.1,0.4-0.3c0.2-0.2,0.3-0.3,0.3-0.3c0.2,0,0.3,0,0.3,0.2c0,0.1,0,0.2-0.2,0.5c-0.1,0.2-0.3,0.5-0.5,0.6
				c-0.2,0.2-0.4,0.4-0.6,0.6c-0.2,0.2-0.4,0.3-0.6,0.4c-0.2,0.1-0.3,0-0.4-0.2c0-0.1,0-0.2-0.1-0.4c0-0.2,0-0.4,0-0.5l-0.2-5.5
				h-0.1l-1.6,5.5c-0.2,0.6-0.3,0.9-0.5,1.2c-0.2,0.3-0.5,0.6-0.7,0.6c-0.1,0-0.2,0-0.4-0.2c-0.1-0.2-0.3-0.5-0.4-0.9
				c0-0.1-0.1-0.2-0.1-0.5c-0.1-0.3-0.1-0.6-0.2-0.8c-0.1-0.4-0.2-0.7-0.3-1.1c-0.1-0.4-0.2-0.7-0.3-1.1c-0.1-0.4-0.2-0.6-0.2-0.9
				c-0.1-0.3-0.1-0.5-0.1-0.5l0,0l-0.3,3.1c-0.1,0.7-0.2,1.3-0.3,1.9c-0.1,0.5-0.2,0.9-0.4,1.3c-0.2,0.4-0.4,0.6-0.6,0.8
				c-0.2,0.2-0.5,0.4-0.7,0.4c-0.4,0.1-0.6,0.1-0.9-0.1c-0.3-0.1-0.5-0.3-0.6-0.6c0-0.1,0-0.2,0-0.4c0-0.1,0.2-0.3,0.4-0.3
				c0.1,0,0.3,0,0.3,0c0.1,0.1,0.2,0.1,0.2,0.2c0.1,0.1,0.1,0.1,0.2,0.2c0.1,0.1,0.2,0.1,0.3,0c0.2,0,0.3-0.1,0.5-0.2
				c0.1-0.1,0.3-0.3,0.4-0.6c0.1-0.3,0.2-0.6,0.3-1.1c0.1-0.5,0.2-1.1,0.3-1.9l0.3-2.5c0-0.1,0-0.2,0-0.3c0-0.1,0-0.1,0-0.1
				c0-0.1-0.1-0.1-0.3-0.1c-0.3,0.1-0.5,0.2-0.6,0.4c-0.2,0.2-0.3,0.3-0.4,0.3c-0.2,0-0.3,0-0.3-0.2c0-0.1,0-0.3,0.2-0.5
				s0.4-0.5,0.6-0.6s0.5-0.5,0.7-0.6C76.4,29.4,76.6,29.3,76.7,29.2z"/>
		</g>
	</g>
</g>
</svg>
