<?xml version="1.0" encoding="utf-8"?>
<!-- Generator: Adobe Illustrator 17.0.0, SVG Export Plug-In . SVG Version: 6.00 Build 0)  -->
<!DOCTYPE svg PUBLIC "-//W3C//DTD SVG 1.1//EN" "http://www.w3.org/Graphics/SVG/1.1/DTD/svg11.dtd">
<svg version="1.1" id="Layer_1" xmlns="http://www.w3.org/2000/svg" xmlns:xlink="http://www.w3.org/1999/xlink" x="0px" y="0px"
	 width="90px" height="55px" viewBox="0 -0.4 90 55" enable-background="new 0 -0.4 90 55" xml:space="preserve">
<g>
	<g>
		<g>
			<g>
				<g>
					<g>
						<path fill="#FFFFFF" stroke="#FFFFFF" stroke-width="4" stroke-linejoin="round" stroke-miterlimit="10" d="M17.6,12
							c0.1,0,0.3-0.1,0.4-0.2c0.1-0.1,0.2-0.1,0.3-0.2c0.1-0.1,0.2-0.1,0.3-0.2c0.1-0.1,0.2-0.1,0.3-0.1c0.1,0,0.2,0,0.2,0.2
							c0,0.1-0.1,0.3-0.3,0.7c-0.2,0.4-0.4,0.7-0.5,0.7S18,13,17.6,13c-0.6,0-1.1,0.1-1.6,0.2c-0.6,0.1-1.2,0.2-1.8,0.3
							s-1.3,0.2-1.9,0.4c-0.6,0.1-1.1,0.2-1.6,0.3s-0.8,0.2-1,0.2c-0.5,0.1-0.9,0.3-1.3,0.6c-0.4,0.3-0.8,0.6-1.1,0.9
							c-0.3,0.4-0.5,0.8-0.6,1.2c-0.1,0.4-0.1,0.9,0,1.4C7,20,8,20.5,9.7,20c0.2,0,0.3,0,0.3,0.2s0,0.3-0.3,0.3
							c-1.2,0.3-2.1,0.3-2.8,0.1c-0.7-0.3-1.2-0.8-1.4-1.8c-0.2-0.6-0.1-1.2,0.1-1.8c0.2-0.6,0.6-1.1,1.1-1.6s1.1-0.9,1.7-1.2
							c0.7-0.3,1.3-0.6,2-0.8c0.2-0.1,0.6-0.1,1-0.2c0.4-0.1,0.8-0.2,1.3-0.3s1-0.2,1.5-0.3s1-0.2,1.4-0.3s0.8-0.2,1.2-0.3
							C17.2,12.1,17.4,12,17.6,12z M12.2,17.1c0-0.4,0-0.6,0-0.8c0-0.1-0.1-0.1-0.2-0.1c-0.1,0-0.2,0.1-0.3,0.2s-0.2,0.2-0.3,0.2
							s-0.2,0-0.2-0.1s0-0.2,0.2-0.3c0.1-0.2,0.3-0.4,0.4-0.5c0.2-0.2,0.4-0.4,0.5-0.5c0.2-0.2,0.3-0.3,0.5-0.3c0.1,0,0.2,0,0.2,0.2
							c0,0.1,0,0.2,0,0.4s0,0.4,0,0.6l0,1.8c0.2-0.1,0.4-0.3,0.6-0.4c0.2-0.1,0.5-0.2,0.8-0.3c0.4-0.1,0.8-0.2,1.2-0.1
							c0.4,0,0.8,0.1,1.2,0.3c0.4,0.2,0.7,0.4,1,0.8c0.3,0.3,0.5,0.7,0.6,1.3c0.2,0.6,0.2,1.2,0.1,1.9c-0.1,0.6-0.4,1.2-0.7,1.7
							c-0.3,0.5-0.8,1-1.3,1.4s-1.1,0.7-1.8,0.8c-0.8,0.2-1.5,0.3-2.3,0.3c-0.7,0-1.1-0.1-1.1,0c-0.3,0.1-0.5,0-0.5-0.1
							s0-0.2,0.1-0.3c0.2-0.3,0.3-0.5,0.4-0.8c0.1-0.3,0.2-0.6,0.2-1l0.3-3.9c-0.2,0.2-0.4,0.4-0.5,0.6s-0.2,0.4-0.3,0.6
							s-0.1,0.3-0.1,0.5c0,0.1,0,0.2-0.1,0.3c-0.1,0-0.1,0-0.2,0c-0.1,0-0.1,0-0.1-0.1c-0.1-0.2,0-0.4,0-0.6
							c0.1-0.2,0.2-0.5,0.3-0.7s0.3-0.5,0.5-0.7s0.4-0.4,0.5-0.5L12.2,17.1z M12.6,22.9c0,0.1,0,0.2,0,0.3c0,0.1,0,0.2-0.1,0.3
							c0,0.1-0.1,0.2-0.1,0.3c0,0.1-0.1,0.2-0.1,0.3L12,24.5c0,0.1,0.4,0.2,1.2,0.2c0.4,0,0.7,0,1-0.1c0.3,0,0.7-0.1,1-0.2
							c0.5-0.1,1-0.4,1.3-0.7c0.4-0.3,0.7-0.7,0.9-1.1c0.2-0.4,0.3-0.9,0.4-1.4c0-0.5,0-1.1-0.2-1.6c-0.1-0.4-0.3-0.8-0.5-1
							c-0.2-0.3-0.5-0.5-0.7-0.7c-0.3-0.2-0.6-0.2-0.9-0.3c-0.3,0-0.6,0-0.9,0.1c-0.4,0.1-0.7,0.2-1,0.4c-0.3,0.1-0.5,0.3-0.7,0.6
							L12.6,22.9z"/>
						<path fill="#FFFFFF" stroke="#FFFFFF" stroke-width="4" stroke-linejoin="round" stroke-miterlimit="10" d="M21.2,16.6
							c0.2,0,0.3,0,0.3,0.1s0,0.2,0,0.4c0,0.2,0,0.3,0,0.5l-0.4,3.9c0,0.3,0,0.5,0,0.7c0.1,0.2,0.2,0.3,0.4,0.3
							c0.2-0.1,0.4-0.2,0.7-0.3c0.2-0.2,0.4-0.4,0.6-0.6s0.3-0.5,0.5-0.7c0.1-0.3,0.2-0.5,0.2-0.8l0.4-3.4c0-0.1,0-0.2,0-0.2
							c0-0.1,0-0.1,0-0.2c0,0,0-0.1,0.1-0.1c0,0,0.1-0.1,0.1-0.2c0.1-0.1,0.1-0.1,0.2-0.1s0.1-0.1,0.2-0.1s0.2,0,0.2,0.1
							c0,0,0,0.2,0,0.6l-0.4,4.3c0,0.2,0,0.4,0,0.5s0,0.2,0,0.2c0,0.1,0.1,0.2,0.2,0.1c0.1,0,0.1-0.1,0.2-0.1
							c0.1-0.1,0.1-0.1,0.2-0.2s0.1-0.1,0.2-0.2l0.1-0.1c0.1,0,0.2,0,0.2,0.1s0,0.2-0.1,0.4c-0.1,0.1-0.2,0.3-0.4,0.4
							c-0.2,0.1-0.3,0.3-0.5,0.4s-0.3,0.2-0.4,0.2c-0.2,0.1-0.3,0-0.4-0.2c0-0.1-0.1-0.3-0.1-0.4s0-0.2,0-0.4
							c-0.1,0.2-0.3,0.4-0.4,0.6c-0.2,0.2-0.4,0.4-0.6,0.6c-0.5,0.4-1,0.7-1.4,0.8c-0.4,0.1-0.6-0.1-0.7-0.5c-0.1-0.3-0.1-0.6-0.1-1
							l0.3-3.6c0-0.2,0-0.3,0-0.3c0-0.1-0.1-0.1-0.2-0.1c0,0-0.1,0-0.1,0.1c-0.1,0-0.1,0.1-0.2,0.1s-0.1,0.1-0.2,0.1l-0.1,0.1
							c-0.1,0-0.2,0-0.2-0.1s0-0.2,0.1-0.4c0.1-0.2,0.3-0.3,0.4-0.5c0.2-0.2,0.4-0.3,0.6-0.5C20.9,16.7,21.1,16.6,21.2,16.6z"/>
						<path fill="#FFFFFF" stroke="#FFFFFF" stroke-width="4" stroke-linejoin="round" stroke-miterlimit="10" d="M30.8,14.6
							c0.2-0.3,0.5-0.5,0.7-0.7c0.3-0.2,0.5-0.3,0.8-0.4c0.1,0,0.2,0,0.4,0s0.3,0.1,0.5,0.2c0.2,0.1,0.3,0.2,0.5,0.4
							c0.1,0.2,0.3,0.4,0.3,0.7c0.1,0.5,0.2,1.1,0.1,1.7c-0.1,0.6-0.2,1.2-0.5,1.7c-0.2,0.6-0.6,1-0.9,1.5c-0.4,0.4-0.8,0.7-1.3,0.8
							c-0.2,0.1-0.4,0.1-0.6,0c-0.2,0-0.3-0.1-0.4-0.2l-0.2,1.2c-0.3,2-0.8,3.1-1.6,3.3c-0.2,0.1-0.3,0-0.3-0.1c0-0.2,0-0.3,0.3-0.3
							c0.1,0,0.3-0.2,0.4-0.4c0.1-0.2,0.2-0.5,0.3-0.8c0.1-0.3,0.1-0.6,0.2-0.9c0-0.3,0.1-0.6,0.1-0.8v-1.3c-0.5,0.6-1,0.9-1.5,1.1
							c-0.1,0-0.2,0-0.4,0c-0.2,0-0.3-0.1-0.5-0.2s-0.3-0.2-0.5-0.4c-0.2-0.2-0.3-0.4-0.3-0.7c-0.1-0.5-0.2-1-0.1-1.6
							s0.2-1.2,0.5-1.7c0.2-0.6,0.5-1.1,0.9-1.5s0.8-0.7,1.3-0.9c0.2,0,0.3-0.1,0.5,0c0.2,0,0.3,0,0.4,0.1l0.1-3.5c0-0.6,0-0.9,0-1
							s-0.1-0.1-0.2-0.1c0,0-0.1,0-0.1,0.1c0,0-0.1,0.1-0.2,0.1s-0.1,0.1-0.1,0.1l-0.1,0.1c-0.1,0-0.2,0-0.2-0.1s0-0.2,0.1-0.4
							s0.3-0.3,0.4-0.5C29.8,9,30,8.9,30.2,8.8c0.2-0.1,0.4-0.2,0.5-0.3c0.2,0,0.3,0,0.3,0.1s0,1.1-0.1,3c0,0.5,0,0.9,0,1.2
							s0,0.6,0,0.8s0,0.4,0,0.5C30.8,14.5,30.8,14.6,30.8,14.6z M29.7,15.5c-0.1-0.3-0.2-0.5-0.4-0.5c-0.2,0-0.3-0.1-0.4,0
							c-0.3,0.1-0.6,0.3-0.9,0.6s-0.5,0.7-0.7,1.1S27,17.6,27,18.2s0,1.1,0.2,1.7c0.1,0.3,0.2,0.5,0.4,0.6c0.2,0.1,0.4,0.1,0.8,0
							c0.3-0.1,0.5-0.2,0.7-0.5c0.2-0.2,0.3-0.5,0.4-0.8s0.2-0.7,0.2-1.1s0.1-0.7,0.1-1.1c0-0.3,0-0.7,0-0.9
							C29.8,15.9,29.7,15.7,29.7,15.5z M30.6,19.4c0.1,0.3,0.2,0.5,0.4,0.5c0.2,0,0.3,0.1,0.4,0c0.4-0.1,0.7-0.3,1-0.6
							c0.3-0.3,0.5-0.7,0.7-1.2c0.2-0.4,0.3-0.9,0.3-1.5c0-0.5,0-1.1-0.2-1.6c-0.1-0.3-0.2-0.5-0.4-0.6s-0.4-0.1-0.7,0
							s-0.5,0.2-0.7,0.5s-0.3,0.5-0.4,0.9c-0.1,0.3-0.2,0.7-0.2,1.1c-0.1,0.4-0.1,0.7-0.1,1.1c0,0.3,0,0.7,0,0.9
							C30.6,19.1,30.6,19.3,30.6,19.4z"/>
						<path fill="#FFFFFF" stroke="#FFFFFF" stroke-width="4" stroke-linejoin="round" stroke-miterlimit="10" d="M36.6,12.3
							c0.2,0,0.3,0,0.3,0.1s0,0.2,0,0.4s0,0.3,0,0.5l-0.4,3.9c0,0.3,0,0.5,0,0.7c0.1,0.2,0.2,0.3,0.4,0.2c0.2-0.1,0.4-0.2,0.7-0.3
							c0.2-0.2,0.4-0.4,0.6-0.6c0.2-0.2,0.3-0.5,0.5-0.7c0.1-0.3,0.2-0.5,0.2-0.8l0.4-3.4c0-0.1,0-0.2,0-0.2c0-0.1,0-0.1,0-0.2
							c0,0,0-0.1,0.1-0.1c0-0.1,0.1-0.1,0.1-0.2c0.1-0.1,0.1-0.1,0.2-0.1c0.1,0,0.1-0.1,0.2-0.1c0.1,0,0.2,0,0.2,0.1
							c0,0,0,0.2,0,0.6l-0.4,4.3c0,0.2,0,0.4,0,0.5s0,0.2,0,0.2c0,0.1,0.1,0.2,0.2,0.1c0.1,0,0.1-0.1,0.2-0.1
							c0.1-0.1,0.1-0.1,0.2-0.2c0.1-0.1,0.1-0.1,0.2-0.2c0-0.1,0.1-0.1,0.1-0.1c0.1,0,0.2,0,0.2,0.1s0,0.2-0.1,0.3
							c-0.1,0.1-0.2,0.3-0.4,0.4s-0.3,0.3-0.5,0.4S39.5,18,39.4,18c-0.2,0.1-0.3,0-0.4-0.2c0-0.1-0.1-0.3-0.1-0.4s0-0.2,0-0.4
							c-0.1,0.2-0.3,0.4-0.4,0.6c-0.2,0.2-0.4,0.4-0.6,0.6c-0.5,0.4-1,0.7-1.4,0.8c-0.4,0.1-0.6-0.1-0.7-0.5c-0.1-0.3-0.1-0.6-0.1-1
							l0.3-3.6c0-0.2,0-0.3,0-0.3c0-0.1-0.1-0.1-0.2-0.1c0,0-0.1,0-0.1,0.1c-0.1,0-0.1,0.1-0.2,0.1c-0.1,0-0.1,0.1-0.2,0.1l-0.1,0.1
							c-0.1,0-0.2,0-0.2-0.1s0-0.2,0.1-0.4s0.3-0.3,0.4-0.5c0.2-0.2,0.4-0.3,0.6-0.5C36.3,12.4,36.5,12.4,36.6,12.3z"/>
						<path fill="#FFFFFF" stroke="#FFFFFF" stroke-width="4" stroke-linejoin="round" stroke-miterlimit="10" d="M46.2,10.4
							c0.2-0.3,0.5-0.5,0.7-0.7c0.3-0.2,0.5-0.3,0.8-0.4c0.1,0,0.2,0,0.4,0s0.3,0.1,0.5,0.2c0.2,0.1,0.3,0.2,0.5,0.4
							c0.1,0.2,0.3,0.4,0.3,0.7c0.1,0.5,0.2,1.1,0.1,1.7c-0.1,0.6-0.2,1.2-0.5,1.7c-0.2,0.6-0.6,1-0.9,1.5c-0.4,0.4-0.8,0.7-1.3,0.8
							c-0.2,0.1-0.4,0.1-0.6,0c-0.2,0-0.3-0.1-0.4-0.2l-0.2,1.2c-0.3,2-0.8,3.1-1.6,3.3c-0.2,0.1-0.3,0-0.3-0.1c0-0.2,0-0.3,0.3-0.3
							c0.1,0,0.3-0.2,0.4-0.4c0.1-0.2,0.2-0.5,0.3-0.8s0.1-0.6,0.2-0.9c0-0.3,0.1-0.6,0.1-0.8V16c-0.5,0.6-1,0.9-1.5,1.1
							c-0.1,0-0.2,0-0.4,0s-0.3-0.1-0.5-0.2s-0.3-0.2-0.5-0.4c-0.1-0.2-0.3-0.4-0.3-0.7c-0.1-0.5-0.2-1-0.1-1.6
							c0.1-0.6,0.2-1.2,0.5-1.8c0.2-0.6,0.5-1.1,0.9-1.5s0.8-0.7,1.3-0.9c0.2,0,0.3-0.1,0.5,0c0.1,0,0.3,0,0.4,0.1l0.1-3.5
							c0-0.6,0-0.9,0-1s-0.1-0.1-0.2-0.1c0,0-0.1,0-0.1,0.1c0,0-0.1,0.1-0.2,0.1c-0.1,0-0.1,0.1-0.1,0.1l-0.1,0.1
							c-0.1,0-0.2,0-0.2-0.1s0-0.2,0.1-0.4c0.1-0.2,0.3-0.3,0.4-0.5c0.2-0.2,0.4-0.3,0.6-0.4c0.2-0.1,0.4-0.2,0.5-0.3
							c0.2,0,0.3,0,0.3,0.1s0,1.1-0.1,3.1c0,0.5,0,0.9,0,1.2s0,0.6,0,0.8s0,0.4,0,0.5C46.2,10.3,46.2,10.3,46.2,10.4z M45.1,11.3
							c-0.1-0.3-0.2-0.5-0.4-0.5s-0.3-0.1-0.4,0c-0.3,0.1-0.6,0.3-0.9,0.6c-0.3,0.3-0.5,0.7-0.7,1.1c-0.2,0.4-0.3,0.9-0.3,1.5
							s0,1.1,0.2,1.7c0.1,0.3,0.2,0.5,0.4,0.6s0.4,0.1,0.8,0c0.3-0.1,0.5-0.2,0.7-0.5c0.2-0.2,0.3-0.5,0.4-0.9
							c0.1-0.3,0.2-0.7,0.2-1c0-0.4,0.1-0.7,0.1-1.1c0-0.3,0-0.7,0-0.9C45.2,11.7,45.1,11.4,45.1,11.3z M46,15.2
							c0.1,0.3,0.2,0.5,0.4,0.5c0.1,0,0.3,0.1,0.4,0c0.4-0.1,0.7-0.3,1-0.6s0.5-0.7,0.7-1.2s0.2-0.9,0.3-1.5c0-0.5,0-1.1-0.2-1.6
							c-0.1-0.3-0.2-0.5-0.4-0.6s-0.4-0.1-0.7,0s-0.5,0.2-0.7,0.5c-0.2,0.2-0.3,0.5-0.4,0.9c-0.1,0.3-0.2,0.7-0.2,1.1
							c0,0.4-0.1,0.7-0.1,1.1c0,0.3,0,0.7,0,0.9C46,14.9,46,15.1,46,15.2z"/>
						<path fill="#FFFFFF" stroke="#FFFFFF" stroke-width="4" stroke-linejoin="round" stroke-miterlimit="10" d="M52.3,9.2
							c0.5-0.9,1.1-1.4,1.8-1.7c0.8-0.2,1.4,0.2,1.6,1.2c0.1,0.3,0.1,0.6,0.1,1s-0.1,0.8-0.1,1.2c-0.1,0.4-0.2,0.8-0.4,1.2
							s-0.4,0.8-0.6,1.1c-0.2,0.3-0.5,0.6-0.8,0.9c-0.3,0.3-0.6,0.4-1,0.5c-0.5,0.1-0.9,0.1-1.1-0.2l-0.2,1.2
							c-0.1,1-0.3,1.8-0.6,2.3s-0.6,0.9-1,1c-0.2,0.1-0.3,0-0.3-0.1c0-0.2,0-0.3,0.3-0.3c0.3-0.1,0.5-0.3,0.6-0.8
							c0.2-0.5,0.3-1.1,0.3-2l0.3-5.3c0-0.3,0-0.5,0-0.7s0-0.3,0-0.3c0-0.1-0.1-0.1-0.2-0.1c-0.1,0-0.2,0.1-0.3,0.2
							c-0.1,0.1-0.2,0.2-0.2,0.2c-0.1,0-0.2,0-0.2-0.1s0-0.2,0.1-0.4c0.2,0,0.4-0.2,0.6-0.4s0.4-0.3,0.6-0.5C51.8,8.2,52,8.1,52.1,8
							c0.2,0,0.3,0,0.3,0.1s0,0.2,0,0.4C52.3,8.8,52.3,9,52.3,9.2L52.3,9.2z M53.8,8.4c-0.4,0.1-0.7,0.4-1,0.7
							c-0.3,0.4-0.5,0.8-0.6,1.3C52.1,11,52,11.5,52,12s0,0.9,0.1,1.3c0.2,0.6,0.5,0.9,1,0.7c0.3-0.1,0.6-0.3,0.8-0.6
							c0.3-0.3,0.5-0.7,0.7-1.2s0.3-1,0.3-1.5c0.1-0.5,0-1-0.1-1.5C54.7,8.5,54.3,8.2,53.8,8.4z"/>
						<path fill="#FFFFFF" stroke="#FFFFFF" stroke-width="4" stroke-linejoin="round" stroke-miterlimit="10" d="M58.6,6.3
							c0.2,0,0.3,0,0.3,0.1s0,0.2,0,0.4c0,0.2,0,0.3,0,0.5l-0.4,3.9c0,0.2,0,0.5,0,0.7c0.1,0.2,0.2,0.3,0.4,0.3
							c0.3-0.1,0.5-0.2,0.8-0.4c0.2-0.2,0.4-0.5,0.6-0.8c0.2-0.3,0.3-0.6,0.4-0.9C60.9,9.7,61,9.4,61,9.2l0.3-2.9
							c0-0.2,0.1-0.3,0.1-0.4s0.1-0.2,0.2-0.3c0.1-0.1,0.3-0.2,0.3-0.2c0.1,0,0.2,0,0.2,0.1c0,0,0,0.2,0,0.6l-0.4,4.7
							c-0.1,0.7-0.1,1.4-0.2,2.1c-0.1,0.6-0.2,1.2-0.4,1.7s-0.4,0.9-0.7,1.2c-0.3,0.3-0.7,0.6-1.1,0.7c-0.1,0-0.3,0-0.5,0.1
							c-0.2,0-0.4,0-0.6-0.1c-0.2,0-0.4-0.1-0.6-0.2c-0.2-0.1-0.3-0.2-0.3-0.4c-0.1-0.3,0-0.5,0.3-0.5c0.1,0,0.2,0,0.3,0.1
							s0.2,0.2,0.4,0.3c0.1,0.1,0.3,0.2,0.4,0.3c0.2,0.1,0.4,0.1,0.6,0c0.3-0.1,0.6-0.3,0.8-0.5s0.4-0.5,0.5-0.9s0.2-0.9,0.3-1.4
							c0.1-0.6,0.1-1.2,0.1-2l0,0c-0.1,0.3-0.3,0.5-0.5,0.7s-0.4,0.4-0.6,0.6c-0.2,0.2-0.4,0.3-0.7,0.4c-0.2,0.1-0.4,0.2-0.7,0.3
							c-0.4,0.1-0.6-0.1-0.7-0.5c-0.1-0.3-0.1-0.6-0.1-1L58,7.9c0-0.1,0-0.3,0-0.3c0-0.1-0.1-0.1-0.2-0.1c0,0-0.1,0-0.1,0.1
							c-0.1,0-0.1,0.1-0.2,0.1c-0.1,0.1-0.1,0.1-0.2,0.1l-0.1,0.1c-0.1,0-0.2,0-0.2-0.1s0-0.2,0.1-0.4c0.1-0.2,0.3-0.3,0.4-0.5
							c0.2-0.2,0.3-0.3,0.5-0.5C58.3,6.4,58.5,6.3,58.6,6.3z"/>
						<path fill="#FFFFFF" stroke="#FFFFFF" stroke-width="4" stroke-linejoin="round" stroke-miterlimit="10" d="M65.1,4.5
							c0.2,0,0.3,0,0.3,0.1c0.1,0.2,0.1,0.5,0,0.9c0.1-0.1,0.2-0.3,0.4-0.5c0.2-0.2,0.4-0.4,0.6-0.5c0.2-0.2,0.5-0.3,0.7-0.5
							c0.3-0.1,0.5-0.3,0.7-0.3c0.3-0.1,0.4,0,0.4,0.1s0,0.3,0,0.4c0.6-0.6,1.2-1,1.8-1.2c0.4-0.1,0.6,0.1,0.8,0.5
							c0.1,0.2,0.1,0.6,0,1l-0.4,3.6c0,0.3,0,0.5,0,0.5c0,0.1,0.1,0.2,0.2,0.1c0,0,0.1,0,0.2-0.1s0.1-0.1,0.2-0.2
							c0.1-0.1,0.1-0.1,0.2-0.2c0.1-0.1,0.1-0.1,0.1-0.1c0.1,0,0.1,0,0.2,0.1c0,0.1,0,0.2-0.1,0.3s-0.2,0.3-0.3,0.4
							C71,9,70.8,9.2,70.6,9.3c-0.2,0.1-0.3,0.2-0.5,0.2c-0.2,0.1-0.4,0-0.5-0.2c0-0.1,0-0.5,0-1L70,4.9c0-0.3,0-0.5,0-0.7
							C70,4,69.8,4,69.5,4c-0.2,0.1-0.4,0.2-0.6,0.3c-0.2,0.2-0.4,0.4-0.7,0.7l-0.5,4.6c0,0.2-0.1,0.4-0.2,0.6
							c-0.1,0.2-0.2,0.3-0.4,0.4c-0.1,0-0.2,0-0.2-0.1c0,0,0-0.1,0-0.2c0-0.1,0-0.2,0-0.4L67.2,6c0.1-0.7,0.1-1.1,0.1-1.1
							c0-0.1-0.1-0.2-0.3-0.1c-0.2,0.1-0.6,0.3-1,0.7c-0.5,0.6-0.8,1.1-0.9,1.7l-0.4,3.3c0,0.2-0.1,0.4-0.2,0.6
							c-0.1,0.2-0.2,0.3-0.4,0.4c-0.1,0-0.2,0-0.2-0.1c0,0,0-0.1,0-0.2c0-0.1,0-0.2,0-0.4L64.2,7c0.1-0.6,0.1-0.9,0-1
							c0-0.1-0.1-0.1-0.2-0.1c0,0-0.1,0-0.1,0.1l-0.1,0.1l-0.1,0.1l-0.1,0.1c-0.1,0-0.2,0-0.2-0.1s0-0.2,0.1-0.3
							c0.1-0.2,0.3-0.3,0.4-0.5c0.2-0.2,0.4-0.3,0.5-0.5C64.8,4.6,65,4.5,65.1,4.5z"/>
					</g>
				</g>
			</g>
		</g>
		<g>
			<path fill="#FFFFFF" stroke="#FFFFFF" stroke-width="4" stroke-linejoin="round" stroke-miterlimit="10" d="M6.6,34
				c0.2-0.1,0.5-0.1,0.8-0.2c0.3,0,0.5-0.1,0.8-0.1c0.2,0,0.5,0,0.6,0.1C8.9,34,9,34.1,9.1,34.2c0.1,0.5,0,0.8-0.3,0.9
				c-0.3,0.1-0.6,0-0.9-0.2c-0.3-0.2-0.8-0.3-1.4-0.1c-0.5,0.2-1,0.4-1.3,0.9c-0.3,0.4-0.6,0.9-0.8,1.5c-0.2,0.5-0.3,1.1-0.3,1.8
				c0,0.6,0.1,1.2,0.2,1.7c0.1,0.3,0.2,0.6,0.4,0.9c0.2,0.3,0.3,0.5,0.5,0.7s0.4,0.3,0.7,0.4c0.3,0.1,0.6,0.1,0.9,0
				c0.2-0.1,0.4-0.1,0.6-0.3c0.2-0.1,0.4-0.3,0.6-0.5s0.3-0.4,0.5-0.6c0.1-0.2,0.2-0.4,0.2-0.6C8.8,40.2,9,40,9.2,39.9
				c0.1,0,0.2,0,0.3,0.2s0.1,0.5,0,0.8S9.2,41.5,9,41.8c-0.2,0.3-0.5,0.6-0.9,0.9c-0.4,0.3-0.8,0.5-1.3,0.6
				c-0.4,0.1-0.8,0.1-1.2,0.1c-0.4-0.1-0.7-0.2-1.1-0.4c-0.3-0.2-0.6-0.5-0.8-0.8s-0.4-0.7-0.5-1.1C3,40.5,2.9,39.8,3,39
				s0.3-1.5,0.6-2.2s0.7-1.3,1.3-1.8C5.4,34.5,5.9,34.2,6.6,34z"/>
			<path fill="#FFFFFF" stroke="#FFFFFF" stroke-width="4" stroke-linejoin="round" stroke-miterlimit="10" d="M21.3,38
				c-0.6,1-1.5,1.7-2.7,2.1c-1.6,0.5-2.6,0-3-1.3c-0.1-0.3-0.1-0.7-0.1-1.1c0-0.4,0.1-0.8,0.2-1.2c0.1-0.4,0.3-0.8,0.5-1.2
				c0.2-0.4,0.4-0.7,0.7-0.9c-0.1-0.2-0.2-0.3-0.2-0.5c-0.1-0.3-0.1-0.7,0-1.1c0.1-0.4,0.3-0.7,0.5-1s0.5-0.6,0.9-0.9
				s0.8-0.5,1.2-0.6c1.7-0.5,2.8,0.1,3.2,1.8c0.1,0.2,0.1,0.6,0,1.2L22.4,37c0,0.3,0,0.5,0,0.6c0,0.2,0.2,0.2,0.3,0.2
				c0,0,0.1-0.1,0.2-0.1c0.1-0.1,0.2-0.2,0.3-0.2c0.1-0.1,0.2-0.2,0.3-0.2c0.1-0.1,0.1-0.1,0.2-0.1s0.2,0,0.2,0.2
				c0,0.1,0,0.3-0.2,0.5c-0.1,0.2-0.3,0.4-0.5,0.6c-0.2,0.2-0.4,0.4-0.7,0.5c-0.2,0.1-0.4,0.2-0.5,0.3c-0.3,0.1-0.5,0-0.6-0.3
				C21.3,38.4,21.3,38.2,21.3,38z M19.6,33c-0.5,0.1-1,0.4-1.4,0.8c-0.4,0.4-0.7,0.8-0.9,1.4c-0.2,0.5-0.4,1-0.5,1.5s-0.1,1,0.1,1.4
				c0.1,0.5,0.3,0.9,0.6,1.1c0.2,0.2,0.6,0.2,1.2,0.1c0.5-0.1,1-0.4,1.4-0.8c0.4-0.4,0.7-0.9,1-1.4c0.2-0.5,0.4-1.1,0.5-1.7
				c0.1-0.6,0-1.1-0.1-1.6C21.1,33,20.5,32.8,19.6,33z M17.8,33.5c0.5-0.5,1.2-0.9,1.9-1.1c0.4-0.1,0.7-0.1,1-0.1s0.6,0.2,0.8,0.3
				c0-0.1,0-0.2,0-0.3s0-0.2,0-0.2c-0.1-0.4-0.4-0.7-0.8-0.9c-0.4-0.2-0.8-0.2-1.3-0.1c-0.6,0.2-1.1,0.5-1.4,1
				C17.8,32.5,17.7,33,17.8,33.5z"/>
			<path fill="#FFFFFF" stroke="#FFFFFF" stroke-width="4" stroke-linejoin="round" stroke-miterlimit="10" d="M30.1,34.1
				c0.1,0,0.2,0,0.3,0.2c0.1,0.2,0.1,0.4,0,0.7c0,0.2-0.2,0.5-0.3,0.8c-0.3,0.4-0.6,0.8-1.1,1.1c-0.4,0.3-0.9,0.5-1.5,0.7
				c-0.5,0.2-1,0.1-1.4-0.1c-0.4-0.2-0.7-0.6-0.8-1.1c-0.1-0.4-0.1-0.7-0.1-1c0.1-0.3,0.1-0.7,0.3-1c0.1-0.3,0.3-0.6,0.5-0.9
				c0.2-0.3,0.4-0.6,0.6-0.8c0.2-0.3,0.5-0.6,0.7-0.9c0.2-0.3,0.5-0.6,0.6-0.8c0.2-0.3,0.3-0.5,0.4-0.8c0.1-0.2,0.1-0.5,0.1-0.7
				c-0.1-0.3-0.2-0.6-0.4-0.6c-0.2-0.1-0.4-0.1-0.7,0c-0.4,0.1-0.7,0.3-1,0.5s-0.5,0.5-0.8,0.8c-0.1,0.2-0.2,0.3-0.2,0.3
				c0,0.1-0.1,0.1-0.2,0.1s-0.2,0-0.3-0.2c-0.1-0.4,0.1-0.8,0.7-1.3c0.1-0.1,0.3-0.3,0.4-0.4s0.3-0.2,0.5-0.3
				c0.2-0.1,0.4-0.2,0.6-0.3c0.2-0.1,0.5-0.2,0.9-0.3c0.1,0,0.2,0,0.4,0c0.2,0,0.4,0,0.6,0.1s0.4,0.2,0.5,0.4
				c0.2,0.2,0.3,0.4,0.4,0.7c0.1,0.3,0.1,0.6,0,0.9s-0.3,0.6-0.5,1c-0.2,0.3-0.5,0.7-0.8,1c-0.3,0.3-0.6,0.7-0.9,1
				c-0.3,0.4-0.5,0.7-0.7,1s-0.3,0.5-0.3,0.7c-0.1,0.2-0.1,0.4-0.1,0.6c0,0.2,0.1,0.4,0.1,0.6c0.1,0.5,0.3,0.8,0.5,0.9
				c0.2,0.1,0.5,0.1,0.8,0c0.4-0.1,0.7-0.3,1.1-0.6c0.3-0.3,0.6-0.7,0.8-1.3C29.9,34.4,30,34.1,30.1,34.1z"/>
			<path fill="#FFFFFF" stroke="#FFFFFF" stroke-width="4" stroke-linejoin="round" stroke-miterlimit="10" d="M37.6,33.4
				c-0.6,1-1.5,1.7-2.7,2.1c-1.6,0.5-2.6,0-3-1.3c-0.1-0.3-0.1-0.7-0.1-1.1c0-0.4,0.1-0.8,0.2-1.2c0.1-0.4,0.3-0.8,0.5-1.2
				c0.2-0.4,0.4-0.7,0.7-0.9c-0.1-0.2-0.2-0.3-0.2-0.5c-0.1-0.3-0.1-0.7,0-1.1s0.3-0.7,0.5-1s0.5-0.6,0.9-0.9s0.8-0.5,1.2-0.6
				c1.7-0.5,2.8,0.1,3.2,1.8c0.1,0.2,0.1,0.6,0,1.2l-0.3,3.7c0,0.4,0,0.5,0,0.6c0,0.2,0.2,0.2,0.3,0.2c0,0,0.1-0.1,0.2-0.1
				c0.1-0.1,0.2-0.2,0.3-0.2c0.1-0.1,0.2-0.2,0.3-0.2c0.1-0.1,0.1-0.1,0.2-0.1c0.1,0,0.2,0,0.2,0.2c0,0.1,0,0.3-0.2,0.5
				c-0.1,0.2-0.3,0.4-0.5,0.6c-0.2,0.2-0.4,0.4-0.7,0.5c-0.2,0.1-0.4,0.2-0.5,0.3c-0.3,0.1-0.5,0-0.6-0.3
				C37.6,33.8,37.6,33.6,37.6,33.4z M35.9,28.4c-0.5,0.1-1,0.4-1.4,0.8s-0.7,0.9-0.9,1.4s-0.4,1-0.5,1.5s-0.1,1,0.1,1.4
				c0.1,0.5,0.3,0.9,0.6,1.1c0.2,0.2,0.6,0.2,1.2,0.1c0.5-0.1,1-0.4,1.4-0.8c0.4-0.4,0.7-0.9,1-1.4c0.2-0.5,0.4-1.1,0.5-1.7
				s0-1.1-0.1-1.6C37.4,28.4,36.9,28.1,35.9,28.4z M34.1,28.9c0.5-0.5,1.2-0.9,2-1.1c0.4-0.1,0.7-0.1,1-0.1s0.6,0.2,0.8,0.3
				c0-0.1,0-0.2,0-0.3c0-0.1,0-0.2,0-0.2c-0.1-0.4-0.4-0.7-0.8-0.9c-0.4-0.2-0.8-0.2-1.3-0.1c-0.6,0.2-1.1,0.5-1.4,1
				C34.1,27.9,34,28.4,34.1,28.9z"/>
			<path fill="#FFFFFF" stroke="#FFFFFF" stroke-width="4" stroke-linejoin="round" stroke-miterlimit="10" d="M43.2,25.2
				c0.6-1.3,1.5-2,2.5-2.3c1.1-0.3,1.9,0.2,2.3,1.6c0.1,0.4,0.2,0.8,0.2,1.4c0,0.5-0.1,1.1-0.2,1.6c-0.1,0.6-0.3,1.1-0.5,1.7
				s-0.5,1.1-0.8,1.6s-0.7,0.9-1.1,1.3c-0.4,0.4-0.9,0.6-1.4,0.7C43.5,33,43,33,42.7,32.6l-0.2,1.7c-0.2,1.4-0.4,2.5-0.8,3.2
				c-0.4,0.8-0.8,1.2-1.4,1.4C40,39,39.8,39,39.8,38.8c-0.1-0.2,0.1-0.4,0.4-0.5c0.4-0.1,0.7-0.5,0.9-1.2s0.4-1.6,0.4-2.8l0.4-7.4
				c0-0.4,0-0.7,0-0.9c0-0.2,0-0.4,0-0.5s-0.1-0.2-0.2-0.1c-0.1,0-0.2,0.1-0.4,0.3C41.1,25.9,41,26,41,26c-0.2,0-0.3,0-0.3-0.2
				c0-0.1,0-0.3,0.2-0.5s0.4-0.5,0.6-0.7c0.2-0.2,0.5-0.4,0.8-0.7c0.3-0.2,0.5-0.3,0.7-0.4s0.4,0,0.4,0.2c0,0.1,0,0.3,0,0.5
				C43.3,24.7,43.2,25,43.2,25.2L43.2,25.2z M45.3,24.1c-0.5,0.2-1,0.5-1.4,1.1s-0.6,1.2-0.8,1.9c-0.2,0.7-0.3,1.4-0.3,2.1
				s0,1.3,0.2,1.8c0.2,0.9,0.7,1.2,1.5,1c0.4-0.1,0.8-0.4,1.2-0.9s0.7-1,0.9-1.7s0.4-1.4,0.5-2.1c0.1-0.8,0-1.5-0.2-2.2
				C46.6,24.3,46.1,23.9,45.3,24.1z"/>
			<path fill="#FFFFFF" stroke="#FFFFFF" stroke-width="4" stroke-linejoin="round" stroke-miterlimit="10" d="M55.5,23.8
				c0.4-0.1,0.6-0.1,0.7,0.1c0,0.1,0,0.3-0.1,0.5s-0.2,0.4-0.3,0.7c-0.1,0.2-0.3,0.4-0.4,0.6C55.3,25.9,55.1,26,55,26
				c-0.2,0-0.3,0-0.3-0.2c0-0.1,0-0.1,0.1-0.2s0.1-0.2,0-0.3c0-0.1-0.2-0.1-0.5,0l-4.6,1.3c-0.4,0.1-0.6,0.1-0.7-0.1
				c0-0.1,0-0.3,0.1-0.5s0.2-0.4,0.3-0.6s0.3-0.4,0.4-0.6c0.1-0.2,0.3-0.3,0.4-0.3c0.2,0,0.3,0,0.3,0.2c0,0,0,0.1-0.1,0.2
				s-0.1,0.2-0.1,0.3c0,0.1,0.2,0.1,0.5,0L55.5,23.8z"/>
			<path fill="#FFFFFF" stroke="#FFFFFF" stroke-width="4" stroke-linejoin="round" stroke-miterlimit="10" d="M37.4,49.1
				c-0.6,1-1.5,1.7-2.7,2.1c-1.6,0.5-2.6,0-3-1.3c-0.1-0.3-0.1-0.7-0.1-1.1c0-0.4,0.1-0.8,0.2-1.2s0.3-0.8,0.5-1.2s0.4-0.7,0.7-0.9
				c-0.1-0.2-0.2-0.3-0.2-0.5c-0.1-0.3-0.1-0.7,0-1.1c0.1-0.4,0.3-0.7,0.5-1s0.5-0.6,0.9-0.9c0.4-0.3,0.8-0.5,1.2-0.6
				c1.7-0.5,2.8,0.1,3.2,1.8c0.1,0.2,0.1,0.6,0,1.2L38.5,48c0,0.3,0,0.5,0,0.6c0,0.2,0.2,0.2,0.3,0.2c0,0,0.1-0.1,0.2-0.1
				c0.1-0.1,0.2-0.2,0.3-0.2c0.1-0.1,0.2-0.2,0.3-0.2c0.1-0.1,0.1-0.1,0.2-0.1c0.1,0,0.2,0,0.2,0.2c0,0.1,0,0.3-0.2,0.5
				c-0.1,0.2-0.3,0.4-0.5,0.6c-0.2,0.2-0.4,0.4-0.7,0.5c-0.2,0.1-0.4,0.2-0.5,0.3c-0.3,0.1-0.5,0-0.6-0.3
				C37.5,49.5,37.4,49.3,37.4,49.1z M35.8,44.1c-0.5,0.1-1,0.4-1.4,0.8c-0.4,0.4-0.7,0.8-0.9,1.3s-0.4,1-0.5,1.5s-0.1,1,0.1,1.4
				c0.1,0.5,0.3,0.9,0.6,1.1c0.2,0.2,0.6,0.2,1.2,0.1c0.5-0.1,1-0.4,1.4-0.8c0.4-0.4,0.7-0.9,1-1.4c0.2-0.5,0.4-1.1,0.5-1.7
				c0.1-0.6,0-1.1-0.1-1.6C37.2,44.1,36.7,43.8,35.8,44.1z M33.9,44.6c0.5-0.5,1.2-0.9,1.9-1.1c0.4-0.1,0.7-0.1,1-0.1
				s0.6,0.2,0.8,0.3c0-0.1,0-0.2,0-0.3s0-0.2,0-0.2c-0.1-0.4-0.4-0.7-0.8-0.9C36.5,42,36,42,35.5,42.1c-0.6,0.2-1.1,0.5-1.4,1
				C33.9,43.6,33.8,44.1,33.9,44.6z"/>
			<path fill="#FFFFFF" stroke="#FFFFFF" stroke-width="4" stroke-linejoin="round" stroke-miterlimit="10" d="M46.3,45.1
				c0.1,0,0.2,0,0.3,0.2s0.1,0.4,0,0.7c0,0.2-0.2,0.5-0.3,0.8c-0.3,0.4-0.6,0.8-1.1,1.1c-0.4,0.3-0.9,0.5-1.5,0.7
				c-0.5,0.2-1,0.1-1.4-0.1c-0.4-0.2-0.7-0.6-0.8-1.1c-0.1-0.4-0.1-0.7-0.1-1c0.1-0.3,0.1-0.7,0.3-1c0.1-0.3,0.3-0.6,0.5-0.9
				c0.2-0.3,0.4-0.6,0.6-0.8c0.2-0.3,0.5-0.6,0.7-0.9c0.2-0.3,0.4-0.6,0.6-0.8c0.2-0.3,0.3-0.5,0.4-0.8c0.1-0.2,0.1-0.5,0.1-0.7
				c-0.1-0.3-0.2-0.6-0.4-0.6c-0.2-0.1-0.4-0.1-0.7,0c-0.4,0.1-0.7,0.3-1,0.5s-0.5,0.5-0.8,0.8c-0.1,0.2-0.2,0.3-0.2,0.3
				c0,0.1-0.1,0.1-0.2,0.1c-0.1,0-0.2,0-0.3-0.2c-0.1-0.4,0.1-0.8,0.7-1.3c0.1-0.1,0.3-0.3,0.4-0.4c0.1-0.1,0.3-0.2,0.5-0.3
				s0.4-0.2,0.6-0.3c0.2-0.1,0.5-0.2,0.9-0.3c0.1,0,0.2,0,0.4,0s0.4,0,0.6,0.1c0.2,0.1,0.4,0.2,0.5,0.4c0.2,0.2,0.3,0.4,0.4,0.7
				c0.1,0.3,0.1,0.6,0,0.9c-0.1,0.3-0.3,0.6-0.5,1c-0.2,0.3-0.5,0.7-0.8,1s-0.6,0.7-0.9,1c-0.3,0.4-0.5,0.7-0.7,1s-0.3,0.5-0.3,0.7
				c-0.1,0.2-0.1,0.4-0.1,0.6c0,0.2,0.1,0.4,0.1,0.6c0.1,0.5,0.3,0.8,0.5,0.9c0.2,0.1,0.5,0.1,0.8,0c0.4-0.1,0.7-0.3,1.1-0.6
				c0.3-0.3,0.6-0.7,0.8-1.3C46,45.4,46.1,45.2,46.3,45.1z"/>
			<path fill="#FFFFFF" stroke="#FFFFFF" stroke-width="4" stroke-linejoin="round" stroke-miterlimit="10" d="M53.8,44.4
				c-0.6,1-1.5,1.7-2.7,2.1c-1.6,0.5-2.6,0-3-1.3C48,44.9,48,44.5,48,44.1s0.1-0.8,0.2-1.2c0.1-0.4,0.3-0.8,0.5-1.2s0.4-0.7,0.7-0.9
				c-0.1-0.2-0.2-0.3-0.2-0.5c-0.1-0.3-0.1-0.7,0-1.1c0.1-0.4,0.3-0.7,0.5-1s0.5-0.6,0.9-0.9c0.4-0.3,0.8-0.5,1.2-0.6
				c1.7-0.5,2.8,0.1,3.2,1.8c0.1,0.2,0.1,0.6,0,1.2l-0.3,3.7c0,0.4,0,0.5,0,0.6c0,0.2,0.2,0.2,0.3,0.2c0,0,0.1-0.1,0.2-0.1
				c0.1-0.1,0.2-0.2,0.3-0.2c0.1-0.1,0.2-0.2,0.3-0.2c0.1-0.1,0.1-0.1,0.2-0.1c0.1,0,0.2,0,0.2,0.2c0,0.1,0,0.3-0.2,0.5
				c-0.1,0.2-0.3,0.4-0.5,0.6c-0.2,0.2-0.4,0.4-0.7,0.5c-0.2,0.1-0.4,0.2-0.5,0.3c-0.3,0.1-0.5,0-0.6-0.3
				C53.8,44.9,53.8,44.7,53.8,44.4z M52.1,39.5c-0.5,0.1-1,0.4-1.4,0.8c-0.4,0.4-0.7,0.8-0.9,1.4c-0.2,0.5-0.4,1-0.5,1.5
				s-0.1,1,0.1,1.4c0.1,0.5,0.3,0.9,0.6,1.1c0.2,0.2,0.6,0.2,1.2,0.1c0.5-0.1,1-0.4,1.4-0.8c0.4-0.4,0.7-0.9,1-1.4
				c0.2-0.5,0.4-1.1,0.5-1.7c0.1-0.6,0-1.1-0.1-1.6C53.6,39.4,53,39.2,52.1,39.5z M50.2,39.9c0.5-0.5,1.2-0.9,2-1.1
				c0.4-0.1,0.7-0.1,1-0.1s0.5,0.2,0.8,0.3c0-0.1,0-0.2,0-0.3s0-0.2,0-0.2c-0.1-0.4-0.4-0.7-0.8-0.9c-0.4-0.2-0.8-0.2-1.3-0.1
				c-0.6,0.2-1.1,0.5-1.4,1C50.2,38.9,50.1,39.4,50.2,39.9z"/>
			<path fill="#FFFFFF" stroke="#FFFFFF" stroke-width="4" stroke-linejoin="round" stroke-miterlimit="10" d="M59.3,36.3
				c0.6-1.3,1.5-2,2.5-2.3c1.1-0.3,1.9,0.2,2.3,1.6c0.1,0.4,0.2,0.8,0.2,1.4c0,0.5-0.1,1.1-0.2,1.6c-0.1,0.6-0.3,1.1-0.5,1.7
				c-0.2,0.6-0.5,1.1-0.8,1.6s-0.7,0.9-1.1,1.3c-0.4,0.4-0.9,0.6-1.4,0.7c-0.7,0.2-1.2,0.1-1.5-0.2l-0.2,1.7
				c-0.2,1.4-0.4,2.5-0.8,3.3c-0.4,0.8-0.8,1.2-1.4,1.4c-0.3,0.1-0.5,0.1-0.5-0.1c-0.1-0.2,0.1-0.4,0.4-0.5c0.4-0.1,0.7-0.5,0.9-1.2
				s0.4-1.6,0.4-2.8l0.4-7.4c0-0.4,0-0.7,0-0.9s0-0.4,0-0.5s-0.1-0.2-0.2-0.1c-0.1,0-0.2,0.1-0.4,0.3c-0.1,0.2-0.3,0.3-0.3,0.3
				c-0.2,0-0.3,0-0.3-0.2c0-0.1,0-0.3,0.2-0.5s0.4-0.5,0.6-0.7c0.2-0.2,0.5-0.4,0.8-0.7c0.3-0.2,0.5-0.3,0.7-0.4
				c0.2-0.1,0.4,0,0.4,0.2c0,0.1,0,0.3,0,0.5C59.4,35.8,59.4,36,59.3,36.3L59.3,36.3z M61.5,35.2c-0.6,0.2-1,0.5-1.4,1.1
				s-0.6,1.2-0.8,1.9S59,39.6,59,40.3c0,0.7,0,1.3,0.2,1.8c0.2,0.9,0.7,1.2,1.5,1c0.4-0.1,0.8-0.4,1.2-0.9s0.7-1,0.9-1.7
				s0.4-1.4,0.5-2.1c0.1-0.8,0-1.5-0.2-2.2C62.7,35.3,62.2,34.9,61.5,35.2z"/>
			<path fill="#FFFFFF" stroke="#FFFFFF" stroke-width="4" stroke-linejoin="round" stroke-miterlimit="10" d="M69.5,31.8
				c0.4-0.1,0.8-0.2,1.2-0.1c0.4,0.1,0.8,0.2,1.1,0.4c0.3,0.2,0.6,0.5,0.8,0.8c0.2,0.3,0.4,0.7,0.5,1.1c0.2,0.7,0.3,1.4,0.2,2.2
				c-0.1,0.8-0.2,1.5-0.5,2.2s-0.7,1.3-1.3,1.8c-0.5,0.5-1.2,0.9-1.9,1.1c-0.4,0.1-0.8,0.1-1.2,0.1c-0.4-0.1-0.7-0.2-1-0.4
				s-0.6-0.5-0.8-0.8c-0.2-0.3-0.4-0.7-0.5-1.1c-0.2-0.8-0.3-1.5-0.2-2.3c0.1-0.8,0.3-1.5,0.6-2.2c0.3-0.7,0.7-1.3,1.3-1.8
				C68.3,32.3,68.9,32,69.5,31.8z M69.5,32.6c-0.5,0.2-1,0.4-1.3,0.8c-0.4,0.4-0.6,0.9-0.8,1.4c-0.2,0.5-0.3,1.1-0.3,1.7
				c0,0.6,0.1,1.2,0.2,1.8c0.1,0.3,0.2,0.7,0.4,0.9c0.1,0.3,0.3,0.5,0.6,0.7c0.2,0.2,0.5,0.3,0.7,0.4c0.3,0.1,0.6,0.1,0.9,0
				c0.6-0.2,1-0.5,1.4-0.9s0.6-0.9,0.8-1.5c0.2-0.6,0.2-1.1,0.2-1.8c0-0.6-0.1-1.2-0.2-1.8c-0.1-0.3-0.2-0.6-0.4-0.9
				c-0.2-0.3-0.3-0.5-0.5-0.7s-0.5-0.3-0.7-0.4C70.1,32.5,69.8,32.5,69.5,32.6z"/>
			<path fill="#FFFFFF" stroke="#FFFFFF" stroke-width="4" stroke-linejoin="round" stroke-miterlimit="10" d="M79,29.1
				c0.4-0.1,0.8,0.3,1,1.4l1.1,4c0.1,0.4,0.2,0.7,0.3,0.8c0.1,0.1,0.2,0.2,0.2,0.1c0.1,0,0.3-0.5,0.5-1.3l1.3-4.3
				c0.2-0.7,0.4-1.2,0.6-1.6s0.5-0.7,0.9-0.8c0.3-0.1,0.4,0,0.5,0.2c0,0.1,0,0.2,0,0.3c0,0.1,0,0.3,0,0.5l0.2,5.2c0,0.4,0,0.7,0,0.9
				s0,0.4,0,0.4c0,0.1,0.1,0.2,0.2,0.1c0.1,0,0.2-0.1,0.4-0.3c0.2-0.2,0.3-0.3,0.3-0.3c0.2,0,0.3,0,0.3,0.2c0,0.1,0,0.2-0.2,0.5
				c-0.1,0.2-0.3,0.5-0.5,0.7s-0.4,0.4-0.7,0.6c-0.2,0.2-0.4,0.3-0.6,0.4c-0.2,0.1-0.3,0-0.4-0.2c0-0.1,0-0.2-0.1-0.4
				c0-0.2,0-0.4,0-0.5l-0.2-5.9H84l-1.7,5.9c-0.2,0.6-0.3,1-0.5,1.3s-0.5,0.6-0.8,0.6c-0.1,0-0.2,0-0.4-0.2c-0.1-0.2-0.3-0.5-0.4-1
				c0-0.1-0.1-0.2-0.1-0.5C80,35.6,80,35.3,79.9,35c-0.1-0.4-0.2-0.8-0.3-1.2c-0.1-0.4-0.2-0.8-0.3-1.2c-0.1-0.4-0.2-0.7-0.2-1
				C79,31.3,79,31.1,79,31.1l0,0l-0.3,3.3c-0.1,0.8-0.2,1.4-0.3,2c-0.1,0.5-0.2,1-0.4,1.4c-0.2,0.4-0.4,0.7-0.6,0.9
				s-0.5,0.4-0.8,0.4c-0.4,0.1-0.7,0.1-1-0.1c-0.3-0.1-0.5-0.3-0.6-0.6c0-0.1,0-0.2,0-0.4c0-0.1,0.2-0.3,0.4-0.3c0.1,0,0.3,0,0.3,0
				c0.1,0.1,0.2,0.1,0.2,0.2C76,38,76,38,76.1,38.1c0.1,0.1,0.2,0.1,0.3,0c0.2,0,0.3-0.1,0.5-0.2c0.1-0.1,0.3-0.3,0.4-0.6
				s0.2-0.7,0.3-1.2c0.1-0.5,0.2-1.2,0.3-2.1l0.3-2.7c0-0.1,0-0.2,0-0.3c0-0.1,0-0.1,0-0.1c0-0.1-0.1-0.1-0.3-0.1
				c-0.3,0.1-0.5,0.2-0.7,0.4c-0.2,0.2-0.3,0.3-0.4,0.3c-0.2,0-0.3,0-0.3-0.2c0-0.1,0-0.3,0.2-0.5s0.4-0.5,0.6-0.7s0.5-0.5,0.8-0.7
				C78.6,29.3,78.8,29.2,79,29.1z"/>
		</g>
	</g>
	<g>
		<g>
			<g>
				<g>
					<g>
						<path fill="#EC1558" stroke="#EC1558" stroke-width="0.5" stroke-miterlimit="10" d="M17.6,12c0.1,0,0.3-0.1,0.4-0.2
							c0.1-0.1,0.2-0.1,0.3-0.2c0.1-0.1,0.2-0.1,0.3-0.2c0.1-0.1,0.2-0.1,0.3-0.1c0.1,0,0.2,0,0.2,0.2c0,0.1-0.1,0.3-0.3,0.7
							c-0.2,0.4-0.4,0.7-0.5,0.7S18,13,17.6,13c-0.6,0-1.1,0.1-1.6,0.2c-0.6,0.1-1.2,0.2-1.8,0.3s-1.3,0.2-1.9,0.4
							c-0.6,0.1-1.1,0.2-1.6,0.3s-0.8,0.2-1,0.2c-0.5,0.1-0.9,0.3-1.3,0.6c-0.4,0.3-0.8,0.6-1.1,0.9c-0.3,0.4-0.5,0.8-0.6,1.2
							c-0.1,0.4-0.1,0.9,0,1.4C7,20,8,20.5,9.7,20c0.2,0,0.3,0,0.3,0.2s0,0.3-0.3,0.3c-1.2,0.3-2.1,0.3-2.8,0.1
							c-0.7-0.3-1.2-0.8-1.4-1.8c-0.2-0.6-0.1-1.2,0.1-1.8c0.2-0.6,0.6-1.1,1.1-1.6s1.1-0.9,1.7-1.2c0.7-0.3,1.3-0.6,2-0.8
							c0.2-0.1,0.6-0.1,1-0.2c0.4-0.1,0.8-0.2,1.3-0.3s1-0.2,1.5-0.3s1-0.2,1.4-0.3s0.8-0.2,1.2-0.3C17.2,12.1,17.4,12,17.6,12z
							 M12.2,17.1c0-0.4,0-0.6,0-0.8c0-0.1-0.1-0.1-0.2-0.1c-0.1,0-0.2,0.1-0.3,0.2s-0.2,0.2-0.3,0.2s-0.2,0-0.2-0.1s0-0.2,0.2-0.3
							c0.1-0.2,0.3-0.4,0.4-0.5c0.2-0.2,0.4-0.4,0.5-0.5c0.2-0.2,0.3-0.3,0.5-0.3c0.1,0,0.2,0,0.2,0.2c0,0.1,0,0.2,0,0.4
							s0,0.4,0,0.6l0,1.8c0.2-0.1,0.4-0.3,0.6-0.4c0.2-0.1,0.5-0.2,0.8-0.3c0.4-0.1,0.8-0.2,1.2-0.1c0.4,0,0.8,0.1,1.2,0.3
							c0.4,0.2,0.7,0.4,1,0.8c0.3,0.3,0.5,0.7,0.6,1.3c0.2,0.6,0.2,1.2,0.1,1.9c-0.1,0.6-0.4,1.2-0.7,1.7c-0.3,0.5-0.8,1-1.3,1.4
							s-1.1,0.7-1.8,0.8c-0.8,0.2-1.5,0.3-2.3,0.3c-0.7,0-1.1-0.1-1.1,0c-0.3,0.1-0.5,0-0.5-0.1s0-0.2,0.1-0.3
							c0.2-0.3,0.3-0.5,0.4-0.8c0.1-0.3,0.2-0.6,0.2-1l0.3-3.9c-0.2,0.2-0.4,0.4-0.5,0.6s-0.2,0.4-0.3,0.6s-0.1,0.3-0.1,0.5
							c0,0.1,0,0.2-0.1,0.3c-0.1,0-0.1,0-0.2,0c-0.1,0-0.1,0-0.1-0.1c-0.1-0.2,0-0.4,0-0.6c0.1-0.2,0.2-0.5,0.3-0.7s0.3-0.5,0.5-0.7
							s0.4-0.4,0.5-0.5L12.2,17.1z M12.6,22.9c0,0.1,0,0.2,0,0.3c0,0.1,0,0.2-0.1,0.3c0,0.1-0.1,0.2-0.1,0.3c0,0.1-0.1,0.2-0.1,0.3
							L12,24.5c0,0.1,0.4,0.2,1.2,0.2c0.4,0,0.7,0,1-0.1c0.3,0,0.7-0.1,1-0.2c0.5-0.1,1-0.4,1.3-0.7c0.4-0.3,0.7-0.7,0.9-1.1
							c0.2-0.4,0.3-0.9,0.4-1.4c0-0.5,0-1.1-0.2-1.6c-0.1-0.4-0.3-0.8-0.5-1c-0.2-0.3-0.5-0.5-0.7-0.7c-0.3-0.2-0.6-0.2-0.9-0.3
							c-0.3,0-0.6,0-0.9,0.1c-0.4,0.1-0.7,0.2-1,0.4c-0.3,0.1-0.5,0.3-0.7,0.6L12.6,22.9z"/>
						<path fill="#EC1558" stroke="#EC1558" stroke-width="0.5" stroke-miterlimit="10" d="M21.2,16.6c0.2,0,0.3,0,0.3,0.1
							s0,0.2,0,0.4c0,0.2,0,0.3,0,0.5l-0.4,3.9c0,0.3,0,0.5,0,0.7c0.1,0.2,0.2,0.3,0.4,0.3c0.2-0.1,0.4-0.2,0.7-0.3
							c0.2-0.2,0.4-0.4,0.6-0.6s0.3-0.5,0.5-0.7c0.1-0.3,0.2-0.5,0.2-0.8l0.4-3.4c0-0.1,0-0.2,0-0.2c0-0.1,0-0.1,0-0.2
							c0,0,0-0.1,0.1-0.1c0,0,0.1-0.1,0.1-0.2c0.1-0.1,0.1-0.1,0.2-0.1s0.1-0.1,0.2-0.1s0.2,0,0.2,0.1c0,0,0,0.2,0,0.6l-0.4,4.3
							c0,0.2,0,0.4,0,0.5s0,0.2,0,0.2c0,0.1,0.1,0.2,0.2,0.1c0.1,0,0.1-0.1,0.2-0.1c0.1-0.1,0.1-0.1,0.2-0.2s0.1-0.1,0.2-0.2
							l0.1-0.1c0.1,0,0.2,0,0.2,0.1s0,0.2-0.1,0.4c-0.1,0.1-0.2,0.3-0.4,0.4c-0.2,0.1-0.3,0.3-0.5,0.4s-0.3,0.2-0.4,0.2
							c-0.2,0.1-0.3,0-0.4-0.2c0-0.1-0.1-0.3-0.1-0.4s0-0.2,0-0.4c-0.1,0.2-0.3,0.4-0.4,0.6c-0.2,0.2-0.4,0.4-0.6,0.6
							c-0.5,0.4-1,0.7-1.4,0.8c-0.4,0.1-0.6-0.1-0.7-0.5c-0.1-0.3-0.1-0.6-0.1-1l0.3-3.6c0-0.2,0-0.3,0-0.3c0-0.1-0.1-0.1-0.2-0.1
							c0,0-0.1,0-0.1,0.1c-0.1,0-0.1,0.1-0.2,0.1s-0.1,0.1-0.2,0.1l-0.1,0.1c-0.1,0-0.2,0-0.2-0.1s0-0.2,0.1-0.4
							c0.1-0.2,0.3-0.3,0.4-0.5c0.2-0.2,0.4-0.3,0.6-0.5C20.9,16.7,21.1,16.6,21.2,16.6z"/>
						<path fill="#EC1558" stroke="#EC1558" stroke-width="0.5" stroke-miterlimit="10" d="M30.8,14.6c0.2-0.3,0.5-0.5,0.7-0.7
							c0.3-0.2,0.5-0.3,0.8-0.4c0.1,0,0.2,0,0.4,0s0.3,0.1,0.5,0.2c0.2,0.1,0.3,0.2,0.5,0.4c0.1,0.2,0.3,0.4,0.3,0.7
							c0.1,0.5,0.2,1.1,0.1,1.7c-0.1,0.6-0.2,1.2-0.5,1.7c-0.2,0.6-0.6,1-0.9,1.5c-0.4,0.4-0.8,0.7-1.3,0.8c-0.2,0.1-0.4,0.1-0.6,0
							c-0.2,0-0.3-0.1-0.4-0.2l-0.2,1.2c-0.3,2-0.8,3.1-1.6,3.3c-0.2,0.1-0.3,0-0.3-0.1c0-0.2,0-0.3,0.3-0.3c0.1,0,0.3-0.2,0.4-0.4
							c0.1-0.2,0.2-0.5,0.3-0.8c0.1-0.3,0.1-0.6,0.2-0.9c0-0.3,0.1-0.6,0.1-0.8v-1.3c-0.5,0.6-1,0.9-1.5,1.1c-0.1,0-0.2,0-0.4,0
							c-0.2,0-0.3-0.1-0.5-0.2s-0.3-0.2-0.5-0.4c-0.2-0.2-0.3-0.4-0.3-0.7c-0.1-0.5-0.2-1-0.1-1.6s0.2-1.2,0.5-1.7
							c0.2-0.6,0.5-1.1,0.9-1.5s0.8-0.7,1.3-0.9c0.2,0,0.3-0.1,0.5,0c0.2,0,0.3,0,0.4,0.1l0.1-3.5c0-0.6,0-0.9,0-1s-0.1-0.1-0.2-0.1
							c0,0-0.1,0-0.1,0.1c0,0-0.1,0.1-0.2,0.1s-0.1,0.1-0.1,0.1l-0.1,0.1c-0.1,0-0.2,0-0.2-0.1s0-0.2,0.1-0.4s0.3-0.3,0.4-0.5
							C29.8,9,30,8.9,30.2,8.8c0.2-0.1,0.4-0.2,0.5-0.3c0.2,0,0.3,0,0.3,0.1s0,1.1-0.1,3c0,0.5,0,0.9,0,1.2s0,0.6,0,0.8s0,0.4,0,0.5
							C30.8,14.5,30.8,14.6,30.8,14.6z M29.7,15.5c-0.1-0.3-0.2-0.5-0.4-0.5c-0.2,0-0.3-0.1-0.4,0c-0.3,0.1-0.6,0.3-0.9,0.6
							s-0.5,0.7-0.7,1.1S27,17.6,27,18.2s0,1.1,0.2,1.7c0.1,0.3,0.2,0.5,0.4,0.6c0.2,0.1,0.4,0.1,0.8,0c0.3-0.1,0.5-0.2,0.7-0.5
							c0.2-0.2,0.3-0.5,0.4-0.8s0.2-0.7,0.2-1.1s0.1-0.7,0.1-1.1c0-0.3,0-0.7,0-0.9C29.8,15.9,29.7,15.7,29.7,15.5z M30.6,19.4
							c0.1,0.3,0.2,0.5,0.4,0.5c0.2,0,0.3,0.1,0.4,0c0.4-0.1,0.7-0.3,1-0.6c0.3-0.3,0.5-0.7,0.7-1.2c0.2-0.4,0.3-0.9,0.3-1.5
							c0-0.5,0-1.1-0.2-1.6c-0.1-0.3-0.2-0.5-0.4-0.6s-0.4-0.1-0.7,0s-0.5,0.2-0.7,0.5s-0.3,0.5-0.4,0.9c-0.1,0.3-0.2,0.7-0.2,1.1
							c-0.1,0.4-0.1,0.7-0.1,1.1c0,0.3,0,0.7,0,0.9C30.6,19.1,30.6,19.3,30.6,19.4z"/>
						<path fill="#EC1558" stroke="#EC1558" stroke-width="0.5" stroke-miterlimit="10" d="M36.6,12.3c0.2,0,0.3,0,0.3,0.1
							s0,0.2,0,0.4s0,0.3,0,0.5l-0.4,3.9c0,0.3,0,0.5,0,0.7c0.1,0.2,0.2,0.3,0.4,0.2c0.2-0.1,0.4-0.2,0.7-0.3
							c0.2-0.2,0.4-0.4,0.6-0.6c0.2-0.2,0.3-0.5,0.5-0.7c0.1-0.3,0.2-0.5,0.2-0.8l0.4-3.4c0-0.1,0-0.2,0-0.2c0-0.1,0-0.1,0-0.2
							c0,0,0-0.1,0.1-0.1c0-0.1,0.1-0.1,0.1-0.2c0.1-0.1,0.1-0.1,0.2-0.1c0.1,0,0.1-0.1,0.2-0.1c0.1,0,0.2,0,0.2,0.1
							c0,0,0,0.2,0,0.6l-0.4,4.3c0,0.2,0,0.4,0,0.5s0,0.2,0,0.2c0,0.1,0.1,0.2,0.2,0.1c0.1,0,0.1-0.1,0.2-0.1
							c0.1-0.1,0.1-0.1,0.2-0.2c0.1-0.1,0.1-0.1,0.2-0.2c0-0.1,0.1-0.1,0.1-0.1c0.1,0,0.2,0,0.2,0.1s0,0.2-0.1,0.3
							c-0.1,0.1-0.2,0.3-0.4,0.4s-0.3,0.3-0.5,0.4S39.5,18,39.4,18c-0.2,0.1-0.3,0-0.4-0.2c0-0.1-0.1-0.3-0.1-0.4s0-0.2,0-0.4
							c-0.1,0.2-0.3,0.4-0.4,0.6c-0.2,0.2-0.4,0.4-0.6,0.6c-0.5,0.4-1,0.7-1.4,0.8c-0.4,0.1-0.6-0.1-0.7-0.5c-0.1-0.3-0.1-0.6-0.1-1
							l0.3-3.6c0-0.2,0-0.3,0-0.3c0-0.1-0.1-0.1-0.2-0.1c0,0-0.1,0-0.1,0.1c-0.1,0-0.1,0.1-0.2,0.1c-0.1,0-0.1,0.1-0.2,0.1l-0.1,0.1
							c-0.1,0-0.2,0-0.2-0.1s0-0.2,0.1-0.4s0.3-0.3,0.4-0.5c0.2-0.2,0.4-0.3,0.6-0.5C36.3,12.4,36.5,12.4,36.6,12.3z"/>
						<path fill="#EC1558" stroke="#EC1558" stroke-width="0.5" stroke-miterlimit="10" d="M46.2,10.4c0.2-0.3,0.5-0.5,0.7-0.7
							c0.3-0.2,0.5-0.3,0.8-0.4c0.1,0,0.2,0,0.4,0s0.3,0.1,0.5,0.2c0.2,0.1,0.3,0.2,0.5,0.4c0.1,0.2,0.3,0.4,0.3,0.7
							c0.1,0.5,0.2,1.1,0.1,1.7c-0.1,0.6-0.2,1.2-0.5,1.7c-0.2,0.6-0.6,1-0.9,1.5c-0.4,0.4-0.8,0.7-1.3,0.8c-0.2,0.1-0.4,0.1-0.6,0
							c-0.2,0-0.3-0.1-0.4-0.2l-0.2,1.2c-0.3,2-0.8,3.1-1.6,3.3c-0.2,0.1-0.3,0-0.3-0.1c0-0.2,0-0.3,0.3-0.3c0.1,0,0.3-0.2,0.4-0.4
							c0.1-0.2,0.2-0.5,0.3-0.8s0.1-0.6,0.2-0.9c0-0.3,0.1-0.6,0.1-0.8V16c-0.5,0.6-1,0.9-1.5,1.1c-0.1,0-0.2,0-0.4,0
							s-0.3-0.1-0.5-0.2s-0.3-0.2-0.5-0.4c-0.1-0.2-0.3-0.4-0.3-0.7c-0.1-0.5-0.2-1-0.1-1.6c0.1-0.6,0.2-1.2,0.5-1.8
							c0.2-0.6,0.5-1.1,0.9-1.5s0.8-0.7,1.3-0.9c0.2,0,0.3-0.1,0.5,0c0.1,0,0.3,0,0.4,0.1l0.1-3.5c0-0.6,0-0.9,0-1s-0.1-0.1-0.2-0.1
							c0,0-0.1,0-0.1,0.1c0,0-0.1,0.1-0.2,0.1c-0.1,0-0.1,0.1-0.1,0.1l-0.1,0.1c-0.1,0-0.2,0-0.2-0.1s0-0.2,0.1-0.4
							c0.1-0.2,0.3-0.3,0.4-0.5c0.2-0.2,0.4-0.3,0.6-0.4c0.2-0.1,0.4-0.2,0.5-0.3c0.2,0,0.3,0,0.3,0.1s0,1.1-0.1,3.1
							c0,0.5,0,0.9,0,1.2s0,0.6,0,0.8s0,0.4,0,0.5C46.2,10.3,46.2,10.3,46.2,10.4z M45.1,11.3c-0.1-0.3-0.2-0.5-0.4-0.5
							s-0.3-0.1-0.4,0c-0.3,0.1-0.6,0.3-0.9,0.6c-0.3,0.3-0.5,0.7-0.7,1.1c-0.2,0.4-0.3,0.9-0.3,1.5s0,1.1,0.2,1.7
							c0.1,0.3,0.2,0.5,0.4,0.6s0.4,0.1,0.8,0c0.3-0.1,0.5-0.2,0.7-0.5c0.2-0.2,0.3-0.5,0.4-0.9c0.1-0.3,0.2-0.7,0.2-1
							c0-0.4,0.1-0.7,0.1-1.1c0-0.3,0-0.7,0-0.9C45.2,11.7,45.1,11.4,45.1,11.3z M46,15.2c0.1,0.3,0.2,0.5,0.4,0.5
							c0.1,0,0.3,0.1,0.4,0c0.4-0.1,0.7-0.3,1-0.6s0.5-0.7,0.7-1.2s0.2-0.9,0.3-1.5c0-0.5,0-1.1-0.2-1.6c-0.1-0.3-0.2-0.5-0.4-0.6
							s-0.4-0.1-0.7,0s-0.5,0.2-0.7,0.5c-0.2,0.2-0.3,0.5-0.4,0.9c-0.1,0.3-0.2,0.7-0.2,1.1c0,0.4-0.1,0.7-0.1,1.1
							c0,0.3,0,0.7,0,0.9C46,14.9,46,15.1,46,15.2z"/>
						<path fill="#EC1558" stroke="#EC1558" stroke-width="0.5" stroke-miterlimit="10" d="M52.3,9.2c0.5-0.9,1.1-1.4,1.8-1.7
							c0.8-0.2,1.4,0.2,1.6,1.2c0.1,0.3,0.1,0.6,0.1,1s-0.1,0.8-0.1,1.2c-0.1,0.4-0.2,0.8-0.4,1.2s-0.4,0.8-0.6,1.1
							c-0.2,0.3-0.5,0.6-0.8,0.9c-0.3,0.3-0.6,0.4-1,0.5c-0.5,0.1-0.9,0.1-1.1-0.2l-0.2,1.2c-0.1,1-0.3,1.8-0.6,2.3s-0.6,0.9-1,1
							c-0.2,0.1-0.3,0-0.3-0.1c0-0.2,0-0.3,0.3-0.3c0.3-0.1,0.5-0.3,0.6-0.8c0.2-0.5,0.3-1.1,0.3-2l0.3-5.3c0-0.3,0-0.5,0-0.7
							s0-0.3,0-0.3c0-0.1-0.1-0.1-0.2-0.1c-0.1,0-0.2,0.1-0.3,0.2c-0.1,0.1-0.2,0.2-0.2,0.2c-0.1,0-0.2,0-0.2-0.1s0-0.2,0.1-0.4
							c0.2,0,0.4-0.2,0.6-0.4s0.4-0.3,0.6-0.5C51.8,8.2,52,8.1,52.1,8c0.2,0,0.3,0,0.3,0.1s0,0.2,0,0.4C52.3,8.8,52.3,9,52.3,9.2
							L52.3,9.2z M53.8,8.4c-0.4,0.1-0.7,0.4-1,0.7c-0.3,0.4-0.5,0.8-0.6,1.3C52.1,11,52,11.5,52,12s0,0.9,0.1,1.3
							c0.2,0.6,0.5,0.9,1,0.7c0.3-0.1,0.6-0.3,0.8-0.6c0.3-0.3,0.5-0.7,0.7-1.2s0.3-1,0.3-1.5c0.1-0.5,0-1-0.1-1.5
							C54.7,8.5,54.3,8.2,53.8,8.4z"/>
						<path fill="#EC1558" stroke="#EC1558" stroke-width="0.5" stroke-miterlimit="10" d="M58.6,6.3c0.2,0,0.3,0,0.3,0.1
							s0,0.2,0,0.4c0,0.2,0,0.3,0,0.5l-0.4,3.9c0,0.2,0,0.5,0,0.7c0.1,0.2,0.2,0.3,0.4,0.3c0.3-0.1,0.5-0.2,0.8-0.4
							c0.2-0.2,0.4-0.5,0.6-0.8c0.2-0.3,0.3-0.6,0.4-0.9C60.9,9.7,61,9.4,61,9.2l0.3-2.9c0-0.2,0.1-0.3,0.1-0.4s0.1-0.2,0.2-0.3
							c0.1-0.1,0.3-0.2,0.3-0.2c0.1,0,0.2,0,0.2,0.1c0,0,0,0.2,0,0.6l-0.4,4.7c-0.1,0.7-0.1,1.4-0.2,2.1c-0.1,0.6-0.2,1.2-0.4,1.7
							s-0.4,0.9-0.7,1.2c-0.3,0.3-0.7,0.6-1.1,0.7c-0.1,0-0.3,0-0.5,0.1c-0.2,0-0.4,0-0.6-0.1c-0.2,0-0.4-0.1-0.6-0.2
							c-0.2-0.1-0.3-0.2-0.3-0.4c-0.1-0.3,0-0.5,0.3-0.5c0.1,0,0.2,0,0.3,0.1s0.2,0.2,0.4,0.3c0.1,0.1,0.3,0.2,0.4,0.3
							c0.2,0.1,0.4,0.1,0.6,0c0.3-0.1,0.6-0.3,0.8-0.5s0.4-0.5,0.5-0.9s0.2-0.9,0.3-1.4c0.1-0.6,0.1-1.2,0.1-2l0,0
							c-0.1,0.3-0.3,0.5-0.5,0.7s-0.4,0.4-0.6,0.6c-0.2,0.2-0.4,0.3-0.7,0.4c-0.2,0.1-0.4,0.2-0.7,0.3c-0.4,0.1-0.6-0.1-0.7-0.5
							c-0.1-0.3-0.1-0.6-0.1-1L58,7.9c0-0.1,0-0.3,0-0.3c0-0.1-0.1-0.1-0.2-0.1c0,0-0.1,0-0.1,0.1c-0.1,0-0.1,0.1-0.2,0.1
							c-0.1,0.1-0.1,0.1-0.2,0.1l-0.1,0.1c-0.1,0-0.2,0-0.2-0.1s0-0.2,0.1-0.4c0.1-0.2,0.3-0.3,0.4-0.5c0.2-0.2,0.3-0.3,0.5-0.5
							C58.3,6.4,58.5,6.3,58.6,6.3z"/>
						<path fill="#EC1558" stroke="#EC1558" stroke-width="0.5" stroke-miterlimit="10" d="M65.1,4.5c0.2,0,0.3,0,0.3,0.1
							c0.1,0.2,0.1,0.5,0,0.9c0.1-0.1,0.2-0.3,0.4-0.5c0.2-0.2,0.4-0.4,0.6-0.5c0.2-0.2,0.5-0.3,0.7-0.5c0.3-0.1,0.5-0.3,0.7-0.3
							c0.3-0.1,0.4,0,0.4,0.1s0,0.3,0,0.4c0.6-0.6,1.2-1,1.8-1.2c0.4-0.1,0.6,0.1,0.8,0.5c0.1,0.2,0.1,0.6,0,1l-0.4,3.6
							c0,0.3,0,0.5,0,0.5c0,0.1,0.1,0.2,0.2,0.1c0,0,0.1,0,0.2-0.1s0.1-0.1,0.2-0.2c0.1-0.1,0.1-0.1,0.2-0.2
							c0.1-0.1,0.1-0.1,0.1-0.1c0.1,0,0.1,0,0.2,0.1c0,0.1,0,0.2-0.1,0.3s-0.2,0.3-0.3,0.4C71,9,70.8,9.2,70.6,9.3
							c-0.2,0.1-0.3,0.2-0.5,0.2c-0.2,0.1-0.4,0-0.5-0.2c0-0.1,0-0.5,0-1L70,4.9c0-0.3,0-0.5,0-0.7C70,4,69.8,4,69.5,4
							c-0.2,0.1-0.4,0.2-0.6,0.3c-0.2,0.2-0.4,0.4-0.7,0.7l-0.5,4.6c0,0.2-0.1,0.4-0.2,0.6c-0.1,0.2-0.2,0.3-0.4,0.4
							c-0.1,0-0.2,0-0.2-0.1c0,0,0-0.1,0-0.2c0-0.1,0-0.2,0-0.4L67.2,6c0.1-0.7,0.1-1.1,0.1-1.1c0-0.1-0.1-0.2-0.3-0.1
							c-0.2,0.1-0.6,0.3-1,0.7c-0.5,0.6-0.8,1.1-0.9,1.7l-0.4,3.3c0,0.2-0.1,0.4-0.2,0.6c-0.1,0.2-0.2,0.3-0.4,0.4
							c-0.1,0-0.2,0-0.2-0.1c0,0,0-0.1,0-0.2c0-0.1,0-0.2,0-0.4L64.2,7c0.1-0.6,0.1-0.9,0-1c0-0.1-0.1-0.1-0.2-0.1
							c0,0-0.1,0-0.1,0.1l-0.1,0.1l-0.1,0.1l-0.1,0.1c-0.1,0-0.2,0-0.2-0.1s0-0.2,0.1-0.3c0.1-0.2,0.3-0.3,0.4-0.5
							c0.2-0.2,0.4-0.3,0.5-0.5C64.8,4.6,65,4.5,65.1,4.5z"/>
					</g>
				</g>
			</g>
		</g>
		<g>
			<path fill="#EC1558" stroke="#EC1558" stroke-width="0.5" stroke-miterlimit="10" d="M6.6,34c0.2-0.1,0.5-0.1,0.8-0.2
				c0.3,0,0.5-0.1,0.8-0.1c0.2,0,0.5,0,0.6,0.1C8.9,34,9,34.1,9.1,34.2c0.1,0.5,0,0.8-0.3,0.9c-0.3,0.1-0.6,0-0.9-0.2
				c-0.3-0.2-0.8-0.3-1.4-0.1c-0.5,0.2-1,0.4-1.3,0.9c-0.3,0.4-0.6,0.9-0.8,1.5c-0.2,0.5-0.3,1.1-0.3,1.8c0,0.6,0.1,1.2,0.2,1.7
				c0.1,0.3,0.2,0.6,0.4,0.9c0.2,0.3,0.3,0.5,0.5,0.7s0.4,0.3,0.7,0.4c0.3,0.1,0.6,0.1,0.9,0c0.2-0.1,0.4-0.1,0.6-0.3
				c0.2-0.1,0.4-0.3,0.6-0.5s0.3-0.4,0.5-0.6c0.1-0.2,0.2-0.4,0.2-0.6C8.8,40.2,9,40,9.2,39.9c0.1,0,0.2,0,0.3,0.2s0.1,0.5,0,0.8
				S9.2,41.5,9,41.8c-0.2,0.3-0.5,0.6-0.9,0.9c-0.4,0.3-0.8,0.5-1.3,0.6c-0.4,0.1-0.8,0.1-1.2,0.1c-0.4-0.1-0.7-0.2-1.1-0.4
				c-0.3-0.2-0.6-0.5-0.8-0.8s-0.4-0.7-0.5-1.1C3,40.5,2.9,39.8,3,39s0.3-1.5,0.6-2.2s0.7-1.3,1.3-1.8C5.4,34.5,5.9,34.2,6.6,34z"/>
			<path fill="#EC1558" stroke="#EC1558" stroke-width="0.5" stroke-miterlimit="10" d="M21.3,38c-0.6,1-1.5,1.7-2.7,2.1
				c-1.6,0.5-2.6,0-3-1.3c-0.1-0.3-0.1-0.7-0.1-1.1c0-0.4,0.1-0.8,0.2-1.2c0.1-0.4,0.3-0.8,0.5-1.2c0.2-0.4,0.4-0.7,0.7-0.9
				c-0.1-0.2-0.2-0.3-0.2-0.5c-0.1-0.3-0.1-0.7,0-1.1c0.1-0.4,0.3-0.7,0.5-1s0.5-0.6,0.9-0.9s0.8-0.5,1.2-0.6
				c1.7-0.5,2.8,0.1,3.2,1.8c0.1,0.2,0.1,0.6,0,1.2L22.4,37c0,0.3,0,0.5,0,0.6c0,0.2,0.2,0.2,0.3,0.2c0,0,0.1-0.1,0.2-0.1
				c0.1-0.1,0.2-0.2,0.3-0.2c0.1-0.1,0.2-0.2,0.3-0.2c0.1-0.1,0.1-0.1,0.2-0.1s0.2,0,0.2,0.2c0,0.1,0,0.3-0.2,0.5
				c-0.1,0.2-0.3,0.4-0.5,0.6c-0.2,0.2-0.4,0.4-0.7,0.5c-0.2,0.1-0.4,0.2-0.5,0.3c-0.3,0.1-0.5,0-0.6-0.3
				C21.3,38.4,21.3,38.2,21.3,38z M19.6,33c-0.5,0.1-1,0.4-1.4,0.8c-0.4,0.4-0.7,0.8-0.9,1.4c-0.2,0.5-0.4,1-0.5,1.5s-0.1,1,0.1,1.4
				c0.1,0.5,0.3,0.9,0.6,1.1c0.2,0.2,0.6,0.2,1.2,0.1c0.5-0.1,1-0.4,1.4-0.8c0.4-0.4,0.7-0.9,1-1.4c0.2-0.5,0.4-1.1,0.5-1.7
				c0.1-0.6,0-1.1-0.1-1.6C21.1,33,20.5,32.8,19.6,33z M17.8,33.5c0.5-0.5,1.2-0.9,1.9-1.1c0.4-0.1,0.7-0.1,1-0.1s0.6,0.2,0.8,0.3
				c0-0.1,0-0.2,0-0.3s0-0.2,0-0.2c-0.1-0.4-0.4-0.7-0.8-0.9c-0.4-0.2-0.8-0.2-1.3-0.1c-0.6,0.2-1.1,0.5-1.4,1
				C17.8,32.5,17.7,33,17.8,33.5z"/>
			<path fill="#EC1558" stroke="#EC1558" stroke-width="0.5" stroke-miterlimit="10" d="M30.1,34.1c0.1,0,0.2,0,0.3,0.2
				c0.1,0.2,0.1,0.4,0,0.7c0,0.2-0.2,0.5-0.3,0.8c-0.3,0.4-0.6,0.8-1.1,1.1c-0.4,0.3-0.9,0.5-1.5,0.7c-0.5,0.2-1,0.1-1.4-0.1
				c-0.4-0.2-0.7-0.6-0.8-1.1c-0.1-0.4-0.1-0.7-0.1-1c0.1-0.3,0.1-0.7,0.3-1c0.1-0.3,0.3-0.6,0.5-0.9c0.2-0.3,0.4-0.6,0.6-0.8
				c0.2-0.3,0.5-0.6,0.7-0.9c0.2-0.3,0.5-0.6,0.6-0.8c0.2-0.3,0.3-0.5,0.4-0.8c0.1-0.2,0.1-0.5,0.1-0.7c-0.1-0.3-0.2-0.6-0.4-0.6
				c-0.2-0.1-0.4-0.1-0.7,0c-0.4,0.1-0.7,0.3-1,0.5s-0.5,0.5-0.8,0.8c-0.1,0.2-0.2,0.3-0.2,0.3c0,0.1-0.1,0.1-0.2,0.1
				s-0.2,0-0.3-0.2c-0.1-0.4,0.1-0.8,0.7-1.3c0.1-0.1,0.3-0.3,0.4-0.4s0.3-0.2,0.5-0.3c0.2-0.1,0.4-0.2,0.6-0.3
				c0.2-0.1,0.5-0.2,0.9-0.3c0.1,0,0.2,0,0.4,0c0.2,0,0.4,0,0.6,0.1s0.4,0.2,0.5,0.4c0.2,0.2,0.3,0.4,0.4,0.7c0.1,0.3,0.1,0.6,0,0.9
				s-0.3,0.6-0.5,1c-0.2,0.3-0.5,0.7-0.8,1c-0.3,0.3-0.6,0.7-0.9,1c-0.3,0.4-0.5,0.7-0.7,1s-0.3,0.5-0.3,0.7
				c-0.1,0.2-0.1,0.4-0.1,0.6c0,0.2,0.1,0.4,0.1,0.6c0.1,0.5,0.3,0.8,0.5,0.9c0.2,0.1,0.5,0.1,0.8,0c0.4-0.1,0.7-0.3,1.1-0.6
				c0.3-0.3,0.6-0.7,0.8-1.3C29.9,34.4,30,34.1,30.1,34.1z"/>
			<path fill="#EC1558" stroke="#EC1558" stroke-width="0.5" stroke-miterlimit="10" d="M37.6,33.4c-0.6,1-1.5,1.7-2.7,2.1
				c-1.6,0.5-2.6,0-3-1.3c-0.1-0.3-0.1-0.7-0.1-1.1c0-0.4,0.1-0.8,0.2-1.2c0.1-0.4,0.3-0.8,0.5-1.2c0.2-0.4,0.4-0.7,0.7-0.9
				c-0.1-0.2-0.2-0.3-0.2-0.5c-0.1-0.3-0.1-0.7,0-1.1s0.3-0.7,0.5-1s0.5-0.6,0.9-0.9s0.8-0.5,1.2-0.6c1.7-0.5,2.8,0.1,3.2,1.8
				c0.1,0.2,0.1,0.6,0,1.2l-0.3,3.7c0,0.4,0,0.5,0,0.6c0,0.2,0.2,0.2,0.3,0.2c0,0,0.1-0.1,0.2-0.1c0.1-0.1,0.2-0.2,0.3-0.2
				c0.1-0.1,0.2-0.2,0.3-0.2c0.1-0.1,0.1-0.1,0.2-0.1c0.1,0,0.2,0,0.2,0.2c0,0.1,0,0.3-0.2,0.5c-0.1,0.2-0.3,0.4-0.5,0.6
				c-0.2,0.2-0.4,0.4-0.7,0.5c-0.2,0.1-0.4,0.2-0.5,0.3c-0.3,0.1-0.5,0-0.6-0.3C37.6,33.8,37.6,33.6,37.6,33.4z M35.9,28.4
				c-0.5,0.1-1,0.4-1.4,0.8s-0.7,0.9-0.9,1.4s-0.4,1-0.5,1.5s-0.1,1,0.1,1.4c0.1,0.5,0.3,0.9,0.6,1.1c0.2,0.2,0.6,0.2,1.2,0.1
				c0.5-0.1,1-0.4,1.4-0.8c0.4-0.4,0.7-0.9,1-1.4c0.2-0.5,0.4-1.1,0.5-1.7s0-1.1-0.1-1.6C37.4,28.4,36.9,28.1,35.9,28.4z M34.1,28.9
				c0.5-0.5,1.2-0.9,2-1.1c0.4-0.1,0.7-0.1,1-0.1s0.6,0.2,0.8,0.3c0-0.1,0-0.2,0-0.3c0-0.1,0-0.2,0-0.2c-0.1-0.4-0.4-0.7-0.8-0.9
				c-0.4-0.2-0.8-0.2-1.3-0.1c-0.6,0.2-1.1,0.5-1.4,1C34.1,27.9,34,28.4,34.1,28.9z"/>
			<path fill="#EC1558" stroke="#EC1558" stroke-width="0.5" stroke-miterlimit="10" d="M43.2,25.2c0.6-1.3,1.5-2,2.5-2.3
				c1.1-0.3,1.9,0.2,2.3,1.6c0.1,0.4,0.2,0.8,0.2,1.4c0,0.5-0.1,1.1-0.2,1.6c-0.1,0.6-0.3,1.1-0.5,1.7s-0.5,1.1-0.8,1.6
				s-0.7,0.9-1.1,1.3c-0.4,0.4-0.9,0.6-1.4,0.7C43.5,33,43,33,42.7,32.6l-0.2,1.7c-0.2,1.4-0.4,2.5-0.8,3.2
				c-0.4,0.8-0.8,1.2-1.4,1.4C40,39,39.8,39,39.8,38.8c-0.1-0.2,0.1-0.4,0.4-0.5c0.4-0.1,0.7-0.5,0.9-1.2s0.4-1.6,0.4-2.8l0.4-7.4
				c0-0.4,0-0.7,0-0.9c0-0.2,0-0.4,0-0.5s-0.1-0.2-0.2-0.1c-0.1,0-0.2,0.1-0.4,0.3C41.1,25.9,41,26,41,26c-0.2,0-0.3,0-0.3-0.2
				c0-0.1,0-0.3,0.2-0.5s0.4-0.5,0.6-0.7c0.2-0.2,0.5-0.4,0.8-0.7c0.3-0.2,0.5-0.3,0.7-0.4s0.4,0,0.4,0.2c0,0.1,0,0.3,0,0.5
				C43.3,24.7,43.2,25,43.2,25.2L43.2,25.2z M45.3,24.1c-0.5,0.2-1,0.5-1.4,1.1s-0.6,1.2-0.8,1.9c-0.2,0.7-0.3,1.4-0.3,2.1
				s0,1.3,0.2,1.8c0.2,0.9,0.7,1.2,1.5,1c0.4-0.1,0.8-0.4,1.2-0.9s0.7-1,0.9-1.7s0.4-1.4,0.5-2.1c0.1-0.8,0-1.5-0.2-2.2
				C46.6,24.3,46.1,23.9,45.3,24.1z"/>
			<path fill="#EC1558" stroke="#EC1558" stroke-width="0.5" stroke-miterlimit="10" d="M55.5,23.8c0.4-0.1,0.6-0.1,0.7,0.1
				c0,0.1,0,0.3-0.1,0.5s-0.2,0.4-0.3,0.7c-0.1,0.2-0.3,0.4-0.4,0.6C55.3,25.9,55.1,26,55,26c-0.2,0-0.3,0-0.3-0.2
				c0-0.1,0-0.1,0.1-0.2s0.1-0.2,0-0.3c0-0.1-0.2-0.1-0.5,0l-4.6,1.3c-0.4,0.1-0.6,0.1-0.7-0.1c0-0.1,0-0.3,0.1-0.5s0.2-0.4,0.3-0.6
				s0.3-0.4,0.4-0.6c0.1-0.2,0.3-0.3,0.4-0.3c0.2,0,0.3,0,0.3,0.2c0,0,0,0.1-0.1,0.2s-0.1,0.2-0.1,0.3c0,0.1,0.2,0.1,0.5,0
				L55.5,23.8z"/>
			<path fill="#EC1558" stroke="#EC1558" stroke-width="0.5" stroke-miterlimit="10" d="M37.4,49.1c-0.6,1-1.5,1.7-2.7,2.1
				c-1.6,0.5-2.6,0-3-1.3c-0.1-0.3-0.1-0.7-0.1-1.1c0-0.4,0.1-0.8,0.2-1.2s0.3-0.8,0.5-1.2s0.4-0.7,0.7-0.9
				c-0.1-0.2-0.2-0.3-0.2-0.5c-0.1-0.3-0.1-0.7,0-1.1c0.1-0.4,0.3-0.7,0.5-1s0.5-0.6,0.9-0.9c0.4-0.3,0.8-0.5,1.2-0.6
				c1.7-0.5,2.8,0.1,3.2,1.8c0.1,0.2,0.1,0.6,0,1.2L38.5,48c0,0.3,0,0.5,0,0.6c0,0.2,0.2,0.2,0.3,0.2c0,0,0.1-0.1,0.2-0.1
				c0.1-0.1,0.2-0.2,0.3-0.2c0.1-0.1,0.2-0.2,0.3-0.2c0.1-0.1,0.1-0.1,0.2-0.1c0.1,0,0.2,0,0.2,0.2c0,0.1,0,0.3-0.2,0.5
				c-0.1,0.2-0.3,0.4-0.5,0.6c-0.2,0.2-0.4,0.4-0.7,0.5c-0.2,0.1-0.4,0.2-0.5,0.3c-0.3,0.1-0.5,0-0.6-0.3
				C37.5,49.5,37.4,49.3,37.4,49.1z M35.8,44.1c-0.5,0.1-1,0.4-1.4,0.8c-0.4,0.4-0.7,0.8-0.9,1.3s-0.4,1-0.5,1.5s-0.1,1,0.1,1.4
				c0.1,0.5,0.3,0.9,0.6,1.1c0.2,0.2,0.6,0.2,1.2,0.1c0.5-0.1,1-0.4,1.4-0.8c0.4-0.4,0.7-0.9,1-1.4c0.2-0.5,0.4-1.1,0.5-1.7
				c0.1-0.6,0-1.1-0.1-1.6C37.2,44.1,36.7,43.8,35.8,44.1z M33.9,44.6c0.5-0.5,1.2-0.9,1.9-1.1c0.4-0.1,0.7-0.1,1-0.1
				s0.6,0.2,0.8,0.3c0-0.1,0-0.2,0-0.3s0-0.2,0-0.2c-0.1-0.4-0.4-0.7-0.8-0.9C36.5,42,36,42,35.5,42.1c-0.6,0.2-1.1,0.5-1.4,1
				C33.9,43.6,33.8,44.1,33.9,44.6z"/>
			<path fill="#EC1558" stroke="#EC1558" stroke-width="0.5" stroke-miterlimit="10" d="M46.3,45.1c0.1,0,0.2,0,0.3,0.2
				s0.1,0.4,0,0.7c0,0.2-0.2,0.5-0.3,0.8c-0.3,0.4-0.6,0.8-1.1,1.1c-0.4,0.3-0.9,0.5-1.5,0.7c-0.5,0.2-1,0.1-1.4-0.1
				c-0.4-0.2-0.7-0.6-0.8-1.1c-0.1-0.4-0.1-0.7-0.1-1c0.1-0.3,0.1-0.7,0.3-1c0.1-0.3,0.3-0.6,0.5-0.9c0.2-0.3,0.4-0.6,0.6-0.8
				c0.2-0.3,0.5-0.6,0.7-0.9c0.2-0.3,0.4-0.6,0.6-0.8c0.2-0.3,0.3-0.5,0.4-0.8c0.1-0.2,0.1-0.5,0.1-0.7c-0.1-0.3-0.2-0.6-0.4-0.6
				c-0.2-0.1-0.4-0.1-0.7,0c-0.4,0.1-0.7,0.3-1,0.5s-0.5,0.5-0.8,0.8c-0.1,0.2-0.2,0.3-0.2,0.3c0,0.1-0.1,0.1-0.2,0.1
				c-0.1,0-0.2,0-0.3-0.2c-0.1-0.4,0.1-0.8,0.7-1.3c0.1-0.1,0.3-0.3,0.4-0.4c0.1-0.1,0.3-0.2,0.5-0.3s0.4-0.2,0.6-0.3
				c0.2-0.1,0.5-0.2,0.9-0.3c0.1,0,0.2,0,0.4,0s0.4,0,0.6,0.1c0.2,0.1,0.4,0.2,0.5,0.4c0.2,0.2,0.3,0.4,0.4,0.7
				c0.1,0.3,0.1,0.6,0,0.9c-0.1,0.3-0.3,0.6-0.5,1c-0.2,0.3-0.5,0.7-0.8,1s-0.6,0.7-0.9,1c-0.3,0.4-0.5,0.7-0.7,1s-0.3,0.5-0.3,0.7
				c-0.1,0.2-0.1,0.4-0.1,0.6c0,0.2,0.1,0.4,0.1,0.6c0.1,0.5,0.3,0.8,0.5,0.9c0.2,0.1,0.5,0.1,0.8,0c0.4-0.1,0.7-0.3,1.1-0.6
				c0.3-0.3,0.6-0.7,0.8-1.3C46,45.4,46.1,45.2,46.3,45.1z"/>
			<path fill="#EC1558" stroke="#EC1558" stroke-width="0.5" stroke-miterlimit="10" d="M53.8,44.4c-0.6,1-1.5,1.7-2.7,2.1
				c-1.6,0.5-2.6,0-3-1.3C48,44.9,48,44.5,48,44.1s0.1-0.8,0.2-1.2c0.1-0.4,0.3-0.8,0.5-1.2s0.4-0.7,0.7-0.9
				c-0.1-0.2-0.2-0.3-0.2-0.5c-0.1-0.3-0.1-0.7,0-1.1c0.1-0.4,0.3-0.7,0.5-1s0.5-0.6,0.9-0.9c0.4-0.3,0.8-0.5,1.2-0.6
				c1.7-0.5,2.8,0.1,3.2,1.8c0.1,0.2,0.1,0.6,0,1.2l-0.3,3.7c0,0.4,0,0.5,0,0.6c0,0.2,0.2,0.2,0.3,0.2c0,0,0.1-0.1,0.2-0.1
				c0.1-0.1,0.2-0.2,0.3-0.2c0.1-0.1,0.2-0.2,0.3-0.2c0.1-0.1,0.1-0.1,0.2-0.1c0.1,0,0.2,0,0.2,0.2c0,0.1,0,0.3-0.2,0.5
				c-0.1,0.2-0.3,0.4-0.5,0.6c-0.2,0.2-0.4,0.4-0.7,0.5c-0.2,0.1-0.4,0.2-0.5,0.3c-0.3,0.1-0.5,0-0.6-0.3
				C53.8,44.9,53.8,44.7,53.8,44.4z M52.1,39.5c-0.5,0.1-1,0.4-1.4,0.8c-0.4,0.4-0.7,0.8-0.9,1.4c-0.2,0.5-0.4,1-0.5,1.5
				s-0.1,1,0.1,1.4c0.1,0.5,0.3,0.9,0.6,1.1c0.2,0.2,0.6,0.2,1.2,0.1c0.5-0.1,1-0.4,1.4-0.8c0.4-0.4,0.7-0.9,1-1.4
				c0.2-0.5,0.4-1.1,0.5-1.7c0.1-0.6,0-1.1-0.1-1.6C53.6,39.4,53,39.2,52.1,39.5z M50.2,39.9c0.5-0.5,1.2-0.9,2-1.1
				c0.4-0.1,0.7-0.1,1-0.1s0.5,0.2,0.8,0.3c0-0.1,0-0.2,0-0.3s0-0.2,0-0.2c-0.1-0.4-0.4-0.7-0.8-0.9c-0.4-0.2-0.8-0.2-1.3-0.1
				c-0.6,0.2-1.1,0.5-1.4,1C50.2,38.9,50.1,39.4,50.2,39.9z"/>
			<path fill="#EC1558" stroke="#EC1558" stroke-width="0.5" stroke-miterlimit="10" d="M59.3,36.3c0.6-1.3,1.5-2,2.5-2.3
				c1.1-0.3,1.9,0.2,2.3,1.6c0.1,0.4,0.2,0.8,0.2,1.4c0,0.5-0.1,1.1-0.2,1.6c-0.1,0.6-0.3,1.1-0.5,1.7c-0.2,0.6-0.5,1.1-0.8,1.6
				s-0.7,0.9-1.1,1.3c-0.4,0.4-0.9,0.6-1.4,0.7c-0.7,0.2-1.2,0.1-1.5-0.2l-0.2,1.7c-0.2,1.4-0.4,2.5-0.8,3.3
				c-0.4,0.8-0.8,1.2-1.4,1.4c-0.3,0.1-0.5,0.1-0.5-0.1c-0.1-0.2,0.1-0.4,0.4-0.5c0.4-0.1,0.7-0.5,0.9-1.2s0.4-1.6,0.4-2.8l0.4-7.4
				c0-0.4,0-0.7,0-0.9s0-0.4,0-0.5s-0.1-0.2-0.2-0.1c-0.1,0-0.2,0.1-0.4,0.3c-0.1,0.2-0.3,0.3-0.3,0.3c-0.2,0-0.3,0-0.3-0.2
				c0-0.1,0-0.3,0.2-0.5s0.4-0.5,0.6-0.7c0.2-0.2,0.5-0.4,0.8-0.7c0.3-0.2,0.5-0.3,0.7-0.4c0.2-0.1,0.4,0,0.4,0.2c0,0.1,0,0.3,0,0.5
				C59.4,35.8,59.4,36,59.3,36.3L59.3,36.3z M61.5,35.2c-0.6,0.2-1,0.5-1.4,1.1s-0.6,1.2-0.8,1.9S59,39.6,59,40.3
				c0,0.7,0,1.3,0.2,1.8c0.2,0.9,0.7,1.2,1.5,1c0.4-0.1,0.8-0.4,1.2-0.9s0.7-1,0.9-1.7s0.4-1.4,0.5-2.1c0.1-0.8,0-1.5-0.2-2.2
				C62.7,35.3,62.2,34.9,61.5,35.2z"/>
			<path fill="#EC1558" stroke="#EC1558" stroke-width="0.5" stroke-miterlimit="10" d="M69.5,31.8c0.4-0.1,0.8-0.2,1.2-0.1
				c0.4,0.1,0.8,0.2,1.1,0.4c0.3,0.2,0.6,0.5,0.8,0.8c0.2,0.3,0.4,0.7,0.5,1.1c0.2,0.7,0.3,1.4,0.2,2.2c-0.1,0.8-0.2,1.5-0.5,2.2
				s-0.7,1.3-1.3,1.8c-0.5,0.5-1.2,0.9-1.9,1.1c-0.4,0.1-0.8,0.1-1.2,0.1c-0.4-0.1-0.7-0.2-1-0.4s-0.6-0.5-0.8-0.8
				c-0.2-0.3-0.4-0.7-0.5-1.1c-0.2-0.8-0.3-1.5-0.2-2.3c0.1-0.8,0.3-1.5,0.6-2.2c0.3-0.7,0.7-1.3,1.3-1.8
				C68.3,32.3,68.9,32,69.5,31.8z M69.5,32.6c-0.5,0.2-1,0.4-1.3,0.8c-0.4,0.4-0.6,0.9-0.8,1.4c-0.2,0.5-0.3,1.1-0.3,1.7
				c0,0.6,0.1,1.2,0.2,1.8c0.1,0.3,0.2,0.7,0.4,0.9c0.1,0.3,0.3,0.5,0.6,0.7c0.2,0.2,0.5,0.3,0.7,0.4c0.3,0.1,0.6,0.1,0.9,0
				c0.6-0.2,1-0.5,1.4-0.9s0.6-0.9,0.8-1.5c0.2-0.6,0.2-1.1,0.2-1.8c0-0.6-0.1-1.2-0.2-1.8c-0.1-0.3-0.2-0.6-0.4-0.9
				c-0.2-0.3-0.3-0.5-0.5-0.7s-0.5-0.3-0.7-0.4C70.1,32.5,69.8,32.5,69.5,32.6z"/>
			<path fill="#EC1558" stroke="#EC1558" stroke-width="0.5" stroke-miterlimit="10" d="M79,29.1c0.4-0.1,0.8,0.3,1,1.4l1.1,4
				c0.1,0.4,0.2,0.7,0.3,0.8c0.1,0.1,0.2,0.2,0.2,0.1c0.1,0,0.3-0.5,0.5-1.3l1.3-4.3c0.2-0.7,0.4-1.2,0.6-1.6s0.5-0.7,0.9-0.8
				c0.3-0.1,0.4,0,0.5,0.2c0,0.1,0,0.2,0,0.3c0,0.1,0,0.3,0,0.5l0.2,5.2c0,0.4,0,0.7,0,0.9s0,0.4,0,0.4c0,0.1,0.1,0.2,0.2,0.1
				c0.1,0,0.2-0.1,0.4-0.3c0.2-0.2,0.3-0.3,0.3-0.3c0.2,0,0.3,0,0.3,0.2c0,0.1,0,0.2-0.2,0.5c-0.1,0.2-0.3,0.5-0.5,0.7
				s-0.4,0.4-0.7,0.6c-0.2,0.2-0.4,0.3-0.6,0.4c-0.2,0.1-0.3,0-0.4-0.2c0-0.1,0-0.2-0.1-0.4c0-0.2,0-0.4,0-0.5l-0.2-5.9H84l-1.7,5.9
				c-0.2,0.6-0.3,1-0.5,1.3s-0.5,0.6-0.8,0.6c-0.1,0-0.2,0-0.4-0.2c-0.1-0.2-0.3-0.5-0.4-1c0-0.1-0.1-0.2-0.1-0.5
				C80,35.6,80,35.3,79.9,35c-0.1-0.4-0.2-0.8-0.3-1.2c-0.1-0.4-0.2-0.8-0.3-1.2c-0.1-0.4-0.2-0.7-0.2-1C79,31.3,79,31.1,79,31.1
				l0,0l-0.3,3.3c-0.1,0.8-0.2,1.4-0.3,2c-0.1,0.5-0.2,1-0.4,1.4c-0.2,0.4-0.4,0.7-0.6,0.9s-0.5,0.4-0.8,0.4c-0.4,0.1-0.7,0.1-1-0.1
				c-0.3-0.1-0.5-0.3-0.6-0.6c0-0.1,0-0.2,0-0.4c0-0.1,0.2-0.3,0.4-0.3c0.1,0,0.3,0,0.3,0c0.1,0.1,0.2,0.1,0.2,0.2
				C76,38,76,38,76.1,38.1c0.1,0.1,0.2,0.1,0.3,0c0.2,0,0.3-0.1,0.5-0.2c0.1-0.1,0.3-0.3,0.4-0.6s0.2-0.7,0.3-1.2
				c0.1-0.5,0.2-1.2,0.3-2.1l0.3-2.7c0-0.1,0-0.2,0-0.3c0-0.1,0-0.1,0-0.1c0-0.1-0.1-0.1-0.3-0.1c-0.3,0.1-0.5,0.2-0.7,0.4
				c-0.2,0.2-0.3,0.3-0.4,0.3c-0.2,0-0.3,0-0.3-0.2c0-0.1,0-0.3,0.2-0.5s0.4-0.5,0.6-0.7s0.5-0.5,0.8-0.7
				C78.6,29.3,78.8,29.2,79,29.1z"/>
		</g>
	</g>
</g>
</svg>
