<?xml version="1.0" encoding="utf-8"?>
<!-- Generator: Adobe Illustrator 17.0.0, SVG Export Plug-In . SVG Version: 6.00 Build 0)  -->
<!DOCTYPE svg PUBLIC "-//W3C//DTD SVG 1.1//EN" "http://www.w3.org/Graphics/SVG/1.1/DTD/svg11.dtd">
<svg version="1.1" id="Layer_1" xmlns="http://www.w3.org/2000/svg" xmlns:xlink="http://www.w3.org/1999/xlink" x="0px" y="0px"
	 width="20px" height="40.1px" viewBox="0 0 20 40.1" enable-background="new 0 0 20 40.1" xml:space="preserve">
<g>
	<polygon fill="none" points="0,40.1 0,0 20,0 20,40.1 	"/>
	<polygon fill="#B697C6" points="20,40.1 0,40.1 0,0 20,0 	"/>
	<path fill="#F8BAC0" d="M15,27.6c-1.6,0-2.5-0.9-2.5-2.5s1.3-2.8,2.8-2.8s2.8,1.3,2.8,2.8C17.9,26.6,16.6,27.6,15,27.6z"/>
	<path fill="#F8BAC0" d="M15,7.5c-1.6,0-2.8-1.3-2.8-2.8s1.3-2.8,2.8-2.8s2.8,1.3,2.8,2.8C17.9,6.3,16.6,7.5,15,7.5z"/>
	<path fill="#F8BAC0" d="M5,17.5c-1.6,0-2.8-1.3-2.8-2.5c0-1.6,1.3-2.8,2.8-2.8s2.8,1.3,2.8,2.8C7.8,16.3,6.6,17.5,5,17.5z"/>
	<path fill="#F8BAC0" d="M5,37.9c-1.6,0-2.8-1.3-2.8-2.8s1.3-2.8,2.8-2.8s2.8,1.3,2.8,2.8S6.6,37.9,5,37.9z"/>
</g>
</svg>
