<?xml version="1.0" encoding="utf-8"?>
<!-- Generator: Adobe Illustrator 17.0.0, SVG Export Plug-In . SVG Version: 6.00 Build 0)  -->
<!DOCTYPE svg PUBLIC "-//W3C//DTD SVG 1.1//EN" "http://www.w3.org/Graphics/SVG/1.1/DTD/svg11.dtd">
<svg version="1.1" id="Layer_1" xmlns="http://www.w3.org/2000/svg" xmlns:xlink="http://www.w3.org/1999/xlink" x="0px" y="0px"
	 width="254.3px" height="214.6px" viewBox="0 0 254.3 214.6" enable-background="new 0 0 254.3 214.6" xml:space="preserve">
<g>
	<g>
		<path fill-rule="evenodd" clip-rule="evenodd" fill="#FFFFFF" d="M90.6,4.9C73.7,8.2,63.1,16.8,57.5,32.7
			c-1.5,4.3-0.4,8.4-4.1,11.2c-4.9,3.6-18.3-3.4-35.2,10.8C-3.6,73,1.1,107.1,23.2,120c1.8,1,3.5,1.8,5,2.8
			c4.2,2.7,3.2,6.4,1.6,10.9c-13.1,36.1,23.6,67.6,57,50.5c3.9-2,8.1-0.9,10.1,2.8c5.9,10.3,11.2,17.2,24.4,21.7
			c18.1,6.1,35.7-3,44-13.7c6.2-8.1,7.9-6.1,14.2-2.4c16.5,9.7,37.1,6.7,50.1-7.2c11.4-12.1,14.5-31,6.8-45.9
			c-5.4-10.5,0.7-9.3,6.8-19.2c11-17.9,5.6-42.3-11.3-54c-4.9-3.4-9.4-5.6-15.6-6.7c-9.7-1.8-9.9-1.3-10.4-12.6
			c-0.7-16.7-11.7-30.4-25.4-35.8c-13.3-5.2-30.1-3.2-41.1,6.6c-10.5,9.3-11.1-1.5-23.6-8.4C109.7,6.1,99.6,3.1,90.6,4.9L90.6,4.9z"
			/>
		<path fill="#603813" d="M133.2,212.2c-4.2,0-8.4-0.7-12.4-2.1c-13-4.4-18.7-11-25.2-22.3c-1.1-1.9-2.9-3-5-3
			c-1.1,0-2.1,0.3-3.2,0.8c-6.4,3.3-13.1,5-20,5c-13.6,0-26.5-6.7-34.4-18c-7.9-11.3-9.7-25.7-4.7-39.3c1.8-4.9,2-7.2-1-9.2
			c-0.8-0.5-1.7-1-2.7-1.6c-0.7-0.4-1.4-0.8-2.2-1.2C11.3,114.8,3.9,102.7,2.7,89C1.5,75.3,6.8,62.3,17.2,53.6
			c11.7-9.8,21.9-9.9,28.6-9.9c3.1,0,5.5,0,6.7-1c2-1.5,2.2-3.4,2.6-5.9c0.2-1.4,0.4-2.9,1-4.5C61.8,16.1,72.6,6.9,90.3,3.4
			c1.9-0.4,3.9-0.6,6-0.6c6.6,0,14.2,2,20.3,5.3c4.5,2.4,7.5,5.4,9.9,7.7c2.4,2.4,4.2,4.1,6.1,4.1c1.5,0,3.5-1.1,5.9-3.2
			c7.1-6.3,16.7-9.8,27-9.8c5.4,0,10.8,1,15.6,2.9c15.1,5.9,25.7,20.9,26.4,37.1c0.2,5,0.3,7.7,1.2,8.8c0.8,1,2.6,1.4,6.5,2.1
			l1.4,0.3c6,1.1,10.7,3.1,16.2,7c17.9,12.4,23.1,37.5,11.8,56c-2,3.3-4,5.4-5.6,7.1c-3.2,3.3-4.3,4.5-1.1,10.7
			c7.9,15.3,5,34.8-7.1,47.6c-8.1,8.6-18.9,13.3-30.6,13.3c-7.5,0-14.9-2-21.4-5.9c-0.5-0.3-1-0.6-1.4-0.8c-2.1-1.3-3.6-2.2-4.9-2.2
			c-1.5,0-3.3,1.5-6,5C160.7,203.4,148.5,212.2,133.2,212.2z M90.7,181.8c3.2,0,5.9,1.6,7.6,4.5c6.1,10.7,11.4,16.9,23.6,21
			c3.7,1.3,7.5,1.9,11.4,1.9c14.2,0,25.5-8.1,30.9-15.1c3.4-4.4,5.8-6.2,8.4-6.2c2.1,0,3.9,1.1,6.4,2.6c0.4,0.3,0.9,0.5,1.4,0.8
			c6.1,3.6,12.9,5.4,19.9,5.4c10.8,0,20.9-4.4,28.4-12.3c11.2-11.9,13.9-30,6.6-44.2c-4-7.8-2.2-10.2,1.6-14.1
			c1.5-1.6,3.4-3.5,5.2-6.5c10.5-17.2,5.6-40.5-10.9-52c-5.1-3.6-9.5-5.4-15-6.5l-1.4-0.3c-9.2-1.7-9.8-2.5-10.2-13.8
			C203.9,32,194,18.1,180,12.6c-4.5-1.8-9.5-2.7-14.5-2.7c-9.6,0-18.5,3.2-25,9c-3.1,2.7-5.6,4-7.9,4c-3.2,0-5.4-2.2-8.2-4.9
			c-2.3-2.2-5.1-5-9.2-7.3c-5.6-3.1-12.7-4.9-18.8-4.9c-1.9,0-3.7,0.2-5.4,0.5c-16.5,3.3-26.7,11.8-32,26.9c-0.5,1.3-0.7,2.7-0.9,4
			c-0.4,2.8-0.8,5.7-3.8,7.9c-2,1.5-4.9,1.5-8.5,1.6c-6.7,0-15.8,0.1-26.7,9.2C9.4,64,4.5,76,5.7,88.8c1.1,12.7,7.9,23.9,18.3,29.9
			c0.7,0.4,1.4,0.8,2.1,1.1c1.1,0.6,2.1,1.1,3,1.7c5.5,3.6,3.5,8.8,2.2,12.7c-4.6,12.7-3,26,4.4,36.6c7.3,10.5,19.3,16.7,31.9,16.7
			c6.4,0,12.6-1.6,18.6-4.6C87.6,182.2,89.1,181.8,90.7,181.8z"/>
	</g>
</g>
</svg>
