<?xml version="1.0" encoding="utf-8"?>
<!-- Generator: Adobe Illustrator 17.0.0, SVG Export Plug-In . SVG Version: 6.00 Build 0)  -->
<!DOCTYPE svg PUBLIC "-//W3C//DTD SVG 1.1//EN" "http://www.w3.org/Graphics/SVG/1.1/DTD/svg11.dtd">
<svg version="1.1" id="Layer_1" xmlns="http://www.w3.org/2000/svg" xmlns:xlink="http://www.w3.org/1999/xlink" x="0px" y="0px"
	 width="90px" height="55px" viewBox="0 -2.5 90 55" enable-background="new 0 -2.5 90 55" xml:space="preserve">
<g>
	<g>
		<g>
			<g>
				<g>
					<g>
						<path fill="#FFFFFF" stroke="#FFFFFF" stroke-width="4" stroke-linejoin="round" stroke-miterlimit="10" d="M21,13
							c0.1,0,0.2-0.1,0.3-0.2c0.1-0.1,0.2-0.1,0.3-0.2c0.1-0.1,0.2-0.1,0.2-0.2c0.1-0.1,0.2-0.1,0.2-0.1c0.1,0,0.2,0,0.2,0.1
							s-0.1,0.3-0.3,0.7c-0.2,0.4-0.4,0.6-0.5,0.7c-0.1,0-0.3,0.1-0.7,0.1c-0.4,0.1-0.8,0.2-1.3,0.3s-1.1,0.2-1.7,0.3
							s-1.2,0.2-1.8,0.3c-0.6,0.1-1.1,0.2-1.5,0.3c-0.5,0.1-0.8,0.2-1,0.2c-0.4,0.1-0.9,0.3-1.3,0.6c-0.4,0.2-0.8,0.5-1,0.9
							c-0.3,0.3-0.5,0.7-0.6,1.1s-0.1,0.9,0,1.3c0.4,1.3,1.4,1.8,3,1.4c0.2,0,0.3,0,0.3,0.2s0,0.3-0.2,0.3c-1.1,0.3-2,0.3-2.6,0.1
							c-0.6-0.2-1.1-0.8-1.3-1.7c-0.2-0.6-0.1-1.2,0.1-1.7c0.2-0.5,0.6-1,1-1.5c0.5-0.4,1-0.8,1.6-1.2c0.6-0.3,1.2-0.6,1.9-0.8
							c0.2-0.1,0.5-0.1,0.9-0.2c0.4-0.1,0.8-0.2,1.2-0.3s0.9-0.2,1.4-0.3s0.9-0.2,1.4-0.3c0.4-0.1,0.8-0.2,1.1-0.2
							C20.6,13.1,20.8,13,21,13z M15.9,17.8c0-0.4,0-0.6,0-0.7S15.8,17,15.7,17c-0.1,0-0.2,0.1-0.3,0.2s-0.2,0.2-0.2,0.2
							c-0.1,0-0.1,0-0.2-0.1c0,0,0-0.2,0.2-0.3c0.1-0.2,0.3-0.3,0.4-0.5c0.2-0.2,0.3-0.4,0.5-0.5c0.2-0.2,0.3-0.2,0.4-0.3
							c0.1,0,0.2,0,0.2,0.2c0,0.1,0,0.2,0,0.4c0,0.2,0,0.4,0,0.6l-0.2,1.8c0.2-0.1,0.4-0.3,0.6-0.4s0.5-0.2,0.8-0.3
							c0.4-0.1,0.8-0.1,1.2-0.1c0.4,0,0.8,0.1,1.1,0.3c0.4,0.2,0.7,0.4,0.9,0.7c0.3,0.3,0.5,0.7,0.6,1.2c0.2,0.6,0.2,1.2,0.1,1.8
							c-0.1,0.6-0.3,1.1-0.7,1.6c-0.3,0.5-0.7,0.9-1.2,1.3s-1.1,0.6-1.7,0.8c-0.8,0.2-1.5,0.3-2.1,0.3c-0.7,0-1-0.1-1,0
							c-0.3,0.1-0.5,0-0.5-0.1s0-0.2,0.1-0.3c0.2-0.3,0.3-0.5,0.4-0.8c0.1-0.3,0.1-0.6,0.2-0.9l0.3-3.7c-0.2,0.2-0.4,0.4-0.5,0.6
							s-0.2,0.4-0.3,0.6s-0.1,0.3-0.1,0.4s0,0.2-0.1,0.2c0,0-0.1,0-0.2,0c-0.1,0-0.1,0-0.1-0.1c0-0.2,0-0.4,0-0.6
							c0.1-0.2,0.2-0.4,0.3-0.7c0.1-0.2,0.3-0.4,0.4-0.6c0.2-0.2,0.3-0.4,0.5-0.5L15.9,17.8z M16.2,23.3c0,0.1,0,0.1,0,0.3
							c0,0.1,0,0.2-0.1,0.3c0,0.1-0.1,0.2-0.1,0.3c0,0.1-0.1,0.2-0.1,0.3l-0.2,0.4c0,0.1,0.4,0.2,1.1,0.2c0.3,0,0.7,0,1-0.1
							c0.3,0,0.6-0.1,0.9-0.2c0.5-0.1,0.9-0.3,1.3-0.6c0.4-0.3,0.6-0.6,0.9-1c0.2-0.4,0.3-0.8,0.4-1.3c0-0.5,0-1-0.2-1.5
							c-0.1-0.4-0.3-0.7-0.5-1s-0.4-0.5-0.7-0.6c-0.3-0.1-0.5-0.2-0.8-0.3c-0.3,0-0.6,0-0.8,0.1c-0.4,0.1-0.7,0.2-0.9,0.3
							c-0.2,0.1-0.5,0.3-0.7,0.5L16.2,23.3z"/>
						<path fill="#FFFFFF" stroke="#FFFFFF" stroke-width="4" stroke-linejoin="round" stroke-miterlimit="10" d="M24.4,17.3
							c0.2,0,0.3,0,0.3,0.1s0,0.2,0,0.4c0,0.2,0,0.3,0,0.5L24.3,22c0,0.3,0,0.5,0,0.6c0.1,0.2,0.2,0.3,0.4,0.2
							c0.2-0.1,0.4-0.2,0.6-0.3c0.2-0.2,0.4-0.3,0.6-0.6c0.2-0.2,0.3-0.4,0.4-0.7c0.1-0.2,0.2-0.5,0.2-0.7l0.3-3.3
							c0-0.1,0-0.2,0-0.2c0-0.1,0-0.1,0-0.2c0,0,0-0.1,0.1-0.1l0.1-0.1c0-0.1,0.1-0.1,0.2-0.1s0.1-0.1,0.1-0.1c0.1,0,0.2,0,0.2,0.1
							c0,0,0,0.2,0,0.6l-0.4,4.1c0,0.2,0,0.4,0,0.5s0,0.2,0,0.2c0,0.1,0.1,0.2,0.2,0.1c0.1,0,0.1-0.1,0.2-0.1
							c0.1-0.1,0.1-0.1,0.2-0.2s0.1-0.1,0.2-0.2l0.1-0.1c0.1,0,0.2,0,0.2,0.1s0,0.2-0.1,0.3c-0.1,0.1-0.2,0.3-0.4,0.4
							c-0.2,0.1-0.3,0.2-0.5,0.3c-0.2,0.1-0.3,0.2-0.4,0.2c-0.2,0.1-0.3,0-0.4-0.2c0-0.1-0.1-0.3-0.1-0.4s0-0.2,0-0.4
							c-0.1,0.2-0.2,0.4-0.4,0.6c-0.2,0.2-0.3,0.4-0.6,0.5c-0.5,0.4-0.9,0.6-1.4,0.8c-0.3,0.1-0.6-0.1-0.7-0.5
							c-0.1-0.2-0.1-0.6-0.1-0.9l0.3-3.4c0-0.2,0-0.3,0-0.3c0-0.1-0.1-0.1-0.2-0.1c0,0-0.1,0-0.1,0.1c-0.1,0-0.1,0.1-0.2,0.1
							s-0.1,0.1-0.2,0.1l-0.1,0.1c-0.1,0-0.2,0-0.2-0.1s0-0.2,0.1-0.4c0.1-0.2,0.2-0.3,0.4-0.5c0.2-0.2,0.3-0.3,0.5-0.4
							C24.1,17.5,24.3,17.4,24.4,17.3z"/>
						<path fill="#FFFFFF" stroke="#FFFFFF" stroke-width="4" stroke-linejoin="round" stroke-miterlimit="10" d="M33.4,15.5
							c0.2-0.3,0.4-0.5,0.7-0.7s0.5-0.3,0.8-0.4c0.1,0,0.2,0,0.4,0s0.3,0.1,0.5,0.2c0.2,0.1,0.3,0.2,0.5,0.4
							c0.1,0.2,0.2,0.4,0.3,0.7c0.1,0.5,0.2,1,0.1,1.6c-0.1,0.6-0.2,1.1-0.5,1.7c-0.2,0.5-0.5,1-0.9,1.4s-0.8,0.7-1.2,0.8
							c-0.2,0.1-0.4,0.1-0.6,0c-0.2,0-0.3-0.1-0.4-0.2l-0.2,1.2c-0.2,1.9-0.8,2.9-1.5,3.1c-0.2,0.1-0.3,0-0.3,0c0-0.2,0-0.3,0.2-0.3
							c0.1,0,0.3-0.2,0.4-0.4c0.1-0.2,0.2-0.5,0.3-0.7c0.1-0.3,0.1-0.6,0.2-0.8c0-0.3,0.1-0.5,0.1-0.8v-1.2c-0.4,0.5-0.9,0.9-1.4,1
							c-0.1,0-0.2,0-0.4,0c-0.2,0-0.3-0.1-0.5-0.2s-0.3-0.2-0.5-0.4c-0.1-0.2-0.3-0.4-0.3-0.7c-0.1-0.4-0.1-0.9-0.1-1.5
							c0.1-0.6,0.2-1.1,0.4-1.7c0.2-0.5,0.5-1,0.9-1.4s0.8-0.7,1.3-0.8c0.1,0,0.3-0.1,0.4,0c0.1,0,0.3,0,0.4,0.1l0.1-3.3
							c0-0.6,0-0.9,0-0.9c0-0.1-0.1-0.1-0.2-0.1c0,0-0.1,0-0.1,0.1l-0.1,0.1l-0.1,0.1L32,11.6c-0.1,0-0.2,0-0.2-0.1s0-0.2,0.1-0.4
							s0.2-0.3,0.4-0.5s0.3-0.3,0.5-0.4c0.2-0.1,0.3-0.2,0.5-0.2s0.3,0,0.3,0.1s0,1-0.1,2.9c0,0.5,0,0.8,0,1.2c0,0.3,0,0.6,0,0.8
							S33.5,15.4,33.4,15.5C33.5,15.4,33.4,15.5,33.4,15.5z M32.4,16.4c-0.1-0.3-0.2-0.5-0.3-0.5s-0.3-0.1-0.4,0
							c-0.3,0.1-0.6,0.3-0.9,0.6c-0.3,0.3-0.5,0.6-0.6,1.1C30,18,29.9,18.5,29.9,19s0,1.1,0.2,1.6c0.1,0.3,0.2,0.5,0.4,0.6
							c0.2,0.1,0.4,0.1,0.7,0c0.3-0.1,0.5-0.2,0.7-0.5c0.2-0.2,0.3-0.5,0.4-0.8c0.1-0.3,0.2-0.6,0.2-1s0.1-0.7,0.1-1s0-0.6,0-0.9
							C32.5,16.7,32.5,16.5,32.4,16.4z M33.3,20c0.1,0.3,0.2,0.4,0.3,0.5c0.1,0,0.3,0.1,0.4,0c0.4-0.1,0.7-0.3,0.9-0.6
							c0.3-0.3,0.5-0.7,0.6-1.1s0.2-0.9,0.3-1.4c0-0.5,0-1-0.2-1.6c-0.1-0.3-0.2-0.5-0.4-0.6s-0.4-0.1-0.7,0s-0.5,0.2-0.7,0.5
							c-0.2,0.2-0.3,0.5-0.4,0.8c-0.1,0.3-0.2,0.7-0.2,1c0,0.4-0.1,0.7-0.1,1s0,0.6,0,0.9C33.2,19.8,33.3,19.9,33.3,20z"/>
						<path fill="#FFFFFF" stroke="#FFFFFF" stroke-width="4" stroke-linejoin="round" stroke-miterlimit="10" d="M38.9,13.3
							c0.2,0,0.3,0,0.3,0.1s0,0.2,0,0.4c0,0.1,0,0.3,0,0.5L38.8,18c0,0.3,0,0.5,0,0.6c0.1,0.2,0.2,0.3,0.4,0.2
							c0.2-0.1,0.4-0.2,0.6-0.3c0.2-0.2,0.4-0.3,0.6-0.6c0.2-0.2,0.3-0.4,0.4-0.7c0.1-0.2,0.2-0.5,0.2-0.7l0.3-3.3
							c0-0.1,0-0.2,0-0.2c0-0.1,0-0.1,0-0.2c0,0,0-0.1,0.1-0.1l0.1-0.1c0-0.1,0.1-0.1,0.2-0.1c0.1,0,0.1-0.1,0.1-0.1
							c0.1,0,0.2,0,0.2,0.1c0,0,0,0.2,0,0.6l-0.4,4.1c0,0.2,0,0.4,0,0.5s0,0.2,0,0.2c0,0.1,0.1,0.2,0.2,0.1c0.1,0,0.1-0.1,0.2-0.1
							c0.1-0.1,0.1-0.1,0.2-0.2c0.1-0.1,0.1-0.1,0.2-0.2l0.1-0.1c0.1,0,0.2,0,0.2,0.1s0,0.2-0.1,0.3c-0.1,0.1-0.2,0.3-0.4,0.4
							s-0.3,0.2-0.5,0.3c-0.2,0.1-0.3,0.2-0.4,0.2c-0.2,0.1-0.3,0-0.4-0.2c0-0.1-0.1-0.3-0.1-0.4s0-0.2,0-0.4
							c-0.1,0.2-0.2,0.4-0.4,0.6s-0.3,0.4-0.6,0.5c-0.5,0.4-0.9,0.6-1.4,0.8c-0.3,0.1-0.6-0.1-0.7-0.5c-0.1-0.2-0.1-0.6,0-0.9
							l0.3-3.4c0-0.2,0-0.3,0-0.3c0-0.1-0.1-0.1-0.2-0.1c0,0-0.1,0-0.1,0.1c-0.1,0-0.1,0.1-0.2,0.1c-0.1,0-0.1,0.1-0.2,0.1l-0.1,0.1
							c-0.1,0-0.2,0-0.2-0.1s0-0.2,0.1-0.4c0.1-0.1,0.2-0.3,0.4-0.5s0.3-0.3,0.5-0.4C38.7,13.5,38.8,13.4,38.9,13.3z"/>
						<path fill="#FFFFFF" stroke="#FFFFFF" stroke-width="4" stroke-linejoin="round" stroke-miterlimit="10" d="M48,11.5
							c0.2-0.3,0.4-0.5,0.7-0.7s0.5-0.3,0.8-0.4c0.1,0,0.2,0,0.4,0s0.3,0.1,0.5,0.2c0.2,0.1,0.3,0.2,0.5,0.4
							c0.1,0.2,0.2,0.4,0.3,0.7c0.1,0.5,0.2,1,0.1,1.6c-0.1,0.6-0.2,1.1-0.5,1.7c-0.2,0.5-0.5,1-0.9,1.4s-0.8,0.7-1.2,0.8
							c-0.2,0.1-0.4,0.1-0.6,0c-0.2,0-0.3-0.1-0.4-0.2l-0.2,1.2c-0.3,1.8-0.8,2.8-1.5,3c-0.2,0.1-0.3,0-0.3-0.1c0-0.2,0-0.3,0.2-0.3
							c0.1,0,0.3-0.2,0.4-0.4c0.1-0.2,0.2-0.4,0.3-0.7c0.1-0.3,0.1-0.6,0.2-0.8c0-0.3,0.1-0.5,0.1-0.8v-1.2c-0.4,0.5-0.9,0.9-1.4,1
							c-0.1,0-0.2,0-0.4,0s-0.3-0.1-0.5-0.2s-0.3-0.2-0.5-0.4c-0.1-0.2-0.2-0.4-0.3-0.7c-0.1-0.4-0.2-0.9-0.1-1.5
							c0.1-0.6,0.2-1.1,0.4-1.7c0.2-0.5,0.5-1,0.9-1.4s0.8-0.7,1.3-0.8c0.1,0,0.3-0.1,0.4,0c0.1,0,0.3,0,0.4,0.1L47.2,8
							c0-0.6,0-0.9,0-0.9C47.2,7,47.1,7,47.1,7S47,7,47,7.1l-0.1,0.1l-0.1,0.1l-0.1,0.1c-0.1,0-0.2,0-0.2-0.1s0-0.2,0.1-0.4
							c0.1-0.1,0.2-0.3,0.4-0.5s0.3-0.3,0.5-0.4s0.3-0.2,0.5-0.2s0.3,0,0.3,0.1s0,1-0.1,2.9c0,0.5,0,0.8,0,1.2c0,0.3,0,0.6,0,0.8
							s0,0.4,0,0.5C48,11.4,48,11.5,48,11.5z M47,12.4c-0.1-0.3-0.2-0.5-0.3-0.5s-0.3-0.1-0.4,0c-0.3,0.1-0.6,0.3-0.9,0.6
							c-0.3,0.3-0.5,0.6-0.6,1.1c-0.2,0.4-0.3,0.9-0.3,1.4s0,1.1,0.2,1.6c0.1,0.3,0.2,0.5,0.4,0.6s0.4,0.1,0.7,0s0.5-0.2,0.7-0.5
							c0.2-0.2,0.3-0.5,0.4-0.8c0.1-0.3,0.2-0.6,0.2-1s0.1-0.7,0.1-1s0-0.6,0-0.9C47.1,12.7,47,12.5,47,12.4z M47.9,16
							c0.1,0.3,0.2,0.4,0.3,0.5c0.1,0,0.3,0.1,0.4,0c0.4-0.1,0.7-0.3,0.9-0.6c0.3-0.3,0.5-0.7,0.6-1.1c0.1-0.4,0.2-0.9,0.3-1.4
							c0-0.5,0-1-0.2-1.6c-0.1-0.3-0.2-0.5-0.4-0.6s-0.4-0.1-0.7,0s-0.5,0.2-0.7,0.5c-0.2,0.2-0.3,0.5-0.4,0.8
							c-0.1,0.3-0.2,0.7-0.2,1c0,0.4-0.1,0.7-0.1,1s0,0.6,0,0.9C47.8,15.8,47.8,15.9,47.9,16z"/>
						<path fill="#FFFFFF" stroke="#FFFFFF" stroke-width="4" stroke-linejoin="round" stroke-miterlimit="10" d="M53.8,10.3
							c0.4-0.8,1-1.4,1.7-1.6c0.8-0.2,1.3,0.2,1.6,1.1c0.1,0.3,0.1,0.6,0.1,0.9c0,0.3-0.1,0.7-0.1,1.1c-0.1,0.4-0.2,0.8-0.4,1.1
							c-0.2,0.4-0.3,0.7-0.6,1.1c-0.2,0.3-0.5,0.6-0.8,0.8s-0.6,0.4-1,0.5c-0.5,0.1-0.8,0.1-1-0.1l-0.2,1.2
							c-0.1,0.9-0.3,1.7-0.6,2.2s-0.6,0.8-0.9,0.9c-0.2,0.1-0.3,0-0.3-0.1c0-0.2,0-0.3,0.2-0.3c0.2-0.1,0.4-0.3,0.6-0.8
							c0.1-0.5,0.2-1.1,0.3-1.9l0.3-5c0-0.3,0-0.5,0-0.6c0-0.2,0-0.3,0-0.3c0-0.1-0.1-0.1-0.2-0.1c-0.1,0-0.2,0.1-0.3,0.2
							c-0.1,0.1-0.2,0.2-0.2,0.2c-0.1,0-0.2,0-0.2-0.1s0-0.2,0.1-0.3c0.1-0.2,0.2-0.3,0.4-0.5s0.3-0.3,0.5-0.4
							c0.2-0.1,0.3-0.2,0.5-0.3c0.2,0,0.3,0,0.3,0.1s0,0.2,0,0.4C53.9,10,53.8,10.2,53.8,10.3L53.8,10.3z M55.3,9.6
							c-0.4,0.1-0.7,0.3-0.9,0.7s-0.4,0.8-0.6,1.3c-0.1,0.5-0.2,0.9-0.2,1.4s0,0.9,0.1,1.2c0.2,0.6,0.5,0.8,1,0.7
							c0.3-0.1,0.5-0.3,0.8-0.6s0.5-0.7,0.6-1.1c0.2-0.4,0.3-0.9,0.3-1.4c0.1-0.5,0-1-0.1-1.5C56.1,9.7,55.8,9.5,55.3,9.6z"/>
						<path fill="#FFFFFF" stroke="#FFFFFF" stroke-width="4" stroke-linejoin="round" stroke-miterlimit="10" d="M59.8,7.6
							c0.2,0,0.3,0,0.3,0.1s0,0.2,0,0.4c0,0.1,0,0.3,0,0.5l-0.4,3.7c0,0.2,0,0.4,0,0.6c0.1,0.2,0.2,0.3,0.4,0.2
							c0.3-0.1,0.5-0.2,0.7-0.4s0.4-0.4,0.6-0.7c0.2-0.3,0.3-0.6,0.4-0.9c0.1-0.3,0.2-0.6,0.2-0.8l0.3-2.7c0-0.2,0-0.3,0.1-0.4
							c0-0.1,0.1-0.2,0.2-0.3c0.1-0.1,0.2-0.2,0.3-0.2s0.2,0,0.2,0.1c0,0,0,0.2,0,0.6l-0.4,4.4c-0.1,0.7-0.1,1.4-0.2,1.9
							c-0.1,0.6-0.2,1.1-0.4,1.6s-0.4,0.9-0.6,1.2c-0.3,0.3-0.6,0.5-1.1,0.6c-0.1,0-0.3,0-0.5,0s-0.4,0-0.6-0.1
							c-0.2,0-0.4-0.1-0.5-0.2c-0.2-0.1-0.3-0.2-0.3-0.4c-0.1-0.3,0-0.4,0.3-0.5c0.1,0,0.2,0,0.3,0.1s0.2,0.2,0.4,0.3
							c0.1,0.1,0.3,0.2,0.4,0.3c0.2,0.1,0.3,0.1,0.5,0c0.3-0.1,0.6-0.2,0.8-0.5c0.2-0.2,0.3-0.5,0.5-0.9c0.1-0.4,0.2-0.8,0.2-1.4
							c0-0.5,0.1-1.2,0.1-1.9l0,0c-0.1,0.2-0.3,0.5-0.5,0.7s-0.4,0.4-0.6,0.5c-0.2,0.2-0.4,0.3-0.6,0.4C60,13.9,59.8,14,59.6,14
							c-0.3,0.1-0.6-0.1-0.7-0.5c-0.1-0.2-0.1-0.6-0.1-0.9l0.3-3.4c0-0.1,0-0.2,0-0.3S59,8.8,58.9,8.8c0,0-0.1,0-0.1,0.1
							c-0.1,0-0.1,0.1-0.2,0.1c-0.1,0-0.1,0.1-0.2,0.1l-0.1,0.1c-0.1,0-0.2,0-0.2-0.1s0-0.2,0.1-0.3c0.1-0.2,0.2-0.3,0.4-0.5
							C59,8.1,59.2,8,59.4,7.8C59.6,7.7,59.7,7.6,59.8,7.6z"/>
						<path fill="#FFFFFF" stroke="#FFFFFF" stroke-width="4" stroke-linejoin="round" stroke-miterlimit="10" d="M66,5.9
							c0.2,0,0.3,0,0.3,0.1c0.1,0.2,0,0.5,0,0.9c0.1-0.1,0.2-0.3,0.3-0.4C66.8,6.3,67,6.1,67.2,6c0.2-0.2,0.5-0.3,0.7-0.5
							c0.2-0.1,0.5-0.2,0.7-0.3c0.2-0.1,0.4,0,0.4,0.1s0,0.2,0,0.4c0.5-0.6,1.1-0.9,1.7-1.1c0.4-0.1,0.6,0.1,0.7,0.5
							c0.1,0.2,0.1,0.5,0,0.9L71,9.4c0,0.3,0,0.4,0,0.5s0.1,0.2,0.2,0.1c0,0,0.1,0,0.1-0.1c0.1-0.1,0.1-0.1,0.2-0.2
							c0.1-0.1,0.1-0.1,0.2-0.2c0.1-0.1,0.1-0.1,0.1-0.1c0.1,0,0.1,0,0.2,0.1c0,0.1,0,0.2-0.1,0.3s-0.2,0.2-0.3,0.4
							c-0.1,0.1-0.3,0.2-0.4,0.3c-0.2,0.1-0.3,0.2-0.4,0.2c-0.2,0.1-0.4,0-0.4-0.2c0-0.1,0-0.4,0-0.9l0.3-3.4c0-0.3,0-0.5,0-0.6
							c-0.1-0.2-0.2-0.3-0.5-0.2c-0.2,0.1-0.4,0.2-0.6,0.3c-0.2,0.1-0.4,0.4-0.6,0.6l-0.5,4.4c0,0.2-0.1,0.4-0.2,0.5
							c-0.1,0.2-0.2,0.3-0.4,0.3c-0.1,0-0.2,0-0.2-0.1c0,0,0-0.1,0-0.2c0-0.1,0-0.2,0-0.4L68,7.4c0.1-0.7,0.1-1,0.1-1.1
							S68,6.1,67.8,6.2c-0.2,0.1-0.5,0.3-0.9,0.7c-0.5,0.5-0.8,1-0.8,1.6l-0.3,3.1c0,0.2-0.1,0.4-0.2,0.5c-0.1,0.2-0.2,0.3-0.4,0.3
							c-0.1,0-0.2,0-0.2-0.1c0,0,0-0.1,0-0.2c0-0.1,0-0.2,0-0.4l0.3-3.6c0.1-0.5,0.1-0.8,0-0.9c0-0.1-0.1-0.1-0.2-0.1
							c0,0-0.1,0-0.1,0.1l-0.1,0.1l-0.1,0.1l-0.1,0.1c-0.1,0-0.2,0-0.2-0.1s0-0.2,0.1-0.3c0.1-0.2,0.2-0.3,0.4-0.5
							c0.2-0.2,0.3-0.3,0.5-0.4C65.7,6,65.8,6,66,5.9z"/>
					</g>
				</g>
			</g>
		</g>
		<g>
			<path fill="#FFFFFF" stroke="#FFFFFF" stroke-width="4" stroke-linejoin="round" stroke-miterlimit="10" d="M6.5,36.3
				c0.2-0.1,0.5-0.1,0.8-0.2C7.6,36.1,7.8,36,8,36s0.4,0,0.6,0.1c0.2,0.1,0.3,0.2,0.3,0.3c0.1,0.5,0,0.7-0.3,0.8S8,37.2,7.8,37
				c-0.3-0.2-0.7-0.3-1.3-0.1c-0.5,0.2-1,0.4-1.3,0.8c-0.3,0.4-0.6,0.9-0.7,1.4c-0.2,0.5-0.2,1.1-0.3,1.7c0,0.6,0.1,1.2,0.2,1.7
				c0.1,0.3,0.2,0.6,0.4,0.9c0.1,0.3,0.3,0.5,0.5,0.7s0.4,0.3,0.7,0.4c0.3,0.1,0.5,0.1,0.9,0c0.2-0.1,0.4-0.1,0.6-0.3
				c0.2-0.1,0.4-0.3,0.5-0.4c0.2-0.2,0.3-0.4,0.4-0.5c0.1-0.2,0.2-0.4,0.2-0.6C8.7,42.2,8.8,42,9,41.9c0.1,0,0.2,0,0.2,0.2
				c0.1,0.2,0.1,0.5,0,0.8S9,43.5,8.7,43.8c-0.2,0.3-0.5,0.6-0.8,0.9c-0.3,0.3-0.7,0.5-1.2,0.6c-0.4,0.1-0.7,0.1-1.1,0.1
				c-0.4-0.1-0.7-0.2-1-0.4S4,44.6,3.8,44.3s-0.4-0.6-0.5-1C3,42.5,3,41.8,3.1,41s0.3-1.5,0.6-2.1s0.7-1.2,1.2-1.7
				C5.3,36.8,5.9,36.4,6.5,36.3z"/>
			<path fill="#FFFFFF" stroke="#FFFFFF" stroke-width="4" stroke-linejoin="round" stroke-miterlimit="10" d="M16.7,33.4
				c0.2-0.1,0.4,0,0.4,0.2c0,0.1,0.1,0.3,0,0.5c0,0.2,0,0.4-0.1,0.7l-0.5,5.3c0,0.4,0,0.7,0,0.9c0.1,0.3,0.3,0.4,0.6,0.3
				c0.3-0.1,0.6-0.2,0.9-0.5c0.3-0.2,0.6-0.5,0.8-0.8c0.3-0.3,0.5-0.6,0.6-1c0.2-0.4,0.3-0.7,0.3-1l0.5-4.6c0-0.1,0-0.2,0-0.3
				s0-0.2,0.1-0.2c0-0.1,0.1-0.1,0.1-0.2c0.1-0.1,0.1-0.1,0.2-0.2c0.1-0.1,0.1-0.1,0.2-0.2c0.1-0.1,0.2-0.1,0.2-0.1
				c0.2,0,0.2,0,0.3,0.1c0,0.1,0,0.3,0,0.8l-0.5,5.8c0,0.3,0,0.5,0,0.7s0,0.2,0,0.3c0,0.2,0.1,0.2,0.3,0.2c0.1,0,0.2-0.1,0.3-0.2
				c0.1-0.1,0.2-0.2,0.3-0.2c0.1-0.1,0.2-0.2,0.2-0.2c0.1-0.1,0.1-0.1,0.2-0.1s0.2,0,0.3,0.1c0,0.1,0,0.3-0.2,0.5
				c-0.1,0.2-0.3,0.4-0.5,0.6c-0.2,0.2-0.4,0.3-0.7,0.5c-0.2,0.1-0.4,0.2-0.6,0.3c-0.3,0.1-0.4,0-0.5-0.3c-0.1-0.2-0.1-0.4-0.1-0.5
				s0-0.3,0-0.5c-0.2,0.3-0.3,0.6-0.6,0.8c-0.2,0.3-0.5,0.5-0.8,0.8c-0.6,0.5-1.3,0.9-1.9,1.1c-0.5,0.1-0.8-0.1-1-0.7
				c-0.1-0.3-0.1-0.8-0.1-1.3l0.4-4.9c0-0.2,0-0.4,0-0.5s-0.1-0.2-0.2-0.1c0,0-0.1,0.1-0.2,0.1c-0.1,0.1-0.2,0.1-0.2,0.2
				c-0.1,0.1-0.1,0.1-0.2,0.2c-0.1,0.1-0.1,0.1-0.1,0.1c-0.2,0-0.2,0-0.3-0.2c0-0.1,0-0.3,0.2-0.5s0.4-0.4,0.6-0.7
				c0.2-0.2,0.5-0.4,0.7-0.6C16.3,33.5,16.5,33.4,16.7,33.4z"/>
			<path fill="#FFFFFF" stroke="#FFFFFF" stroke-width="4" stroke-linejoin="round" stroke-miterlimit="10" d="M25.2,31
				c0.2-0.1,0.4,0,0.4,0.2s0.1,0.3,0,0.5c0,0.2,0,0.4-0.1,0.7l-0.3,2.7c0.1-0.2,0.3-0.3,0.4-0.4c0.2-0.1,0.4-0.2,0.7-0.3l1.1-0.3
				c0.3-0.1,0.5-0.2,0.7-0.3s0.3-0.3,0.3-0.5l0.2-2.3c0-0.3,0.1-0.4,0.1-0.5s0.1-0.2,0.1-0.2c0.1-0.1,0.2-0.2,0.3-0.3
				c0.1-0.1,0.2-0.2,0.3-0.2c0.1,0,0.2,0,0.3,0.1c0,0.1,0,0.3,0,0.8l-0.5,5.8c0,0.2,0,0.4,0,0.6c0,0.2,0,0.3,0,0.3
				c0,0.2,0.1,0.2,0.3,0.2c0.1,0,0.2-0.1,0.3-0.2c0.1-0.1,0.2-0.2,0.3-0.2c0.1-0.1,0.2-0.1,0.2-0.2c0.1-0.1,0.1-0.1,0.1-0.1
				c0.1,0,0.2,0,0.3,0.1c0,0.1,0,0.3-0.2,0.5c-0.1,0.2-0.3,0.4-0.5,0.6c-0.2,0.2-0.4,0.3-0.7,0.5c-0.2,0.1-0.4,0.2-0.6,0.3
				c-0.3,0.1-0.4,0-0.5-0.3c-0.1-0.2-0.1-0.4-0.1-0.5c0-0.2,0-0.3,0-0.5l0.3-3.2c-0.3,0.4-0.7,0.6-1.2,0.7l-0.9,0.3
				c-0.3,0.1-0.6,0.2-0.8,0.4c-0.2,0.2-0.3,0.4-0.3,0.5L24.9,39c0,0.3-0.1,0.5-0.2,0.8c-0.1,0.2-0.3,0.4-0.6,0.5
				c-0.1,0-0.2,0-0.3-0.1c0-0.1,0-0.4,0-0.8l0.4-5.1c0.1-0.8,0.1-1.2,0.1-1.3s-0.1-0.2-0.2-0.1c0,0-0.1,0.1-0.2,0.1
				c-0.1,0.1-0.1,0.1-0.2,0.2c-0.1,0.1-0.1,0.1-0.2,0.2c-0.1,0.1-0.1,0.1-0.1,0.1c-0.2,0-0.2,0-0.3-0.2c0-0.1,0-0.2,0.2-0.5
				c0.1-0.2,0.3-0.4,0.6-0.7c0.2-0.2,0.5-0.4,0.7-0.6C24.8,31.2,25,31,25.2,31z"/>
			<path fill="#FFFFFF" stroke="#FFFFFF" stroke-width="4" stroke-linejoin="round" stroke-miterlimit="10" d="M34,28.5
				c0.2-0.1,0.4,0,0.4,0.2s0.1,0.3,0.1,0.5s0,0.4-0.1,0.7l-0.5,5.3c0,0.3,0,0.6,0,0.9c0.1,0.3,0.3,0.4,0.6,0.3
				c0.4-0.1,0.7-0.3,1.1-0.6c0.3-0.3,0.6-0.6,0.8-1s0.4-0.8,0.6-1.2c0.1-0.4,0.2-0.8,0.3-1.2l0.4-3.9c0-0.3,0.1-0.4,0.1-0.6
				c0-0.1,0.1-0.2,0.3-0.4c0.2-0.2,0.3-0.3,0.5-0.3s0.2,0,0.3,0.1c0,0.1,0,0.3,0,0.8l-0.5,6.3c-0.1,1-0.2,1.9-0.3,2.8
				c-0.1,0.8-0.3,1.6-0.5,2.3s-0.5,1.2-0.9,1.7c-0.4,0.4-0.9,0.8-1.5,0.9c-0.2,0-0.4,0.1-0.7,0.1s-0.6,0-0.8-0.1
				c-0.3-0.1-0.5-0.2-0.8-0.3c-0.2-0.1-0.4-0.3-0.4-0.5c-0.1-0.4,0-0.6,0.4-0.7c0.1,0,0.3,0,0.4,0.1c0.2,0.1,0.3,0.2,0.5,0.4
				c0.2,0.1,0.4,0.3,0.6,0.4c0.2,0.1,0.5,0.1,0.7,0c0.4-0.1,0.8-0.3,1.1-0.7c0.3-0.3,0.5-0.7,0.6-1.3c0.2-0.5,0.3-1.2,0.3-1.9
				c0.1-0.8,0.1-1.6,0.1-2.7l0,0c-0.2,0.3-0.4,0.7-0.7,0.9c-0.3,0.3-0.5,0.6-0.8,0.8s-0.6,0.4-0.9,0.6c-0.3,0.2-0.6,0.3-0.9,0.4
				c-0.5,0.1-0.8-0.1-1-0.7c-0.1-0.3-0.1-0.8-0.1-1.3l0.4-4.9c0-0.2,0-0.4,0-0.5S33.1,30,33,30.1c0,0-0.1,0.1-0.2,0.1
				c-0.1,0.1-0.2,0.1-0.2,0.2c-0.1,0.1-0.2,0.1-0.2,0.2c-0.1,0.1-0.1,0.1-0.1,0.1c-0.2,0-0.2,0-0.3-0.2c0-0.1,0-0.3,0.2-0.5
				s0.3-0.4,0.6-0.7c0.2-0.2,0.5-0.4,0.7-0.6C33.6,28.6,33.8,28.5,34,28.5z"/>
			<path fill="#FFFFFF" stroke="#FFFFFF" stroke-width="4" stroke-linejoin="round" stroke-miterlimit="10" d="M43.7,27.3
				c-0.2,0.1-0.3,0.2-0.5,0.3c-0.2,0-0.3,0-0.3-0.2c0-0.1,0-0.2,0.1-0.3c0.1-0.1,0.2-0.2,0.4-0.3l2.5-1.4c0.1-0.1,0.3-0.2,0.5-0.3
				c0.2-0.1,0.4-0.2,0.6-0.2c0.5-0.1,0.8,0.1,1,0.7c0.1,0.3,0.1,0.8,0,1.3l-0.5,5c0,0.3,0,0.5,0,0.5c0,0.2,0.2,0.2,0.3,0.2
				s0.1-0.1,0.2-0.1c0.1-0.1,0.2-0.2,0.2-0.2c0.1-0.1,0.2-0.2,0.2-0.2c0.1-0.1,0.1-0.1,0.2-0.1c0.1,0,0.2,0,0.2,0.2
				c0,0.1,0,0.2-0.1,0.4s-0.3,0.4-0.4,0.5c-0.2,0.2-0.4,0.4-0.6,0.5c-0.2,0.2-0.4,0.3-0.6,0.3c-0.3,0.1-0.5,0-0.6-0.3
				c-0.1-0.2-0.1-0.6,0-1.3l0.3-4.8c0-0.2,0-0.4,0-0.6s0-0.3,0-0.4c0-0.2-0.1-0.2-0.2-0.3c-0.1,0-0.2,0-0.5,0.1
				c-0.1,0-0.3,0.1-0.5,0.2s-0.4,0.2-0.6,0.3l-0.5,4.1c-0.1,0.7-0.2,1.4-0.3,1.9s-0.2,1-0.4,1.3c-0.1,0.4-0.3,0.6-0.5,0.8
				s-0.5,0.3-0.7,0.4c-0.4,0.1-0.7,0.1-1-0.1c-0.3-0.1-0.5-0.3-0.6-0.6c0-0.1,0-0.2,0-0.4c0-0.1,0.1-0.2,0.3-0.3c0.1,0,0.2,0,0.3,0
				c0.1,0.1,0.2,0.1,0.2,0.2c0.1,0.1,0.1,0.1,0.2,0.2c0.1,0.1,0.2,0.1,0.3,0c0.2,0,0.3-0.1,0.4-0.2c0.1-0.1,0.2-0.3,0.3-0.6
				s0.2-0.6,0.3-1.1s0.2-1.2,0.4-2l0.5-3.3C44.2,27,43.9,27.2,43.7,27.3z"/>
			<path fill="#FFFFFF" stroke="#FFFFFF" stroke-width="4" stroke-linejoin="round" stroke-miterlimit="10" d="M51.6,23.5
				c0.2-0.1,0.4,0,0.4,0.2c0,0.1,0.1,0.3,0,0.5c0,0.2,0,0.4-0.1,0.7l-0.5,5.3c0,0.4,0,0.7,0,0.9c0.1,0.3,0.3,0.4,0.6,0.3
				s0.6-0.2,0.9-0.5c0.3-0.2,0.6-0.5,0.8-0.8s0.5-0.6,0.6-1c0.2-0.4,0.3-0.7,0.3-1l0.5-4.6c0-0.1,0-0.2,0-0.3c0-0.1,0-0.2,0.1-0.2
				c0,0,0.1-0.1,0.1-0.2c0.1-0.1,0.1-0.1,0.2-0.2c0.1-0.1,0.1-0.1,0.2-0.2c0.1-0.1,0.1-0.1,0.2-0.1c0.1,0,0.2,0,0.3,0.1
				c0,0.1,0,0.3,0,0.8L55.8,29c0,0.3,0,0.5,0,0.7s0,0.2,0,0.3c0,0.2,0.1,0.2,0.3,0.2c0.1,0,0.2-0.1,0.3-0.2s0.2-0.2,0.3-0.2
				c0.1-0.1,0.2-0.1,0.2-0.2c0.1-0.1,0.1-0.1,0.2-0.1c0.1,0,0.2,0,0.3,0.1c0,0.1,0,0.3-0.2,0.5c-0.1,0.2-0.3,0.4-0.5,0.6
				S56.3,31,56,31.2c-0.2,0.1-0.4,0.2-0.6,0.3c-0.3,0.1-0.4,0-0.5-0.3c-0.1-0.2-0.1-0.4-0.1-0.5s0-0.3,0-0.5
				c-0.2,0.3-0.3,0.6-0.6,0.8c-0.2,0.3-0.5,0.5-0.8,0.8c-0.6,0.5-1.3,0.9-1.9,1.1c-0.5,0.1-0.8-0.1-1-0.7c-0.1-0.3-0.1-0.8-0.1-1.3
				l0.4-4.9c0-0.2,0-0.4,0-0.5s-0.1-0.2-0.2-0.1c0,0-0.1,0.1-0.2,0.1c-0.1,0.1-0.2,0.1-0.2,0.2c-0.1,0.1-0.1,0.1-0.2,0.2
				C49.9,26,49.9,26,49.9,26c-0.2,0-0.2,0-0.3-0.2c0-0.1,0-0.3,0.2-0.5s0.3-0.4,0.6-0.7c0.2-0.2,0.5-0.4,0.7-0.6
				C51.2,23.7,51.4,23.5,51.6,23.5z"/>
			<path fill="#FFFFFF" stroke="#FFFFFF" stroke-width="4" stroke-linejoin="round" stroke-miterlimit="10" d="M60.1,21.1
				c0.2-0.1,0.4,0,0.4,0.2s0.1,0.3,0,0.5c0,0.2,0,0.4-0.1,0.7l-0.3,2.7c0.1-0.2,0.3-0.3,0.4-0.4c0.2-0.1,0.4-0.2,0.7-0.3l1.1-0.3
				c0.3-0.1,0.5-0.2,0.7-0.3c0.2-0.1,0.3-0.3,0.3-0.5l0.2-2.3c0-0.3,0.1-0.4,0.1-0.5s0.1-0.2,0.1-0.2c0.1-0.1,0.2-0.2,0.3-0.3
				c0.1-0.1,0.2-0.2,0.3-0.2c0.1,0,0.2,0,0.3,0.1c0,0.1,0,0.3,0,0.8l-0.5,5.8c0,0.2,0,0.4,0,0.6s0,0.3,0,0.3c0,0.2,0.1,0.2,0.3,0.2
				c0.1,0,0.2-0.1,0.3-0.2c0.1-0.1,0.2-0.2,0.3-0.2c0.1-0.1,0.2-0.2,0.2-0.2c0.1-0.1,0.1-0.1,0.1-0.1c0.1,0,0.2,0,0.3,0.1
				c0,0.1,0,0.3-0.2,0.5c-0.1,0.2-0.3,0.4-0.5,0.6s-0.4,0.3-0.7,0.5c-0.2,0.1-0.4,0.2-0.6,0.3c-0.3,0.1-0.4,0-0.5-0.3
				C63,28.5,63,28.3,63,28.2c0-0.2,0-0.3,0-0.5l0.3-3.2c-0.3,0.4-0.7,0.6-1.2,0.7l-0.9,0.3c-0.3,0.1-0.6,0.2-0.8,0.4
				c-0.2,0.2-0.3,0.4-0.3,0.5l-0.3,2.7c0,0.3-0.1,0.5-0.2,0.8c-0.1,0.2-0.3,0.4-0.6,0.5c-0.1,0-0.2,0-0.3-0.1c0-0.1,0-0.4,0-0.8
				l0.4-5.1c0.1-0.8,0.1-1.2,0.1-1.3c0-0.1-0.1-0.2-0.2-0.1c0,0-0.1,0.1-0.2,0.1c-0.1,0.1-0.1,0.1-0.2,0.2c-0.1,0.1-0.1,0.1-0.2,0.2
				c-0.1,0.1-0.1,0.1-0.1,0.1c-0.2,0-0.2,0-0.3-0.2c0-0.1,0-0.2,0.2-0.5c0.1-0.2,0.3-0.4,0.6-0.7c0.2-0.2,0.5-0.4,0.7-0.6
				C59.7,21.3,59.9,21.1,60.1,21.1z"/>
			<path fill="#FFFFFF" stroke="#FFFFFF" stroke-width="4" stroke-linejoin="round" stroke-miterlimit="10" d="M70.2,18.2
				c0.4-0.1,0.8-0.2,1.2-0.1c0.4,0,0.7,0.2,1,0.4c0.3,0.2,0.6,0.4,0.8,0.8c0.2,0.3,0.4,0.7,0.5,1.1c0.2,0.7,0.2,1.3,0.2,2.1
				c-0.1,0.7-0.2,1.4-0.5,2.1c-0.3,0.6-0.7,1.2-1.2,1.7s-1.1,0.9-1.8,1.1c-0.4,0.1-0.8,0.1-1.2,0.1c-0.4-0.1-0.7-0.2-1-0.4
				c-0.3-0.2-0.6-0.4-0.8-0.7c-0.2-0.3-0.4-0.6-0.5-1c-0.2-0.7-0.3-1.5-0.2-2.2c0.1-0.8,0.3-1.5,0.6-2.1c0.3-0.6,0.7-1.2,1.2-1.7
				C69.1,18.7,69.6,18.4,70.2,18.2z M70.2,19c-0.5,0.1-0.9,0.4-1.3,0.8c-0.3,0.4-0.6,0.9-0.8,1.4c-0.2,0.5-0.3,1.1-0.3,1.7
				s0.1,1.2,0.2,1.7c0.1,0.3,0.2,0.6,0.4,0.9c0.1,0.3,0.3,0.5,0.5,0.7s0.4,0.3,0.7,0.4c0.3,0.1,0.5,0.1,0.9,0c0.5-0.2,1-0.4,1.3-0.8
				s0.6-0.9,0.7-1.4c0.2-0.5,0.2-1.1,0.2-1.7s-0.1-1.2-0.2-1.7c-0.1-0.3-0.2-0.6-0.3-0.8c-0.1-0.3-0.3-0.5-0.5-0.7
				C71.5,19.2,71.3,19,71,19C70.8,18.9,70.5,18.9,70.2,19z"/>
			<path fill="#FFFFFF" stroke="#FFFFFF" stroke-width="4" stroke-linejoin="round" stroke-miterlimit="10" d="M79.3,15.6
				c0.4-0.1,0.7,0.3,1,1.3l1.1,3.8c0.1,0.4,0.2,0.7,0.3,0.8c0.1,0.1,0.1,0.1,0.2,0.1s0.3-0.5,0.5-1.3l1.2-4.1
				c0.2-0.6,0.4-1.2,0.6-1.6c0.2-0.4,0.5-0.6,0.9-0.7c0.2-0.1,0.4,0,0.5,0.2c0,0.1,0,0.2,0,0.3s0,0.3,0,0.5l0.2,5c0,0.4,0,0.6,0,0.9
				c0,0.2,0,0.3,0,0.4s0.1,0.2,0.2,0.1c0.1,0,0.2-0.1,0.4-0.3c0.1-0.2,0.3-0.3,0.3-0.3c0.2,0,0.3,0,0.3,0.2c0,0.1,0,0.2-0.2,0.4
				c-0.1,0.2-0.3,0.4-0.5,0.7c-0.2,0.2-0.4,0.4-0.6,0.6s-0.4,0.3-0.5,0.3c-0.2,0.1-0.3,0-0.4-0.2c0-0.1,0-0.2-0.1-0.4
				c0-0.2,0-0.3,0-0.5l-0.2-5.6h-0.1l-1.6,5.7c-0.1,0.5-0.3,1-0.5,1.3s-0.5,0.5-0.8,0.6c-0.1,0-0.2,0-0.4-0.2
				c-0.1-0.2-0.3-0.5-0.4-1c0-0.1-0.1-0.2-0.1-0.5c-0.1-0.3-0.1-0.6-0.2-0.9s-0.2-0.7-0.3-1.1c-0.1-0.4-0.2-0.8-0.3-1.1
				c-0.1-0.4-0.2-0.7-0.2-0.9c-0.1-0.3-0.1-0.4-0.1-0.5l0,0l-0.3,3.1c-0.1,0.7-0.1,1.3-0.3,1.9c-0.1,0.5-0.2,1-0.4,1.3
				c-0.2,0.4-0.3,0.6-0.6,0.8c-0.2,0.2-0.5,0.3-0.8,0.4c-0.4,0.1-0.7,0.1-1-0.1c-0.3-0.1-0.5-0.3-0.6-0.6c0-0.1,0-0.2,0-0.4
				c0-0.1,0.1-0.2,0.3-0.3c0.1,0,0.2,0,0.3,0c0.1,0.1,0.2,0.1,0.2,0.2c0.1,0.1,0.1,0.1,0.2,0.2s0.2,0.1,0.3,0c0.2,0,0.3-0.1,0.4-0.2
				s0.2-0.3,0.4-0.6c0.1-0.3,0.2-0.6,0.3-1.1c0.1-0.5,0.2-1.2,0.3-2l0.3-2.6c0-0.1,0-0.2,0-0.3c0-0.1,0-0.1,0-0.1
				c0-0.1-0.1-0.1-0.3-0.1c-0.3,0.1-0.5,0.2-0.7,0.4c-0.2,0.2-0.3,0.3-0.4,0.3c-0.2,0-0.2,0-0.3-0.2c0-0.1,0-0.3,0.2-0.5
				c0.1-0.2,0.3-0.4,0.6-0.7c0.2-0.2,0.5-0.4,0.7-0.6C78.9,15.8,79.1,15.7,79.3,15.6z"/>
		</g>
	</g>
	<g>
		<g>
			<g>
				<g>
					<g>
						<path fill="#EC1558" stroke="#EC1558" stroke-width="0.5" stroke-miterlimit="10" d="M21,13c0.1,0,0.2-0.1,0.3-0.2
							c0.1-0.1,0.2-0.1,0.3-0.2c0.1-0.1,0.2-0.1,0.2-0.2c0.1-0.1,0.2-0.1,0.2-0.1c0.1,0,0.2,0,0.2,0.1s-0.1,0.3-0.3,0.7
							c-0.2,0.4-0.4,0.6-0.5,0.7c-0.1,0-0.3,0.1-0.7,0.1c-0.4,0.1-0.8,0.2-1.3,0.3s-1.1,0.2-1.7,0.3s-1.2,0.2-1.8,0.3
							c-0.6,0.1-1.1,0.2-1.5,0.3c-0.5,0.1-0.8,0.2-1,0.2c-0.4,0.1-0.9,0.3-1.3,0.6c-0.4,0.2-0.8,0.5-1,0.9c-0.3,0.3-0.5,0.7-0.6,1.1
							s-0.1,0.9,0,1.3c0.4,1.3,1.4,1.8,3,1.4c0.2,0,0.3,0,0.3,0.2s0,0.3-0.2,0.3c-1.1,0.3-2,0.3-2.6,0.1c-0.6-0.2-1.1-0.8-1.3-1.7
							c-0.2-0.6-0.1-1.2,0.1-1.7c0.2-0.5,0.6-1,1-1.5c0.5-0.4,1-0.8,1.6-1.2c0.6-0.3,1.2-0.6,1.9-0.8c0.2-0.1,0.5-0.1,0.9-0.2
							c0.4-0.1,0.8-0.2,1.2-0.3s0.9-0.2,1.4-0.3s0.9-0.2,1.4-0.3c0.4-0.1,0.8-0.2,1.1-0.2C20.6,13.1,20.8,13,21,13z M15.9,17.8
							c0-0.4,0-0.6,0-0.7S15.8,17,15.7,17c-0.1,0-0.2,0.1-0.3,0.2s-0.2,0.2-0.2,0.2c-0.1,0-0.1,0-0.2-0.1c0,0,0-0.2,0.2-0.3
							c0.1-0.2,0.3-0.3,0.4-0.5c0.2-0.2,0.3-0.4,0.5-0.5c0.2-0.2,0.3-0.2,0.4-0.3c0.1,0,0.2,0,0.2,0.2c0,0.1,0,0.2,0,0.4
							c0,0.2,0,0.4,0,0.6l-0.2,1.8c0.2-0.1,0.4-0.3,0.6-0.4s0.5-0.2,0.8-0.3c0.4-0.1,0.8-0.1,1.2-0.1c0.4,0,0.8,0.1,1.1,0.3
							c0.4,0.2,0.7,0.4,0.9,0.7c0.3,0.3,0.5,0.7,0.6,1.2c0.2,0.6,0.2,1.2,0.1,1.8c-0.1,0.6-0.3,1.1-0.7,1.6
							c-0.3,0.5-0.7,0.9-1.2,1.3s-1.1,0.6-1.7,0.8c-0.8,0.2-1.5,0.3-2.1,0.3c-0.7,0-1-0.1-1,0c-0.3,0.1-0.5,0-0.5-0.1s0-0.2,0.1-0.3
							c0.2-0.3,0.3-0.5,0.4-0.8c0.1-0.3,0.1-0.6,0.2-0.9l0.3-3.7c-0.2,0.2-0.4,0.4-0.5,0.6s-0.2,0.4-0.3,0.6s-0.1,0.3-0.1,0.4
							s0,0.2-0.1,0.2c0,0-0.1,0-0.2,0c-0.1,0-0.1,0-0.1-0.1c0-0.2,0-0.4,0-0.6c0.1-0.2,0.2-0.4,0.3-0.7c0.1-0.2,0.3-0.4,0.4-0.6
							c0.2-0.2,0.3-0.4,0.5-0.5L15.9,17.8z M16.2,23.3c0,0.1,0,0.1,0,0.3c0,0.1,0,0.2-0.1,0.3c0,0.1-0.1,0.2-0.1,0.3
							c0,0.1-0.1,0.2-0.1,0.3l-0.2,0.4c0,0.1,0.4,0.2,1.1,0.2c0.3,0,0.7,0,1-0.1c0.3,0,0.6-0.1,0.9-0.2c0.5-0.1,0.9-0.3,1.3-0.6
							c0.4-0.3,0.6-0.6,0.9-1c0.2-0.4,0.3-0.8,0.4-1.3c0-0.5,0-1-0.2-1.5c-0.1-0.4-0.3-0.7-0.5-1s-0.4-0.5-0.7-0.6
							c-0.3-0.1-0.5-0.2-0.8-0.3c-0.3,0-0.6,0-0.8,0.1c-0.4,0.1-0.7,0.2-0.9,0.3c-0.2,0.1-0.5,0.3-0.7,0.5L16.2,23.3z"/>
						<path fill="#EC1558" stroke="#EC1558" stroke-width="0.5" stroke-miterlimit="10" d="M24.4,17.3c0.2,0,0.3,0,0.3,0.1
							s0,0.2,0,0.4c0,0.2,0,0.3,0,0.5L24.3,22c0,0.3,0,0.5,0,0.6c0.1,0.2,0.2,0.3,0.4,0.2c0.2-0.1,0.4-0.2,0.6-0.3
							c0.2-0.2,0.4-0.3,0.6-0.6c0.2-0.2,0.3-0.4,0.4-0.7c0.1-0.2,0.2-0.5,0.2-0.7l0.3-3.3c0-0.1,0-0.2,0-0.2c0-0.1,0-0.1,0-0.2
							c0,0,0-0.1,0.1-0.1l0.1-0.1c0-0.1,0.1-0.1,0.2-0.1s0.1-0.1,0.1-0.1c0.1,0,0.2,0,0.2,0.1c0,0,0,0.2,0,0.6l-0.4,4.1
							c0,0.2,0,0.4,0,0.5s0,0.2,0,0.2c0,0.1,0.1,0.2,0.2,0.1c0.1,0,0.1-0.1,0.2-0.1c0.1-0.1,0.1-0.1,0.2-0.2s0.1-0.1,0.2-0.2
							l0.1-0.1c0.1,0,0.2,0,0.2,0.1s0,0.2-0.1,0.3c-0.1,0.1-0.2,0.3-0.4,0.4c-0.2,0.1-0.3,0.2-0.5,0.3c-0.2,0.1-0.3,0.2-0.4,0.2
							c-0.2,0.1-0.3,0-0.4-0.2c0-0.1-0.1-0.3-0.1-0.4s0-0.2,0-0.4c-0.1,0.2-0.2,0.4-0.4,0.6c-0.2,0.2-0.3,0.4-0.6,0.5
							c-0.5,0.4-0.9,0.6-1.4,0.8c-0.3,0.1-0.6-0.1-0.7-0.5c-0.1-0.2-0.1-0.6-0.1-0.9l0.3-3.4c0-0.2,0-0.3,0-0.3
							c0-0.1-0.1-0.1-0.2-0.1c0,0-0.1,0-0.1,0.1c-0.1,0-0.1,0.1-0.2,0.1s-0.1,0.1-0.2,0.1l-0.1,0.1c-0.1,0-0.2,0-0.2-0.1
							s0-0.2,0.1-0.4c0.1-0.2,0.2-0.3,0.4-0.5c0.2-0.2,0.3-0.3,0.5-0.4C24.1,17.5,24.3,17.4,24.4,17.3z"/>
						<path fill="#EC1558" stroke="#EC1558" stroke-width="0.5" stroke-miterlimit="10" d="M33.4,15.5c0.2-0.3,0.4-0.5,0.7-0.7
							s0.5-0.3,0.8-0.4c0.1,0,0.2,0,0.4,0s0.3,0.1,0.5,0.2c0.2,0.1,0.3,0.2,0.5,0.4c0.1,0.2,0.2,0.4,0.3,0.7c0.1,0.5,0.2,1,0.1,1.6
							c-0.1,0.6-0.2,1.1-0.5,1.7c-0.2,0.5-0.5,1-0.9,1.4s-0.8,0.7-1.2,0.8c-0.2,0.1-0.4,0.1-0.6,0c-0.2,0-0.3-0.1-0.4-0.2l-0.2,1.2
							c-0.2,1.9-0.8,2.9-1.5,3.1c-0.2,0.1-0.3,0-0.3,0c0-0.2,0-0.3,0.2-0.3c0.1,0,0.3-0.2,0.4-0.4c0.1-0.2,0.2-0.5,0.3-0.7
							c0.1-0.3,0.1-0.6,0.2-0.8c0-0.3,0.1-0.5,0.1-0.8v-1.2c-0.4,0.5-0.9,0.9-1.4,1c-0.1,0-0.2,0-0.4,0c-0.2,0-0.3-0.1-0.5-0.2
							s-0.3-0.2-0.5-0.4c-0.1-0.2-0.3-0.4-0.3-0.7c-0.1-0.4-0.1-0.9-0.1-1.5c0.1-0.6,0.2-1.1,0.4-1.7c0.2-0.5,0.5-1,0.9-1.4
							s0.8-0.7,1.3-0.8c0.1,0,0.3-0.1,0.4,0c0.1,0,0.3,0,0.4,0.1l0.1-3.3c0-0.6,0-0.9,0-0.9c0-0.1-0.1-0.1-0.2-0.1
							c0,0-0.1,0-0.1,0.1l-0.1,0.1l-0.1,0.1L32,11.6c-0.1,0-0.2,0-0.2-0.1s0-0.2,0.1-0.4s0.2-0.3,0.4-0.5s0.3-0.3,0.5-0.4
							c0.2-0.1,0.3-0.2,0.5-0.2s0.3,0,0.3,0.1s0,1-0.1,2.9c0,0.5,0,0.8,0,1.2c0,0.3,0,0.6,0,0.8S33.5,15.4,33.4,15.5
							C33.5,15.4,33.4,15.5,33.4,15.5z M32.4,16.4c-0.1-0.3-0.2-0.5-0.3-0.5s-0.3-0.1-0.4,0c-0.3,0.1-0.6,0.3-0.9,0.6
							c-0.3,0.3-0.5,0.6-0.6,1.1C30,18,29.9,18.5,29.9,19s0,1.1,0.2,1.6c0.1,0.3,0.2,0.5,0.4,0.6c0.2,0.1,0.4,0.1,0.7,0
							c0.3-0.1,0.5-0.2,0.7-0.5c0.2-0.2,0.3-0.5,0.4-0.8c0.1-0.3,0.2-0.6,0.2-1s0.1-0.7,0.1-1s0-0.6,0-0.9
							C32.5,16.7,32.5,16.5,32.4,16.4z M33.3,20c0.1,0.3,0.2,0.4,0.3,0.5c0.1,0,0.3,0.1,0.4,0c0.4-0.1,0.7-0.3,0.9-0.6
							c0.3-0.3,0.5-0.7,0.6-1.1s0.2-0.9,0.3-1.4c0-0.5,0-1-0.2-1.6c-0.1-0.3-0.2-0.5-0.4-0.6s-0.4-0.1-0.7,0s-0.5,0.2-0.7,0.5
							c-0.2,0.2-0.3,0.5-0.4,0.8c-0.1,0.3-0.2,0.7-0.2,1c0,0.4-0.1,0.7-0.1,1s0,0.6,0,0.9C33.2,19.8,33.3,19.9,33.3,20z"/>
						<path fill="#EC1558" stroke="#EC1558" stroke-width="0.5" stroke-miterlimit="10" d="M38.9,13.3c0.2,0,0.3,0,0.3,0.1
							s0,0.2,0,0.4c0,0.1,0,0.3,0,0.5L38.8,18c0,0.3,0,0.5,0,0.6c0.1,0.2,0.2,0.3,0.4,0.2c0.2-0.1,0.4-0.2,0.6-0.3
							c0.2-0.2,0.4-0.3,0.6-0.6c0.2-0.2,0.3-0.4,0.4-0.7c0.1-0.2,0.2-0.5,0.2-0.7l0.3-3.3c0-0.1,0-0.2,0-0.2c0-0.1,0-0.1,0-0.2
							c0,0,0-0.1,0.1-0.1l0.1-0.1c0-0.1,0.1-0.1,0.2-0.1c0.1,0,0.1-0.1,0.1-0.1c0.1,0,0.2,0,0.2,0.1c0,0,0,0.2,0,0.6l-0.4,4.1
							c0,0.2,0,0.4,0,0.5s0,0.2,0,0.2c0,0.1,0.1,0.2,0.2,0.1c0.1,0,0.1-0.1,0.2-0.1c0.1-0.1,0.1-0.1,0.2-0.2
							c0.1-0.1,0.1-0.1,0.2-0.2l0.1-0.1c0.1,0,0.2,0,0.2,0.1s0,0.2-0.1,0.3c-0.1,0.1-0.2,0.3-0.4,0.4s-0.3,0.2-0.5,0.3
							c-0.2,0.1-0.3,0.2-0.4,0.2c-0.2,0.1-0.3,0-0.4-0.2c0-0.1-0.1-0.3-0.1-0.4s0-0.2,0-0.4c-0.1,0.2-0.2,0.4-0.4,0.6
							s-0.3,0.4-0.6,0.5c-0.5,0.4-0.9,0.6-1.4,0.8c-0.3,0.1-0.6-0.1-0.7-0.5c-0.1-0.2-0.1-0.6,0-0.9l0.3-3.4c0-0.2,0-0.3,0-0.3
							c0-0.1-0.1-0.1-0.2-0.1c0,0-0.1,0-0.1,0.1c-0.1,0-0.1,0.1-0.2,0.1c-0.1,0-0.1,0.1-0.2,0.1l-0.1,0.1c-0.1,0-0.2,0-0.2-0.1
							s0-0.2,0.1-0.4c0.1-0.1,0.2-0.3,0.4-0.5s0.3-0.3,0.5-0.4C38.7,13.5,38.8,13.4,38.9,13.3z"/>
						<path fill="#EC1558" stroke="#EC1558" stroke-width="0.5" stroke-miterlimit="10" d="M48,11.5c0.2-0.3,0.4-0.5,0.7-0.7
							s0.5-0.3,0.8-0.4c0.1,0,0.2,0,0.4,0s0.3,0.1,0.5,0.2c0.2,0.1,0.3,0.2,0.5,0.4c0.1,0.2,0.2,0.4,0.3,0.7c0.1,0.5,0.2,1,0.1,1.6
							c-0.1,0.6-0.2,1.1-0.5,1.7c-0.2,0.5-0.5,1-0.9,1.4s-0.8,0.7-1.2,0.8c-0.2,0.1-0.4,0.1-0.6,0c-0.2,0-0.3-0.1-0.4-0.2l-0.2,1.2
							c-0.3,1.8-0.8,2.8-1.5,3c-0.2,0.1-0.3,0-0.3-0.1c0-0.2,0-0.3,0.2-0.3c0.1,0,0.3-0.2,0.4-0.4c0.1-0.2,0.2-0.4,0.3-0.7
							c0.1-0.3,0.1-0.6,0.2-0.8c0-0.3,0.1-0.5,0.1-0.8v-1.2c-0.4,0.5-0.9,0.9-1.4,1c-0.1,0-0.2,0-0.4,0s-0.3-0.1-0.5-0.2
							s-0.3-0.2-0.5-0.4c-0.1-0.2-0.2-0.4-0.3-0.7c-0.1-0.4-0.2-0.9-0.1-1.5c0.1-0.6,0.2-1.1,0.4-1.7c0.2-0.5,0.5-1,0.9-1.4
							s0.8-0.7,1.3-0.8c0.1,0,0.3-0.1,0.4,0c0.1,0,0.3,0,0.4,0.1L47.2,8c0-0.6,0-0.9,0-0.9C47.2,7,47.1,7,47.1,7S47,7,47,7.1
							l-0.1,0.1l-0.1,0.1l-0.1,0.1c-0.1,0-0.2,0-0.2-0.1s0-0.2,0.1-0.4c0.1-0.1,0.2-0.3,0.4-0.5s0.3-0.3,0.5-0.4s0.3-0.2,0.5-0.2
							s0.3,0,0.3,0.1s0,1-0.1,2.9c0,0.5,0,0.8,0,1.2c0,0.3,0,0.6,0,0.8s0,0.4,0,0.5C48,11.4,48,11.5,48,11.5z M47,12.4
							c-0.1-0.3-0.2-0.5-0.3-0.5s-0.3-0.1-0.4,0c-0.3,0.1-0.6,0.3-0.9,0.6c-0.3,0.3-0.5,0.6-0.6,1.1c-0.2,0.4-0.3,0.9-0.3,1.4
							s0,1.1,0.2,1.6c0.1,0.3,0.2,0.5,0.4,0.6s0.4,0.1,0.7,0s0.5-0.2,0.7-0.5c0.2-0.2,0.3-0.5,0.4-0.8c0.1-0.3,0.2-0.6,0.2-1
							s0.1-0.7,0.1-1s0-0.6,0-0.9C47.1,12.7,47,12.5,47,12.4z M47.9,16c0.1,0.3,0.2,0.4,0.3,0.5c0.1,0,0.3,0.1,0.4,0
							c0.4-0.1,0.7-0.3,0.9-0.6c0.3-0.3,0.5-0.7,0.6-1.1c0.1-0.4,0.2-0.9,0.3-1.4c0-0.5,0-1-0.2-1.6c-0.1-0.3-0.2-0.5-0.4-0.6
							s-0.4-0.1-0.7,0s-0.5,0.2-0.7,0.5c-0.2,0.2-0.3,0.5-0.4,0.8c-0.1,0.3-0.2,0.7-0.2,1c0,0.4-0.1,0.7-0.1,1s0,0.6,0,0.9
							C47.8,15.8,47.8,15.9,47.9,16z"/>
						<path fill="#EC1558" stroke="#EC1558" stroke-width="0.5" stroke-miterlimit="10" d="M53.8,10.3c0.4-0.8,1-1.4,1.7-1.6
							c0.8-0.2,1.3,0.2,1.6,1.1c0.1,0.3,0.1,0.6,0.1,0.9c0,0.3-0.1,0.7-0.1,1.1c-0.1,0.4-0.2,0.8-0.4,1.1c-0.2,0.4-0.3,0.7-0.6,1.1
							c-0.2,0.3-0.5,0.6-0.8,0.8s-0.6,0.4-1,0.5c-0.5,0.1-0.8,0.1-1-0.1l-0.2,1.2c-0.1,0.9-0.3,1.7-0.6,2.2s-0.6,0.8-0.9,0.9
							c-0.2,0.1-0.3,0-0.3-0.1c0-0.2,0-0.3,0.2-0.3c0.2-0.1,0.4-0.3,0.6-0.8c0.1-0.5,0.2-1.1,0.3-1.9l0.3-5c0-0.3,0-0.5,0-0.6
							c0-0.2,0-0.3,0-0.3c0-0.1-0.1-0.1-0.2-0.1c-0.1,0-0.2,0.1-0.3,0.2c-0.1,0.1-0.2,0.2-0.2,0.2c-0.1,0-0.2,0-0.2-0.1
							s0-0.2,0.1-0.3c0.1-0.2,0.2-0.3,0.4-0.5s0.3-0.3,0.5-0.4c0.2-0.1,0.3-0.2,0.5-0.3c0.2,0,0.3,0,0.3,0.1s0,0.2,0,0.4
							C53.9,10,53.8,10.2,53.8,10.3L53.8,10.3z M55.3,9.6c-0.4,0.1-0.7,0.3-0.9,0.7s-0.4,0.8-0.6,1.3c-0.1,0.5-0.2,0.9-0.2,1.4
							s0,0.9,0.1,1.2c0.2,0.6,0.5,0.8,1,0.7c0.3-0.1,0.5-0.3,0.8-0.6s0.5-0.7,0.6-1.1c0.2-0.4,0.3-0.9,0.3-1.4c0.1-0.5,0-1-0.1-1.5
							C56.1,9.7,55.8,9.5,55.3,9.6z"/>
						<path fill="#EC1558" stroke="#EC1558" stroke-width="0.5" stroke-miterlimit="10" d="M59.8,7.6c0.2,0,0.3,0,0.3,0.1
							s0,0.2,0,0.4c0,0.1,0,0.3,0,0.5l-0.4,3.7c0,0.2,0,0.4,0,0.6c0.1,0.2,0.2,0.3,0.4,0.2c0.3-0.1,0.5-0.2,0.7-0.4s0.4-0.4,0.6-0.7
							c0.2-0.3,0.3-0.6,0.4-0.9c0.1-0.3,0.2-0.6,0.2-0.8l0.3-2.7c0-0.2,0-0.3,0.1-0.4c0-0.1,0.1-0.2,0.2-0.3
							c0.1-0.1,0.2-0.2,0.3-0.2s0.2,0,0.2,0.1c0,0,0,0.2,0,0.6l-0.4,4.4c-0.1,0.7-0.1,1.4-0.2,1.9c-0.1,0.6-0.2,1.1-0.4,1.6
							s-0.4,0.9-0.6,1.2c-0.3,0.3-0.6,0.5-1.1,0.6c-0.1,0-0.3,0-0.5,0s-0.4,0-0.6-0.1c-0.2,0-0.4-0.1-0.5-0.2
							c-0.2-0.1-0.3-0.2-0.3-0.4c-0.1-0.3,0-0.4,0.3-0.5c0.1,0,0.2,0,0.3,0.1s0.2,0.2,0.4,0.3c0.1,0.1,0.3,0.2,0.4,0.3
							c0.2,0.1,0.3,0.1,0.5,0c0.3-0.1,0.6-0.2,0.8-0.5c0.2-0.2,0.3-0.5,0.5-0.9c0.1-0.4,0.2-0.8,0.2-1.4c0-0.5,0.1-1.2,0.1-1.9l0,0
							c-0.1,0.2-0.3,0.5-0.5,0.7s-0.4,0.4-0.6,0.5c-0.2,0.2-0.4,0.3-0.6,0.4C60,13.9,59.8,14,59.6,14c-0.3,0.1-0.6-0.1-0.7-0.5
							c-0.1-0.2-0.1-0.6-0.1-0.9l0.3-3.4c0-0.1,0-0.2,0-0.3S59,8.8,58.9,8.8c0,0-0.1,0-0.1,0.1c-0.1,0-0.1,0.1-0.2,0.1
							c-0.1,0-0.1,0.1-0.2,0.1l-0.1,0.1c-0.1,0-0.2,0-0.2-0.1s0-0.2,0.1-0.3c0.1-0.2,0.2-0.3,0.4-0.5C59,8.1,59.2,8,59.4,7.8
							C59.6,7.7,59.7,7.6,59.8,7.6z"/>
						<path fill="#EC1558" stroke="#EC1558" stroke-width="0.5" stroke-miterlimit="10" d="M66,5.9c0.2,0,0.3,0,0.3,0.1
							c0.1,0.2,0,0.5,0,0.9c0.1-0.1,0.2-0.3,0.3-0.4C66.8,6.3,67,6.1,67.2,6c0.2-0.2,0.5-0.3,0.7-0.5c0.2-0.1,0.5-0.2,0.7-0.3
							c0.2-0.1,0.4,0,0.4,0.1s0,0.2,0,0.4c0.5-0.6,1.1-0.9,1.7-1.1c0.4-0.1,0.6,0.1,0.7,0.5c0.1,0.2,0.1,0.5,0,0.9L71,9.4
							c0,0.3,0,0.4,0,0.5s0.1,0.2,0.2,0.1c0,0,0.1,0,0.1-0.1c0.1-0.1,0.1-0.1,0.2-0.2c0.1-0.1,0.1-0.1,0.2-0.2
							c0.1-0.1,0.1-0.1,0.1-0.1c0.1,0,0.1,0,0.2,0.1c0,0.1,0,0.2-0.1,0.3s-0.2,0.2-0.3,0.4c-0.1,0.1-0.3,0.2-0.4,0.3
							c-0.2,0.1-0.3,0.2-0.4,0.2c-0.2,0.1-0.4,0-0.4-0.2c0-0.1,0-0.4,0-0.9l0.3-3.4c0-0.3,0-0.5,0-0.6c-0.1-0.2-0.2-0.3-0.5-0.2
							c-0.2,0.1-0.4,0.2-0.6,0.3c-0.2,0.1-0.4,0.4-0.6,0.6l-0.5,4.4c0,0.2-0.1,0.4-0.2,0.5c-0.1,0.2-0.2,0.3-0.4,0.3
							c-0.1,0-0.2,0-0.2-0.1c0,0,0-0.1,0-0.2c0-0.1,0-0.2,0-0.4L68,7.4c0.1-0.7,0.1-1,0.1-1.1S68,6.1,67.8,6.2
							c-0.2,0.1-0.5,0.3-0.9,0.7c-0.5,0.5-0.8,1-0.8,1.6l-0.3,3.1c0,0.2-0.1,0.4-0.2,0.5c-0.1,0.2-0.2,0.3-0.4,0.3
							c-0.1,0-0.2,0-0.2-0.1c0,0,0-0.1,0-0.2c0-0.1,0-0.2,0-0.4l0.3-3.6c0.1-0.5,0.1-0.8,0-0.9c0-0.1-0.1-0.1-0.2-0.1
							c0,0-0.1,0-0.1,0.1l-0.1,0.1l-0.1,0.1l-0.1,0.1c-0.1,0-0.2,0-0.2-0.1s0-0.2,0.1-0.3c0.1-0.2,0.2-0.3,0.4-0.5
							c0.2-0.2,0.3-0.3,0.5-0.4C65.7,6,65.8,6,66,5.9z"/>
					</g>
				</g>
			</g>
		</g>
		<g>
			<path fill="#EC1558" stroke="#EC1558" stroke-width="0.5" stroke-miterlimit="10" d="M6.5,36.3c0.2-0.1,0.5-0.1,0.8-0.2
				C7.6,36.1,7.8,36,8,36s0.4,0,0.6,0.1c0.2,0.1,0.3,0.2,0.3,0.3c0.1,0.5,0,0.7-0.3,0.8S8,37.2,7.8,37c-0.3-0.2-0.7-0.3-1.3-0.1
				c-0.5,0.2-1,0.4-1.3,0.8c-0.3,0.4-0.6,0.9-0.7,1.4c-0.2,0.5-0.2,1.1-0.3,1.7c0,0.6,0.1,1.2,0.2,1.7c0.1,0.3,0.2,0.6,0.4,0.9
				c0.1,0.3,0.3,0.5,0.5,0.7s0.4,0.3,0.7,0.4c0.3,0.1,0.5,0.1,0.9,0c0.2-0.1,0.4-0.1,0.6-0.3c0.2-0.1,0.4-0.3,0.5-0.4
				c0.2-0.2,0.3-0.4,0.4-0.5c0.1-0.2,0.2-0.4,0.2-0.6C8.7,42.2,8.8,42,9,41.9c0.1,0,0.2,0,0.2,0.2c0.1,0.2,0.1,0.5,0,0.8
				S9,43.5,8.7,43.8c-0.2,0.3-0.5,0.6-0.8,0.9c-0.3,0.3-0.7,0.5-1.2,0.6c-0.4,0.1-0.7,0.1-1.1,0.1c-0.4-0.1-0.7-0.2-1-0.4
				S4,44.6,3.8,44.3s-0.4-0.6-0.5-1C3,42.5,3,41.8,3.1,41s0.3-1.5,0.6-2.1s0.7-1.2,1.2-1.7C5.3,36.8,5.9,36.4,6.5,36.3z"/>
			<path fill="#EC1558" stroke="#EC1558" stroke-width="0.5" stroke-miterlimit="10" d="M16.7,33.4c0.2-0.1,0.4,0,0.4,0.2
				c0,0.1,0.1,0.3,0,0.5c0,0.2,0,0.4-0.1,0.7l-0.5,5.3c0,0.4,0,0.7,0,0.9c0.1,0.3,0.3,0.4,0.6,0.3c0.3-0.1,0.6-0.2,0.9-0.5
				c0.3-0.2,0.6-0.5,0.8-0.8c0.3-0.3,0.5-0.6,0.6-1c0.2-0.4,0.3-0.7,0.3-1l0.5-4.6c0-0.1,0-0.2,0-0.3s0-0.2,0.1-0.2
				c0-0.1,0.1-0.1,0.1-0.2c0.1-0.1,0.1-0.1,0.2-0.2c0.1-0.1,0.1-0.1,0.2-0.2c0.1-0.1,0.2-0.1,0.2-0.1c0.2,0,0.2,0,0.3,0.1
				c0,0.1,0,0.3,0,0.8l-0.5,5.8c0,0.3,0,0.5,0,0.7s0,0.2,0,0.3c0,0.2,0.1,0.2,0.3,0.2c0.1,0,0.2-0.1,0.3-0.2
				c0.1-0.1,0.2-0.2,0.3-0.2c0.1-0.1,0.2-0.2,0.2-0.2c0.1-0.1,0.1-0.1,0.2-0.1s0.2,0,0.3,0.1c0,0.1,0,0.3-0.2,0.5
				c-0.1,0.2-0.3,0.4-0.5,0.6c-0.2,0.2-0.4,0.3-0.7,0.5c-0.2,0.1-0.4,0.2-0.6,0.3c-0.3,0.1-0.4,0-0.5-0.3c-0.1-0.2-0.1-0.4-0.1-0.5
				s0-0.3,0-0.5c-0.2,0.3-0.3,0.6-0.6,0.8c-0.2,0.3-0.5,0.5-0.8,0.8c-0.6,0.5-1.3,0.9-1.9,1.1c-0.5,0.1-0.8-0.1-1-0.7
				c-0.1-0.3-0.1-0.8-0.1-1.3l0.4-4.9c0-0.2,0-0.4,0-0.5s-0.1-0.2-0.2-0.1c0,0-0.1,0.1-0.2,0.1c-0.1,0.1-0.2,0.1-0.2,0.2
				c-0.1,0.1-0.1,0.1-0.2,0.2c-0.1,0.1-0.1,0.1-0.1,0.1c-0.2,0-0.2,0-0.3-0.2c0-0.1,0-0.3,0.2-0.5s0.4-0.4,0.6-0.7
				c0.2-0.2,0.5-0.4,0.7-0.6C16.3,33.5,16.5,33.4,16.7,33.4z"/>
			<path fill="#EC1558" stroke="#EC1558" stroke-width="0.5" stroke-miterlimit="10" d="M25.2,31c0.2-0.1,0.4,0,0.4,0.2
				s0.1,0.3,0,0.5c0,0.2,0,0.4-0.1,0.7l-0.3,2.7c0.1-0.2,0.3-0.3,0.4-0.4c0.2-0.1,0.4-0.2,0.7-0.3l1.1-0.3c0.3-0.1,0.5-0.2,0.7-0.3
				s0.3-0.3,0.3-0.5l0.2-2.3c0-0.3,0.1-0.4,0.1-0.5s0.1-0.2,0.1-0.2c0.1-0.1,0.2-0.2,0.3-0.3c0.1-0.1,0.2-0.2,0.3-0.2
				c0.1,0,0.2,0,0.3,0.1c0,0.1,0,0.3,0,0.8l-0.5,5.8c0,0.2,0,0.4,0,0.6c0,0.2,0,0.3,0,0.3c0,0.2,0.1,0.2,0.3,0.2
				c0.1,0,0.2-0.1,0.3-0.2c0.1-0.1,0.2-0.2,0.3-0.2c0.1-0.1,0.2-0.1,0.2-0.2c0.1-0.1,0.1-0.1,0.1-0.1c0.1,0,0.2,0,0.3,0.1
				c0,0.1,0,0.3-0.2,0.5c-0.1,0.2-0.3,0.4-0.5,0.6c-0.2,0.2-0.4,0.3-0.7,0.5c-0.2,0.1-0.4,0.2-0.6,0.3c-0.3,0.1-0.4,0-0.5-0.3
				c-0.1-0.2-0.1-0.4-0.1-0.5c0-0.2,0-0.3,0-0.5l0.3-3.2c-0.3,0.4-0.7,0.6-1.2,0.7l-0.9,0.3c-0.3,0.1-0.6,0.2-0.8,0.4
				c-0.2,0.2-0.3,0.4-0.3,0.5L24.9,39c0,0.3-0.1,0.5-0.2,0.8c-0.1,0.2-0.3,0.4-0.6,0.5c-0.1,0-0.2,0-0.3-0.1c0-0.1,0-0.4,0-0.8
				l0.4-5.1c0.1-0.8,0.1-1.2,0.1-1.3s-0.1-0.2-0.2-0.1c0,0-0.1,0.1-0.2,0.1c-0.1,0.1-0.1,0.1-0.2,0.2c-0.1,0.1-0.1,0.1-0.2,0.2
				c-0.1,0.1-0.1,0.1-0.1,0.1c-0.2,0-0.2,0-0.3-0.2c0-0.1,0-0.2,0.2-0.5c0.1-0.2,0.3-0.4,0.6-0.7c0.2-0.2,0.5-0.4,0.7-0.6
				C24.8,31.2,25,31,25.2,31z"/>
			<path fill="#EC1558" stroke="#EC1558" stroke-width="0.5" stroke-miterlimit="10" d="M34,28.5c0.2-0.1,0.4,0,0.4,0.2
				s0.1,0.3,0.1,0.5s0,0.4-0.1,0.7l-0.5,5.3c0,0.3,0,0.6,0,0.9c0.1,0.3,0.3,0.4,0.6,0.3c0.4-0.1,0.7-0.3,1.1-0.6
				c0.3-0.3,0.6-0.6,0.8-1s0.4-0.8,0.6-1.2c0.1-0.4,0.2-0.8,0.3-1.2l0.4-3.9c0-0.3,0.1-0.4,0.1-0.6c0-0.1,0.1-0.2,0.3-0.4
				c0.2-0.2,0.3-0.3,0.5-0.3s0.2,0,0.3,0.1c0,0.1,0,0.3,0,0.8l-0.5,6.3c-0.1,1-0.2,1.9-0.3,2.8c-0.1,0.8-0.3,1.6-0.5,2.3
				s-0.5,1.2-0.9,1.7c-0.4,0.4-0.9,0.8-1.5,0.9c-0.2,0-0.4,0.1-0.7,0.1s-0.6,0-0.8-0.1c-0.3-0.1-0.5-0.2-0.8-0.3
				c-0.2-0.1-0.4-0.3-0.4-0.5c-0.1-0.4,0-0.6,0.4-0.7c0.1,0,0.3,0,0.4,0.1c0.2,0.1,0.3,0.2,0.5,0.4c0.2,0.1,0.4,0.3,0.6,0.4
				c0.2,0.1,0.5,0.1,0.7,0c0.4-0.1,0.8-0.3,1.1-0.7c0.3-0.3,0.5-0.7,0.6-1.3c0.2-0.5,0.3-1.2,0.3-1.9c0.1-0.8,0.1-1.6,0.1-2.7l0,0
				c-0.2,0.3-0.4,0.7-0.7,0.9c-0.3,0.3-0.5,0.6-0.8,0.8s-0.6,0.4-0.9,0.6c-0.3,0.2-0.6,0.3-0.9,0.4c-0.5,0.1-0.8-0.1-1-0.7
				c-0.1-0.3-0.1-0.8-0.1-1.3l0.4-4.9c0-0.2,0-0.4,0-0.5S33.1,30,33,30.1c0,0-0.1,0.1-0.2,0.1c-0.1,0.1-0.2,0.1-0.2,0.2
				c-0.1,0.1-0.2,0.1-0.2,0.2c-0.1,0.1-0.1,0.1-0.1,0.1c-0.2,0-0.2,0-0.3-0.2c0-0.1,0-0.3,0.2-0.5s0.3-0.4,0.6-0.7
				c0.2-0.2,0.5-0.4,0.7-0.6C33.6,28.6,33.8,28.5,34,28.5z"/>
			<path fill="#EC1558" stroke="#EC1558" stroke-width="0.5" stroke-miterlimit="10" d="M43.7,27.3c-0.2,0.1-0.3,0.2-0.5,0.3
				c-0.2,0-0.3,0-0.3-0.2c0-0.1,0-0.2,0.1-0.3c0.1-0.1,0.2-0.2,0.4-0.3l2.5-1.4c0.1-0.1,0.3-0.2,0.5-0.3c0.2-0.1,0.4-0.2,0.6-0.2
				c0.5-0.1,0.8,0.1,1,0.7c0.1,0.3,0.1,0.8,0,1.3l-0.5,5c0,0.3,0,0.5,0,0.5c0,0.2,0.2,0.2,0.3,0.2s0.1-0.1,0.2-0.1
				c0.1-0.1,0.2-0.2,0.2-0.2c0.1-0.1,0.2-0.2,0.2-0.2c0.1-0.1,0.1-0.1,0.2-0.1c0.1,0,0.2,0,0.2,0.2c0,0.1,0,0.2-0.1,0.4
				s-0.3,0.4-0.4,0.5c-0.2,0.2-0.4,0.4-0.6,0.5c-0.2,0.2-0.4,0.3-0.6,0.3c-0.3,0.1-0.5,0-0.6-0.3c-0.1-0.2-0.1-0.6,0-1.3l0.3-4.8
				c0-0.2,0-0.4,0-0.6s0-0.3,0-0.4c0-0.2-0.1-0.2-0.2-0.3c-0.1,0-0.2,0-0.5,0.1c-0.1,0-0.3,0.1-0.5,0.2s-0.4,0.2-0.6,0.3l-0.5,4.1
				c-0.1,0.7-0.2,1.4-0.3,1.9s-0.2,1-0.4,1.3c-0.1,0.4-0.3,0.6-0.5,0.8s-0.5,0.3-0.7,0.4c-0.4,0.1-0.7,0.1-1-0.1
				c-0.3-0.1-0.5-0.3-0.6-0.6c0-0.1,0-0.2,0-0.4c0-0.1,0.1-0.2,0.3-0.3c0.1,0,0.2,0,0.3,0c0.1,0.1,0.2,0.1,0.2,0.2
				c0.1,0.1,0.1,0.1,0.2,0.2c0.1,0.1,0.2,0.1,0.3,0c0.2,0,0.3-0.1,0.4-0.2c0.1-0.1,0.2-0.3,0.3-0.6s0.2-0.6,0.3-1.1s0.2-1.2,0.4-2
				l0.5-3.3C44.2,27,43.9,27.2,43.7,27.3z"/>
			<path fill="#EC1558" stroke="#EC1558" stroke-width="0.5" stroke-miterlimit="10" d="M51.6,23.5c0.2-0.1,0.4,0,0.4,0.2
				c0,0.1,0.1,0.3,0,0.5c0,0.2,0,0.4-0.1,0.7l-0.5,5.3c0,0.4,0,0.7,0,0.9c0.1,0.3,0.3,0.4,0.6,0.3s0.6-0.2,0.9-0.5
				c0.3-0.2,0.6-0.5,0.8-0.8s0.5-0.6,0.6-1c0.2-0.4,0.3-0.7,0.3-1l0.5-4.6c0-0.1,0-0.2,0-0.3c0-0.1,0-0.2,0.1-0.2
				c0,0,0.1-0.1,0.1-0.2c0.1-0.1,0.1-0.1,0.2-0.2c0.1-0.1,0.1-0.1,0.2-0.2c0.1-0.1,0.1-0.1,0.2-0.1c0.1,0,0.2,0,0.3,0.1
				c0,0.1,0,0.3,0,0.8L55.8,29c0,0.3,0,0.5,0,0.7s0,0.2,0,0.3c0,0.2,0.1,0.2,0.3,0.2c0.1,0,0.2-0.1,0.3-0.2s0.2-0.2,0.3-0.2
				c0.1-0.1,0.2-0.1,0.2-0.2c0.1-0.1,0.1-0.1,0.2-0.1c0.1,0,0.2,0,0.3,0.1c0,0.1,0,0.3-0.2,0.5c-0.1,0.2-0.3,0.4-0.5,0.6
				S56.3,31,56,31.2c-0.2,0.1-0.4,0.2-0.6,0.3c-0.3,0.1-0.4,0-0.5-0.3c-0.1-0.2-0.1-0.4-0.1-0.5s0-0.3,0-0.5
				c-0.2,0.3-0.3,0.6-0.6,0.8c-0.2,0.3-0.5,0.5-0.8,0.8c-0.6,0.5-1.3,0.9-1.9,1.1c-0.5,0.1-0.8-0.1-1-0.7c-0.1-0.3-0.1-0.8-0.1-1.3
				l0.4-4.9c0-0.2,0-0.4,0-0.5s-0.1-0.2-0.2-0.1c0,0-0.1,0.1-0.2,0.1c-0.1,0.1-0.2,0.1-0.2,0.2c-0.1,0.1-0.1,0.1-0.2,0.2
				C49.9,26,49.9,26,49.9,26c-0.2,0-0.2,0-0.3-0.2c0-0.1,0-0.3,0.2-0.5s0.3-0.4,0.6-0.7c0.2-0.2,0.5-0.4,0.7-0.6
				C51.2,23.7,51.4,23.5,51.6,23.5z"/>
			<path fill="#EC1558" stroke="#EC1558" stroke-width="0.5" stroke-miterlimit="10" d="M60.1,21.1c0.2-0.1,0.4,0,0.4,0.2
				s0.1,0.3,0,0.5c0,0.2,0,0.4-0.1,0.7l-0.3,2.7c0.1-0.2,0.3-0.3,0.4-0.4c0.2-0.1,0.4-0.2,0.7-0.3l1.1-0.3c0.3-0.1,0.5-0.2,0.7-0.3
				c0.2-0.1,0.3-0.3,0.3-0.5l0.2-2.3c0-0.3,0.1-0.4,0.1-0.5s0.1-0.2,0.1-0.2c0.1-0.1,0.2-0.2,0.3-0.3c0.1-0.1,0.2-0.2,0.3-0.2
				c0.1,0,0.2,0,0.3,0.1c0,0.1,0,0.3,0,0.8l-0.5,5.8c0,0.2,0,0.4,0,0.6s0,0.3,0,0.3c0,0.2,0.1,0.2,0.3,0.2c0.1,0,0.2-0.1,0.3-0.2
				c0.1-0.1,0.2-0.2,0.3-0.2c0.1-0.1,0.2-0.2,0.2-0.2c0.1-0.1,0.1-0.1,0.1-0.1c0.1,0,0.2,0,0.3,0.1c0,0.1,0,0.3-0.2,0.5
				c-0.1,0.2-0.3,0.4-0.5,0.6s-0.4,0.3-0.7,0.5c-0.2,0.1-0.4,0.2-0.6,0.3c-0.3,0.1-0.4,0-0.5-0.3C63,28.5,63,28.3,63,28.2
				c0-0.2,0-0.3,0-0.5l0.3-3.2c-0.3,0.4-0.7,0.6-1.2,0.7l-0.9,0.3c-0.3,0.1-0.6,0.2-0.8,0.4c-0.2,0.2-0.3,0.4-0.3,0.5l-0.3,2.7
				c0,0.3-0.1,0.5-0.2,0.8c-0.1,0.2-0.3,0.4-0.6,0.5c-0.1,0-0.2,0-0.3-0.1c0-0.1,0-0.4,0-0.8l0.4-5.1c0.1-0.8,0.1-1.2,0.1-1.3
				c0-0.1-0.1-0.2-0.2-0.1c0,0-0.1,0.1-0.2,0.1c-0.1,0.1-0.1,0.1-0.2,0.2c-0.1,0.1-0.1,0.1-0.2,0.2c-0.1,0.1-0.1,0.1-0.1,0.1
				c-0.2,0-0.2,0-0.3-0.2c0-0.1,0-0.2,0.2-0.5c0.1-0.2,0.3-0.4,0.6-0.7c0.2-0.2,0.5-0.4,0.7-0.6C59.7,21.3,59.9,21.1,60.1,21.1z"/>
			<path fill="#EC1558" stroke="#EC1558" stroke-width="0.5" stroke-miterlimit="10" d="M70.2,18.2c0.4-0.1,0.8-0.2,1.2-0.1
				c0.4,0,0.7,0.2,1,0.4c0.3,0.2,0.6,0.4,0.8,0.8c0.2,0.3,0.4,0.7,0.5,1.1c0.2,0.7,0.2,1.3,0.2,2.1c-0.1,0.7-0.2,1.4-0.5,2.1
				c-0.3,0.6-0.7,1.2-1.2,1.7s-1.1,0.9-1.8,1.1c-0.4,0.1-0.8,0.1-1.2,0.1c-0.4-0.1-0.7-0.2-1-0.4c-0.3-0.2-0.6-0.4-0.8-0.7
				c-0.2-0.3-0.4-0.6-0.5-1c-0.2-0.7-0.3-1.5-0.2-2.2c0.1-0.8,0.3-1.5,0.6-2.1c0.3-0.6,0.7-1.2,1.2-1.7
				C69.1,18.7,69.6,18.4,70.2,18.2z M70.2,19c-0.5,0.1-0.9,0.4-1.3,0.8c-0.3,0.4-0.6,0.9-0.8,1.4c-0.2,0.5-0.3,1.1-0.3,1.7
				s0.1,1.2,0.2,1.7c0.1,0.3,0.2,0.6,0.4,0.9c0.1,0.3,0.3,0.5,0.5,0.7s0.4,0.3,0.7,0.4c0.3,0.1,0.5,0.1,0.9,0c0.5-0.2,1-0.4,1.3-0.8
				s0.6-0.9,0.7-1.4c0.2-0.5,0.2-1.1,0.2-1.7s-0.1-1.2-0.2-1.7c-0.1-0.3-0.2-0.6-0.3-0.8c-0.1-0.3-0.3-0.5-0.5-0.7
				C71.5,19.2,71.3,19,71,19C70.8,18.9,70.5,18.9,70.2,19z"/>
			<path fill="#EC1558" stroke="#EC1558" stroke-width="0.5" stroke-miterlimit="10" d="M79.3,15.6c0.4-0.1,0.7,0.3,1,1.3l1.1,3.8
				c0.1,0.4,0.2,0.7,0.3,0.8c0.1,0.1,0.1,0.1,0.2,0.1s0.3-0.5,0.5-1.3l1.2-4.1c0.2-0.6,0.4-1.2,0.6-1.6c0.2-0.4,0.5-0.6,0.9-0.7
				c0.2-0.1,0.4,0,0.5,0.2c0,0.1,0,0.2,0,0.3s0,0.3,0,0.5l0.2,5c0,0.4,0,0.6,0,0.9c0,0.2,0,0.3,0,0.4s0.1,0.2,0.2,0.1
				c0.1,0,0.2-0.1,0.4-0.3c0.1-0.2,0.3-0.3,0.3-0.3c0.2,0,0.3,0,0.3,0.2c0,0.1,0,0.2-0.2,0.4c-0.1,0.2-0.3,0.4-0.5,0.7
				c-0.2,0.2-0.4,0.4-0.6,0.6s-0.4,0.3-0.5,0.3c-0.2,0.1-0.3,0-0.4-0.2c0-0.1,0-0.2-0.1-0.4c0-0.2,0-0.3,0-0.5l-0.2-5.6h-0.1
				l-1.6,5.7c-0.1,0.5-0.3,1-0.5,1.3s-0.5,0.5-0.8,0.6c-0.1,0-0.2,0-0.4-0.2c-0.1-0.2-0.3-0.5-0.4-1c0-0.1-0.1-0.2-0.1-0.5
				c-0.1-0.3-0.1-0.6-0.2-0.9s-0.2-0.7-0.3-1.1c-0.1-0.4-0.2-0.8-0.3-1.1c-0.1-0.4-0.2-0.7-0.2-0.9c-0.1-0.3-0.1-0.4-0.1-0.5l0,0
				l-0.3,3.1c-0.1,0.7-0.1,1.3-0.3,1.9c-0.1,0.5-0.2,1-0.4,1.3c-0.2,0.4-0.3,0.6-0.6,0.8c-0.2,0.2-0.5,0.3-0.8,0.4
				c-0.4,0.1-0.7,0.1-1-0.1c-0.3-0.1-0.5-0.3-0.6-0.6c0-0.1,0-0.2,0-0.4c0-0.1,0.1-0.2,0.3-0.3c0.1,0,0.2,0,0.3,0
				c0.1,0.1,0.2,0.1,0.2,0.2c0.1,0.1,0.1,0.1,0.2,0.2s0.2,0.1,0.3,0c0.2,0,0.3-0.1,0.4-0.2s0.2-0.3,0.4-0.6c0.1-0.3,0.2-0.6,0.3-1.1
				c0.1-0.5,0.2-1.2,0.3-2l0.3-2.6c0-0.1,0-0.2,0-0.3c0-0.1,0-0.1,0-0.1c0-0.1-0.1-0.1-0.3-0.1c-0.3,0.1-0.5,0.2-0.7,0.4
				c-0.2,0.2-0.3,0.3-0.4,0.3c-0.2,0-0.2,0-0.3-0.2c0-0.1,0-0.3,0.2-0.5c0.1-0.2,0.3-0.4,0.6-0.7c0.2-0.2,0.5-0.4,0.7-0.6
				C78.9,15.8,79.1,15.7,79.3,15.6z"/>
		</g>
	</g>
</g>
</svg>
