<?xml version="1.0" encoding="utf-8"?>
<!-- Generator: Adobe Illustrator 17.0.0, SVG Export Plug-In . SVG Version: 6.00 Build 0)  -->
<!DOCTYPE svg PUBLIC "-//W3C//DTD SVG 1.1//EN" "http://www.w3.org/Graphics/SVG/1.1/DTD/svg11.dtd">
<svg version="1.1" id="Layer_1" xmlns="http://www.w3.org/2000/svg" xmlns:xlink="http://www.w3.org/1999/xlink" x="0px" y="0px"
	 width="142.4px" height="112px" viewBox="0 0 142.4 112" enable-background="new 0 0 142.4 112" xml:space="preserve">
<g>
	<g>
		<path fill="#7B3037" d="M140,56.9c-2.4-0.5-4.9-0.4-7.7-0.5c-0.8,0-1.5,0.2-2.1,0.1c-0.5,0-0.9-0.6-0.9-1
			c-0.3-1.8-0.5-3.2-0.7-4.5c0.3-0.8,0.5-1.5,0.6-2.1c0.2-1.1,0.3-1.5,1.2-2c5.1-3.2,4.1-7.7,3.5-10.4c-0.2-0.9-0.4-1.8-0.3-2.4
			c0.1-0.2,0.5-0.7,0.7-0.9c1.4-1.8,4.4-5.7-0.2-10.2c-1.6-1.6-4.3-2.3-8.3-2.3c-0.1,0-0.2,0-0.3,0c-0.3-4.4-1-8.8-2.7-12.5
			c-1.2-2.2-2.6-4.7-5.4-5.4c-2.7-0.5-5.4,0.2-7.8,0.7c-3.1,0.9-5.1,1.8-8,3.2c-1.2,0.7-2.5,1.3-3.6,2.1c-1,0.7-2.1,1.4-3.1,2.1
			C89.9,3.7,85.6,0.1,82.2,0l-0.3,0c-6.2,0-6.9,4.7-7.2,6.9c0,0.2-0.1,0.9-0.2,1.1c-0.4,0.5-1.2,1-2,1.4C72.2,9.7,72,9.8,71.7,10
			C70,10,69,10,69,10c-2.8-0.2-5.7,0.4-8.4,0.3c-3.4,0.2-6.8,0.7-10.1,1.4c-1,0.1-1.8-0.1-2.4-0.4c-3.6-1.9-7.4-3.3-11.3-4.6
			c-4.4-1.1-10.1-3.2-14.1,0.1c-2.2,2.5-3.6,5.3-4.6,8.4c-0.8,2.3-1.1,4.9-1.3,7.5c-0.1,4.1,1,8.1,2,11.9c0.1,0.3,0.1,0.7-0.1,1.1
			c-3.5,6.1-6,12.9-6.2,20.3c-0.3,1.1,0.4,2.5-0.6,3.1c-1.1,0.1-2,0.2-3.1,0.3c-2.6,0.5-5.4,0.3-7.7,1.4C0.3,61.1,0,61.9,0,62.7
			c0,0.3,0.3,0.7,0.6,0.8c2,0.3,3.7-0.2,5.6-0.3c1.3-0.1,2.6-0.3,3.9-0.3c0.9,0,2.1-0.3,2.6,0.6c0.7,2.5,1,5.1,1.8,7.6
			c0.2,0.6,0.1,1.2-0.8,1.5c-2.1,0.7-4.3,1-6.2,2.3c-0.7,0.2-1,1.1-1,1.6c0.1,0.4,1,1.1,2.2,0.9c1.2-0.2,1.9-0.4,2.6-0.6
			c2-0.2,3.9-1.4,5.5,0.2c0.8,1.5,1.7,2.9,2.6,4.4c0.2,0.4,0.5,0.7,0.7,1.1c0.4,0.4,0.4,1.3-0.4,1.8c-1.8,1.1-3.6,2.1-5.4,3.2
			c-0.8,0.5-2.8,1.9-3.4,3.1c0,0.6-0.2,1.4,0.4,1.8c0.8,0.3,1.6,0.2,2.2-0.3c3-1.7,5.8-3.9,9-5.2c0.5-0.3,1.3-0.4,1.9,0.1
			c1.4,1.1,7.8,6.3,14.1,8.9c6.7,2.8,11,3.7,18,4.5c2.3,0.3,4.9,0.5,8,0.8c15.1,1.4,26.2-0.8,26.2-0.8c6.5-0.7,12.5-2.8,15.5-4
			c4.3-1.7,7-3.8,10.8-6.7c1.5-1.3,2.9-2.7,4.1-4.1c0.4-0.4,1.1-0.7,1.7-0.5c1.1,0.3,2,0.9,3.1,1.3c2.3,0.8,4.4,2.3,6.9,2.7
			c0.8,0,1.2-0.6,1.2-1.1c0.2-0.7-0.1-1.3-0.7-1.8c-2.6-1.9-5.6-3-8.4-4.5c-0.8-0.4-0.8-1-0.6-1.3c0.8-1.6,1.5-3.4,2.2-5
			c0.4-0.8,0.4-2.1,1.6-2.3c2.3,0,4.2,0.3,6.4,0.6c1.1,0,2.6,0.3,3.7-0.3c0.4-0.3,0.4-1.2,0-1.5c-1.5-0.9-3.1-1.4-4.9-1.7
			c-1.2-0.3-2.2-0.3-3.1-0.5c-0.4,0-0.4,0-0.9-0.1c-0.5-0.1-1-0.6-0.9-0.9c0.1-2.1,0.6-4,0.7-6.1c0.1-0.7-0.3-1.7,0.4-2.2
			c3-0.9,6.5,0,9.7-0.2c0.4-0.2,2.9,0.3,3-1.3C142.2,57.5,140.9,57.2,140,56.9z M131.7,25.1c2.6,2.6,1.3,4.2,0,6
			c-0.6,0.8-1.1,1.4-1.2,2.2c-0.2,1.2,0.1,2.4,0.4,3.8c0.6,2.7,1.1,5-2.1,7c-2,1.3-2.3,2.9-2.6,4.1c-0.3,1.5-0.5,2.6-3.5,3.7
			c-2.7,1-8-3.4-12.8-8.5c3.1-2,5.4-4.8,6.7-8.1c1,0.4,2.1,0.6,3.4,0.8c1.6,0.2,3.6,0.5,3.9,1.4c0.3,1-0.1,1.3-0.3,1.4
			c-0.5,0.4-1.2,0.4-1.8,0.1c-0.7-0.4-1.6-0.2-2.1,0.5c-0.4,0.7-0.2,1.6,0.5,2.1c0.7,0.5,1.6,0.7,2.4,0.7c1,0,2-0.3,2.7-0.9
			c1.4-1.1,1.9-2.8,1.3-4.7c-0.8-2.7-3.9-3.1-6.3-3.5c-1-0.2-2.1-0.3-2.7-0.6c-0.1,0-0.2-0.1-0.3-0.1c0.4-2.2,0.5-4.5,0-6.8
			c-0.1-0.4-0.2-0.7-0.2-1C123.2,23.5,129.6,23,131.7,25.1z M100.8,43c-5.9,0-11.3-3.8-13.3-9.5c-0.2-0.5-0.3-1.1-0.5-1.6
			c0-0.1,0-0.2-0.1-0.3c-0.6-3.6,0.1-7.2,2.1-10.2c1.4-2.1,3.3-3.8,5.6-4.9c0.6-0.3,1.2-0.6,1.9-0.8c0.5-0.1,0.9-0.3,1.4-0.4
			c1-0.2,1.9-0.3,2.9-0.3c2.7,0,5.3,0.8,7.7,2.3c2.3,1.5,4,3.5,5.1,5.9c0.3,0.6,0.5,1.2,0.7,1.9c0.1,0.3,0.2,0.7,0.3,1
			c1.2,6.1-1.6,12-6.7,15c-0.6,0.3-1.2,0.6-1.9,0.9c-0.7,0.3-1.5,0.5-2.3,0.7C102.7,42.9,101.7,43,100.8,43z M93.1,13.9
			c-2.5,1.3-4.6,3.1-6.2,5.4c-1.5-1.6-3.8-2.9-5.6-3.6c-1.5-0.5-2.9-0.3-3.9,0.7c-1,1-1.4,2.7-0.9,4.2c0.4,1.3,1.4,2.2,2.7,2.3
			c0.1,0,0.1,0,0.2,0c0.7,0,1.4-0.5,1.5-1.3c0.1-0.8-0.5-1.6-1.3-1.7c-0.1,0-0.2,0-0.3-0.3c-0.1-0.4,0-0.9,0.2-1.1
			c0.2-0.2,0.6-0.1,0.8,0c1.5,0.5,3.6,1.8,4.6,3c0.1,0.2,0.3,0.3,0.4,0.4c-1.4,3-1.8,6.3-1.3,9.6c-6.9,0.1-13.6-0.6-14.8-3.2
			c-1.3-2.9-0.6-3.9,0.2-5.1c0.7-1.1,1.6-2.4,1.2-4.7c-0.8-3.7,1.2-5,3.5-6.4c1.1-0.7,2.2-1.4,2.9-2.4c0.4-0.6,0.6-1.5,0.7-2.4
			c0.3-2.2,0.6-4.3,4.3-4.2C85.2,3.2,89.5,8.6,93.1,13.9z M106.2,9.7c2-0.6,3.9-1.4,5.9-2c1.5-0.5,4.3-1.3,5.4,0.5
			c0.9,1.5,1.5,2.8,1.9,4c0.2,0.8,2.3,8.1,1.7,8.2c-1.4,0.2-3.1,0.5-4.5,0.7c-0.2,0-0.3,0-0.5,0c-1.3-2.6-3.3-4.8-5.8-6.4
			c-2.6-1.7-5.6-2.6-8.7-2.8C103.2,11,105,10.1,106.2,9.7z M124.9,64.2c-0.2,1.4-0.4,2.8-0.6,4.2c-0.4,0.7-1.4,0.4-2,0.4
			c-1.4-0.1-2.7-0.1-3,1.3c0,1.3,2,1.6,3.2,2c0.4,0.1,0.7,0.5,0.4,1.3c-0.6,2-1.5,3.8-2.6,5.6c-0.4,1-1.2,0.9-1.7,0.8
			c-1.3-0.2-2.6-0.9-3.8-0.1c-0.5,0.3-0.5,1-0.4,1.4c0.4,1.1,1.5,1.3,2.3,1.9c0.3,0.2,0.4,0.6,0.1,1c-2,2.6-4.8,4.4-7.5,6
			c-4.6,2.6-9.6,4.4-14.9,5.3c-5.4,1.4-19.7,2.9-34.7,1.2c-7.5-0.6-12.2-2.2-16.3-3.4c-5.4-1.6-10.4-4.8-14.9-8.3
			c-0.1-0.1-0.1-0.3,0-0.5c1-1,2.7-1.1,3.4-2.5c0.1-0.7-0.3-1.7-1.2-1.8c-1.6-0.1-2.8,0.6-4.2,1.2c-0.8,0.2-1.8,0.1-2.4-0.7
			c-1.2-1.6-2.4-3.2-3.2-4.9c-0.3-0.5,0.1-1,0.6-1.2c1.1-0.3,2.3-0.7,3.3-1.1c0.2-0.1,0.4-0.3,0.5-0.5c0.1-0.6,0-1.4-0.8-1.6
			c-1.2-0.5-2.4,0.1-4,0.1c-0.4,0.1-1,0.2-1.4-0.2c-0.9-2-1.6-4.2-1.8-6.6c0-0.2,0-0.5,0-0.7c0-0.6,0.3-1,0.9-1c1-0.1,2,0.1,2.9,0.1
			c1.2-0.1,3.2,0.5,3.6-1.2c0.1-1.5-1.7-1.5-2.6-1.9c-1.6-0.2-2.9-0.5-4.5-0.6c-0.4-0.1-0.8-0.4-0.9-0.8c0.1-6.4,1.4-12.2,3.9-17.6
			c1.2-3.2,3.3-6,5.2-8.8c0.2-0.5,0.4-1.1,0.3-1.7c-0.2-0.6-0.6-1-1.2-1c-0.8-0.2-1.3,0.3-1.9,0.7c-0.2,0.1-0.5,0.1-0.6-0.2
			c-0.9-1.6-1.2-3.5-1.4-5.4c0.1-5,1-9.8,4.2-13.6c1.9-2,5.4-1.1,7.8-0.6c4.9,1.3,9.5,3.2,13.9,5.8c2.5,1.5,5.3-0.2,7.9-0.4
			c2-0.3,7.3-0.6,12.8-0.7c-0.3,1.2-0.4,2.5,0,4.2c0.2,1,0,1.4-0.6,2.3c-1,1.4-2.5,3.6-0.5,8.1c1.5,3.4,7,5.2,16.4,5.2
			c0.6,0,1.3,0,1.9,0c2.4,6.8,9,11.4,16.2,11.4c1.2,0,2.3-0.1,3.5-0.4c0.9-0.2,1.8-0.5,2.7-0.8c6.2,6.8,11.2,10.2,14.9,10.2
			c0,0,0,0,0,0c0.7,0,1.3-0.1,1.9-0.3c0.4-0.1,0.7-0.3,1.1-0.5c0.1,0.5,0.1,1.1,0.2,1.7c0,0.4-0.1,0.8-0.5,1c-1,0.4-2.3,0.4-3.4,0.6
			c-1.1,0.3-2.1,0.3-3.4,1c-0.6,0.4-0.7,0.9-0.6,1.5c0.3,0.7,0.9,1.1,1.7,1.2c1.7-0.3,3.4-0.4,5.1-0.7c0.1,0,0.1,0,0.2,0
			c0.5,0,0.9,0.1,0.8,1C125,62.5,125.1,63.4,124.9,64.2z"/>
		<path fill="#FFFFFF" d="M110.2,14.6c2.5,1.6,4.4,3.8,5.8,6.4c0.2,0,0.3,0,0.5,0c1.4-0.2,3.1-0.4,4.5-0.7c0.6-0.1-1.5-7.5-1.7-8.2
			c-0.3-1.1-0.9-2.4-1.9-4c-1.1-1.8-3.9-0.9-5.4-0.5c-2,0.6-3.9,1.4-5.9,2c-1.2,0.4-3,1.3-4.6,2.2C104.6,12,107.6,12.9,110.2,14.6z"
			/>
		<path fill="#FFFFFF" d="M124.2,60.6c-0.1,0-0.1,0-0.2,0c-1.7,0.3-3.4,0.4-5.1,0.7c-0.9-0.1-1.4-0.4-1.7-1.2
			c-0.1-0.6,0-1.1,0.6-1.5c1.2-0.6,2.3-0.6,3.4-1c1.1-0.3,2.3-0.2,3.4-0.6c0.4-0.2,0.5-0.6,0.5-1c-0.1-0.6-0.1-1.1-0.2-1.7
			c-0.3,0.2-0.7,0.3-1.1,0.5c-0.6,0.2-1.2,0.3-1.9,0.3c0,0,0,0,0,0c-3.7,0-8.7-3.4-14.9-10.2c-0.9,0.4-1.8,0.6-2.7,0.8
			c-1.1,0.2-2.3,0.4-3.5,0.4c-7.2,0-13.8-4.6-16.2-11.4c-0.6,0-1.2,0-1.9,0c-9.4,0-14.9-1.7-16.4-5.2c-2-4.5-0.5-6.7,0.5-8.1
			c0.6-0.9,0.9-1.2,0.6-2.3c-0.3-1.6-0.3-3,0-4.2c-5.5,0.1-10.8,0.4-12.8,0.7c-2.6,0.2-5.4,1.9-7.9,0.4c-4.4-2.6-9-4.5-13.9-5.8
			C30.6,9.8,27.1,9,25.1,11c-3.1,3.8-4,8.5-4.2,13.6c0.2,1.9,0.5,3.8,1.4,5.4c0.1,0.3,0.4,0.2,0.6,0.2c0.6-0.4,1.2-0.8,1.9-0.7
			c0.5,0.1,1,0.4,1.2,1c0.1,0.6,0,1.2-0.3,1.7c-1.9,2.8-4.1,5.6-5.2,8.8c-2.5,5.3-3.8,11.2-3.9,17.6c0.2,0.4,0.6,0.8,0.9,0.8
			c1.5,0.1,2.9,0.4,4.5,0.6c1,0.4,2.7,0.4,2.6,1.9c-0.4,1.7-2.4,1-3.6,1.2c-0.9,0-1.9-0.2-2.9-0.1c-0.6,0-0.9,0.4-0.9,1
			c0,0.2,0,0.5,0,0.7c0.2,2.4,0.9,4.6,1.8,6.6c0.4,0.3,1,0.3,1.4,0.2c1.6,0,2.7-0.6,4-0.1c0.8,0.2,0.9,1,0.8,1.6
			c-0.1,0.2-0.3,0.4-0.5,0.5c-1.1,0.4-2.2,0.8-3.3,1.1c-0.5,0.2-0.8,0.7-0.6,1.2c0.8,1.8,2,3.4,3.2,4.9c0.6,0.7,1.5,0.8,2.4,0.7
			c1.4-0.6,2.6-1.3,4.2-1.2c0.9,0.1,1.3,1,1.2,1.8c-0.8,1.3-2.4,1.4-3.4,2.5c0,0.1-0.1,0.4,0,0.5c4.6,3.5,9.6,6.7,14.9,8.3
			c4.1,1.2,8.8,2.8,16.3,3.4c15,1.7,29.2,0.2,34.7-1.2c5.3-0.9,10.3-2.7,14.9-5.3c2.6-1.6,5.4-3.4,7.5-6c0.3-0.4,0.2-0.8-0.1-1
			c-0.9-0.5-2-0.8-2.3-1.9c-0.1-0.4-0.1-1.2,0.4-1.4c1.2-0.8,2.5,0,3.8,0.1c0.5,0.1,1.3,0.2,1.7-0.8c1.1-1.8,2-3.6,2.6-5.6
			c0.3-0.8-0.1-1.2-0.4-1.3c-1.2-0.3-3.2-0.6-3.2-2c0.4-1.4,1.7-1.4,3-1.3c0.6,0,1.6,0.3,2-0.4c0.3-1.4,0.5-2.8,0.6-4.2
			c0.2-0.8,0.1-1.7,0.1-2.6C125.1,60.7,124.6,60.7,124.2,60.6z M45.8,68.1c-0.2,1.4-1,3-2.5,3.6c-1.5,0.5-3.5,0.3-4.6-0.9
			c-1.5-1.8-1.5-4.7-0.8-6.9c0.4-1.1,1.4-2.4,2.6-2.7c1.4-0.6,2.9,0,3.9,0.8C46,63.7,46.1,66,45.8,68.1z M76.2,79.7
			c-2.7,1.8-6.4,1.3-9.1,0c-1.6-0.8-2.2-2.4-2-4.2c0.2-1.3,0.9-2.7,2.2-3.3c2.4-1.6,6.2-1.4,8.6,0.1c1.2,0.6,2,1.8,2.2,3.2
			C78.3,77.1,77.6,78.7,76.2,79.7z M103.5,67.4c-0.3,1.9-1,4-3.1,4.6c-1.6,0.5-3.3-0.2-4.2-1.6c-1.1-1.5-1-3.5-0.8-5.3
			c0.3-1.4,1.2-3,2.5-3.7c1.1-0.4,2.6-0.3,3.7,0.2C103.3,63.1,103.8,65.2,103.5,67.4z"/>
		<path fill="#7B3037" d="M40.6,61.3c-1.2,0.4-2.2,1.6-2.6,2.7c-0.7,2.3-0.7,5.1,0.8,6.9c1.1,1.2,3,1.4,4.6,0.9
			c1.5-0.6,2.2-2.2,2.5-3.6c0.2-2.1,0.2-4.5-1.3-6C43.5,61.3,42,60.7,40.6,61.3z"/>
		<path fill="#7B3037" d="M75.9,72.2c-2.5-1.5-6.2-1.7-8.6-0.1c-1.3,0.6-2,2-2.2,3.3c-0.2,1.8,0.4,3.4,2,4.2c2.7,1.3,6.5,1.8,9.1,0
			c1.4-1,2.1-2.5,1.9-4.3C77.9,74,77,72.8,75.9,72.2z M74,77.8c-1.6,0.8-4,0.8-5.5-0.3c-0.5-0.5-0.9-1.1-0.6-1.7
			c0.2-0.6,0.7-1.3,1.3-1.6c1.7-0.7,4.1-0.8,5.4,0.7c0.5,0.4,0.5,0.9,0.6,1.5C75.1,77,74.6,77.5,74,77.8z"/>
		<path fill="#FFD375" d="M69.2,74.1c-0.6,0.3-1.1,1-1.3,1.6c-0.3,0.7,0.1,1.3,0.6,1.7c1.5,1.1,3.9,1.1,5.5,0.3
			c0.6-0.3,1.1-0.8,1.1-1.5c-0.1-0.5-0.1-1.1-0.6-1.5C73.3,73.4,70.9,73.5,69.2,74.1z"/>
		<path fill="#7B3037" d="M101.6,61.7c-1-0.5-2.5-0.7-3.7-0.2c-1.4,0.6-2.3,2.2-2.5,3.7c-0.2,1.8-0.2,3.8,0.8,5.3
			c1,1.4,2.6,2.1,4.2,1.6c2-0.6,2.8-2.7,3.1-4.6C103.8,65.2,103.3,63.1,101.6,61.7z"/>
		<path fill="#DD7CB1" d="M117.2,24.6c0.1,0.3,0.2,0.6,0.2,1c0.5,2.3,0.5,4.6,0,6.8c0.1,0,0.2,0.1,0.3,0.1c0.5,0.3,1.6,0.4,2.7,0.6
			c2.4,0.4,5.5,0.8,6.3,3.5c0.6,1.9,0.1,3.6-1.3,4.7c-0.8,0.6-1.8,0.9-2.7,0.9c-0.9,0-1.7-0.2-2.4-0.7c-0.7-0.4-0.9-1.4-0.5-2.1
			c0.4-0.7,1.4-0.9,2.1-0.5c0.5,0.3,1.3,0.3,1.8-0.1c0.1-0.1,0.6-0.5,0.3-1.4c-0.3-0.9-2.3-1.2-3.9-1.4c-1.2-0.2-2.4-0.4-3.4-0.8
			c-1.3,3.3-3.6,6.2-6.7,8.1c4.8,5.1,10.1,9.5,12.8,8.5c3-1.1,3.2-2.3,3.5-3.7c0.2-1.3,0.6-2.8,2.6-4.1c3.2-2,2.7-4.3,2.1-7
			c-0.3-1.3-0.6-2.6-0.4-3.8c0.1-0.8,0.7-1.4,1.2-2.2c1.4-1.8,2.7-3.4,0-6C129.6,23,123.2,23.5,117.2,24.6z"/>
		<path fill="#DD7CB1" d="M77.8,7.4c-0.1,1-0.3,1.8-0.7,2.4c-0.7,1-1.8,1.7-2.9,2.4c-2.3,1.4-4.3,2.7-3.5,6.4
			c0.5,2.4-0.4,3.7-1.2,4.7c-0.8,1.2-1.5,2.2-0.2,5.1c1.1,2.6,7.9,3.3,14.8,3.2c-0.5-3.3,0-6.6,1.3-9.6c-0.2-0.1-0.3-0.2-0.4-0.4
			c-1-1.3-3.1-2.5-4.6-3c-0.2-0.1-0.7-0.2-0.8,0c-0.2,0.2-0.3,0.7-0.2,1.1c0.1,0.3,0.2,0.3,0.3,0.3c0.8,0.1,1.4,0.9,1.3,1.7
			c-0.1,0.7-0.7,1.3-1.5,1.3c-0.1,0-0.1,0-0.2,0c-1.3-0.2-2.3-1-2.7-2.3c-0.5-1.5-0.1-3.1,0.9-4.2c1-1,2.4-1.2,3.9-0.7
			c1.8,0.6,4.1,1.9,5.6,3.6c1.6-2.3,3.7-4.2,6.2-5.4c-3.5-5.3-7.9-10.6-11-10.7C78.4,3.1,78.1,5.2,77.8,7.4z"/>
		<path fill="#DD7CB1" d="M103.6,42.7c0.8-0.2,1.6-0.4,2.3-0.7c0.7-0.3,1.3-0.6,1.9-0.9c5.1-2.9,8-8.9,6.7-15
			c-0.1-0.4-0.2-0.7-0.3-1c-0.2-0.7-0.4-1.3-0.7-1.9c-1.1-2.4-2.8-4.5-5.1-5.9c-2.3-1.5-5-2.3-7.7-2.3c-1,0-1.9,0.1-2.9,0.3
			c-0.5,0.1-0.9,0.2-1.4,0.4c-0.7,0.2-1.3,0.5-1.9,0.8c-2.3,1.1-4.2,2.7-5.6,4.9c-2,3-2.7,6.6-2.1,10.2c0,0.1,0,0.2,0.1,0.3
			c0.1,0.6,0.3,1.1,0.5,1.6c1.9,5.7,7.3,9.5,13.3,9.5C101.7,43,102.7,42.9,103.6,42.7z"/>
	</g>
	<g>
		<path fill="#7B3037" d="M109.7,86.1c5.9,2,7.8,4.2,9.7,7.4c0,0,1.3,3.1,1.5,4.4c0.2,1.4,0.1,1.6,0.1,2.4c-0.4,4.5-3,8.6-6.6,10.4
			c-2.5,1.2-6.5,2-11.8-0.9c-5.7,2.1-9.6,0.6-11.8-1.1c-2.8-2-4.5-5.5-4.8-9.3c-0.1-0.1-0.1-0.2,0-0.8
			C85.9,98.7,85.9,81.1,109.7,86.1z"/>
		<path fill="#FFFFFF" d="M117.1,100.1c-0.3,3.2-2,6.1-4.5,7.3c-2.5,1.2-5.5,0.8-8.8-1.2c-0.6-0.3-1.3-0.4-1.9-0.2
			c-3.6,1.5-6.7,1.4-8.9-0.3c-2.2-1.6-3.5-4.7-3.2-7.9c0.5-5.5,7-9.6,14.5-8.9C111.8,89.5,117.5,94.6,117.1,100.1z"/>
	</g>
	<g>
		<path fill="#7B3037" d="M57.6,98.1c0,3.7-1.6,7.3-4.1,9.4c-2.1,1.8-5.8,3.5-11.7,1.8c-5.1,3.3-9.2,2.8-11.7,1.7
			c-3.7-1.6-6.6-5.5-7.3-10c-0.2-1-0.2-2,0-3c0,0,0.9-8.8,11.2-12.4c0,0,6.7-2.9,14.9,0.2C57,89,57.6,96.5,57.6,98.1z"/>
		<path fill="#FFFFFF" d="M50.9,104.6c-2.1,1.8-5.2,2.1-8.9,0.9c-0.6-0.2-1.3-0.1-1.9,0.3c-3.2,2.3-6.2,2.9-8.7,1.8
			c-2.5-1.1-4.5-3.8-5-7c-0.8-5.5,4.6-10.9,12-12.1c7.5-1.1,14.2,2.5,15,8C54.1,99.7,53,102.9,50.9,104.6z"/>
	</g>
</g>
</svg>
