<?xml version="1.0" encoding="utf-8"?>
<!-- Generator: Adobe Illustrator 17.0.0, SVG Export Plug-In . SVG Version: 6.00 Build 0)  -->
<!DOCTYPE svg PUBLIC "-//W3C//DTD SVG 1.1//EN" "http://www.w3.org/Graphics/SVG/1.1/DTD/svg11.dtd">
<svg version="1.1" id="Layer_1" xmlns="http://www.w3.org/2000/svg" xmlns:xlink="http://www.w3.org/1999/xlink" x="0px" y="0px"
	 width="275px" height="145px" viewBox="0 0 275 145" enable-background="new 0 0 275 145" xml:space="preserve">
<g>
	<path fill="#151717" d="M50.6,77.7h4.7c2.5,0,4.4,0.2,5.5,0.7c1.1,0.5,2,1.2,2.7,2.3c0.6,1,1,2.3,1,3.8c0,1.6-0.4,3-1.3,4
		c-0.8,1.1-2,1.8-3.4,2.2C58.8,90.9,57.2,91,55,91v9.8h-4.4V77.7z M55,86.7h1.4c1.1,0,1.9-0.1,2.3-0.2c0.4-0.1,0.8-0.4,1-0.8
		c0.2-0.4,0.4-0.8,0.4-1.3c0-0.9-0.4-1.5-1-2c-0.5-0.3-1.4-0.5-2.8-0.5H55V86.7z M68.9,77.7h4.7c2.6,0,4.4,0.2,5.5,0.7
		c1.1,0.5,2,1.2,2.6,2.3c0.7,1,1,2.3,1,3.8c0,1.5-0.4,2.8-1.1,3.8c-0.7,1-1.8,1.8-3.3,2.3l5.5,10.3h-4.8L73.7,91h-0.4v9.8h-4.4V77.7
		z M73.3,86.7h1.4c1.4,0,2.4-0.2,2.9-0.6c0.5-0.4,0.8-1,0.8-1.8c0-0.5-0.1-0.9-0.4-1.3c-0.3-0.4-0.6-0.6-1-0.8
		c-0.5-0.2-1.3-0.2-2.4-0.2h-1.2V86.7z M114.4,77.7h5.2c3.4,0,5.9,0.4,7.5,1.3c1.6,0.8,3,2.2,4.1,4.1c1,1.9,1.6,4.1,1.6,6.6
		c0,1.8-0.3,3.4-0.9,4.9c-0.6,1.5-1.4,2.7-2.4,3.7c-1,1-2.2,1.7-3.4,2.1c-1.2,0.4-3.3,0.6-6.3,0.6h-5.3V77.7z M118.8,81.9v14.6h2
		c2,0,3.5-0.2,4.4-0.7c0.9-0.5,1.7-1.2,2.2-2.3c0.6-1.1,0.9-2.4,0.9-4c0-2.4-0.7-4.4-2.1-5.7c-1.2-1.2-3.2-1.8-6-1.8H118.8z
		 M136.8,77.7h4.4v15c0,1.3,0.1,2.2,0.3,2.7c0.2,0.5,0.6,1,1.1,1.3c0.5,0.3,1.2,0.5,1.9,0.5c0.8,0,1.4-0.2,2-0.5
		c0.6-0.3,0.9-0.8,1.2-1.4c0.2-0.6,0.3-1.6,0.3-3.1V77.7h4.4v13.8c0,2.3-0.1,4-0.4,4.9c-0.3,0.9-0.8,1.8-1.5,2.6
		c-0.7,0.8-1.6,1.5-2.6,1.9c-1,0.4-2.1,0.6-3.4,0.6c-1.7,0-3.1-0.4-4.4-1.2c-1.3-0.8-2.1-1.7-2.7-2.9c-0.5-1.2-0.8-3.1-0.8-5.9V77.7
		z M178.8,81.8l-3.1,2.9c-2.1-2.2-4.5-3.3-7.1-3.3c-2.2,0-4.1,0.8-5.6,2.3c-1.5,1.5-2.3,3.4-2.3,5.6c0,1.5,0.3,2.9,1,4.1
		c0.7,1.2,1.6,2.1,2.8,2.8c1.2,0.7,2.6,1,4.1,1c1.3,0,2.4-0.2,3.5-0.7c1.1-0.5,2.2-1.3,3.5-2.6l3,3.1c-1.7,1.7-3.3,2.8-4.8,3.5
		c-1.5,0.6-3.3,1-5.2,1c-3.6,0-6.5-1.2-8.8-3.4c-2.3-2.3-3.4-5.2-3.4-8.8c0-2.3,0.5-4.4,1.6-6.2c1-1.8,2.5-3.3,4.5-4.3
		c1.9-1.1,4-1.6,6.3-1.6c1.9,0,3.8,0.4,5.5,1.2C176,79.1,177.6,80.3,178.8,81.8L178.8,81.8z M180.4,77.7h12.8V82H189v18.8h-4.5V82
		h-4.1V77.7z M208.3,80.8l-3.2,2.9c-1.2-1.6-2.3-2.4-3.5-2.4c-0.6,0-1,0.1-1.4,0.5c-0.4,0.3-0.6,0.7-0.6,1c0,0.4,0.1,0.8,0.4,1.1
		c0.4,0.5,1.4,1.4,3.2,3c1.7,1.4,2.7,2.3,3.1,2.7c0.9,0.9,1.5,1.8,1.9,2.6c0.4,0.8,0.6,1.7,0.6,2.7c0,1.9-0.7,3.5-2,4.7
		c-1.3,1.3-3,1.9-5.1,1.9c-1.6,0-3.1-0.4-4.3-1.2c-1.2-0.8-2.3-2.1-3.1-3.8l3.7-2.2c1.1,2.1,2.4,3.1,3.8,3.1c0.8,0,1.4-0.2,1.9-0.7
		c0.5-0.4,0.8-0.9,0.8-1.5c0-0.5-0.2-1-0.6-1.6c-0.4-0.5-1.2-1.3-2.6-2.4c-2.5-2.1-4.2-3.6-4.9-4.8c-0.7-1.1-1.1-2.2-1.1-3.4
		c0-1.6,0.6-3,1.8-4.1c1.2-1.2,2.7-1.7,4.5-1.7c1.2,0,2.2,0.3,3.3,0.8C206,78.4,207.1,79.4,208.3,80.8L208.3,80.8z"/>
	<path fill="#151717" d="M149,73.2V50h0.5l15.4,17.7V50h2.3v23.2h-0.5l-15.3-17.5v17.5H149z M189.5,56.1v17.1h-2.2v-2.9
		c-0.9,1.1-2,2-3.1,2.5c-1.2,0.6-2.4,0.9-3.8,0.9c-2.4,0-4.5-0.9-6.2-2.7c-1.7-1.8-2.6-3.9-2.6-6.4c0-2.5,0.9-4.6,2.6-6.3
		c1.7-1.8,3.8-2.6,6.3-2.6c1.4,0,2.7,0.3,3.8,0.9c1.2,0.6,2.1,1.5,3,2.7v-3.1H189.5z M180.7,57.8c-1.2,0-2.3,0.3-3.4,0.9
		c-1,0.6-1.9,1.4-2.5,2.5c-0.6,1.1-0.9,2.2-0.9,3.5c0,1.2,0.3,2.4,0.9,3.5c0.6,1.1,1.4,2,2.5,2.6c1,0.6,2.2,0.9,3.4,0.9
		c1.2,0,2.4-0.3,3.4-0.9c1.1-0.6,1.9-1.4,2.5-2.5c0.6-1,0.9-2.2,0.9-3.5c0-2-0.7-3.6-2-5C184.2,58.4,182.6,57.8,180.7,57.8
		L180.7,57.8z M196.4,49.7h2.2v6.4h3.5V58h-3.5v15.2h-2.2V58h-3v-1.9h3V49.7z M205.1,56.1h2.2v8c0,1.9,0.1,3.3,0.3,4
		c0.3,1,0.9,1.9,1.8,2.5c0.9,0.6,2,0.9,3.2,0.9c1.2,0,2.3-0.3,3.1-0.9c0.9-0.6,1.5-1.4,1.8-2.3c0.2-0.7,0.3-2.1,0.3-4.2v-8h2.3v8.4
		c0,2.4-0.3,4.1-0.8,5.4c-0.6,1.2-1.4,2.1-2.5,2.8c-1.1,0.7-2.5,1-4.2,1c-1.7,0-3.1-0.3-4.2-1c-1.1-0.7-1.9-1.6-2.5-2.8
		c-0.6-1.2-0.8-3-0.8-5.5V56.1z M224.2,56.1h2.3v2.5c0.7-1,1.4-1.7,2.1-2.2c0.7-0.5,1.5-0.7,2.3-0.7c0.6,0,1.3,0.2,2,0.6l-1.2,1.9
		c-0.5-0.2-0.8-0.3-1.2-0.3c-0.7,0-1.4,0.3-2.1,0.9c-0.7,0.6-1.2,1.5-1.6,2.8c-0.3,1-0.4,2.9-0.4,5.9v5.8h-2.3V56.1z M251.7,56.1
		v17.1h-2.2v-2.9c-0.9,1.1-2,2-3.1,2.5c-1.1,0.6-2.4,0.9-3.8,0.9c-2.4,0-4.5-0.9-6.2-2.7c-1.7-1.8-2.6-3.9-2.6-6.4
		c0-2.5,0.9-4.6,2.6-6.3c1.7-1.8,3.8-2.6,6.2-2.6c1.4,0,2.7,0.3,3.8,0.9c1.1,0.6,2.1,1.5,3,2.7v-3.1H251.7z M242.9,57.8
		c-1.2,0-2.4,0.3-3.4,0.9c-1,0.6-1.9,1.4-2.5,2.5c-0.6,1.1-0.9,2.2-0.9,3.5c0,1.2,0.3,2.4,0.9,3.5c0.6,1.1,1.5,2,2.5,2.6
		c1,0.6,2.2,0.9,3.4,0.9c1.2,0,2.3-0.3,3.4-0.9c1.1-0.6,1.9-1.4,2.5-2.5c0.6-1,0.9-2.2,0.9-3.5c0-2-0.6-3.6-2-5
		C246.5,58.4,244.9,57.8,242.9,57.8L242.9,57.8z M256.4,49.5h2.2v23.7h-2.2V49.5z"/>
	<path fill-rule="evenodd" clip-rule="evenodd" fill="#00A3D2" d="M114.3,37.4c0.6,16-1.7,26.5-6.7,31.6
		c-11.1-26.4-30.2-45.6-57-57.5C43.5,8.2,35.7,5.1,27,2.3c-5.7,3.6-9.5,15.9-11.6,36.9c-0.8,13.7,2,25,8.3,33.8
		c4.3,5.9,10.4,10.2,18.3,13c-4.7,3-6.9,7.2-6.5,12.6c0.5,4.9,1.9,11.2,4.2,18.9c1.6,7.3,0.6,12.5-2.9,15.4
		c-4.9,3.9-11,5.8-18.3,5.8c-5.9,0.5-11.3,1-16,1.6c10.1,0.8,18.3,0.9,24.8,0.3c11.6-0.4,22.4-2.9,32.5-7.6
		c4.1-1.9,6.6-4.2,11.9-7.2c6.9-5,7.1-4.5,14-11.9c0.4-0.5,6.3-5.8,6.5-6.2c-1.6-0.9-2.3-1.4-2.3-1.4c-12.8,14.9-31.1,25.2-55,30.9
		c8.1-4.5,10.4-12.4,6.6-23.8c-3.5-10.8-4.2-18-2.1-21.5c1.7-3,5.3-5.2,10.9-6.6C37.8,82.8,29,77.1,23.5,68.1
		c-6-12.3-7.3-27-3.7-44.3c2.3-9,4.8-15.2,7.4-18.8c15.4,5.4,29.5,13.3,42.4,23.5c16.1,13.1,27.6,26,34.3,38.7c1.8,3.3,2.7,5,2.7,5
		c5.2-3.4,8.6-9.3,10.1-17.9c3.6-17.5,1.3-34-7.1-49.5C92.4,9.3,81.5,16.9,77.2,27.7c1.2,1,1.9,1.6,1.9,1.6
		C84.1,18.6,94,11.5,108.6,7.8C112.1,14.5,114,24.3,114.3,37.4L114.3,37.4z"/>
	<path fill-rule="evenodd" clip-rule="evenodd" fill="#00A3D2" d="M63.1,131c-2.2,1.2-3.3,1.8-3.3,1.8c-2.7,3.6-9.6,6.9-20.8,9.9
		c24.7-1.6,39-7,43-16.1c2-4.3,5.4-10.6,10.2-19.1c-2.6,2.6-4.7,4.5-6.1,5.8c-6.4,12.6-15.3,20.5-27,23.9
		C61.7,134.7,63,132.7,63.1,131L63.1,131z"/>
	<path fill-rule="evenodd" clip-rule="evenodd" fill="#00A3D2" d="M92.9,88.9c0.9,1.5,1.9,1.4,2.8-0.3c-1.3-3.3-0.5-6.3,2.4-9.1
		c3-2.6,5.4-3.1,7.1-1.4c1.6,2.7,1.3,7.2-1.1,13.5c-3,6.8-6.7,9.9-11,9.2c-2.8-1.2-3.5-5.1-2.2-11.7c0.8-3,2.7-7.1,5-10
		c-0.4-0.4-0.7-0.8-0.9-1.1c-5.3,5.5-8.3,11.5-8.8,17.9c-0.3,4.7,1.1,7.5,4.1,8.3c3.8,0.8,7.6-0.7,11.4-4.4
		c5.2-5.6,8.1-12.1,8.6-19.4c0-3.9-1.5-6-4.4-6.3c-3.7-0.3-7,1.4-9.9,5.1C93.3,82.5,92.4,84.9,92.9,88.9L92.9,88.9z"/>
	<path fill-rule="evenodd" clip-rule="evenodd" fill="#00A3D2" d="M129.9,59.9c0.2,0.8,0.3,1.3,0.3,1.3c-6.1,1-11.3,3.6-15.4,7.8
		c-1.1,1.3-2.3,2.6-3.4,3.9c-0.4-0.3-0.6-0.4-0.6-0.4c2.6-4.6,5.6-8.3,8.9-11.2c3.3-2.5,7.4-4.3,12.3-5.4c-0.8,0.6-1.4,1.2-1.7,1.9
		c-5.5,1.4-9.5,3.6-12.1,6.7C122.1,61.9,126,60.5,129.9,59.9L129.9,59.9z"/>
	<path fill-rule="evenodd" clip-rule="evenodd" fill="#00A3D2" d="M136.3,63.3c-3.3,1.1-5.8-0.3-6.5-3.5c-0.1-0.7,0-1.3,0.3-2.2
		c1.3-2.1,3.1-2.9,4.6-2.6c2.2,0.3,3.5,1.5,4,3.7C138.9,60.8,138.1,62.3,136.3,63.3L136.3,63.3z"/>
	<path fill="#00A3D2" d="M98.6,119.6h-1v-2.4h0.8l3.9-9h0.3l4.1,9h0.8v2.4h-1v-1.5h-7.9V119.6z M99.5,117.2h6l-3.1-7L99.5,117.2z
		 M115.1,110.8v5.5l5.4-5.5h0.1v7.4h-0.9v-5.4l-5.4,5.4h-0.1v-7.4H115.1z M135.2,112.3l-0.7,0.5c-0.6-0.8-1.5-1.3-2.7-1.3
		c-0.9,0-1.6,0.3-2.2,0.9c-0.6,0.6-0.9,1.3-0.9,2.1c0,0.5,0.1,1,0.4,1.5c0.3,0.5,0.6,0.8,1.1,1.1c0.5,0.2,1,0.4,1.6,0.4
		c1.1,0,2-0.4,2.7-1.3l0.7,0.5c-0.4,0.5-0.8,0.9-1.4,1.2c-0.6,0.3-1.3,0.4-2,0.4c-1.2,0-2.1-0.4-2.9-1.1c-0.8-0.7-1.2-1.6-1.2-2.7
		c0-0.7,0.2-1.4,0.6-2c0.3-0.6,0.8-1.1,1.5-1.4c0.6-0.3,1.3-0.5,2.1-0.5c0.5,0,0.9,0.1,1.4,0.2c0.5,0.2,0.8,0.3,1.2,0.6
		C134.7,111.7,135,112,135.2,112.3L135.2,112.3z M141.6,110.8h4.8v0.8h-2v6.5h-0.9v-6.5h-1.9V110.8z M153.2,110.8h0.9v1.4
		c0.4-0.5,0.8-0.9,1.3-1.2c0.5-0.2,1-0.4,1.6-0.4c1,0,1.9,0.4,2.7,1.1c0.7,0.8,1.1,1.7,1.1,2.7c0,1.1-0.4,2-1.1,2.8
		c-0.7,0.8-1.6,1.1-2.7,1.1c-0.6,0-1.1-0.1-1.6-0.4c-0.5-0.2-0.9-0.6-1.3-1.1v4h-0.9V110.8z M156.9,111.5c-0.8,0-1.5,0.3-2.1,0.9
		c-0.6,0.6-0.8,1.3-0.8,2.1c0,0.6,0.1,1,0.4,1.5c0.2,0.5,0.6,0.8,1.1,1.1c0.5,0.2,0.9,0.4,1.5,0.4c0.5,0,1-0.1,1.4-0.4
		c0.5-0.2,0.8-0.6,1.1-1.1c0.3-0.5,0.4-1,0.4-1.5c0-0.5-0.1-1-0.4-1.5c-0.3-0.5-0.6-0.8-1.1-1.1
		C157.9,111.7,157.5,111.5,156.9,111.5L156.9,111.5z M168.9,110.8v5.5l5.4-5.5h0.1v7.4h-0.9v-5.4l-5.4,5.4H168v-7.4H168.9z
		 M188.9,107.8v0.9c-0.5,0.1-1.2,0.1-2.3,0.2c-0.8,0-1.4,0.1-1.8,0.2c-0.4,0.1-0.8,0.2-1.1,0.5c-0.3,0.2-0.6,0.6-0.8,1
		c-0.2,0.5-0.3,1-0.4,1.5l-0.1,1c0.3-0.8,0.7-1.5,1.3-1.9c0.6-0.4,1.2-0.6,2-0.6c1.1,0,2,0.4,2.7,1.1c0.7,0.8,1.1,1.7,1.1,2.7
		c0,1-0.3,2-1.1,2.7c-0.7,0.8-1.6,1.1-2.7,1.1c-1.1,0-2.1-0.4-2.9-1.3c-0.8-0.8-1.2-2.2-1.2-4c0-1.3,0.1-2.2,0.4-2.9
		c0.3-0.6,0.6-1.1,1-1.4c0.4-0.3,0.8-0.5,1.4-0.7c0.6-0.2,1.7-0.3,3.3-0.3C188.2,107.9,188.6,107.9,188.9,107.8L188.9,107.8z
		 M188.4,114.5c0-0.8-0.3-1.5-0.8-2.1c-0.6-0.6-1.2-0.9-2-0.9c-0.8,0-1.4,0.3-2,0.9c-0.6,0.6-0.8,1.3-0.8,2.1c0,0.8,0.3,1.5,0.8,2.1
		c0.5,0.6,1.2,0.8,2,0.8c0.8,0,1.5-0.3,2.1-0.8C188.2,116,188.4,115.3,188.4,114.5L188.4,114.5z M197.5,113.7h0.9
		c0.7,0,1.3,0.1,1.7,0.2c0.4,0.1,0.8,0.4,1,0.7c0.3,0.4,0.5,0.8,0.5,1.3c0,0.6-0.2,1.1-0.6,1.6c-0.4,0.4-1.1,0.6-1.9,0.6h-2.4v-7.4
		h0.9V113.7z M197.5,114.6v2.8h1.1c1.3,0,1.9-0.5,1.9-1.4c0-0.2-0.1-0.5-0.2-0.7c-0.1-0.2-0.4-0.4-0.6-0.5c-0.3-0.1-0.7-0.1-1.4-0.1
		H197.5z M209.4,118.2h-0.9v-7.4h0.9v3.1h1.3c0.2-1,0.6-1.8,1.3-2.4c0.7-0.6,1.5-0.9,2.5-0.9c1.1,0,2,0.4,2.7,1.1
		c0.7,0.8,1.1,1.7,1.1,2.7c0,1-0.4,2-1.1,2.7c-0.7,0.8-1.6,1.1-2.7,1.1c-1,0-1.8-0.3-2.6-1c-0.7-0.6-1.1-1.5-1.2-2.6h-1.3V118.2z
		 M217.3,114.5c0-0.8-0.3-1.5-0.8-2.1c-0.6-0.6-1.2-0.9-2-0.9c-0.8,0-1.4,0.3-2,0.9c-0.6,0.6-0.8,1.3-0.8,2.1c0,0.8,0.3,1.5,0.8,2.1
		c0.6,0.6,1.2,0.8,2.1,0.8c0.8,0,1.5-0.3,2-0.8C217.1,116,217.3,115.3,217.3,114.5L217.3,114.5z M224.6,110.8h4.8v0.8h-2v6.5h-0.9
		v-6.5h-1.9V110.8z M239.6,110.6c1.1,0,2.1,0.4,2.8,1.2c0.7,0.8,1,1.6,1,2.7c0,1-0.4,1.9-1.1,2.7c-0.7,0.8-1.6,1.2-2.8,1.2
		c-1.1,0-2-0.4-2.8-1.2c-0.7-0.8-1.1-1.7-1.1-2.7c0-1,0.3-1.9,1-2.6C237.6,111,238.5,110.6,239.6,110.6L239.6,110.6z M239.6,111.6
		c-0.8,0-1.5,0.3-2,0.9c-0.6,0.6-0.8,1.3-0.8,2.1c0,0.5,0.1,1,0.4,1.5c0.2,0.5,0.6,0.8,1,1.1c0.4,0.2,0.9,0.4,1.4,0.4
		c0.5,0,1-0.1,1.4-0.4c0.4-0.2,0.8-0.6,1-1.1c0.2-0.5,0.4-0.9,0.4-1.5c0-0.8-0.3-1.5-0.9-2.1C241.1,111.8,240.4,111.6,239.6,111.6
		L239.6,111.6z M250.6,110.8h0.9v1.4c0.4-0.5,0.8-0.9,1.3-1.2c0.5-0.2,1-0.4,1.6-0.4c1,0,1.9,0.4,2.7,1.1c0.7,0.8,1.1,1.7,1.1,2.7
		c0,1.1-0.4,2-1.1,2.8c-0.7,0.8-1.6,1.1-2.7,1.1c-0.6,0-1.1-0.1-1.6-0.4c-0.5-0.2-0.9-0.6-1.3-1.1v4h-0.9V110.8z M254.4,111.5
		c-0.8,0-1.5,0.3-2.1,0.9c-0.6,0.6-0.8,1.3-0.8,2.1c0,0.6,0.1,1,0.4,1.5c0.2,0.5,0.6,0.8,1.1,1.1c0.5,0.2,1,0.4,1.5,0.4
		c0.5,0,1-0.1,1.4-0.4c0.5-0.2,0.8-0.6,1.1-1.1c0.3-0.5,0.4-1,0.4-1.5c0-0.5-0.1-1-0.4-1.5c-0.3-0.5-0.6-0.8-1-1.1
		C255.4,111.7,254.9,111.5,254.4,111.5L254.4,111.5z M103.6,132h-4.3v3.5h-0.9v-7.4h0.9v2.9h4.3v-2.9h0.9v7.4h-0.9V132z M114,128.1
		v7.4H113v-1.3c-0.4,0.5-0.8,0.8-1.3,1.1c-0.5,0.2-1,0.4-1.6,0.4c-1,0-1.9-0.4-2.7-1.1c-0.7-0.8-1.1-1.7-1.1-2.8c0-1,0.4-2,1.1-2.7
		c0.7-0.7,1.6-1.1,2.7-1.1c0.6,0,1.1,0.1,1.6,0.4c0.5,0.2,0.9,0.6,1.3,1.2v-1.4H114z M110.2,128.9c-0.5,0-1,0.1-1.4,0.4
		c-0.5,0.2-0.8,0.6-1.1,1.1c-0.3,0.5-0.4,0.9-0.4,1.5c0,0.5,0.1,1,0.4,1.5c0.3,0.5,0.6,0.8,1.1,1.1c0.5,0.3,0.9,0.4,1.4,0.4
		c0.5,0,1-0.1,1.5-0.4c0.5-0.2,0.8-0.6,1.1-1c0.2-0.5,0.4-0.9,0.4-1.5c0-0.8-0.3-1.6-0.8-2.1C111.7,129.2,111,128.9,110.2,128.9
		L110.2,128.9z M115.3,128.1h4.8v0.8h-1.9v6.5h-0.9V129h-1.9V128.1z M120.6,128.1h1l2.5,5.7l2.5-5.7h1l-4.4,10.1h-1l1.4-3.3
		L120.6,128.1z M128.8,128.1h0.9v1.4c0.4-0.5,0.8-0.9,1.3-1.2c0.5-0.2,1-0.4,1.6-0.4c1,0,1.9,0.4,2.7,1.1c0.7,0.8,1.1,1.7,1.1,2.7
		c0,1.1-0.4,2-1.1,2.8c-0.7,0.8-1.6,1.1-2.7,1.1c-0.6,0-1.1-0.1-1.6-0.4c-0.5-0.2-0.9-0.6-1.3-1.1v4h-0.9V128.1z M132.6,128.9
		c-0.8,0-1.5,0.3-2.1,0.8c-0.6,0.6-0.8,1.3-0.8,2.1c0,0.6,0.1,1,0.4,1.5c0.2,0.5,0.6,0.8,1.1,1c0.5,0.3,0.9,0.4,1.5,0.4
		c0.5,0,1-0.1,1.4-0.4c0.4-0.3,0.8-0.6,1-1.1c0.3-0.5,0.4-1,0.4-1.5c0-0.5-0.1-1-0.4-1.5c-0.3-0.5-0.6-0.8-1.1-1.1
		C133.6,129,133.1,128.9,132.6,128.9L132.6,128.9z M145.5,128.1v7.4h-0.9v-1.3c-0.4,0.5-0.8,0.8-1.3,1.1c-0.5,0.2-1,0.4-1.6,0.4
		c-1,0-1.9-0.4-2.7-1.1c-0.7-0.8-1.1-1.7-1.1-2.8c0-1,0.4-2,1.1-2.7c0.7-0.7,1.6-1.1,2.7-1.1c0.6,0,1.2,0.1,1.6,0.4
		c0.5,0.2,0.9,0.6,1.3,1.2v-1.4H145.5z M141.8,128.9c-0.5,0-1,0.1-1.5,0.4c-0.5,0.2-0.8,0.6-1.1,1.1c-0.2,0.5-0.4,0.9-0.4,1.5
		c0,0.5,0.1,1,0.4,1.5c0.2,0.5,0.6,0.8,1,1.1c0.5,0.3,0.9,0.4,1.4,0.4c0.5,0,1-0.1,1.5-0.4c0.5-0.2,0.8-0.6,1.1-1
		c0.2-0.5,0.4-0.9,0.4-1.5c0-0.8-0.3-1.6-0.8-2.1C143.3,129.2,142.6,128.9,141.8,128.9L141.8,128.9z M153.9,135.5h-1l-2.5-5.4
		l-2.4,5.4h-1l3.4-7.4h0.2L153.9,135.5z M156.2,131.1h0.9c0.7,0,1.3,0,1.7,0.2c0.4,0.1,0.8,0.4,1,0.7c0.3,0.4,0.4,0.8,0.4,1.3
		c0,0.6-0.2,1.1-0.6,1.6c-0.4,0.4-1,0.6-1.9,0.6h-2.4v-7.4h0.9V131.1z M156.3,131.9v2.8h1.1c1.3,0,1.9-0.5,1.9-1.4
		c0-0.2-0.1-0.5-0.2-0.7c-0.1-0.2-0.3-0.4-0.6-0.5c-0.3-0.1-0.7-0.1-1.4-0.1H156.3z M167,132h-4.3v3.5h-0.9v-7.4h0.9v2.9h4.3v-2.9
		h0.9v7.4H167V132z M171,131.1h0.9c0.7,0,1.3,0,1.7,0.2c0.4,0.1,0.8,0.4,1,0.7c0.3,0.4,0.4,0.8,0.4,1.3c0,0.6-0.2,1.1-0.6,1.6
		c-0.4,0.4-1.1,0.6-1.9,0.6h-2.4v-7.4h0.9V131.1z M171,131.9v2.8h1.1c1.3,0,1.9-0.5,1.9-1.4c0-0.2-0.1-0.5-0.2-0.7
		c-0.1-0.2-0.3-0.4-0.6-0.5c-0.2-0.1-0.7-0.1-1.4-0.1H171z M176.4,128.1h0.9v7.4h-0.9V128.1z M178.5,128.1h1.1l1.9,2.7l1.9-2.7h1.1
		l-2.5,3.5l2.8,3.9h-1.1l-2.2-3.1l-2.2,3.1h-1.1l2.8-3.9L178.5,128.1z M189.8,128.1h6.2v7.4H195V129h-4.3v6.5h-0.9V128.1z
		 M198.1,128.1h0.9v1.4c0.4-0.5,0.8-0.9,1.3-1.2c0.5-0.2,1-0.4,1.6-0.4c1,0,1.9,0.4,2.7,1.1c0.7,0.8,1.1,1.7,1.1,2.7
		c0,1.1-0.4,2-1.1,2.8c-0.7,0.8-1.6,1.1-2.7,1.1c-0.6,0-1.1-0.1-1.6-0.4c-0.5-0.2-0.9-0.6-1.3-1.1v4h-0.9V128.1z M201.9,128.9
		c-0.8,0-1.5,0.3-2.1,0.8c-0.6,0.6-0.8,1.3-0.8,2.1c0,0.6,0.1,1,0.4,1.5c0.2,0.5,0.6,0.8,1.1,1c0.5,0.3,0.9,0.4,1.5,0.4
		c0.5,0,1-0.1,1.4-0.4c0.4-0.3,0.8-0.6,1-1.1c0.3-0.5,0.4-1,0.4-1.5c0-0.5-0.1-1-0.4-1.5c-0.3-0.5-0.6-0.8-1.1-1.1
		C202.9,129,202.4,128.9,201.9,128.9L201.9,128.9z M211,127.9c1.1,0,2.1,0.4,2.8,1.2c0.7,0.7,1,1.6,1,2.7c0,1-0.3,1.9-1.1,2.7
		c-0.7,0.8-1.6,1.2-2.8,1.2c-1.1,0-2-0.4-2.8-1.2c-0.7-0.8-1.1-1.7-1.1-2.7c0-1,0.3-1.9,1-2.7C208.9,128.4,209.8,127.9,211,127.9
		L211,127.9z M211,128.9c-0.8,0-1.5,0.3-2,0.9c-0.6,0.6-0.8,1.3-0.8,2.1c0,0.5,0.1,1,0.4,1.5c0.3,0.5,0.6,0.8,1,1.1
		c0.4,0.2,0.9,0.4,1.4,0.4c0.5,0,1-0.1,1.4-0.4c0.4-0.2,0.8-0.6,1-1.1c0.2-0.5,0.4-0.9,0.4-1.5c0-0.8-0.3-1.5-0.8-2.1
		C212.4,129.2,211.8,128.9,211,128.9L211,128.9z M216.6,134.7l2.8-6.6h0.5l2.8,6.6h0.9v1.8h-0.9v-0.9h-6.1v1h-0.9v-1.8H216.6z
		 M219.7,129.6l-2.1,5.1h4.2L219.7,129.6z M224.1,128.1h1l2.5,5.7l2.4-5.7h1l-4.4,10.1h-1l1.4-3.3L224.1,128.1z M232.3,128.1h0.9
		v3.1l3.4-3.1h1.3l-3.7,3.4l4,4h-1.3l-3.4-3.4l-0.3,0.2v3.1h-0.9V128.1z M238.4,128.1h4.8v0.8h-1.9v6.5h-0.9V129h-1.9V128.1z
		 M248,127.9c1.1,0,2.1,0.4,2.8,1.2c0.7,0.7,1,1.6,1,2.7c0,1-0.3,1.9-1.1,2.7c-0.7,0.8-1.6,1.2-2.8,1.2c-1.1,0-2.1-0.4-2.8-1.2
		c-0.7-0.8-1.1-1.7-1.1-2.7c0-1,0.3-1.9,1-2.7C245.9,128.4,246.9,127.9,248,127.9L248,127.9z M248,128.9c-0.8,0-1.5,0.3-2,0.9
		c-0.6,0.6-0.8,1.3-0.8,2.1c0,0.5,0.1,1,0.4,1.5c0.2,0.5,0.6,0.8,1,1.1c0.4,0.2,0.9,0.4,1.4,0.4c0.5,0,1-0.1,1.4-0.4
		c0.4-0.2,0.8-0.6,1-1.1c0.3-0.5,0.4-0.9,0.4-1.5c0-0.8-0.3-1.5-0.8-2.1C249.5,129.2,248.8,128.9,248,128.9L248,128.9z M255.7,135.5
		h-2.1v-7.4h2.1c0.8,0,1.4,0.2,1.7,0.6c0.3,0.4,0.5,0.8,0.5,1.3c0,0.7-0.3,1.3-1,1.5c0.9,0.3,1.4,1,1.4,2
		C258.4,134.8,257.5,135.5,255.7,135.5L255.7,135.5z M254.5,129v2.3h0.6c0.6,0,0.9,0,1.1-0.1c0.2,0,0.3-0.2,0.5-0.3
		c0.2-0.2,0.2-0.4,0.2-0.7c0-0.3-0.1-0.6-0.2-0.8c-0.2-0.2-0.3-0.3-0.5-0.3c-0.2,0-0.5-0.1-1.1-0.1H254.5z M254.5,132.1v2.6h1
		c0.5,0,0.8,0,1-0.1c0.2,0,0.4-0.2,0.5-0.4c0.1-0.2,0.2-0.5,0.2-0.8c0-0.4-0.1-0.7-0.4-1c-0.2-0.2-0.6-0.3-1-0.3H254.5z"/>
	<path fill-rule="evenodd" clip-rule="evenodd" fill="#151717" d="M269.1,41.3c0.6,0,1.2,0.1,1.7,0.5c0.6,0.3,1,0.7,1.3,1.3
		c0.3,0.6,0.5,1.2,0.5,1.8c0,0.6-0.2,1.2-0.5,1.8c-0.3,0.6-0.7,1-1.3,1.3c-0.6,0.3-1.1,0.5-1.7,0.5c-0.6,0-1.2-0.2-1.8-0.5
		c-0.6-0.3-1-0.7-1.3-1.3c-0.3-0.6-0.5-1.2-0.5-1.8c0-0.6,0.1-1.2,0.5-1.8c0.3-0.6,0.8-1,1.3-1.3C267.9,41.5,268.5,41.3,269.1,41.3
		L269.1,41.3z M269.1,41.9c-0.5,0-1,0.1-1.5,0.4c-0.5,0.2-0.8,0.6-1.1,1.1c-0.3,0.5-0.4,1-0.4,1.5c0,0.5,0.1,1,0.4,1.5
		c0.3,0.5,0.6,0.8,1.1,1.1c0.5,0.3,0.9,0.4,1.5,0.4c0.5,0,1-0.1,1.5-0.4c0.5-0.2,0.8-0.6,1.1-1.1c0.3-0.5,0.4-0.9,0.4-1.5
		c0-0.5-0.1-1-0.4-1.5c-0.3-0.5-0.6-0.8-1.1-1.1C270.1,42.1,269.6,41.9,269.1,41.9L269.1,41.9z M267.5,46.8V43h1.3
		c0.5,0,0.8,0,1,0.1c0.2,0.1,0.4,0.2,0.5,0.4c0.1,0.2,0.2,0.4,0.2,0.6c0,0.3-0.1,0.5-0.3,0.7c-0.2,0.2-0.5,0.3-0.8,0.4
		c0.1,0.1,0.2,0.1,0.3,0.2c0.1,0.1,0.3,0.4,0.6,0.8l0.5,0.7H270l-0.4-0.6c-0.3-0.5-0.5-0.8-0.6-0.9c-0.1-0.1-0.3-0.1-0.5-0.1h-0.4
		v1.6H267.5z M268.1,44.7h0.7c0.4,0,0.6-0.1,0.7-0.2c0.1-0.1,0.2-0.2,0.2-0.4c0-0.1,0-0.2-0.1-0.3c-0.1-0.1-0.1-0.1-0.3-0.2
		c-0.1,0-0.3-0.1-0.6-0.1h-0.7V44.7z"/>
	<path fill="#00A3D2" d="M137.8,39.8h-1v-9.8h5v1h-4V39.8z M143,32.5h0.9v1.3c0.4-0.5,0.8-0.9,1.3-1.1c0.5-0.2,1-0.4,1.6-0.4
		c1,0,2,0.4,2.7,1.1c0.8,0.7,1.1,1.6,1.1,2.7c0,1.1-0.4,2-1.1,2.7c-0.7,0.7-1.6,1.1-2.7,1.1c-0.6,0-1.1-0.1-1.6-0.4
		c-0.5-0.2-0.9-0.6-1.4-1.1v3.9H143V32.5z M146.8,33.2c-0.8,0-1.5,0.3-2.1,0.8c-0.6,0.6-0.8,1.3-0.8,2.1c0,0.6,0.1,1,0.4,1.5
		c0.2,0.4,0.6,0.8,1.1,1c0.5,0.2,1,0.4,1.5,0.4c0.5,0,1-0.1,1.4-0.4c0.5-0.3,0.8-0.6,1.1-1.1c0.3-0.5,0.4-1,0.4-1.5
		c0-0.5-0.1-1-0.4-1.5c-0.3-0.5-0.6-0.8-1.1-1.1C147.8,33.3,147.3,33.2,146.8,33.2L146.8,33.2z M151.6,32.5h1l2.6,5.6l2.5-5.6h1
		l-4.4,9.9h-1l1.4-3.3L151.6,32.5z M159.8,32.5h6.2v7.3H165v-6.4h-4.3v6.4h-0.9V32.5z M168,32.5h6.3v7.3h-1v-6.4H169v6.4h-1V32.5z
		 M183.6,32.5v7.3h-1v-1.3c-0.4,0.5-0.8,0.8-1.3,1.1c-0.5,0.2-1,0.4-1.6,0.4c-1,0-2-0.4-2.7-1.1c-0.7-0.7-1.1-1.6-1.1-2.7
		c0-1,0.4-1.9,1.1-2.7c0.8-0.7,1.7-1.1,2.7-1.1c0.6,0,1.2,0.1,1.6,0.4c0.5,0.2,0.9,0.6,1.3,1.1v-1.3H183.6z M179.8,33.2
		c-0.5,0-1,0.1-1.5,0.4c-0.5,0.3-0.8,0.6-1.1,1.1c-0.3,0.5-0.4,0.9-0.4,1.5c0,0.5,0.1,1,0.4,1.5c0.3,0.5,0.6,0.8,1.1,1.1
		c0.5,0.2,0.9,0.4,1.4,0.4c0.5,0,1-0.1,1.5-0.4c0.5-0.3,0.8-0.6,1.1-1c0.2-0.4,0.4-0.9,0.4-1.5c0-0.8-0.3-1.5-0.8-2.1
		C181.3,33.5,180.6,33.2,179.8,33.2L179.8,33.2z M189.5,32.5h0.9v3.1l3.5-3.1h1.3l-3.8,3.3l4.1,4h-1.3l-3.4-3.4l-0.3,0.3v3.1h-0.9
		V32.5z M200,32.3c1.2,0,2.1,0.4,2.9,1.2c0.7,0.7,1,1.6,1,2.6c0,1-0.4,1.9-1.1,2.7c-0.7,0.8-1.7,1.2-2.8,1.2c-1.1,0-2.1-0.4-2.8-1.2
		c-0.7-0.8-1.1-1.6-1.1-2.7c0-1,0.3-1.9,1-2.6C197.9,32.7,198.8,32.3,200,32.3L200,32.3z M200,33.2c-0.8,0-1.5,0.3-2.1,0.9
		c-0.6,0.6-0.8,1.3-0.8,2.1c0,0.5,0.1,1,0.4,1.5c0.3,0.5,0.6,0.8,1,1c0.5,0.2,0.9,0.4,1.5,0.4c0.5,0,1-0.1,1.5-0.4
		c0.4-0.2,0.8-0.6,1-1c0.3-0.5,0.4-0.9,0.4-1.5c0-0.8-0.3-1.5-0.9-2.1C201.4,33.5,200.7,33.2,200,33.2L200,33.2z M213.5,32.5h0.3
		l2.5,7.3h-1l-1.8-5.4l-2.9,5.4h-0.2l-2.9-5.4l-1.9,5.4h-1l2.5-7.3h0.3l3,5.7L213.5,32.5z M217.6,32.5h6.2v7.3h-0.9v-6.4h-4.3v6.4
		h-0.9V32.5z M233.3,32.5v7.3h-0.9v-1.3c-0.4,0.5-0.8,0.8-1.4,1.1c-0.5,0.2-1,0.4-1.6,0.4c-1,0-2-0.4-2.7-1.1
		c-0.7-0.7-1.1-1.6-1.1-2.7c0-1,0.4-1.9,1.1-2.7c0.7-0.7,1.6-1.1,2.7-1.1c0.6,0,1.2,0.1,1.7,0.4c0.5,0.2,0.9,0.6,1.3,1.1v-1.3H233.3
		z M229.4,33.2c-0.5,0-1,0.1-1.5,0.4c-0.4,0.3-0.8,0.6-1.1,1.1c-0.3,0.5-0.4,0.9-0.4,1.5c0,0.5,0.1,1,0.4,1.5
		c0.3,0.5,0.6,0.8,1.1,1.1c0.5,0.2,0.9,0.4,1.5,0.4c0.5,0,1-0.1,1.5-0.4c0.5-0.3,0.8-0.6,1.1-1c0.2-0.4,0.4-0.9,0.4-1.5
		c0-0.8-0.3-1.5-0.9-2.1C231,33.5,230.3,33.2,229.4,33.2L229.4,33.2z M240.6,36.3h-4.3v3.5h-0.9v-7.3h0.9v2.9h4.3v-2.9h0.9v7.3h-0.9
		V36.3z M244.5,32.5v5.4l5.5-5.4h0.1v7.3h-0.9v-5.4l-5.4,5.4h-0.1v-7.3H244.5z M253,32.5v5.4l5.5-5.4h0.1v7.3h-0.9v-5.4l-5.4,5.4
		H252v-7.3H253z M252.9,29.5h0.9c0.2,0.2,0.4,0.4,0.6,0.5c0.3,0.1,0.6,0.2,0.9,0.2c0.4,0,0.7-0.1,0.9-0.2c0.2-0.1,0.4-0.3,0.6-0.5
		h0.9c-0.1,0.4-0.4,0.7-0.8,1c-0.4,0.3-1,0.4-1.6,0.4c-0.7,0-1.2-0.1-1.6-0.4C253.2,30.3,253,30,252.9,29.5L252.9,29.5z"/>
</g>
</svg>
