<?xml version="1.0" encoding="utf-8"?>
<!-- Generator: Adobe Illustrator 17.0.0, SVG Export Plug-In . SVG Version: 6.00 Build 0)  -->
<!DOCTYPE svg PUBLIC "-//W3C//DTD SVG 1.1//EN" "http://www.w3.org/Graphics/SVG/1.1/DTD/svg11.dtd">
<svg version="1.1" id="Layer_1" xmlns="http://www.w3.org/2000/svg" xmlns:xlink="http://www.w3.org/1999/xlink" x="0px" y="0px"
	 width="250px" height="40px" viewBox="-3.1 -5.7 250 40" enable-background="new -3.1 -5.7 250 40" xml:space="preserve">
<g>
	<g>
		<path fill="#EC1558" d="M142.5,3.1c0.9,2.4,0.7,4.6,1.1,7c0.2,0.4,0.3,0.1,0.4-0.2c0.2-2.2,0.8-4.1,1.6-6.1
			c0.7-1.6,2.1-3.2,3.8-3.4c1.8-0.2,4.1,0.6,4.8,2.2c1.4,3.2-0.1,6.5-1.6,9.3c2.2,4.1,5.3,8.7,3.8,13.5c-0.4,1.4-1.9,2.6-3.3,2.9
			c-1.5,0.4-3.4,0.2-4.7-0.7c-2.9-2.7-3.5-6.7-4.3-10.5c-0.1-0.2-0.2-0.3-0.3-0.2c-0.3,0.1-0.2,3.3-0.2,4.5
			c-0.2,2.3-0.2,5.1-2.3,6.5c-1.2,0.8-4.9,0.9-6.2-0.6c-2.4-3.1-2.3-7.4-2.4-10.9c0-2.7,0-5.6,0.1-6.7c0.1-1.4,0.1-2.1,0.2-2.8
			c0.1-0.7,0.2-1.2,0.3-2c0.4-1.6,1.1-3.2,2.6-3.9s3.6-0.6,5.1,0.3C141.7,1.5,142.2,2.3,142.5,3.1"/>
		<path fill="#EC1558" d="M168.8,1.9c1.9,2,2.1,5.8,2.5,9.4c0.1,1.5,0.2,3.6,0.2,5c0,3.4-0.1,8.4-2.1,10.8c-1.7,1.7-4.6,1.7-6.6,0.9
			c-3.7-1.8-3.1-8.2-3.2-11.8c0-2.9,0.2-6.1,0.5-9.3c0.2-2.4,0.8-5.1,3.5-5.9C165.2,0.5,167.3,0.5,168.8,1.9"/>
		<path fill="#EC1558" d="M192.2,1.1c1.7,0.9,2.2,2.5,2.1,4c0,1.4-0.7,2.9-2,3.6c-1.1,0.6-2.3,0.7-3.5,0.9c-0.5,0.1-0.2,0.8,0.1,2.1
			C190.2,18,190,22.5,188,26c-0.7,1.1-1.9,2-3.2,2.2c-2.2,0.3-4.5-0.1-5.7-2.1c-1.8-2.9-1.5-7-1.3-10.3c0.1-1.8,0.4-4.1,1-5.9
			c0-0.3,0-0.5-0.7-0.5c-1.9-0.1-3.5-0.6-4.4-2.4C173,5.5,173,3.6,174,2.2c1.7-2,4.4-1.8,6.9-2C183.5,0.2,188.7-0.1,192.2,1.1"/>
		<path fill="#EC1558" d="M215.8,1.1c1.7,0.9,2.2,2.5,2.1,4c0,1.4-0.7,2.9-2,3.6c-1.1,0.6-2.3,0.7-3.5,0.9c-0.4,0.1-0.2,0.8,0.1,2.1
			c1.3,6.3,1.1,10.8-0.9,14.3c-0.7,1.1-1.9,2-3.2,2.2c-2.2,0.3-4.5-0.1-5.7-2.1c-1.8-2.9-1.5-7-1.3-10.3c0.1-1.8,0.4-4.1,1-5.9
			c0-0.3,0-0.5-0.7-0.5c-1.9-0.1-3.5-0.6-4.4-2.4c-0.7-1.5-0.7-3.4,0.3-4.8c1.7-2,4.4-1.8,6.9-2C207.2,0.2,212.4-0.1,215.8,1.1"/>
		<path fill="#EC1558" d="M229.1,1.6c2.5,2.7,2.7,6.4,3.3,9.9c0.2,0,0.1-0.3,0.2-0.6c0.1-1.2,0.2-2,0.3-2.8c0.4-1.9,0.5-3.1,1.3-4.7
			c0.9-1.7,2.6-3.3,4.9-3.1c1.5,0.1,3.2,0.7,3.9,2.2c2,4-0.4,8.1-2.5,11.3c-0.8,1.1-2.3,3.1-2.9,3.9c-0.1,0.2,0.1,0.5,0.3,1.6
			c0.2,2.7,0.5,5.8-1.6,8c-1.7,1.6-4.2,1.4-6.3,1c-2.5-0.7-3.3-3.4-3.4-5.7c-0.1-1.6,0-3.3,0.2-4.8c-3.2-3.6-6.2-7.3-6.2-12.2
			c0-0.7,0.2-1.2,0.2-1.6c0.4-1.3,1-2.3,2.2-2.9C224.9-0.2,227.5,0,229.1,1.6"/>
	</g>
	<g>
		<path fill="#EC1558" d="M47,2.7c0.7,1.4,0.7,3.3-0.2,4.6c-1.5,1.8-4.3,1.7-6.1,1.6c-0.5,0-0.6,0.2-0.6,0.4c0,0.5,0.1,0.9,0.1,1.3
			c2.5,0,5.8-1.1,7,1.8c0.5,1.3,0.4,3.4-0.7,4.4c-1.6,1.4-4.2,0.8-6.3,0.9c-0.2,0-0.3,0-0.3,0.2c0,0.3,0,0.8,0,1c0,0,0,0.4,0.3,0.4
			c2.2,0.2,4.5-0.6,6,1.1c1,1.6,1.3,3.9,0.3,5.6c-2.1,2.7-6.3,2.3-9.2,2.3c-2.6,0-5.2-0.7-6.8-3c-2.4-4.5-1.9-10-1.8-14.9
			c0-1,0.2-2.2,0.3-3.2c0.3-1.4,0.7-2.8,1.5-4c2.8-3.5,8.7-3,12-2.8C44.6,0.5,46.2,1.1,47,2.7"/>
		<path fill="#EC1558" d="M11.1,2.7c1.1,2,1.1,4.7,1.1,7.2c0.1,0.6,0.8,0.4,1.4,0.4c0.3,0,0.6,0,0.7-0.4c0.1-0.6,0.1-1.1,0.1-1.7
			s0.1-1.3,0.1-2.1c0.2-2.2,0.7-3.7,2.3-4.8c1.7-1.1,4.8-1.1,6.7,0.3c2.2,2,2,5.2,2.5,7.7c0.2,5.9,0.3,13.5-1.9,17
			c-1.2,2-3.8,2.5-5.7,2.1c-2.2-0.4-3.5-2.2-3.8-4.3c-0.2-1.1-0.3-1.9-0.3-3.2c-0.1-0.6-0.1-1.1-0.1-1.7c0-0.2-0.1-0.3-0.1-0.5
			c-0.2-0.3-1.2-0.2-1.4-0.2c-0.1,0-0.4-0.1-0.5,1c-0.1,0.9-0.1,1.5-0.3,2.5c-0.3,2.8-0.8,4.8-3.2,5.9c-1.9,0.5-4.6,0.7-6.1-0.7
			c-2-1.9-2.1-4.4-2.5-7.1c-0.1-1-0.1-1.7-0.2-2.5c0-2.3-0.1-3.4,0.1-5.6c0.1-1.9,0.3-3.8,0.6-5.5c0.1-0.4,0.2-0.8,0.2-1
			c0.7-2,1.7-4.5,4.5-4.9C7.3,0.3,9.9,0.6,11.1,2.7"/>
		<path fill="#EC1558" d="M62.3,3.2c1.2,5,0.5,10.2-0.2,15.2c1,0,2.1,0,3.2,0.2c1.2,0.3,2.5,0.7,3.2,1.9c0.9,1.6,0.7,3.7-0.5,5.2
			c-3,3.4-8.8,2.6-11.9,2c-2.4-0.5-4.2-2.6-4.6-5c-0.6-3.2-1-7-0.6-11.4c0.2-2.9,0.3-6.8,2-9.1C54,0.5,56-0.2,58,0
			C59.8,0.2,61.8,1.3,62.3,3.2"/>
		<path fill="#EC1558" d="M82.9,3.2c1.2,5,0.5,10.2-0.2,15.2c1,0,2.1,0,3.2,0.2c1.2,0.3,2.5,0.7,3.2,1.9c0.9,1.6,0.7,3.7-0.5,5.2
			c-3,3.4-8.8,2.6-11.9,2c-2.4-0.5-4.2-2.6-4.6-5c-0.6-3.2-1-7-0.6-11.4c0.2-2.9,0.3-6.8,2-9.1c1.2-1.7,3.1-2.4,5.2-2.2
			C80.4,0.2,82.3,1.3,82.9,3.2"/>
		<path fill="#EC1558" d="M118.1,7.3c2.5,5.2,2.2,12.1-2,16.5c-4.6,4.6-11.8,5.6-17.8,3.1c-5.3-2.6-7.8-8.7-7.3-14.5
			c0.2-1.9,0.8-3.8,1.6-5.4c3.1-5.2,8.8-7.5,15.1-6.9C112,0.7,116.3,3.2,118.1,7.3 M105.1,8.7c-1.3,0-2.4,1-2.4,2.3s1.1,2.3,2.4,2.3
			c1.4,0,2.4-1,2.4-2.3C107.5,9.8,106.5,8.7,105.1,8.7"/>
	</g>
</g>
</svg>
