<?xml version="1.0" encoding="utf-8"?>
<!-- Generator: Adobe Illustrator 17.0.0, SVG Export Plug-In . SVG Version: 6.00 Build 0)  -->
<!DOCTYPE svg PUBLIC "-//W3C//DTD SVG 1.1//EN" "http://www.w3.org/Graphics/SVG/1.1/DTD/svg11.dtd">
<svg version="1.1" id="Layer_1" xmlns="http://www.w3.org/2000/svg" xmlns:xlink="http://www.w3.org/1999/xlink" x="0px" y="0px"
	 width="149.7px" height="62.4px" viewBox="-20.8 -6.7 149.7 62.4" enable-background="new -20.8 -6.7 149.7 62.4"
	 xml:space="preserve">
<g>
	<g>
		<path fill="#231F20" d="M-13.2,49.5c0,2.3-1.7,4.1-3.8,4.1c-2.1,0-3.8-1.8-3.8-4.1c0-2.3,1.7-4.1,3.8-4.1
			C-14.8,45.4-13.2,47.2-13.2,49.5z M-20.2,49.5c0,2,1.4,3.5,3.2,3.5c1.8,0,3.2-1.6,3.2-3.6c0-2-1.4-3.6-3.2-3.6
			C-18.8,45.9-20.2,47.5-20.2,49.5z M-15.4,48c-0.2-0.1-0.6-0.3-1.2-0.3c-1.2,0-1.8,0.8-1.8,1.9c0,1,0.6,1.9,1.8,1.9
			c0.5,0,1-0.1,1.3-0.4l0.2,0.5c-0.4,0.3-1,0.4-1.6,0.4c-1.5,0-2.3-1.1-2.3-2.4c0-1.5,1.1-2.5,2.4-2.5c0.7,0,1.2,0.2,1.4,0.4
			L-15.4,48z"/>
		<path fill="#231F20" d="M-7.7,46.5L-7.7,46.5l-1.5,0.8l-0.2-0.9l1.8-1h0.9V54h-1.1V46.5z"/>
		<path fill="#231F20" d="M-3.3,53.2c0.2,0,0.5,0,0.9,0c0.6-0.1,1.2-0.4,1.7-0.8c0.5-0.5,0.9-1.3,1.1-2.3h0
			c-0.5,0.6-1.1,0.9-1.9,0.9C-3,50.9-4,49.8-4,48.3c0-1.6,1.1-3.1,2.8-3.1c1.7,0,2.7,1.4,2.7,3.7c0,1.9-0.6,3.2-1.4,4
			c-0.6,0.6-1.5,1.1-2.4,1.2c-0.4,0.1-0.8,0.1-1,0.1V53.2z M-2.9,48.2c0,1.1,0.6,1.8,1.6,1.8c0.7,0,1.3-0.4,1.6-0.9
			c0.1-0.1,0.1-0.2,0.1-0.4c0-1.5-0.5-2.6-1.7-2.6C-2.2,46.1-2.9,47-2.9,48.2z"/>
		<path fill="#231F20" d="M7.6,45.4v0.8L4,54H2.8l3.6-7.7v0h-4v-1H7.6z"/>
		<path fill="#231F20" d="M13.1,46.2c-0.2,0-0.5,0-0.8,0.1c-1.8,0.3-2.7,1.6-2.9,3.1h0c0.4-0.6,1.1-1,2-1c1.5,0,2.5,1.1,2.5,2.8
			c0,1.6-1,3.1-2.7,3.1c-1.7,0-2.9-1.4-2.9-3.7c0-1.7,0.6-3,1.4-3.9c0.7-0.7,1.6-1.1,2.6-1.3c0.3-0.1,0.6-0.1,0.8-0.1V46.2z
			 M12.8,51.2c0-1.2-0.7-2-1.7-2c-0.7,0-1.3,0.4-1.6,1.1c-0.1,0.1-0.1,0.3-0.1,0.5c0,1.4,0.6,2.5,1.8,2.5
			C12.1,53.3,12.8,52.4,12.8,51.2z"/>
		<path fill="#231F20" d="M14.2,55.7c0.3-0.8,0.6-2.2,0.8-3.2l1.2-0.1c-0.3,1.1-0.9,2.6-1.2,3.2L14.2,55.7z"/>
		<path fill="#231F20" d="M19.2,54v-0.7l0.9-0.9c2.1-2.1,3.1-3.2,3.1-4.5c0-0.9-0.4-1.7-1.6-1.7c-0.7,0-1.4,0.4-1.7,0.7l-0.4-0.8
			c0.6-0.5,1.4-0.9,2.3-0.9c1.8,0,2.5,1.3,2.5,2.5c0,1.6-1.1,2.9-2.8,4.7L20.8,53v0h3.7v1H19.2z"/>
		<path fill="#231F20" d="M30.9,49.6c0,2.9-1,4.6-2.9,4.6c-1.6,0-2.7-1.6-2.7-4.4c0-2.9,1.2-4.5,2.9-4.5
			C29.9,45.2,30.9,46.8,30.9,49.6z M26.4,49.7c0,2.2,0.7,3.5,1.7,3.5c1.1,0,1.7-1.4,1.7-3.6c0-2.1-0.5-3.5-1.7-3.5
			C27.1,46.1,26.4,47.4,26.4,49.7z"/>
		<path fill="#231F20" d="M34,46.5L34,46.5l-1.5,0.8l-0.2-0.9l1.8-1H35V54H34V46.5z"/>
		<path fill="#231F20" d="M41.2,54v-2.4h-3.8v-0.8l3.7-5.5h1.2v5.4h1.1v0.9h-1.1V54H41.2z M41.2,50.7v-2.9c0-0.4,0-0.9,0-1.4h0
			c-0.3,0.5-0.5,0.9-0.7,1.3l-2,2.9v0H41.2z"/>
		<path fill="#231F20" d="M46.5,52.6c0.5,0.3,1.2,0.6,2,0.6c1.1,0,1.8-0.6,1.8-1.5c0-0.8-0.5-1.3-1.6-1.8c-1.4-0.5-2.2-1.3-2.2-2.6
			c0-1.4,1.1-2.4,2.8-2.4c0.9,0,1.5,0.2,1.9,0.4l-0.3,0.9c-0.3-0.2-0.8-0.4-1.6-0.4c-1.2,0-1.6,0.7-1.6,1.3c0,0.8,0.5,1.3,1.7,1.7
			c1.4,0.6,2.2,1.3,2.2,2.6c0,1.4-1,2.6-3,2.6c-0.8,0-1.7-0.3-2.2-0.6L46.5,52.6z"/>
		<path fill="#231F20" d="M53.9,51.2L53,54h-1.1l2.9-9h1.3l2.9,9h-1.2l-0.9-2.8H53.9z M56.7,50.3l-0.8-2.6c-0.2-0.6-0.3-1.1-0.4-1.6
			h0c-0.1,0.5-0.3,1.1-0.4,1.6l-0.8,2.6H56.7z"/>
		<path fill="#231F20" d="M60,54v-9h1.2l2.7,4.5c0.6,1,1.1,2,1.5,2.9l0,0c-0.1-1.2-0.1-2.3-0.1-3.7V45h1v9h-1.1l-2.7-4.6
			c-0.6-1-1.2-2-1.6-3l0,0c0.1,1.1,0.1,2.2,0.1,3.7V54H60z"/>
		<path fill="#231F20" d="M68,45.2c0.6-0.1,1.4-0.2,2.1-0.2c1.2,0,1.9,0.2,2.5,0.7c0.4,0.4,0.7,1,0.7,1.7c0,1.2-0.7,2-1.6,2.3v0
			c0.6,0.2,1,0.9,1.2,1.8c0.3,1.2,0.5,2.1,0.7,2.5h-1.1c-0.1-0.3-0.3-1-0.6-2.1c-0.2-1.2-0.7-1.7-1.7-1.7h-1V54H68V45.2z M69.1,49.3
			h1.1c1.2,0,1.9-0.7,1.9-1.7c0-1.2-0.8-1.7-2-1.7c-0.5,0-0.9,0-1.1,0.1V49.3z"/>
		<path fill="#231F20" d="M75.5,45v9h-1.1v-9H75.5z"/>
		<path fill="#231F20" d="M84.4,49.4c0,3.1-1.8,4.7-4,4.7c-2.3,0-3.8-1.9-3.8-4.6c0-2.8,1.7-4.7,3.9-4.7
			C82.9,44.9,84.4,46.8,84.4,49.4z M77.8,49.6c0,1.9,1,3.7,2.7,3.7c1.7,0,2.7-1.7,2.7-3.7c0-1.8-0.9-3.7-2.7-3.7
			C78.7,45.8,77.8,47.6,77.8,49.6z"/>
		<path fill="#231F20" d="M93.8,53.7c-0.4,0.2-1.2,0.4-2.2,0.4c-2.4,0-4.2-1.6-4.2-4.6c0-2.8,1.8-4.7,4.4-4.7c1,0,1.7,0.2,2,0.4
			l-0.3,0.9c-0.4-0.2-1-0.4-1.7-0.4c-2,0-3.3,1.3-3.3,3.7c0,2.2,1.2,3.6,3.3,3.6c0.7,0,1.4-0.1,1.8-0.4L93.8,53.7z"/>
		<path fill="#231F20" d="M101.9,49.4c0,3.1-1.8,4.7-3.9,4.7c-2.3,0-3.8-1.9-3.8-4.6c0-2.8,1.7-4.7,3.9-4.7
			C100.4,44.9,101.9,46.8,101.9,49.4z M95.3,49.6c0,1.9,1,3.7,2.7,3.7c1.7,0,2.7-1.7,2.7-3.7c0-1.8-0.9-3.7-2.7-3.7
			C96.2,45.8,95.3,47.6,95.3,49.6z"/>
		<path fill="#231F20" d="M102.3,53.3c0-0.5,0.3-0.8,0.8-0.8c0.4,0,0.7,0.4,0.7,0.8c0,0.5-0.3,0.8-0.8,0.8
			C102.6,54.2,102.3,53.8,102.3,53.3z"/>
		<path fill="#231F20" d="M104.1,55.7c0.3-0.8,0.6-2.2,0.8-3.2l1.2-0.1c-0.3,1.1-0.9,2.6-1.2,3.2L104.1,55.7z"/>
		<path fill="#231F20" d="M109.5,45h1.1v8h3.6v1h-4.7V45z"/>
		<path fill="#231F20" d="M115.7,46h-2.6v-1h6.3v1h-2.6v8h-1.1V46z"/>
		<path fill="#231F20" d="M120,45.2c0.7-0.1,1.5-0.2,2.3-0.2c1.6,0,2.7,0.4,3.4,1.1c0.8,0.7,1.2,1.8,1.2,3.2c0,1.5-0.4,2.7-1.2,3.5
			c-0.8,0.8-2.1,1.3-3.8,1.3c-0.8,0-1.4,0-2-0.1V45.2z M121.1,53.1c0.3,0,0.7,0.1,1.1,0.1c2.4,0,3.6-1.4,3.6-3.8
			c0-2.1-1.1-3.5-3.4-3.5c-0.6,0-1,0.1-1.3,0.1V53.1z"/>
		<path fill="#231F20" d="M127.4,53.3c0-0.5,0.3-0.8,0.8-0.8c0.4,0,0.7,0.4,0.7,0.8c0,0.5-0.3,0.8-0.8,0.8
			C127.7,54.2,127.4,53.8,127.4,53.3z"/>
	</g>
	<g>
		<path fill="#231F20" d="M107.1,9.9c-0.2,0.7-0.4,1.4-0.7,2c-0.6,1.6-1.6,3-2.6,4.3c-1.3,1.4-2.7,2.6-4.2,3.7
			c-1.9,1.3-4,2.3-6.2,2.8c-1.5,0.3-3.2,0.3-4.6-0.3c-1-0.4-1.8-1.1-2.6-1.8c-0.8-0.8-1.5-1.7-2-2.6c0-0.1-0.2-0.1-0.2,0
			c-1.5,0.7-3,1.2-4.6,1.7c-1.6,0.5-3.5,0.3-4.6-1c-0.2-0.2-0.3-0.4-0.4-0.6c-0.1,0-0.1,0-0.2,0c-1.5,0.6-3,1.2-4.6,1.6
			c-1.2,0.3-2.5,0-3.5-0.6c-0.5-0.4-0.9-0.9-1.1-1.5c-0.4-0.9-0.3-2-0.2-3c0-1.7,0.2-3.3,0.3-5c0-0.2-0.1-0.5-0.4-0.6
			c-0.3-0.1-0.8-0.1-1.1,0c-0.2,0-0.5,0-0.7,0.1c0,0-0.1,0-0.1,0.1c-0.7,2.7-1.6,5.4-3,7.8c-0.7,1.2-1.9,2.6-3.3,2.9
			c-1.8,0.4-3.1-1.4-4-2.7c-0.6-0.9-1.2-1.8-1.8-2.7c-0.1-0.1-0.3-0.3-0.4-0.2c-0.2,0.1-0.4,0.3-0.5,0.5c-1,1.6-1.9,3.2-3,4.7
			c-0.2,0.2-0.5,0.3-0.8,0.3c-0.4,0-0.6-0.4-0.8-0.7c-0.9-1.5-1.6-3.1-2.4-4.8c-0.1-0.2-0.3-0.4-0.5-0.3c-0.2,0.1-0.4,0.3-0.5,0.5
			c-1.2,1.5-2.2,3.2-3.5,4.7c-0.4,0.4-0.9,0.7-1.5,0.5c-1.2-0.5-1.6-1.8-2.4-2.7c-0.2-0.3-0.4-0.7-0.7-1c-0.3-0.1-0.5,0.3-0.7,0.4
			c-1,1.2-2.1,2.3-3.4,3c-1.8,0.7-3.9,0.2-5.2-1.1c-1.1-1.2-1.6-2.6-1.7-4.2c-0.1-2,0.2-3.9,0.9-5.7c0.8-2.2,2.4-4.5,4.5-5.7
			c2-1.2,5.2-1.3,7.2,0c0.9,0.6,1.4,1.5,1.2,2.6c-0.1,0.9-0.7,1.9-1.6,2.2c-1.3,0.3-2.1-0.6-3.3-0.7c-1.3-0.2-2.3,0.8-3,1.9
			c-0.8,1.3-1.3,2.7-1.3,4.3c0.1,0.4,0.2,0.9,0.7,1.1c0.3,0.1,0.6,0.1,0.9,0c0.9-0.7,1.6-1.6,2.3-2.5c0.6-0.7,1.2-1.7,2-2.2
			c0.4-0.2,0.9-0.2,1.2,0.1c0.7,0.4,1,1.2,1.5,1.8c0.3,0.4,0.5,0.9,1,1.1c0.3,0,0.4-0.2,0.7-0.4c1.4-1.7,2.7-3.5,4.2-5.3
			c0.4-0.5,1-1,1.6-0.8c0.4,0.1,0.7,0.5,1,0.9c0.7,1.1,1.2,2.2,1.9,3.3c0.1,0.1,0.2,0.3,0.3,0.3c0.2,0,0.3-0.2,0.5-0.3
			c1-1.2,1.7-2.7,2.9-3.8c0.3-0.3,0.8-0.3,1.2-0.2c0.8,0.4,1.1,1.2,1.6,1.9c1.1,1.6,1.9,3.2,3.1,4.7c0.1,0.1,0.3,0.2,0.4,0.2
			c0.4-0.2,0.6-0.7,0.8-1.1c0.5-1,0.9-2,1.1-3.1c0-0.1-0.1-0.2-0.1-0.2c-1.2-0.6-2-1.9-1.9-3.3C56.2,4,57,2.9,58.1,2.4
			c1.1-0.5,2.7-0.4,3.6,0.4c0.5,0.4,0.7,0.9,1,1.5c0,0,0,0,0.1,0.1c1.7-0.1,3.3-0.2,5-0.1c0.9,0.1,1.7,0.7,2.1,1.5
			C70.1,6.6,70,7.6,70,8.6c-0.1,1.5-0.2,2.9-0.3,4.4c0.1,0.1,0,0.3,0,0.4c0,0.2,0.1,0.4,0.3,0.6c0.3,0.2,0.7,0.1,1.1,0
			c0.8-0.3,1.6-0.6,2.3-1.1c0,0,0-0.1,0-0.1c0-2.4,0-4.8,0.4-7.1C74,5,74.7,4.2,75.4,4.1c1-0.2,2-0.1,2.8,0.6c0.4,0.4,0.5,1,0.6,1.5
			c0,2.3-0.2,4.6-0.2,6.9c0,0.4,0.1,0.8,0.4,1c0.4,0.2,0.9,0,1.3-0.1c0.5-0.3,1.2-0.4,1.6-0.8c-0.3-2.2-0.6-4.6,0-6.8
			c0.4-2,2-4,3.8-4.9c1.5-0.8,3.6-0.8,5.1-0.2c0.8,0.3,1.5,0.7,2.2,1.2c0.1,0,0.1,0,0.2,0c2.8-1.4,6.4-2.8,9.6-1.3
			c2.6,1.2,4.4,3.9,4.4,6.7C107.3,8.6,107.2,9.2,107.1,9.9 M101.4,10.4c0.5-0.8,0.6-2.1,0.1-3c-0.5-0.8-1.3-1.1-2.1-1
			c-1.5,0.3-2.8,1.1-4.2,1.8c-1.3,0.7-2.8,2-4.4,1.1c-0.9-0.7-1.3-1.7-1.1-2.8c-0.1-0.1-0.3-0.2-0.5-0.2c-0.7,0-1.4,0.4-1.8,1.1
			c-0.8,1.4-0.5,3.4-0.1,5c0.5,1.8,1.3,3.4,2.8,4.8c0.5,0.5,1.4,0.5,2.1,0.3c1.9-0.6,3.8-1.5,5.5-2.9c1.1-0.8,2.1-1.7,2.9-2.8
			C100.9,11.4,101.2,10.9,101.4,10.4"/>
		<path fill="#231F20" d="M78.2,2.3c-1,0.6-2.4,0.7-3.4,0.1c-0.9-0.5-1.7-1.5-1.6-2.6c0-1.1,0.7-2.1,1.6-2.6
			c1.1-0.6,2.7-0.6,3.6,0.2c1,0.7,1.5,2,1.1,3.2C79.4,1.3,78.9,1.9,78.2,2.3"/>
		<path fill="#231F20" d="M21.5,0.1c-0.8,0.5-1.9,0.5-2.7,0c-0.6-0.5-1.2-1.2-2-1.5c-1.6-0.8-3.6-0.2-5.2,0.2
			c-1.3,0.4-2.6,1.1-3.6,2.1C7.8,1.2,7.6,1.6,7.7,2c0.1,0.4,0.6,0.7,0.9,0.9c0.6,0.4,1.3,0.6,2,0.9c1.8,0.7,3.7,1.4,5.5,2.1
			c1.5,0.7,3,1.3,4.1,2.7c0.9,1.2,1.2,2.7,0.9,4.3c-0.3,2.8-2.6,5.2-5,6.5c-1.7,1.1-3.7,1.6-5.7,1.8c-2,0.1-3.9-0.2-5.6-0.8
			c-1.4-0.5-2.7-1.6-3.4-3c-0.6-1.2-0.8-2.9-0.1-4.1c0.7-1.4,2.2-2,3.7-1.8c0.7,0.1,1.5,0.6,1.8,1.3c0.4,0.7,0,1.7,0.4,2.4
			c0.7,1.4,2.3,1.3,3.7,1.2c2-0.3,4-1.3,5-3.2c0.2-0.5,0.4-1.1,0.1-1.6c-0.7-0.8-1.7-1-2.6-1.5C11,9.3,8.8,8.4,6.6,7.6
			C4.5,6.9,1.9,5.5,1.7,3C1.2,0.3,2.9-1.9,5-3.3c2.7-1.8,5.7-2.9,9-3.4c2.8-0.3,5.7,0,7.8,1.8c0.9,0.9,1.3,2.2,0.9,3.4
			C22.5-0.8,22.1-0.3,21.5,0.1"/>
	</g>
	<g>
		<path fill="#231F20" d="M32.9,31.6l-0.3,3.2h-8v-0.3h0.3c0.3,0,0.5,0,0.6-0.1c0.1-0.1,0.2-0.2,0.3-0.3c0-0.1,0.1-0.4,0.1-0.9v-6
			c0-0.5,0-0.8-0.1-0.9c-0.1-0.1-0.1-0.2-0.3-0.3c-0.2-0.1-0.4-0.1-0.6-0.1h-0.3v-0.2h4.8v0.2h-0.4c-0.3,0-0.5,0-0.6,0.1
			c-0.1,0.1-0.2,0.2-0.3,0.3c0,0.1-0.1,0.4-0.1,0.9v5.8c0,0.5,0,0.8,0.1,0.9c0.1,0.1,0.2,0.2,0.3,0.3c0.1,0,0.4,0.1,0.8,0.1h0.8
			c0.5,0,0.9-0.1,1.2-0.3c0.3-0.2,0.6-0.4,0.8-0.8c0.2-0.4,0.5-0.9,0.7-1.6H32.9z"/>
		<path fill="#231F20" d="M38.4,34.6v0.3h-4.7v-0.3h0.3c0.3,0,0.5,0,0.6-0.1c0.1-0.1,0.2-0.2,0.3-0.3c0-0.1,0.1-0.4,0.1-0.9v-6
			c0-0.5,0-0.8-0.1-0.9c0-0.1-0.1-0.2-0.3-0.3c-0.1-0.1-0.3-0.1-0.6-0.1h-0.3v-0.2h4.7v0.2H38c-0.3,0-0.5,0-0.6,0.1
			c-0.1,0.1-0.2,0.2-0.3,0.3c0,0.1-0.1,0.4-0.1,0.9v6c0,0.5,0,0.8,0.1,0.9c0.1,0.1,0.1,0.2,0.3,0.3c0.1,0.1,0.4,0.1,0.6,0.1H38.4z"
			/>
		<path fill="#231F20" d="M47.8,25.5v3.2h-0.3c-0.2-0.8-0.6-1.5-1.1-1.9c-0.5-0.4-1.1-0.7-1.8-0.7c-0.6,0-1.1,0.2-1.6,0.5
			c-0.5,0.3-0.8,0.8-1,1.3c-0.3,0.7-0.4,1.4-0.4,2.3c0,0.8,0.1,1.6,0.3,2.2c0.2,0.7,0.5,1.2,1,1.5c0.4,0.3,1,0.5,1.7,0.5
			c0.6,0,1.1-0.1,1.6-0.4c0.5-0.2,1-0.7,1.5-1.3v0.8c-0.5,0.5-1,0.9-1.6,1.2c-0.5,0.2-1.2,0.4-1.9,0.4c-1,0-1.8-0.2-2.6-0.6
			c-0.8-0.4-1.3-1-1.7-1.7c-0.4-0.7-0.6-1.5-0.6-2.3c0-0.9,0.2-1.7,0.7-2.5c0.5-0.8,1.1-1.4,1.8-1.8c0.8-0.4,1.6-0.6,2.4-0.6
			c0.6,0,1.3,0.1,2,0.4c0.4,0.2,0.7,0.2,0.8,0.2c0.1,0,0.3-0.1,0.4-0.2c0.1-0.1,0.2-0.3,0.2-0.5H47.8z"/>
		<path fill="#231F20" d="M52.3,26.2v3.7h0.2c0.6,0,1-0.2,1.2-0.5c0.3-0.4,0.4-0.9,0.5-1.6h0.3v4.8h-0.3c-0.1-0.5-0.2-0.9-0.3-1.3
			c-0.2-0.3-0.4-0.6-0.6-0.7c-0.2-0.1-0.6-0.2-1-0.2V33c0,0.5,0,0.8,0.1,0.9c0,0.1,0.1,0.2,0.2,0.3c0.1,0.1,0.3,0.1,0.6,0.1h0.5
			c0.8,0,1.5-0.2,2-0.6c0.5-0.4,0.9-1,1.1-1.8H57l-0.4,2.9h-7.8v-0.3h0.3c0.3,0,0.5,0,0.6-0.1c0.1-0.1,0.2-0.2,0.3-0.3
			c0-0.1,0.1-0.4,0.1-0.9v-6c0-0.4,0-0.7,0-0.8c0-0.2-0.1-0.3-0.3-0.4c-0.2-0.1-0.4-0.2-0.7-0.2h-0.3v-0.2h7.6v2.7h-0.3
			c-0.1-0.7-0.3-1.1-0.5-1.4c-0.2-0.3-0.6-0.5-1-0.6c-0.2-0.1-0.7-0.1-1.4-0.1H52.3z"/>
		<path fill="#231F20" d="M61.1,25.7l4.5,5.7v-3.9c0-0.6-0.1-0.9-0.2-1.1c-0.2-0.3-0.6-0.4-1.1-0.4v-0.2h3v0.2
			c-0.4,0-0.6,0.1-0.8,0.2c-0.1,0.1-0.2,0.2-0.3,0.4C66.1,26.7,66,27,66,27.4V35h-0.2l-6.1-7.6v5.8c0,0.5,0.1,0.9,0.4,1.1
			c0.2,0.2,0.5,0.3,0.8,0.3h0.2v0.3h-3.2v-0.3c0.5,0,0.8-0.1,1-0.3c0.2-0.2,0.3-0.5,0.3-1v-6.5L59,26.5c-0.2-0.2-0.4-0.4-0.5-0.5
			c-0.1-0.1-0.4-0.1-0.6-0.1v-0.2H61.1z"/>
		<path fill="#231F20" d="M74,25.5l0.1,3.1h-0.3c-0.1-0.8-0.4-1.4-0.9-1.9c-0.5-0.5-1.1-0.7-1.6-0.7c-0.5,0-0.8,0.1-1.1,0.4
			c-0.3,0.2-0.4,0.5-0.4,0.8c0,0.2,0,0.4,0.1,0.5c0.1,0.2,0.3,0.4,0.6,0.6c0.2,0.2,0.7,0.4,1.4,0.8c1.1,0.5,1.8,1,2.1,1.5
			c0.4,0.5,0.5,1,0.5,1.6c0,0.8-0.3,1.4-0.9,2c-0.6,0.5-1.3,0.8-2.2,0.8c-0.3,0-0.6,0-0.8-0.1c-0.3-0.1-0.6-0.2-1-0.3
			c-0.2-0.1-0.4-0.1-0.5-0.1c-0.1,0-0.2,0-0.4,0.1c-0.1,0.1-0.2,0.2-0.3,0.4h-0.2v-3.5h0.2c0.2,1,0.6,1.7,1.1,2.2
			c0.6,0.5,1.2,0.8,1.8,0.8c0.5,0,0.9-0.1,1.2-0.4c0.3-0.3,0.4-0.6,0.4-1c0-0.2-0.1-0.4-0.2-0.6c-0.1-0.2-0.3-0.4-0.5-0.6
			c-0.2-0.2-0.6-0.4-1.2-0.7c-0.8-0.4-1.4-0.8-1.8-1c-0.4-0.3-0.6-0.6-0.8-1c-0.2-0.4-0.3-0.7-0.3-1.2c0-0.7,0.3-1.3,0.8-1.9
			c0.5-0.5,1.2-0.8,2-0.8c0.3,0,0.6,0,0.9,0.1c0.2,0.1,0.5,0.2,0.8,0.3c0.3,0.1,0.5,0.2,0.6,0.2c0.1,0,0.2,0,0.3-0.1
			c0.1-0.1,0.1-0.2,0.2-0.5H74z"/>
		<path fill="#231F20" d="M78.9,26.2v3.7H79c0.6,0,1-0.2,1.2-0.5c0.3-0.4,0.4-0.9,0.5-1.6H81v4.8h-0.3c-0.1-0.5-0.2-0.9-0.3-1.3
			c-0.2-0.3-0.4-0.6-0.6-0.7c-0.2-0.1-0.6-0.2-1-0.2V33c0,0.5,0,0.8,0.1,0.9c0,0.1,0.1,0.2,0.2,0.3c0.1,0.1,0.3,0.1,0.6,0.1h0.5
			c0.9,0,1.5-0.2,2-0.6c0.5-0.4,0.9-1,1.1-1.8h0.2l-0.4,2.9h-7.8v-0.3h0.3c0.3,0,0.5,0,0.6-0.1c0.1-0.1,0.2-0.2,0.3-0.3
			c0-0.1,0.1-0.4,0.1-0.9v-6c0-0.4,0-0.7,0-0.8c0-0.2-0.1-0.3-0.2-0.4c-0.2-0.1-0.4-0.2-0.7-0.2h-0.3v-0.2H83v2.7h-0.3
			c-0.1-0.7-0.3-1.1-0.5-1.4c-0.2-0.3-0.6-0.5-1-0.6c-0.3-0.1-0.7-0.1-1.4-0.1H78.9z"/>
	</g>
</g>
</svg>
