<?xml version="1.0" encoding="utf-8"?>
<!-- Generator: Adobe Illustrator 17.0.0, SVG Export Plug-In . SVG Version: 6.00 Build 0)  -->
<!DOCTYPE svg PUBLIC "-//W3C//DTD SVG 1.1//EN" "http://www.w3.org/Graphics/SVG/1.1/DTD/svg11.dtd">
<svg version="1.1" id="Layer_1" xmlns="http://www.w3.org/2000/svg" xmlns:xlink="http://www.w3.org/1999/xlink" x="0px" y="0px"
	 width="90px" height="55px" viewBox="0 -2.5 90 55" enable-background="new 0 -2.5 90 55" xml:space="preserve">
<g>
	<g>
		<g>
			<g>
				<path fill="#FFFFFF" stroke="#FFFFFF" stroke-width="4" stroke-linejoin="round" stroke-miterlimit="10" d="M23.2,13.5
					c0.1,0,0.2-0.1,0.3-0.1c0.1-0.1,0.2-0.1,0.3-0.2c0.1-0.1,0.2-0.1,0.2-0.2c0.1-0.1,0.2-0.1,0.2-0.1c0.1,0,0.2,0,0.2,0.1
					s-0.1,0.3-0.3,0.7c-0.2,0.4-0.4,0.6-0.5,0.6s-0.3,0.1-0.6,0.1c-0.4,0.1-0.8,0.1-1.3,0.2c-0.5,0.1-1.1,0.2-1.6,0.3
					c-0.6,0.1-1.2,0.2-1.7,0.3s-1,0.2-1.5,0.3c-0.4,0.1-0.8,0.2-1,0.2c-0.4,0.1-0.8,0.3-1.2,0.5s-0.7,0.5-1,0.9
					c-0.3,0.3-0.5,0.7-0.6,1.1s-0.1,0.8,0,1.3c0.4,1.3,1.3,1.7,2.9,1.3c0.2,0,0.2,0,0.3,0.2c0,0.2,0,0.3-0.2,0.3
					c-1.1,0.3-1.9,0.3-2.5,0.1c-0.6-0.2-1.1-0.8-1.3-1.6c-0.2-0.6-0.1-1.1,0.1-1.7c0.2-0.5,0.5-1,1-1.4c0.4-0.4,1-0.8,1.6-1.1
					s1.2-0.6,1.8-0.7c0.2-0.1,0.5-0.1,0.9-0.2c0.4-0.1,0.8-0.2,1.2-0.3c0.4-0.1,0.9-0.2,1.3-0.3c0.5-0.1,0.9-0.2,1.3-0.3
					s0.8-0.2,1.1-0.2C22.8,13.5,23,13.5,23.2,13.5z M18.3,18.1c0-0.3,0-0.6,0-0.7s-0.1-0.1-0.1-0.1c-0.1,0-0.2,0.1-0.3,0.2
					c-0.1,0.1-0.2,0.2-0.2,0.2c-0.1,0-0.1,0-0.2-0.1c0,0,0-0.1,0.2-0.3c0.1-0.2,0.2-0.3,0.4-0.5c0.2-0.2,0.3-0.3,0.5-0.5
					c0.2-0.1,0.3-0.2,0.4-0.3c0.1,0,0.2,0,0.2,0.2c0,0.1,0,0.2,0,0.3c0,0.2,0,0.4,0,0.6L19,18.9c0.2-0.1,0.4-0.2,0.6-0.4
					c0.2-0.1,0.5-0.2,0.7-0.3c0.4-0.1,0.7-0.1,1.1-0.1s0.8,0.1,1.1,0.3c0.3,0.2,0.6,0.4,0.9,0.7c0.3,0.3,0.5,0.7,0.6,1.1
					c0.2,0.6,0.2,1.1,0.1,1.7s-0.3,1.1-0.6,1.6c-0.3,0.5-0.7,0.9-1.2,1.2c-0.5,0.3-1,0.6-1.6,0.8c-0.7,0.2-1.4,0.3-2.1,0.3
					c-0.6,0-1-0.1-1,0c-0.3,0.1-0.5,0-0.5-0.1s0-0.2,0.1-0.3c0.2-0.2,0.3-0.5,0.4-0.7s0.1-0.5,0.2-0.9l0.3-3.5
					c-0.2,0.2-0.4,0.4-0.5,0.6s-0.2,0.4-0.2,0.5c-0.1,0.2-0.1,0.3-0.1,0.4s0,0.2-0.1,0.2c0,0-0.1,0-0.2,0s-0.1,0-0.1-0.1
					c0-0.2,0-0.4,0-0.6c0.1-0.2,0.1-0.4,0.3-0.6c0.1-0.2,0.3-0.4,0.4-0.6c0.2-0.2,0.3-0.3,0.5-0.5L18.3,18.1z M18.6,23.4
					c0,0.1,0,0.1,0,0.2s0,0.2-0.1,0.3c0,0.1-0.1,0.2-0.1,0.3c0,0.1-0.1,0.2-0.1,0.3L18,24.9c0,0.1,0.4,0.2,1.1,0.2
					c0.3,0,0.6,0,0.9-0.1c0.3,0,0.6-0.1,0.9-0.2c0.5-0.1,0.9-0.3,1.2-0.6c0.4-0.3,0.6-0.6,0.8-1c0.2-0.4,0.3-0.8,0.4-1.3
					c0-0.5,0-1-0.2-1.5c-0.1-0.4-0.3-0.7-0.5-1s-0.4-0.5-0.7-0.6c-0.2-0.1-0.5-0.2-0.8-0.3c-0.3,0-0.5,0-0.8,0.1
					c-0.4,0.1-0.7,0.2-0.9,0.3c-0.2,0.1-0.5,0.3-0.7,0.5L18.6,23.4z"/>
				<path fill="#FFFFFF" stroke="#FFFFFF" stroke-width="4" stroke-linejoin="round" stroke-miterlimit="10" d="M26.5,17.7
					c0.2,0,0.2,0,0.3,0.1c0,0.1,0,0.2,0,0.4c0,0.1,0,0.3,0,0.5l-0.4,3.6c0,0.2,0,0.4,0,0.6c0.1,0.2,0.2,0.3,0.4,0.2
					c0.2-0.1,0.4-0.2,0.6-0.3c0.2-0.2,0.4-0.3,0.6-0.5s0.3-0.4,0.4-0.7c0.1-0.2,0.2-0.5,0.2-0.7l0.3-3.2c0-0.1,0-0.2,0-0.2
					c0-0.1,0-0.1,0-0.2c0,0,0-0.1,0.1-0.1l0.1-0.1c0,0,0.1-0.1,0.2-0.1s0.1-0.1,0.1-0.1c0.1,0,0.2,0,0.2,0.1c0,0,0,0.2,0,0.6
					l-0.4,3.9c0,0.2,0,0.3,0,0.5c0,0.1,0,0.2,0,0.2c0,0.1,0.1,0.2,0.2,0.1c0.1,0,0.1-0.1,0.2-0.1c0.1-0.1,0.1-0.1,0.2-0.2
					s0.1-0.1,0.1-0.1l0.1-0.1c0.1,0,0.2,0,0.2,0.1s0,0.2-0.1,0.3c-0.1,0.1-0.2,0.3-0.4,0.4c-0.1,0.1-0.3,0.2-0.5,0.3
					c0,0-0.2,0.1-0.3,0.1c-0.2,0.1-0.3,0-0.3-0.2c0-0.1-0.1-0.2-0.1-0.3c0-0.1,0-0.2,0-0.4c-0.1,0.2-0.2,0.4-0.4,0.5
					c-0.1,0.2-0.3,0.3-0.5,0.5c-0.4,0.4-0.9,0.6-1.3,0.7c-0.3,0.1-0.5-0.1-0.7-0.5c-0.1-0.2-0.1-0.5,0-0.9l0.3-3.3
					c0-0.2,0-0.3,0-0.3c0-0.1-0.1-0.1-0.1-0.1s-0.1,0-0.1,0.1c-0.1,0-0.1,0.1-0.2,0.1S25.4,19,25.4,19l-0.1,0.1
					c-0.1,0-0.2,0-0.2-0.1s0-0.2,0.1-0.3c0.1-0.1,0.2-0.3,0.4-0.4c0.2-0.2,0.3-0.3,0.5-0.4C26.2,17.8,26.4,17.7,26.5,17.7z"/>
				<path fill="#FFFFFF" stroke="#FFFFFF" stroke-width="4" stroke-linejoin="round" stroke-miterlimit="10" d="M35.2,15.9
					c0.2-0.3,0.4-0.5,0.7-0.7c0.2-0.2,0.5-0.3,0.7-0.4c0.1,0,0.2,0,0.4,0s0.3,0.1,0.5,0.2c0.2,0.1,0.3,0.2,0.4,0.4
					c0.1,0.2,0.2,0.4,0.3,0.6c0.1,0.5,0.2,1,0.1,1.5c-0.1,0.6-0.2,1.1-0.4,1.6s-0.5,1-0.9,1.3c-0.3,0.4-0.7,0.6-1.2,0.8
					c-0.2,0.1-0.4,0.1-0.5,0c-0.2,0-0.3-0.1-0.4-0.2l-0.1,1.1c-0.2,1.8-0.7,2.8-1.5,3c-0.2,0.1-0.3,0-0.3,0c0-0.2,0-0.3,0.2-0.3
					c0.1,0,0.3-0.2,0.4-0.4c0.1-0.2,0.2-0.4,0.3-0.7c0.1-0.3,0.1-0.5,0.2-0.8c0-0.3,0.1-0.5,0.1-0.7V21c-0.4,0.5-0.9,0.9-1.4,1
					c-0.1,0-0.2,0-0.4,0s-0.3-0.1-0.5-0.2s-0.3-0.2-0.4-0.4c-0.1-0.2-0.2-0.4-0.3-0.6C31,20.5,31,20,31,19.5
					c0.1-0.6,0.2-1.1,0.4-1.6c0.2-0.5,0.5-1,0.8-1.4c0.4-0.4,0.8-0.7,1.2-0.8c0.1,0,0.3-0.1,0.4,0c0.1,0,0.3,0,0.4,0.1l0.1-3.2
					c0-0.6,0-0.9,0-0.9c0-0.1-0.1-0.1-0.1-0.1s-0.1,0-0.1,0.1L34,11.8l-0.1,0.1L33.8,12c-0.1,0-0.2,0-0.2-0.1s0-0.2,0.1-0.3
					s0.2-0.3,0.4-0.4c0.2-0.2,0.3-0.3,0.5-0.4c0.2-0.1,0.3-0.2,0.5-0.2s0.2,0,0.3,0.1c0,0.1,0,1-0.1,2.8c0,0.4,0,0.8,0,1.1
					s0,0.6,0,0.8s0,0.3,0,0.5C35.3,15.8,35.2,15.8,35.2,15.9z M34.2,16.7c-0.1-0.3-0.2-0.4-0.3-0.5c-0.1,0-0.3-0.1-0.4,0
					c-0.3,0.1-0.6,0.3-0.8,0.5c-0.3,0.3-0.5,0.6-0.6,1c-0.2,0.4-0.3,0.9-0.3,1.4s0,1,0.2,1.6c0.1,0.3,0.2,0.5,0.3,0.6
					c0.2,0.1,0.4,0.1,0.7,0s0.5-0.2,0.7-0.4c0.2-0.2,0.3-0.5,0.4-0.8c0.1-0.3,0.2-0.6,0.2-1c0-0.3,0.1-0.7,0.1-1s0-0.6,0-0.9
					C34.3,17,34.3,16.8,34.2,16.7z M35.1,20.3c0.1,0.3,0.2,0.4,0.3,0.5c0.1,0,0.3,0.1,0.4,0c0.3-0.1,0.6-0.3,0.9-0.6
					c0.3-0.3,0.5-0.6,0.6-1.1c0.1-0.4,0.2-0.9,0.2-1.4s0-1-0.2-1.5c-0.1-0.3-0.2-0.5-0.4-0.6s-0.4-0.1-0.6,0
					c-0.3,0.1-0.5,0.2-0.6,0.4c-0.2,0.2-0.3,0.5-0.4,0.8c-0.1,0.3-0.2,0.6-0.2,1c0,0.3-0.1,0.7-0.1,1s0,0.6,0,0.8
					C35,20,35.1,20.2,35.1,20.3z"/>
				<path fill="#FFFFFF" stroke="#FFFFFF" stroke-width="4" stroke-linejoin="round" stroke-miterlimit="10" d="M40.6,13.8
					c0.2,0,0.2,0,0.3,0.1c0,0.1,0,0.2,0,0.4c0,0.1,0,0.3,0,0.5l-0.4,3.6c0,0.2,0,0.5,0,0.6c0.1,0.2,0.2,0.3,0.4,0.2
					c0.2-0.1,0.4-0.2,0.6-0.3c0.2-0.2,0.4-0.3,0.6-0.5c0.2-0.2,0.3-0.4,0.4-0.7c0.1-0.2,0.2-0.5,0.2-0.7l0.3-3.2c0-0.1,0-0.2,0-0.2
					c0-0.1,0-0.1,0-0.2c0,0,0-0.1,0.1-0.1l0.1-0.1c0,0,0.1-0.1,0.2-0.1c0.1,0,0.1-0.1,0.1-0.1c0.1,0,0.2,0,0.2,0.1c0,0,0,0.2,0,0.6
					l-0.4,3.9c0,0.2,0,0.3,0,0.5c0,0.1,0,0.2,0,0.2c0,0.1,0.1,0.2,0.2,0.1c0.1,0,0.1-0.1,0.2-0.1c0.1-0.1,0.1-0.1,0.2-0.2
					C44,18,44,18,44.1,17.9l0.1-0.1c0.1,0,0.2,0,0.2,0.1s0,0.2-0.1,0.3c-0.1,0.1-0.2,0.3-0.4,0.4s-0.3,0.2-0.5,0.3
					c-0.2,0.1-0.3,0.2-0.4,0.2c-0.2,0-0.3,0-0.3-0.2c0-0.1-0.1-0.2-0.1-0.4c0-0.1,0-0.2,0-0.4c-0.1,0.2-0.2,0.4-0.4,0.5
					c-0.1,0.2-0.3,0.3-0.5,0.5c-0.4,0.4-0.9,0.6-1.3,0.7c-0.3,0.1-0.5-0.1-0.7-0.5c-0.1-0.2-0.1-0.5,0-0.9l0.3-3.3
					c0-0.2,0-0.3,0-0.3c0-0.1-0.1-0.1-0.1-0.1s-0.1,0-0.1,0.1c-0.1,0-0.1,0.1-0.2,0.1c-0.1,0-0.1,0.1-0.1,0.1l-0.1,0.1
					c-0.1,0-0.2,0-0.2-0.1s0-0.2,0.1-0.3s0.2-0.3,0.4-0.4c0.2-0.2,0.3-0.3,0.5-0.4C40.3,13.9,40.4,13.8,40.6,13.8z"/>
				<path fill="#FFFFFF" stroke="#FFFFFF" stroke-width="4" stroke-linejoin="round" stroke-miterlimit="10" d="M49.3,12
					c0.2-0.3,0.4-0.5,0.7-0.7c0.2-0.2,0.5-0.3,0.7-0.4c0.1,0,0.2,0,0.4,0s0.3,0.1,0.5,0.2c0.2,0.1,0.3,0.2,0.4,0.4
					c0.1,0.2,0.2,0.4,0.3,0.6c0.1,0.5,0.2,1,0.1,1.5c-0.1,0.6-0.2,1.1-0.4,1.6s-0.5,1-0.9,1.3c-0.4,0.4-0.7,0.6-1.2,0.8
					c-0.2,0.1-0.4,0.1-0.5,0c-0.2,0-0.3-0.1-0.4-0.2l-0.1,1.1c-0.2,1.8-0.7,2.8-1.5,3c-0.2,0.1-0.3,0-0.3-0.1c0-0.2,0-0.3,0.2-0.3
					c0.1,0,0.3-0.2,0.4-0.4c0.1-0.2,0.2-0.4,0.3-0.7c0.1-0.3,0.1-0.5,0.2-0.8c0-0.3,0.1-0.5,0.1-0.7V17c-0.4,0.5-0.9,0.9-1.4,1
					c-0.1,0-0.2,0-0.4,0s-0.3-0.1-0.5-0.2s-0.3-0.2-0.4-0.4c-0.1-0.2-0.2-0.4-0.3-0.6c-0.1-0.4-0.1-0.9-0.1-1.5
					c0.1-0.6,0.2-1.1,0.4-1.6s0.5-1,0.8-1.4c0.4-0.4,0.8-0.7,1.2-0.8c0.1,0,0.3-0.1,0.4,0c0.1,0,0.3,0,0.4,0.1l0.1-3.2
					c0-0.6,0-0.9,0-0.9c0-0.1-0.1-0.1-0.1-0.1s-0.1,0-0.1,0.1l-0.1,0.1C48.1,7.9,48,8,48,8l-0.1,0.1c-0.1,0-0.2,0-0.2-0.1
					c0-0.1,0-0.2,0.1-0.3c0.1-0.1,0.2-0.3,0.4-0.4c0.2-0.2,0.3-0.3,0.5-0.4s0.3-0.2,0.4-0.2c0.2,0,0.2,0,0.3,0.1c0,0.1,0,1-0.1,2.8
					c0,0.4,0,0.8,0,1.1s0,0.6,0,0.8S49.3,11.9,49.3,12C49.3,11.9,49.3,12,49.3,12z M48.3,12.8c-0.1-0.3-0.2-0.4-0.3-0.5
					c-0.1,0-0.3-0.1-0.4,0c-0.3,0.1-0.6,0.3-0.8,0.5c-0.3,0.3-0.5,0.6-0.6,1c-0.2,0.4-0.3,0.9-0.3,1.4s0,1,0.2,1.6
					c0.1,0.3,0.2,0.5,0.3,0.6s0.4,0.1,0.7,0s0.5-0.2,0.7-0.4c0.2-0.2,0.3-0.5,0.4-0.8c0.1-0.3,0.2-0.6,0.2-1c0-0.3,0.1-0.7,0.1-1
					s0-0.6,0-0.9C48.4,13.2,48.4,13,48.3,12.8z M49.2,16.4c0.1,0.3,0.2,0.4,0.3,0.5c0.1,0,0.3,0.1,0.4,0c0.3-0.1,0.6-0.3,0.9-0.6
					c0.3-0.3,0.5-0.6,0.6-1.1c0.1-0.4,0.2-0.9,0.2-1.4s0-1-0.2-1.5c-0.1-0.3-0.2-0.5-0.4-0.6s-0.4-0.1-0.6,0
					c-0.3,0.1-0.5,0.2-0.6,0.4c-0.2,0.2-0.3,0.5-0.4,0.8c-0.1,0.3-0.2,0.6-0.2,1c0,0.3-0.1,0.7-0.1,1s0,0.6,0,0.8
					C49.1,16.1,49.2,16.3,49.2,16.4z"/>
				<path fill="#FFFFFF" stroke="#FFFFFF" stroke-width="4" stroke-linejoin="round" stroke-miterlimit="10" d="M54.9,10.9
					c0.4-0.8,1-1.3,1.7-1.5s1.2,0.2,1.5,1.1c0.1,0.3,0.1,0.6,0.1,0.9c0,0.3-0.1,0.7-0.1,1.1c-0.1,0.4-0.2,0.7-0.3,1.1
					c-0.1,0.4-0.3,0.7-0.5,1s-0.5,0.6-0.7,0.8c-0.3,0.2-0.6,0.4-0.9,0.5c-0.5,0.1-0.8,0.1-1-0.1l-0.1,1.1c-0.1,0.9-0.3,1.6-0.5,2.1
					s-0.5,0.8-0.9,0.9c-0.2,0.1-0.3,0-0.3,0c0-0.2,0-0.3,0.2-0.3c0.2-0.1,0.4-0.3,0.6-0.8c0.1-0.4,0.2-1.1,0.3-1.8l0.3-4.8
					c0-0.3,0-0.5,0-0.6s0-0.2,0-0.3s-0.1-0.1-0.1-0.1c-0.1,0-0.2,0.1-0.3,0.2c-0.1,0.1-0.2,0.2-0.2,0.2c-0.1,0-0.2,0-0.2-0.1
					s0-0.2,0.1-0.3c0.1-0.2,0.2-0.3,0.4-0.5s0.3-0.3,0.5-0.4c0.2-0.1,0.3-0.2,0.5-0.2c0.1,0,0.2,0,0.3,0.1c0,0.1,0,0.2,0,0.3
					C55,10.6,54.9,10.7,54.9,10.9L54.9,10.9z M56.3,10.2c-0.4,0.1-0.7,0.3-0.9,0.7s-0.4,0.8-0.5,1.2c-0.1,0.5-0.2,0.9-0.2,1.4
					s0,0.9,0.1,1.2c0.2,0.6,0.5,0.8,0.9,0.7c0.3-0.1,0.5-0.3,0.8-0.6c0.2-0.3,0.4-0.7,0.6-1.1c0.2-0.4,0.3-0.9,0.3-1.4s0-1-0.1-1.4
					C57.1,10.3,56.8,10,56.3,10.2z"/>
				<path fill="#FFFFFF" stroke="#FFFFFF" stroke-width="4" stroke-linejoin="round" stroke-miterlimit="10" d="M60.7,8.2
					c0.2,0,0.2,0,0.3,0.1c0,0.1,0,0.2,0,0.4c0,0.1,0,0.3,0,0.5l-0.4,3.6c0,0.2,0,0.4,0,0.6c0.1,0.2,0.2,0.3,0.4,0.2
					c0.3-0.1,0.5-0.2,0.7-0.4s0.4-0.4,0.6-0.7c0.2-0.3,0.3-0.5,0.4-0.8c0.1-0.3,0.2-0.6,0.2-0.8l0.3-2.6c0-0.2,0-0.3,0.1-0.4
					c0-0.1,0.1-0.2,0.2-0.3c0.1-0.1,0.2-0.2,0.3-0.2s0.2,0,0.2,0.1c0,0,0,0.2,0,0.6l-0.4,4.3c-0.1,0.7-0.1,1.3-0.2,1.9
					c-0.1,0.6-0.2,1.1-0.3,1.5c-0.2,0.5-0.4,0.8-0.6,1.1c-0.3,0.3-0.6,0.5-1,0.6c-0.1,0-0.3,0-0.5,0s-0.4,0-0.6-0.1
					c-0.2,0-0.4-0.1-0.5-0.2c-0.2-0.1-0.3-0.2-0.3-0.3c-0.1-0.3,0-0.4,0.3-0.5c0.1,0,0.2,0,0.3,0.1s0.2,0.2,0.3,0.3
					c0.1,0.1,0.3,0.2,0.4,0.2c0.2,0.1,0.3,0.1,0.5,0c0.3-0.1,0.5-0.2,0.7-0.4c0.2-0.2,0.3-0.5,0.4-0.9c0.1-0.4,0.2-0.8,0.2-1.3
					s0.1-1.1,0.1-1.8l0,0c-0.1,0.2-0.3,0.4-0.5,0.6c-0.2,0.2-0.4,0.4-0.6,0.5c-0.2,0.2-0.4,0.3-0.6,0.4c-0.2,0.1-0.4,0.2-0.6,0.2
					c-0.3,0.1-0.6-0.1-0.7-0.5c-0.1-0.2-0.1-0.5,0-0.9l0.3-3.3c0-0.1,0-0.2,0-0.3S60,9.2,60,9.2s-0.1,0-0.1,0.1
					c-0.1,0-0.1,0.1-0.2,0.1c-0.1,0-0.1,0.1-0.1,0.1l-0.1,0.1c-0.1,0-0.2,0-0.2-0.1s0-0.2,0.1-0.3s0.2-0.3,0.4-0.5s0.3-0.3,0.5-0.4
					C60.5,8.4,60.6,8.3,60.7,8.2z"/>
				<path fill="#FFFFFF" stroke="#FFFFFF" stroke-width="4" stroke-linejoin="round" stroke-miterlimit="10" d="M66.6,6.6
					c0.2,0,0.2,0,0.3,0.1c0.1,0.2,0,0.5,0,0.8c0.1-0.1,0.2-0.3,0.3-0.4c0.2-0.2,0.4-0.3,0.6-0.5s0.4-0.3,0.7-0.5
					c0.2,0,0.5-0.1,0.7-0.2s0.4,0,0.4,0.1s0,0.2,0,0.4c0.5-0.5,1.1-0.9,1.6-1.1c0.4-0.1,0.6,0.1,0.7,0.5C72,6,72,6.3,71.9,6.7
					L71.6,10c0,0.3,0,0.4,0,0.5s0.1,0.2,0.2,0.1c0,0,0.1,0,0.1-0.1c0.1-0.1,0.1-0.1,0.2-0.2c0.1-0.1,0.1-0.1,0.2-0.2
					c0.1-0.1,0.1-0.1,0.1-0.1c0.1,0,0.1,0,0.2,0.1c0,0.1,0,0.2-0.1,0.3s-0.2,0.2-0.3,0.4c-0.1,0.1-0.3,0.2-0.4,0.3
					c-0.2,0.1-0.3,0.2-0.4,0.2c-0.2,0.1-0.4,0-0.4-0.2c0-0.1,0-0.4,0-0.9L71.1,7c0-0.3,0-0.5,0-0.6c-0.1-0.2-0.2-0.3-0.4-0.2
					c-0.2,0.1-0.4,0.1-0.6,0.3c-0.2,0.1-0.4,0.3-0.6,0.6L69,11.3c0,0.2-0.1,0.4-0.2,0.5c-0.1,0.2-0.2,0.3-0.4,0.3
					c-0.1,0-0.2,0-0.2-0.1c0,0,0-0.1,0-0.2c0-0.1,0-0.2,0-0.4L68.6,8c0.1-0.7,0.1-1,0.1-1c0-0.1-0.1-0.2-0.3-0.1
					c-0.2,0.1-0.5,0.3-0.9,0.7C67,8,66.8,8.5,66.7,9l-0.3,3c0,0.2-0.1,0.4-0.2,0.5c-0.1,0.2-0.2,0.3-0.4,0.3c-0.1,0-0.1,0-0.2-0.1
					c0,0,0-0.1,0-0.2c0-0.1,0-0.2,0-0.4L66,8.8c0-0.5,0.1-0.8,0-0.9c0-0.1-0.1-0.1-0.1-0.1s-0.1,0-0.1,0.1L65.7,8l-0.1,0.1l-0.1,0.1
					c-0.1,0-0.2,0-0.2-0.1s0-0.2,0.1-0.3c0.1-0.1,0.2-0.3,0.4-0.5c0-0.2,0.2-0.3,0.4-0.4C66.4,6.7,66.5,6.7,66.6,6.6z"/>
			</g>
		</g>
		<g>
			<path fill="#FFFFFF" stroke="#FFFFFF" stroke-width="4" stroke-linejoin="round" stroke-miterlimit="10" d="M6.8,35.7
				c0.2-0.1,0.5-0.1,0.7-0.2c0.3,0,0.5-0.1,0.7-0.1s0.4,0,0.6,0.1c0.2,0.1,0.3,0.2,0.3,0.3c0.1,0.4,0,0.7-0.3,0.8s-0.6,0-0.8-0.2
				c-0.3-0.2-0.7-0.3-1.3-0.1c-0.5,0.2-0.9,0.4-1.3,0.8c-0.3,0.4-0.6,0.9-0.7,1.4c-0.2,0.5-0.2,1.1-0.2,1.7c0,0.6,0.1,1.1,0.2,1.6
				c0.1,0.3,0.2,0.6,0.4,0.9c0.1,0.3,0.3,0.5,0.5,0.7s0.4,0.3,0.7,0.4c0.3,0.1,0.5,0.1,0.9,0c0.2-0.1,0.4-0.1,0.5-0.3
				c0.2-0.1,0.4-0.3,0.5-0.4c0.2-0.2,0.3-0.3,0.4-0.5c0.1-0.2,0.2-0.4,0.2-0.6c0.1-0.4,0.2-0.7,0.4-0.7c0.1,0,0.2,0,0.2,0.2
				c0.1,0.2,0.1,0.5,0,0.8s-0.2,0.6-0.5,0.9c-0.2,0.3-0.5,0.6-0.8,0.8c-0.3,0.3-0.7,0.5-1.2,0.6c-0.4,0.1-0.7,0.1-1.1,0.1
				c-0.4-0.1-0.7-0.2-1-0.4S4.2,43.9,4,43.6s-0.4-0.6-0.5-1c-0.2-0.7-0.3-1.4-0.2-2.2c0.1-0.7,0.3-1.4,0.6-2.1
				c0.3-0.6,0.7-1.2,1.2-1.7C5.7,36.2,6.3,35.8,6.8,35.7z"/>
			<path fill="#FFFFFF" stroke="#FFFFFF" stroke-width="4" stroke-linejoin="round" stroke-miterlimit="10" d="M17.7,32.9
				c0.1,0.3,0.1,0.7,0,1.2c0.2-0.3,0.4-0.6,0.7-0.8c0.3-0.3,0.5-0.5,0.8-0.7s0.6-0.4,0.8-0.5c0.3-0.1,0.5-0.2,0.7-0.3
				c0.5-0.1,0.8,0.1,1,0.6c0.1,0.3,0.1,0.8,0,1.3l-0.5,4.9c0,0.3,0,0.5,0,0.5c0,0.2,0.1,0.2,0.3,0.2c0,0,0.1-0.1,0.2-0.1
				c0.1-0.1,0.2-0.2,0.3-0.2c0.1-0.1,0.2-0.1,0.3-0.2c0.1-0.1,0.1-0.1,0.2-0.1s0.2,0,0.2,0.2c0,0.1,0,0.3-0.1,0.4
				c-0.1,0.2-0.3,0.4-0.5,0.5c-0.2,0.2-0.4,0.3-0.6,0.5c-0.2,0.1-0.4,0.2-0.5,0.3c-0.3,0.1-0.5,0-0.6-0.3c-0.1-0.2-0.1-0.6,0-1.3
				l0.3-4.7c0-0.4,0-0.7,0-0.9C20.5,33,20.3,32.9,20,33s-0.6,0.2-0.8,0.5c-0.3,0.2-0.6,0.5-0.8,0.8c-0.2,0.3-0.4,0.6-0.6,1
				c-0.2,0.3-0.3,0.7-0.3,1L17,40.6c0,0.2-0.1,0.4-0.1,0.6c-0.1,0.3-0.3,0.5-0.7,0.6c-0.1,0-0.2,0-0.3-0.1c0-0.1,0-0.4,0-0.8
				l0.4-5.1c0.1-0.8,0.1-1.2,0.1-1.3s-0.1-0.2-0.2-0.1c-0.1,0-0.2,0.1-0.4,0.3c-0.1,0.2-0.2,0.3-0.3,0.3s-0.2,0-0.3-0.2
				c0-0.1,0-0.2,0.2-0.5c0.1-0.2,0.3-0.4,0.5-0.7c0.2-0.2,0.5-0.4,0.7-0.6c0.3-0.2,0.5-0.3,0.7-0.4C17.5,32.6,17.7,32.7,17.7,32.9z"
				/>
			<path fill="#FFFFFF" stroke="#FFFFFF" stroke-width="4" stroke-linejoin="round" stroke-miterlimit="10" d="M24.9,37
				c0.4,1.1,1.1,1.4,2.1,1.2c0.9-0.3,1.6-0.8,2.1-1.6c0.2-0.3,0.3-0.4,0.3-0.4c0.1,0,0.2,0,0.3,0.2c0,0.1,0,0.3-0.1,0.5
				c-0.5,1-1.4,1.7-2.7,2.1c-0.9,0.2-1.6,0.2-2.2-0.2s-1-1-1.2-1.8c-0.2-0.7-0.2-1.4-0.2-2.1c0.1-0.7,0.3-1.4,0.5-2.1
				c0.3-0.6,0.7-1.2,1.2-1.7s1-0.8,1.7-1c1.2-0.3,2,0,2.3,1.1c0.2,0.5,0.1,1.1,0,1.7c-0.2,0.6-0.4,1.2-0.8,1.7s-0.9,1-1.4,1.5
				C26.2,36.5,25.5,36.8,24.9,37z M26.2,35.8c0.5-0.3,0.9-0.7,1.2-1.1c0.3-0.4,0.5-0.9,0.6-1.4s0.1-1,0-1.5c-0.2-0.8-0.7-1.2-1.3-1
				c-0.5,0.1-0.9,0.4-1.3,0.8C25,32,24.8,32.5,24.6,33c-0.2,0.5-0.2,1.1-0.2,1.7c0,0.6,0.1,1.1,0.2,1.6v0.2
				C25.2,36.3,25.7,36.1,26.2,35.8z"/>
			<path fill="#FFFFFF" stroke="#FFFFFF" stroke-width="4" stroke-linejoin="round" stroke-miterlimit="10" d="M32.2,34.4l-0.1,1.8
				c0,0.2-0.1,0.5-0.2,0.7c-0.1,0.2-0.3,0.4-0.6,0.5c-0.1,0-0.2,0-0.3-0.1c0,0,0-0.1,0-0.3s0-0.3,0-0.5l0.4-5c0-0.6,0-1,0-1.3
				c0-0.1-0.1-0.2-0.3-0.1c-0.1,0-0.2,0.1-0.4,0.3c-0.1,0.2-0.2,0.3-0.3,0.3c-0.2,0-0.2,0-0.3-0.2c0-0.1,0-0.3,0.2-0.5
				s0.3-0.4,0.6-0.7c0.2-0.2,0.5-0.4,0.7-0.6s0.4-0.3,0.5-0.3c0.2-0.1,0.4,0,0.4,0.2c0,0.1,0,0.4,0,0.7l-0.3,3.8l2.5-3.9
				c0.9-1.3,1.6-2.1,2.2-2.3c0.4-0.1,0.6,0,0.7,0.3c0.1,0.2,0,0.4-0.2,0.5s-0.3,0.1-0.5,0.2c-0.2,0-0.3,0.1-0.5,0.2
				c-0.3,0.1-0.5,0.3-0.7,0.6c-0.2,0.2-0.4,0.5-0.6,0.8L34,31.3l2.4,2.8c0.3,0.3,0.5,0.5,0.7,0.4c0.1,0,0.1-0.1,0.2-0.1
				c0.1-0.1,0.1-0.1,0.2-0.2c0.1-0.1,0.1-0.2,0.2-0.2c0-0.1,0.1-0.1,0.2-0.1c0.2,0,0.3,0,0.3,0.3c0,0.1,0,0.2-0.1,0.4
				s-0.2,0.3-0.4,0.5c-0.1,0.2-0.3,0.3-0.5,0.5c-0.2,0.1-0.3,0.2-0.5,0.3c-0.3,0.1-0.6-0.1-0.9-0.5l-2.4-3L32.2,34.4z"/>
			<path fill="#FFFFFF" stroke="#FFFFFF" stroke-width="4" stroke-linejoin="round" stroke-miterlimit="10" d="M40.7,26.1
				c0.2-0.1,0.4,0,0.4,0.2c0.1,0.3,0.1,0.7,0,1.2c0.1-0.2,0.2-0.4,0.5-0.6c0.2-0.2,0.5-0.5,0.8-0.7s0.6-0.5,1-0.7
				c0.3-0.2,0.7-0.3,0.9-0.4c0.3-0.1,0.5-0.1,0.6,0.1c0,0.1,0.1,0.3,0,0.6c0.7-0.8,1.5-1.3,2.4-1.6c0.5-0.1,0.8,0.1,1,0.6
				c0.1,0.3,0.1,0.8,0,1.3l-0.5,4.8c0,0.4-0.1,0.6,0,0.7c0,0.2,0.2,0.2,0.3,0.2s0.1-0.1,0.2-0.1c0.1-0.1,0.2-0.2,0.3-0.2
				c0.1-0.1,0.2-0.2,0.3-0.2c0.1-0.1,0.1-0.1,0.2-0.1c0.1,0,0.2,0,0.2,0.2c0,0.1,0,0.2-0.1,0.4s-0.3,0.3-0.4,0.5
				c-0.2,0.2-0.4,0.3-0.6,0.5c-0.2,0.2-0.4,0.3-0.6,0.3c-0.3,0.1-0.5,0-0.6-0.3c-0.1-0.2-0.1-0.6,0-1.3l0.3-4.7c0-0.4,0-0.7,0-0.9
				c-0.1-0.3-0.3-0.4-0.6-0.3s-0.6,0.2-0.8,0.4c-0.3,0.2-0.6,0.5-0.9,0.9L44.4,33c0,0.3-0.1,0.5-0.2,0.7c-0.1,0.2-0.3,0.4-0.6,0.5
				c-0.1,0-0.2,0-0.3-0.1c0,0,0-0.1,0-0.3c0-0.1,0-0.3,0-0.6l0.4-5.1c0.1-1,0.1-1.5,0.1-1.5c-0.1-0.2-0.2-0.3-0.4-0.2
				c-0.3,0.1-0.7,0.4-1.3,1c-0.7,0.7-1,1.5-1.1,2.2L40.6,34c0,0.3-0.1,0.5-0.2,0.7c-0.1,0.2-0.3,0.4-0.6,0.5c-0.1,0-0.2,0-0.2-0.1
				c0,0,0-0.1,0-0.3c0-0.1,0-0.3,0-0.6l0.4-5.1c0.1-0.8,0.1-1.2,0.1-1.3c0-0.1-0.1-0.2-0.2-0.1c-0.1,0-0.1,0.1-0.2,0.1
				c-0.1,0.1-0.1,0.1-0.2,0.2c-0.1,0.1-0.1,0.1-0.2,0.2c-0.1,0.1-0.1,0.1-0.1,0.1c-0.1,0-0.2,0-0.3-0.2c0-0.1,0-0.2,0.2-0.5
				c0.1-0.2,0.3-0.4,0.6-0.7c0.2-0.2,0.5-0.4,0.7-0.6C40.2,26.3,40.5,26.1,40.7,26.1z"/>
			<path fill="#FFFFFF" stroke="#FFFFFF" stroke-width="4" stroke-linejoin="round" stroke-miterlimit="10" d="M51.8,22.9
				c0.2-0.1,0.4,0,0.4,0.2c0,0.1,0.1,0.3,0,0.5c0,0.2,0,0.4-0.1,0.7l-0.5,5.2c0,0.4,0,0.7,0,0.9c0.1,0.3,0.3,0.4,0.6,0.3
				s0.6-0.2,0.9-0.5c0.3-0.2,0.6-0.5,0.8-0.8s0.5-0.6,0.6-1c0.2-0.3,0.3-0.7,0.3-1l0.5-4.6c0-0.1,0-0.2,0-0.3c0-0.1,0-0.2,0.1-0.2
				c0,0,0.1-0.1,0.1-0.2c0.1-0.1,0.1-0.1,0.2-0.2c0.1-0.1,0.1-0.1,0.2-0.2c0.1-0.1,0.1-0.1,0.2-0.1c0.2,0,0.2,0,0.3,0.1
				c0,0.1,0,0.3,0,0.8l-0.5,5.7c0,0.3,0,0.5,0,0.7c0,0.1,0,0.2,0,0.3c0,0.2,0.1,0.2,0.3,0.2c0.1,0,0.2-0.1,0.3-0.2s0.2-0.2,0.3-0.2
				c0.1-0.1,0.2-0.1,0.2-0.2c0.1-0.1,0.1-0.1,0.2-0.1c0.1,0,0.2,0,0.3,0.1c0,0.1,0,0.3-0.2,0.5c-0.1,0.2-0.3,0.4-0.5,0.5
				c-0.2,0.2-0.4,0.3-0.7,0.5c-0.2,0.1-0.4,0.2-0.6,0.3c-0.3,0.1-0.4,0-0.5-0.3c-0.1-0.2-0.1-0.4-0.1-0.5s0-0.3,0-0.5
				c-0.2,0.3-0.3,0.5-0.5,0.8s-0.5,0.5-0.8,0.8c-0.6,0.5-1.3,0.9-1.9,1.1c-0.5,0.1-0.8-0.1-1-0.7c-0.1-0.3-0.1-0.8-0.1-1.3l0.4-4.8
				c0-0.2,0-0.4,0-0.4c0-0.1-0.1-0.2-0.2-0.1c0,0-0.1,0-0.2,0.1c-0.1,0.1-0.2,0.1-0.2,0.2c-0.1,0.1-0.1,0.1-0.2,0.2
				c-0.2,0-0.2,0-0.2,0c-0.2,0-0.2,0-0.3-0.2c0-0.1,0-0.3,0.2-0.5s0.3-0.4,0.6-0.6c0.2-0.2,0.5-0.4,0.7-0.6
				C51.4,23.1,51.6,23,51.8,22.9z"/>
			<path fill="#FFFFFF" stroke="#FFFFFF" stroke-width="4" stroke-linejoin="round" stroke-miterlimit="10" d="M60.2,20.6
				c0.2-0.1,0.4,0,0.4,0.2c0,0.1,0.1,0.3,0,0.5c0,0.2,0,0.4-0.1,0.7l-0.3,2.6c0.1-0.2,0.3-0.3,0.4-0.4c0.2-0.1,0.4-0.2,0.6-0.3
				l1.1-0.3c0.3-0.1,0.5-0.2,0.7-0.3c0.2-0.1,0.3-0.3,0.3-0.5l0.2-2.2c0-0.3,0.1-0.4,0.1-0.5s0.1-0.2,0.1-0.2
				c0.1-0.1,0.2-0.2,0.3-0.3c0.1-0.1,0.2-0.2,0.3-0.2c0.1,0,0.2,0,0.3,0.1c0,0.1,0,0.3,0,0.8L64.2,26c0,0.2,0,0.4,0,0.6s0,0.3,0,0.3
				c0,0.2,0.1,0.2,0.3,0.2c0.1,0,0.2-0.1,0.3-0.1c0.1-0.1,0.2-0.2,0.3-0.2c0.1-0.1,0.2-0.2,0.2-0.2c0.1-0.1,0.1-0.1,0.1-0.1
				c0.1,0,0.2,0,0.3,0.1c0,0.1,0,0.3-0.2,0.5c-0.1,0.2-0.3,0.4-0.5,0.6s-0.4,0.3-0.7,0.5c-0.2,0.1-0.4,0.2-0.6,0.3
				c-0.3,0.1-0.4,0-0.5-0.3c-0.1-0.2-0.1-0.4-0.1-0.5c0-0.2,0-0.3,0-0.5l0.3-3.2c-0.3,0.3-0.7,0.6-1.2,0.7L61.3,25
				c-0.3,0.1-0.6,0.2-0.8,0.4c-0.2,0.2-0.3,0.4-0.3,0.5l-0.3,2.7c0,0.3-0.1,0.5-0.2,0.8c-0.1,0.2-0.3,0.4-0.6,0.5
				c-0.1,0-0.2,0-0.3-0.1c0-0.1,0-0.4,0-0.8l0.4-5.1c0.1-0.8,0.1-1.2,0.1-1.3c0-0.1-0.1-0.2-0.2-0.1c0,0-0.1,0-0.2,0.1
				c-0.1,0.1-0.1,0.1-0.2,0.2c-0.1,0.1-0.1,0.1-0.2,0.2c-0.1,0.1-0.1,0.1-0.1,0.1c-0.1,0-0.2,0-0.3-0.2c0-0.1,0-0.2,0.2-0.5
				c0.1-0.2,0.3-0.4,0.5-0.7c0.2-0.2,0.5-0.4,0.7-0.6C59.7,20.7,60,20.6,60.2,20.6z"/>
			<path fill="#FFFFFF" stroke="#FFFFFF" stroke-width="4" stroke-linejoin="round" stroke-miterlimit="10" d="M70.1,17.8
				c0.4-0.1,0.8-0.1,1.2-0.1c0.4,0,0.7,0.2,1,0.4c0.3,0.2,0.6,0.4,0.8,0.7c0.2,0.3,0.4,0.7,0.5,1c0.2,0.6,0.2,1.3,0.2,2
				c-0.1,0.7-0.2,1.4-0.5,2s-0.7,1.2-1.2,1.7s-1.1,0.9-1.8,1.1c-0.4,0.1-0.8,0.1-1.1,0.1c-0.4-0.1-0.7-0.2-1-0.4
				c-0.3-0.2-0.6-0.4-0.8-0.7c-0.2-0.3-0.4-0.6-0.5-1c-0.2-0.7-0.3-1.5-0.2-2.2c0.1-0.7,0.3-1.4,0.6-2.1c0.3-0.6,0.7-1.2,1.2-1.7
				C68.9,18.2,69.5,17.9,70.1,17.8z M70,18.5c-0.5,0.1-0.9,0.4-1.3,0.8c-0.3,0.4-0.6,0.8-0.8,1.4c-0.2,0.5-0.3,1.1-0.3,1.6
				c0,0.6,0.1,1.1,0.2,1.7c0.1,0.3,0.2,0.6,0.4,0.9c0.1,0.3,0.3,0.5,0.5,0.7s0.4,0.3,0.7,0.4c0.3,0.1,0.5,0.1,0.8,0
				c0.5-0.2,1-0.4,1.3-0.8s0.6-0.9,0.7-1.4c0.2-0.5,0.2-1.1,0.2-1.7s-0.1-1.1-0.2-1.7c-0.1-0.3-0.2-0.6-0.3-0.8
				c-0.1-0.3-0.3-0.5-0.5-0.7s-0.4-0.3-0.7-0.4C70.6,18.4,70.3,18.4,70,18.5z"/>
			<path fill="#FFFFFF" stroke="#FFFFFF" stroke-width="4" stroke-linejoin="round" stroke-miterlimit="10" d="M79,15.2
				c0.4-0.1,0.7,0.3,1,1.3l1.1,3.8c0.1,0.4,0.2,0.6,0.3,0.7c0.1,0.1,0.1,0.1,0.2,0.1s0.3-0.4,0.5-1.2l1.2-4c0.2-0.6,0.4-1.1,0.6-1.5
				s0.5-0.6,0.9-0.7c0.2-0.1,0.4,0,0.4,0.2c0,0.1,0,0.2,0,0.3s0,0.3,0,0.5l0.1,4.9c0,0.4,0,0.6,0,0.9c0,0.2,0,0.3,0,0.4
				s0.1,0.2,0.2,0.1c0.1,0,0.2-0.1,0.4-0.3c0.1-0.2,0.2-0.3,0.3-0.3c0.1,0,0.2,0,0.3,0.2c0,0.1,0,0.2-0.2,0.4
				c-0.1,0.2-0.3,0.4-0.5,0.6s-0.4,0.4-0.6,0.6s-0.4,0.3-0.5,0.3c-0.2,0.1-0.3,0-0.4-0.2c0-0.1,0-0.2-0.1-0.4c0-0.2,0-0.3,0-0.5
				L84,15.7h-0.1l-1.6,5.6c-0.1,0.5-0.3,1-0.5,1.3s-0.4,0.5-0.7,0.6c-0.1,0-0.2,0-0.4-0.2c-0.1-0.2-0.2-0.5-0.4-0.9
				c0-0.1-0.1-0.2-0.1-0.5c-0.1-0.2-0.1-0.5-0.2-0.9c-0.1-0.3-0.2-0.7-0.3-1.1c-0.1-0.4-0.2-0.8-0.3-1.1c-0.1-0.3-0.2-0.6-0.2-0.9
				c-0.1-0.3-0.1-0.4-0.1-0.5l0,0l-0.3,3.1c-0.1,0.7-0.1,1.3-0.3,1.8c-0.1,0.5-0.2,0.9-0.4,1.3c-0.2,0.3-0.3,0.6-0.6,0.8
				c-0.2,0.2-0.5,0.3-0.7,0.4c-0.4,0.1-0.7,0.1-1-0.1c-0.3-0.1-0.5-0.3-0.5-0.6c0-0.1,0-0.2,0-0.4c0-0.1,0.1-0.2,0.3-0.3
				c0.1,0,0.2,0,0.3,0c0.1,0.1,0.2,0.1,0.2,0.2c0.1,0.1,0.1,0.1,0.2,0.2s0.2,0.1,0.3,0c0.2,0,0.3-0.1,0.4-0.2s0.2-0.3,0.4-0.5
				c0.1-0.3,0.2-0.6,0.3-1.1c0.1-0.5,0.2-1.1,0.3-2l0.3-2.6c0-0.1,0-0.2,0-0.3c0-0.1,0-0.1,0-0.1c0-0.1-0.1-0.1-0.3-0.1
				c-0.3,0.1-0.5,0.2-0.7,0.4c-0.1,0.2-0.3,0.3-0.3,0.3c-0.1,0-0.2,0-0.3-0.2c0-0.1,0-0.2,0.2-0.5c0.1-0.2,0.3-0.4,0.6-0.7
				c0.2-0.2,0.5-0.4,0.7-0.6C78.6,15.4,78.8,15.3,79,15.2z"/>
		</g>
	</g>
	<g>
		<g>
			<g>
				<path fill="#EC1558" stroke="#EC1558" stroke-width="0.5" stroke-miterlimit="10" d="M23.2,13.5c0.1,0,0.2-0.1,0.3-0.1
					c0.1-0.1,0.2-0.1,0.3-0.2c0.1-0.1,0.2-0.1,0.2-0.2c0.1-0.1,0.2-0.1,0.2-0.1c0.1,0,0.2,0,0.2,0.1s-0.1,0.3-0.3,0.7
					c-0.2,0.4-0.4,0.6-0.5,0.6s-0.3,0.1-0.6,0.1c-0.4,0.1-0.8,0.1-1.3,0.2c-0.5,0.1-1.1,0.2-1.6,0.3c-0.6,0.1-1.2,0.2-1.7,0.3
					s-1,0.2-1.5,0.3c-0.4,0.1-0.8,0.2-1,0.2c-0.4,0.1-0.8,0.3-1.2,0.5s-0.7,0.5-1,0.9c-0.3,0.3-0.5,0.7-0.6,1.1s-0.1,0.8,0,1.3
					c0.4,1.3,1.3,1.7,2.9,1.3c0.2,0,0.2,0,0.3,0.2c0,0.2,0,0.3-0.2,0.3c-1.1,0.3-1.9,0.3-2.5,0.1c-0.6-0.2-1.1-0.8-1.3-1.6
					c-0.2-0.6-0.1-1.1,0.1-1.7c0.2-0.5,0.5-1,1-1.4c0.4-0.4,1-0.8,1.6-1.1s1.2-0.6,1.8-0.7c0.2-0.1,0.5-0.1,0.9-0.2
					c0.4-0.1,0.8-0.2,1.2-0.3c0.4-0.1,0.9-0.2,1.3-0.3c0.5-0.1,0.9-0.2,1.3-0.3s0.8-0.2,1.1-0.2C22.8,13.5,23,13.5,23.2,13.5z
					 M18.3,18.1c0-0.3,0-0.6,0-0.7s-0.1-0.1-0.1-0.1c-0.1,0-0.2,0.1-0.3,0.2c-0.1,0.1-0.2,0.2-0.2,0.2c-0.1,0-0.1,0-0.2-0.1
					c0,0,0-0.1,0.2-0.3c0.1-0.2,0.2-0.3,0.4-0.5c0.2-0.2,0.3-0.3,0.5-0.5c0.2-0.1,0.3-0.2,0.4-0.3c0.1,0,0.2,0,0.2,0.2
					c0,0.1,0,0.2,0,0.3c0,0.2,0,0.4,0,0.6L19,18.9c0.2-0.1,0.4-0.2,0.6-0.4c0.2-0.1,0.5-0.2,0.7-0.3c0.4-0.1,0.7-0.1,1.1-0.1
					s0.8,0.1,1.1,0.3c0.3,0.2,0.6,0.4,0.9,0.7c0.3,0.3,0.5,0.7,0.6,1.1c0.2,0.6,0.2,1.1,0.1,1.7s-0.3,1.1-0.6,1.6
					c-0.3,0.5-0.7,0.9-1.2,1.2c-0.5,0.3-1,0.6-1.6,0.8c-0.7,0.2-1.4,0.3-2.1,0.3c-0.6,0-1-0.1-1,0c-0.3,0.1-0.5,0-0.5-0.1
					s0-0.2,0.1-0.3c0.2-0.2,0.3-0.5,0.4-0.7s0.1-0.5,0.2-0.9l0.3-3.5c-0.2,0.2-0.4,0.4-0.5,0.6s-0.2,0.4-0.2,0.5
					c-0.1,0.2-0.1,0.3-0.1,0.4s0,0.2-0.1,0.2c0,0-0.1,0-0.2,0s-0.1,0-0.1-0.1c0-0.2,0-0.4,0-0.6c0.1-0.2,0.1-0.4,0.3-0.6
					c0.1-0.2,0.3-0.4,0.4-0.6c0.2-0.2,0.3-0.3,0.5-0.5L18.3,18.1z M18.6,23.4c0,0.1,0,0.1,0,0.2s0,0.2-0.1,0.3
					c0,0.1-0.1,0.2-0.1,0.3c0,0.1-0.1,0.2-0.1,0.3L18,24.9c0,0.1,0.4,0.2,1.1,0.2c0.3,0,0.6,0,0.9-0.1c0.3,0,0.6-0.1,0.9-0.2
					c0.5-0.1,0.9-0.3,1.2-0.6c0.4-0.3,0.6-0.6,0.8-1c0.2-0.4,0.3-0.8,0.4-1.3c0-0.5,0-1-0.2-1.5c-0.1-0.4-0.3-0.7-0.5-1
					s-0.4-0.5-0.7-0.6c-0.2-0.1-0.5-0.2-0.8-0.3c-0.3,0-0.5,0-0.8,0.1c-0.4,0.1-0.7,0.2-0.9,0.3c-0.2,0.1-0.5,0.3-0.7,0.5L18.6,23.4
					z"/>
				<path fill="#EC1558" stroke="#EC1558" stroke-width="0.5" stroke-miterlimit="10" d="M26.5,17.7c0.2,0,0.2,0,0.3,0.1
					c0,0.1,0,0.2,0,0.4c0,0.1,0,0.3,0,0.5l-0.4,3.6c0,0.2,0,0.4,0,0.6c0.1,0.2,0.2,0.3,0.4,0.2c0.2-0.1,0.4-0.2,0.6-0.3
					c0.2-0.2,0.4-0.3,0.6-0.5s0.3-0.4,0.4-0.7c0.1-0.2,0.2-0.5,0.2-0.7l0.3-3.2c0-0.1,0-0.2,0-0.2c0-0.1,0-0.1,0-0.2
					c0,0,0-0.1,0.1-0.1l0.1-0.1c0,0,0.1-0.1,0.2-0.1s0.1-0.1,0.1-0.1c0.1,0,0.2,0,0.2,0.1c0,0,0,0.2,0,0.6l-0.4,3.9
					c0,0.2,0,0.3,0,0.5c0,0.1,0,0.2,0,0.2c0,0.1,0.1,0.2,0.2,0.1c0.1,0,0.1-0.1,0.2-0.1c0.1-0.1,0.1-0.1,0.2-0.2s0.1-0.1,0.1-0.1
					l0.1-0.1c0.1,0,0.2,0,0.2,0.1s0,0.2-0.1,0.3c-0.1,0.1-0.2,0.3-0.4,0.4c-0.1,0.1-0.3,0.2-0.5,0.3c0,0-0.2,0.1-0.3,0.1
					c-0.2,0.1-0.3,0-0.3-0.2c0-0.1-0.1-0.2-0.1-0.3c0-0.1,0-0.2,0-0.4c-0.1,0.2-0.2,0.4-0.4,0.5c-0.1,0.2-0.3,0.3-0.5,0.5
					c-0.4,0.4-0.9,0.6-1.3,0.7c-0.3,0.1-0.5-0.1-0.7-0.5c-0.1-0.2-0.1-0.5,0-0.9l0.3-3.3c0-0.2,0-0.3,0-0.3c0-0.1-0.1-0.1-0.1-0.1
					s-0.1,0-0.1,0.1c-0.1,0-0.1,0.1-0.2,0.1S25.4,19,25.4,19l-0.1,0.1c-0.1,0-0.2,0-0.2-0.1s0-0.2,0.1-0.3c0.1-0.1,0.2-0.3,0.4-0.4
					c0.2-0.2,0.3-0.3,0.5-0.4C26.2,17.8,26.4,17.7,26.5,17.7z"/>
				<path fill="#EC1558" stroke="#EC1558" stroke-width="0.5" stroke-miterlimit="10" d="M35.2,15.9c0.2-0.3,0.4-0.5,0.7-0.7
					c0.2-0.2,0.5-0.3,0.7-0.4c0.1,0,0.2,0,0.4,0s0.3,0.1,0.5,0.2c0.2,0.1,0.3,0.2,0.4,0.4c0.1,0.2,0.2,0.4,0.3,0.6
					c0.1,0.5,0.2,1,0.1,1.5c-0.1,0.6-0.2,1.1-0.4,1.6s-0.5,1-0.9,1.3c-0.3,0.4-0.7,0.6-1.2,0.8c-0.2,0.1-0.4,0.1-0.5,0
					c-0.2,0-0.3-0.1-0.4-0.2l-0.1,1.1c-0.2,1.8-0.7,2.8-1.5,3c-0.2,0.1-0.3,0-0.3,0c0-0.2,0-0.3,0.2-0.3c0.1,0,0.3-0.2,0.4-0.4
					c0.1-0.2,0.2-0.4,0.3-0.7c0.1-0.3,0.1-0.5,0.2-0.8c0-0.3,0.1-0.5,0.1-0.7V21c-0.4,0.5-0.9,0.9-1.4,1c-0.1,0-0.2,0-0.4,0
					s-0.3-0.1-0.5-0.2s-0.3-0.2-0.4-0.4c-0.1-0.2-0.2-0.4-0.3-0.6C31,20.5,31,20,31,19.5c0.1-0.6,0.2-1.1,0.4-1.6
					c0.2-0.5,0.5-1,0.8-1.4c0.4-0.4,0.8-0.7,1.2-0.8c0.1,0,0.3-0.1,0.4,0c0.1,0,0.3,0,0.4,0.1l0.1-3.2c0-0.6,0-0.9,0-0.9
					c0-0.1-0.1-0.1-0.1-0.1s-0.1,0-0.1,0.1L34,11.8l-0.1,0.1L33.8,12c-0.1,0-0.2,0-0.2-0.1s0-0.2,0.1-0.3s0.2-0.3,0.4-0.4
					c0.2-0.2,0.3-0.3,0.5-0.4c0.2-0.1,0.3-0.2,0.5-0.2s0.2,0,0.3,0.1c0,0.1,0,1-0.1,2.8c0,0.4,0,0.8,0,1.1s0,0.6,0,0.8s0,0.3,0,0.5
					C35.3,15.8,35.2,15.8,35.2,15.9z M34.2,16.7c-0.1-0.3-0.2-0.4-0.3-0.5c-0.1,0-0.3-0.1-0.4,0c-0.3,0.1-0.6,0.3-0.8,0.5
					c-0.3,0.3-0.5,0.6-0.6,1c-0.2,0.4-0.3,0.9-0.3,1.4s0,1,0.2,1.6c0.1,0.3,0.2,0.5,0.3,0.6c0.2,0.1,0.4,0.1,0.7,0s0.5-0.2,0.7-0.4
					c0.2-0.2,0.3-0.5,0.4-0.8c0.1-0.3,0.2-0.6,0.2-1c0-0.3,0.1-0.7,0.1-1s0-0.6,0-0.9C34.3,17,34.3,16.8,34.2,16.7z M35.1,20.3
					c0.1,0.3,0.2,0.4,0.3,0.5c0.1,0,0.3,0.1,0.4,0c0.3-0.1,0.6-0.3,0.9-0.6c0.3-0.3,0.5-0.6,0.6-1.1c0.1-0.4,0.2-0.9,0.2-1.4
					s0-1-0.2-1.5c-0.1-0.3-0.2-0.5-0.4-0.6s-0.4-0.1-0.6,0c-0.3,0.1-0.5,0.2-0.6,0.4c-0.2,0.2-0.3,0.5-0.4,0.8
					c-0.1,0.3-0.2,0.6-0.2,1c0,0.3-0.1,0.7-0.1,1s0,0.6,0,0.8C35,20,35.1,20.2,35.1,20.3z"/>
				<path fill="#EC1558" stroke="#EC1558" stroke-width="0.5" stroke-miterlimit="10" d="M40.6,13.8c0.2,0,0.2,0,0.3,0.1
					c0,0.1,0,0.2,0,0.4c0,0.1,0,0.3,0,0.5l-0.4,3.6c0,0.2,0,0.5,0,0.6c0.1,0.2,0.2,0.3,0.4,0.2c0.2-0.1,0.4-0.2,0.6-0.3
					c0.2-0.2,0.4-0.3,0.6-0.5c0.2-0.2,0.3-0.4,0.4-0.7c0.1-0.2,0.2-0.5,0.2-0.7l0.3-3.2c0-0.1,0-0.2,0-0.2c0-0.1,0-0.1,0-0.2
					c0,0,0-0.1,0.1-0.1l0.1-0.1c0,0,0.1-0.1,0.2-0.1c0.1,0,0.1-0.1,0.1-0.1c0.1,0,0.2,0,0.2,0.1c0,0,0,0.2,0,0.6l-0.4,3.9
					c0,0.2,0,0.3,0,0.5c0,0.1,0,0.2,0,0.2c0,0.1,0.1,0.2,0.2,0.1c0.1,0,0.1-0.1,0.2-0.1c0.1-0.1,0.1-0.1,0.2-0.2
					C44,18,44,18,44.1,17.9l0.1-0.1c0.1,0,0.2,0,0.2,0.1s0,0.2-0.1,0.3c-0.1,0.1-0.2,0.3-0.4,0.4s-0.3,0.2-0.5,0.3
					c-0.2,0.1-0.3,0.2-0.4,0.2c-0.2,0-0.3,0-0.3-0.2c0-0.1-0.1-0.2-0.1-0.4c0-0.1,0-0.2,0-0.4c-0.1,0.2-0.2,0.4-0.4,0.5
					c-0.1,0.2-0.3,0.3-0.5,0.5c-0.4,0.4-0.9,0.6-1.3,0.7c-0.3,0.1-0.5-0.1-0.7-0.5c-0.1-0.2-0.1-0.5,0-0.9l0.3-3.3
					c0-0.2,0-0.3,0-0.3c0-0.1-0.1-0.1-0.1-0.1s-0.1,0-0.1,0.1c-0.1,0-0.1,0.1-0.2,0.1c-0.1,0-0.1,0.1-0.1,0.1l-0.1,0.1
					c-0.1,0-0.2,0-0.2-0.1s0-0.2,0.1-0.3s0.2-0.3,0.4-0.4c0.2-0.2,0.3-0.3,0.5-0.4C40.3,13.9,40.4,13.8,40.6,13.8z"/>
				<path fill="#EC1558" stroke="#EC1558" stroke-width="0.5" stroke-miterlimit="10" d="M49.3,12c0.2-0.3,0.4-0.5,0.7-0.7
					c0.2-0.2,0.5-0.3,0.7-0.4c0.1,0,0.2,0,0.4,0s0.3,0.1,0.5,0.2c0.2,0.1,0.3,0.2,0.4,0.4c0.1,0.2,0.2,0.4,0.3,0.6
					c0.1,0.5,0.2,1,0.1,1.5c-0.1,0.6-0.2,1.1-0.4,1.6s-0.5,1-0.9,1.3c-0.4,0.4-0.7,0.6-1.2,0.8c-0.2,0.1-0.4,0.1-0.5,0
					c-0.2,0-0.3-0.1-0.4-0.2l-0.1,1.1c-0.2,1.8-0.7,2.8-1.5,3c-0.2,0.1-0.3,0-0.3-0.1c0-0.2,0-0.3,0.2-0.3c0.1,0,0.3-0.2,0.4-0.4
					c0.1-0.2,0.2-0.4,0.3-0.7c0.1-0.3,0.1-0.5,0.2-0.8c0-0.3,0.1-0.5,0.1-0.7V17c-0.4,0.5-0.9,0.9-1.4,1c-0.1,0-0.2,0-0.4,0
					s-0.3-0.1-0.5-0.2s-0.3-0.2-0.4-0.4c-0.1-0.2-0.2-0.4-0.3-0.6c-0.1-0.4-0.1-0.9-0.1-1.5c0.1-0.6,0.2-1.1,0.4-1.6s0.5-1,0.8-1.4
					c0.4-0.4,0.8-0.7,1.2-0.8c0.1,0,0.3-0.1,0.4,0c0.1,0,0.3,0,0.4,0.1l0.1-3.2c0-0.6,0-0.9,0-0.9c0-0.1-0.1-0.1-0.1-0.1
					s-0.1,0-0.1,0.1l-0.1,0.1C48.1,7.9,48,8,48,8l-0.1,0.1c-0.1,0-0.2,0-0.2-0.1c0-0.1,0-0.2,0.1-0.3c0.1-0.1,0.2-0.3,0.4-0.4
					c0.2-0.2,0.3-0.3,0.5-0.4s0.3-0.2,0.4-0.2c0.2,0,0.2,0,0.3,0.1c0,0.1,0,1-0.1,2.8c0,0.4,0,0.8,0,1.1s0,0.6,0,0.8
					S49.3,11.9,49.3,12C49.3,11.9,49.3,12,49.3,12z M48.3,12.8c-0.1-0.3-0.2-0.4-0.3-0.5c-0.1,0-0.3-0.1-0.4,0
					c-0.3,0.1-0.6,0.3-0.8,0.5c-0.3,0.3-0.5,0.6-0.6,1c-0.2,0.4-0.3,0.9-0.3,1.4s0,1,0.2,1.6c0.1,0.3,0.2,0.5,0.3,0.6s0.4,0.1,0.7,0
					s0.5-0.2,0.7-0.4c0.2-0.2,0.3-0.5,0.4-0.8c0.1-0.3,0.2-0.6,0.2-1c0-0.3,0.1-0.7,0.1-1s0-0.6,0-0.9C48.4,13.2,48.4,13,48.3,12.8z
					 M49.2,16.4c0.1,0.3,0.2,0.4,0.3,0.5c0.1,0,0.3,0.1,0.4,0c0.3-0.1,0.6-0.3,0.9-0.6c0.3-0.3,0.5-0.6,0.6-1.1
					c0.1-0.4,0.2-0.9,0.2-1.4s0-1-0.2-1.5c-0.1-0.3-0.2-0.5-0.4-0.6s-0.4-0.1-0.6,0c-0.3,0.1-0.5,0.2-0.6,0.4
					c-0.2,0.2-0.3,0.5-0.4,0.8c-0.1,0.3-0.2,0.6-0.2,1c0,0.3-0.1,0.7-0.1,1s0,0.6,0,0.8C49.1,16.1,49.2,16.3,49.2,16.4z"/>
				<path fill="#EC1558" stroke="#EC1558" stroke-width="0.5" stroke-miterlimit="10" d="M54.9,10.9c0.4-0.8,1-1.3,1.7-1.5
					s1.2,0.2,1.5,1.1c0.1,0.3,0.1,0.6,0.1,0.9c0,0.3-0.1,0.7-0.1,1.1c-0.1,0.4-0.2,0.7-0.3,1.1c-0.1,0.4-0.3,0.7-0.5,1
					s-0.5,0.6-0.7,0.8c-0.3,0.2-0.6,0.4-0.9,0.5c-0.5,0.1-0.8,0.1-1-0.1l-0.1,1.1c-0.1,0.9-0.3,1.6-0.5,2.1s-0.5,0.8-0.9,0.9
					c-0.2,0.1-0.3,0-0.3,0c0-0.2,0-0.3,0.2-0.3c0.2-0.1,0.4-0.3,0.6-0.8c0.1-0.4,0.2-1.1,0.3-1.8l0.3-4.8c0-0.3,0-0.5,0-0.6
					s0-0.2,0-0.3s-0.1-0.1-0.1-0.1c-0.1,0-0.2,0.1-0.3,0.2c-0.1,0.1-0.2,0.2-0.2,0.2c-0.1,0-0.2,0-0.2-0.1s0-0.2,0.1-0.3
					c0.1-0.2,0.2-0.3,0.4-0.5s0.3-0.3,0.5-0.4c0.2-0.1,0.3-0.2,0.5-0.2c0.1,0,0.2,0,0.3,0.1c0,0.1,0,0.2,0,0.3
					C55,10.6,54.9,10.7,54.9,10.9L54.9,10.9z M56.3,10.2c-0.4,0.1-0.7,0.3-0.9,0.7s-0.4,0.8-0.5,1.2c-0.1,0.5-0.2,0.9-0.2,1.4
					s0,0.9,0.1,1.2c0.2,0.6,0.5,0.8,0.9,0.7c0.3-0.1,0.5-0.3,0.8-0.6c0.2-0.3,0.4-0.7,0.6-1.1c0.2-0.4,0.3-0.9,0.3-1.4s0-1-0.1-1.4
					C57.1,10.3,56.8,10,56.3,10.2z"/>
				<path fill="#EC1558" stroke="#EC1558" stroke-width="0.5" stroke-miterlimit="10" d="M60.7,8.2c0.2,0,0.2,0,0.3,0.1
					c0,0.1,0,0.2,0,0.4c0,0.1,0,0.3,0,0.5l-0.4,3.6c0,0.2,0,0.4,0,0.6c0.1,0.2,0.2,0.3,0.4,0.2c0.3-0.1,0.5-0.2,0.7-0.4
					s0.4-0.4,0.6-0.7c0.2-0.3,0.3-0.5,0.4-0.8c0.1-0.3,0.2-0.6,0.2-0.8l0.3-2.6c0-0.2,0-0.3,0.1-0.4c0-0.1,0.1-0.2,0.2-0.3
					c0.1-0.1,0.2-0.2,0.3-0.2s0.2,0,0.2,0.1c0,0,0,0.2,0,0.6l-0.4,4.3c-0.1,0.7-0.1,1.3-0.2,1.9c-0.1,0.6-0.2,1.1-0.3,1.5
					c-0.2,0.5-0.4,0.8-0.6,1.1c-0.3,0.3-0.6,0.5-1,0.6c-0.1,0-0.3,0-0.5,0s-0.4,0-0.6-0.1c-0.2,0-0.4-0.1-0.5-0.2
					c-0.2-0.1-0.3-0.2-0.3-0.3c-0.1-0.3,0-0.4,0.3-0.5c0.1,0,0.2,0,0.3,0.1s0.2,0.2,0.3,0.3c0.1,0.1,0.3,0.2,0.4,0.2
					c0.2,0.1,0.3,0.1,0.5,0c0.3-0.1,0.5-0.2,0.7-0.4c0.2-0.2,0.3-0.5,0.4-0.9c0.1-0.4,0.2-0.8,0.2-1.3s0.1-1.1,0.1-1.8l0,0
					c-0.1,0.2-0.3,0.4-0.5,0.6c-0.2,0.2-0.4,0.4-0.6,0.5c-0.2,0.2-0.4,0.3-0.6,0.4c-0.2,0.1-0.4,0.2-0.6,0.2
					c-0.3,0.1-0.6-0.1-0.7-0.5c-0.1-0.2-0.1-0.5,0-0.9l0.3-3.3c0-0.1,0-0.2,0-0.3S60,9.2,60,9.2s-0.1,0-0.1,0.1
					c-0.1,0-0.1,0.1-0.2,0.1c-0.1,0-0.1,0.1-0.1,0.1l-0.1,0.1c-0.1,0-0.2,0-0.2-0.1s0-0.2,0.1-0.3s0.2-0.3,0.4-0.5s0.3-0.3,0.5-0.4
					C60.5,8.4,60.6,8.3,60.7,8.2z"/>
				<path fill="#EC1558" stroke="#EC1558" stroke-width="0.5" stroke-miterlimit="10" d="M66.6,6.6c0.2,0,0.2,0,0.3,0.1
					c0.1,0.2,0,0.5,0,0.8c0.1-0.1,0.2-0.3,0.3-0.4c0.2-0.2,0.4-0.3,0.6-0.5s0.4-0.3,0.7-0.5c0.2,0,0.5-0.1,0.7-0.2s0.4,0,0.4,0.1
					s0,0.2,0,0.4c0.5-0.5,1.1-0.9,1.6-1.1c0.4-0.1,0.6,0.1,0.7,0.5C72,6,72,6.3,71.9,6.7L71.6,10c0,0.3,0,0.4,0,0.5s0.1,0.2,0.2,0.1
					c0,0,0.1,0,0.1-0.1c0.1-0.1,0.1-0.1,0.2-0.2c0.1-0.1,0.1-0.1,0.2-0.2c0.1-0.1,0.1-0.1,0.1-0.1c0.1,0,0.1,0,0.2,0.1
					c0,0.1,0,0.2-0.1,0.3s-0.2,0.2-0.3,0.4c-0.1,0.1-0.3,0.2-0.4,0.3c-0.2,0.1-0.3,0.2-0.4,0.2c-0.2,0.1-0.4,0-0.4-0.2
					c0-0.1,0-0.4,0-0.9L71.1,7c0-0.3,0-0.5,0-0.6c-0.1-0.2-0.2-0.3-0.4-0.2c-0.2,0.1-0.4,0.1-0.6,0.3c-0.2,0.1-0.4,0.3-0.6,0.6
					L69,11.3c0,0.2-0.1,0.4-0.2,0.5c-0.1,0.2-0.2,0.3-0.4,0.3c-0.1,0-0.2,0-0.2-0.1c0,0,0-0.1,0-0.2c0-0.1,0-0.2,0-0.4L68.6,8
					c0.1-0.7,0.1-1,0.1-1c0-0.1-0.1-0.2-0.3-0.1c-0.2,0.1-0.5,0.3-0.9,0.7C67,8,66.8,8.5,66.7,9l-0.3,3c0,0.2-0.1,0.4-0.2,0.5
					c-0.1,0.2-0.2,0.3-0.4,0.3c-0.1,0-0.1,0-0.2-0.1c0,0,0-0.1,0-0.2c0-0.1,0-0.2,0-0.4L66,8.8c0-0.5,0.1-0.8,0-0.9
					c0-0.1-0.1-0.1-0.1-0.1s-0.1,0-0.1,0.1L65.7,8l-0.1,0.1l-0.1,0.1c-0.1,0-0.2,0-0.2-0.1s0-0.2,0.1-0.3c0.1-0.1,0.2-0.3,0.4-0.5
					c0-0.2,0.2-0.3,0.4-0.4C66.4,6.7,66.5,6.7,66.6,6.6z"/>
			</g>
		</g>
		<g>
			<path fill="#EC1558" stroke="#EC1558" stroke-width="0.5" stroke-miterlimit="10" d="M6.8,35.7c0.2-0.1,0.5-0.1,0.7-0.2
				c0.3,0,0.5-0.1,0.7-0.1s0.4,0,0.6,0.1c0.2,0.1,0.3,0.2,0.3,0.3c0.1,0.4,0,0.7-0.3,0.8s-0.6,0-0.8-0.2c-0.3-0.2-0.7-0.3-1.3-0.1
				c-0.5,0.2-0.9,0.4-1.3,0.8c-0.3,0.4-0.6,0.9-0.7,1.4c-0.2,0.5-0.2,1.1-0.2,1.7c0,0.6,0.1,1.1,0.2,1.6c0.1,0.3,0.2,0.6,0.4,0.9
				c0.1,0.3,0.3,0.5,0.5,0.7s0.4,0.3,0.7,0.4c0.3,0.1,0.5,0.1,0.9,0c0.2-0.1,0.4-0.1,0.5-0.3c0.2-0.1,0.4-0.3,0.5-0.4
				c0.2-0.2,0.3-0.3,0.4-0.5c0.1-0.2,0.2-0.4,0.2-0.6c0.1-0.4,0.2-0.7,0.4-0.7c0.1,0,0.2,0,0.2,0.2c0.1,0.2,0.1,0.5,0,0.8
				s-0.2,0.6-0.5,0.9c-0.2,0.3-0.5,0.6-0.8,0.8c-0.3,0.3-0.7,0.5-1.2,0.6c-0.4,0.1-0.7,0.1-1.1,0.1c-0.4-0.1-0.7-0.2-1-0.4
				S4.2,43.9,4,43.6s-0.4-0.6-0.5-1c-0.2-0.7-0.3-1.4-0.2-2.2c0.1-0.7,0.3-1.4,0.6-2.1c0.3-0.6,0.7-1.2,1.2-1.7
				C5.7,36.2,6.3,35.8,6.8,35.7z"/>
			<path fill="#EC1558" stroke="#EC1558" stroke-width="0.5" stroke-miterlimit="10" d="M17.7,32.9c0.1,0.3,0.1,0.7,0,1.2
				c0.2-0.3,0.4-0.6,0.7-0.8c0.3-0.3,0.5-0.5,0.8-0.7s0.6-0.4,0.8-0.5c0.3-0.1,0.5-0.2,0.7-0.3c0.5-0.1,0.8,0.1,1,0.6
				c0.1,0.3,0.1,0.8,0,1.3l-0.5,4.9c0,0.3,0,0.5,0,0.5c0,0.2,0.1,0.2,0.3,0.2c0,0,0.1-0.1,0.2-0.1c0.1-0.1,0.2-0.2,0.3-0.2
				c0.1-0.1,0.2-0.1,0.3-0.2c0.1-0.1,0.1-0.1,0.2-0.1s0.2,0,0.2,0.2c0,0.1,0,0.3-0.1,0.4c-0.1,0.2-0.3,0.4-0.5,0.5
				c-0.2,0.2-0.4,0.3-0.6,0.5c-0.2,0.1-0.4,0.2-0.5,0.3c-0.3,0.1-0.5,0-0.6-0.3c-0.1-0.2-0.1-0.6,0-1.3l0.3-4.7c0-0.4,0-0.7,0-0.9
				C20.5,33,20.3,32.9,20,33s-0.6,0.2-0.8,0.5c-0.3,0.2-0.6,0.5-0.8,0.8c-0.2,0.3-0.4,0.6-0.6,1c-0.2,0.3-0.3,0.7-0.3,1L17,40.6
				c0,0.2-0.1,0.4-0.1,0.6c-0.1,0.3-0.3,0.5-0.7,0.6c-0.1,0-0.2,0-0.3-0.1c0-0.1,0-0.4,0-0.8l0.4-5.1c0.1-0.8,0.1-1.2,0.1-1.3
				s-0.1-0.2-0.2-0.1c-0.1,0-0.2,0.1-0.4,0.3c-0.1,0.2-0.2,0.3-0.3,0.3s-0.2,0-0.3-0.2c0-0.1,0-0.2,0.2-0.5c0.1-0.2,0.3-0.4,0.5-0.7
				c0.2-0.2,0.5-0.4,0.7-0.6c0.3-0.2,0.5-0.3,0.7-0.4C17.5,32.6,17.7,32.7,17.7,32.9z"/>
			<path fill="#EC1558" stroke="#EC1558" stroke-width="0.5" stroke-miterlimit="10" d="M24.9,37c0.4,1.1,1.1,1.4,2.1,1.2
				c0.9-0.3,1.6-0.8,2.1-1.6c0.2-0.3,0.3-0.4,0.3-0.4c0.1,0,0.2,0,0.3,0.2c0,0.1,0,0.3-0.1,0.5c-0.5,1-1.4,1.7-2.7,2.1
				c-0.9,0.2-1.6,0.2-2.2-0.2s-1-1-1.2-1.8c-0.2-0.7-0.2-1.4-0.2-2.1c0.1-0.7,0.3-1.4,0.5-2.1c0.3-0.6,0.7-1.2,1.2-1.7s1-0.8,1.7-1
				c1.2-0.3,2,0,2.3,1.1c0.2,0.5,0.1,1.1,0,1.7c-0.2,0.6-0.4,1.2-0.8,1.7s-0.9,1-1.4,1.5C26.2,36.5,25.5,36.8,24.9,37z M26.2,35.8
				c0.5-0.3,0.9-0.7,1.2-1.1c0.3-0.4,0.5-0.9,0.6-1.4s0.1-1,0-1.5c-0.2-0.8-0.7-1.2-1.3-1c-0.5,0.1-0.9,0.4-1.3,0.8
				C25,32,24.8,32.5,24.6,33c-0.2,0.5-0.2,1.1-0.2,1.7c0,0.6,0.1,1.1,0.2,1.6v0.2C25.2,36.3,25.7,36.1,26.2,35.8z"/>
			<path fill="#EC1558" stroke="#EC1558" stroke-width="0.5" stroke-miterlimit="10" d="M32.2,34.4l-0.1,1.8c0,0.2-0.1,0.5-0.2,0.7
				c-0.1,0.2-0.3,0.4-0.6,0.5c-0.1,0-0.2,0-0.3-0.1c0,0,0-0.1,0-0.3s0-0.3,0-0.5l0.4-5c0-0.6,0-1,0-1.3c0-0.1-0.1-0.2-0.3-0.1
				c-0.1,0-0.2,0.1-0.4,0.3c-0.1,0.2-0.2,0.3-0.3,0.3c-0.2,0-0.2,0-0.3-0.2c0-0.1,0-0.3,0.2-0.5s0.3-0.4,0.6-0.7
				c0.2-0.2,0.5-0.4,0.7-0.6s0.4-0.3,0.5-0.3c0.2-0.1,0.4,0,0.4,0.2c0,0.1,0,0.4,0,0.7l-0.3,3.8l2.5-3.9c0.9-1.3,1.6-2.1,2.2-2.3
				c0.4-0.1,0.6,0,0.7,0.3c0.1,0.2,0,0.4-0.2,0.5s-0.3,0.1-0.5,0.2c-0.2,0-0.3,0.1-0.5,0.2c-0.3,0.1-0.5,0.3-0.7,0.6
				c-0.2,0.2-0.4,0.5-0.6,0.8L34,31.3l2.4,2.8c0.3,0.3,0.5,0.5,0.7,0.4c0.1,0,0.1-0.1,0.2-0.1c0.1-0.1,0.1-0.1,0.2-0.2
				c0.1-0.1,0.1-0.2,0.2-0.2c0-0.1,0.1-0.1,0.2-0.1c0.2,0,0.3,0,0.3,0.3c0,0.1,0,0.2-0.1,0.4s-0.2,0.3-0.4,0.5
				c-0.1,0.2-0.3,0.3-0.5,0.5c-0.2,0.1-0.3,0.2-0.5,0.3c-0.3,0.1-0.6-0.1-0.9-0.5l-2.4-3L32.2,34.4z"/>
			<path fill="#EC1558" stroke="#EC1558" stroke-width="0.5" stroke-miterlimit="10" d="M40.7,26.1c0.2-0.1,0.4,0,0.4,0.2
				c0.1,0.3,0.1,0.7,0,1.2c0.1-0.2,0.2-0.4,0.5-0.6c0.2-0.2,0.5-0.5,0.8-0.7s0.6-0.5,1-0.7c0.3-0.2,0.7-0.3,0.9-0.4
				c0.3-0.1,0.5-0.1,0.6,0.1c0,0.1,0.1,0.3,0,0.6c0.7-0.8,1.5-1.3,2.4-1.6c0.5-0.1,0.8,0.1,1,0.6c0.1,0.3,0.1,0.8,0,1.3l-0.5,4.8
				c0,0.4-0.1,0.6,0,0.7c0,0.2,0.2,0.2,0.3,0.2s0.1-0.1,0.2-0.1c0.1-0.1,0.2-0.2,0.3-0.2c0.1-0.1,0.2-0.2,0.3-0.2
				c0.1-0.1,0.1-0.1,0.2-0.1c0.1,0,0.2,0,0.2,0.2c0,0.1,0,0.2-0.1,0.4s-0.3,0.3-0.4,0.5c-0.2,0.2-0.4,0.3-0.6,0.5
				c-0.2,0.2-0.4,0.3-0.6,0.3c-0.3,0.1-0.5,0-0.6-0.3c-0.1-0.2-0.1-0.6,0-1.3l0.3-4.7c0-0.4,0-0.7,0-0.9c-0.1-0.3-0.3-0.4-0.6-0.3
				s-0.6,0.2-0.8,0.4c-0.3,0.2-0.6,0.5-0.9,0.9L44.4,33c0,0.3-0.1,0.5-0.2,0.7c-0.1,0.2-0.3,0.4-0.6,0.5c-0.1,0-0.2,0-0.3-0.1
				c0,0,0-0.1,0-0.3c0-0.1,0-0.3,0-0.6l0.4-5.1c0.1-1,0.1-1.5,0.1-1.5c-0.1-0.2-0.2-0.3-0.4-0.2c-0.3,0.1-0.7,0.4-1.3,1
				c-0.7,0.7-1,1.5-1.1,2.2L40.6,34c0,0.3-0.1,0.5-0.2,0.7c-0.1,0.2-0.3,0.4-0.6,0.5c-0.1,0-0.2,0-0.2-0.1c0,0,0-0.1,0-0.3
				c0-0.1,0-0.3,0-0.6l0.4-5.1c0.1-0.8,0.1-1.2,0.1-1.3c0-0.1-0.1-0.2-0.2-0.1c-0.1,0-0.1,0.1-0.2,0.1c-0.1,0.1-0.1,0.1-0.2,0.2
				c-0.1,0.1-0.1,0.1-0.2,0.2c-0.1,0.1-0.1,0.1-0.1,0.1c-0.1,0-0.2,0-0.3-0.2c0-0.1,0-0.2,0.2-0.5c0.1-0.2,0.3-0.4,0.6-0.7
				c0.2-0.2,0.5-0.4,0.7-0.6C40.2,26.3,40.5,26.1,40.7,26.1z"/>
			<path fill="#EC1558" stroke="#EC1558" stroke-width="0.5" stroke-miterlimit="10" d="M51.8,22.9c0.2-0.1,0.4,0,0.4,0.2
				c0,0.1,0.1,0.3,0,0.5c0,0.2,0,0.4-0.1,0.7l-0.5,5.2c0,0.4,0,0.7,0,0.9c0.1,0.3,0.3,0.4,0.6,0.3s0.6-0.2,0.9-0.5
				c0.3-0.2,0.6-0.5,0.8-0.8s0.5-0.6,0.6-1c0.2-0.3,0.3-0.7,0.3-1l0.5-4.6c0-0.1,0-0.2,0-0.3c0-0.1,0-0.2,0.1-0.2
				c0,0,0.1-0.1,0.1-0.2c0.1-0.1,0.1-0.1,0.2-0.2c0.1-0.1,0.1-0.1,0.2-0.2c0.1-0.1,0.1-0.1,0.2-0.1c0.2,0,0.2,0,0.3,0.1
				c0,0.1,0,0.3,0,0.8l-0.5,5.7c0,0.3,0,0.5,0,0.7c0,0.1,0,0.2,0,0.3c0,0.2,0.1,0.2,0.3,0.2c0.1,0,0.2-0.1,0.3-0.2s0.2-0.2,0.3-0.2
				c0.1-0.1,0.2-0.1,0.2-0.2c0.1-0.1,0.1-0.1,0.2-0.1c0.1,0,0.2,0,0.3,0.1c0,0.1,0,0.3-0.2,0.5c-0.1,0.2-0.3,0.4-0.5,0.5
				c-0.2,0.2-0.4,0.3-0.7,0.5c-0.2,0.1-0.4,0.2-0.6,0.3c-0.3,0.1-0.4,0-0.5-0.3c-0.1-0.2-0.1-0.4-0.1-0.5s0-0.3,0-0.5
				c-0.2,0.3-0.3,0.5-0.5,0.8s-0.5,0.5-0.8,0.8c-0.6,0.5-1.3,0.9-1.9,1.1c-0.5,0.1-0.8-0.1-1-0.7c-0.1-0.3-0.1-0.8-0.1-1.3l0.4-4.8
				c0-0.2,0-0.4,0-0.4c0-0.1-0.1-0.2-0.2-0.1c0,0-0.1,0-0.2,0.1c-0.1,0.1-0.2,0.1-0.2,0.2c-0.1,0.1-0.1,0.1-0.2,0.2
				c-0.2,0-0.2,0-0.2,0c-0.2,0-0.2,0-0.3-0.2c0-0.1,0-0.3,0.2-0.5s0.3-0.4,0.6-0.6c0.2-0.2,0.5-0.4,0.7-0.6
				C51.4,23.1,51.6,23,51.8,22.9z"/>
			<path fill="#EC1558" stroke="#EC1558" stroke-width="0.5" stroke-miterlimit="10" d="M60.2,20.6c0.2-0.1,0.4,0,0.4,0.2
				c0,0.1,0.1,0.3,0,0.5c0,0.2,0,0.4-0.1,0.7l-0.3,2.6c0.1-0.2,0.3-0.3,0.4-0.4c0.2-0.1,0.4-0.2,0.6-0.3l1.1-0.3
				c0.3-0.1,0.5-0.2,0.7-0.3c0.2-0.1,0.3-0.3,0.3-0.5l0.2-2.2c0-0.3,0.1-0.4,0.1-0.5s0.1-0.2,0.1-0.2c0.1-0.1,0.2-0.2,0.3-0.3
				c0.1-0.1,0.2-0.2,0.3-0.2c0.1,0,0.2,0,0.3,0.1c0,0.1,0,0.3,0,0.8L64.2,26c0,0.2,0,0.4,0,0.6s0,0.3,0,0.3c0,0.2,0.1,0.2,0.3,0.2
				c0.1,0,0.2-0.1,0.3-0.1c0.1-0.1,0.2-0.2,0.3-0.2c0.1-0.1,0.2-0.2,0.2-0.2c0.1-0.1,0.1-0.1,0.1-0.1c0.1,0,0.2,0,0.3,0.1
				c0,0.1,0,0.3-0.2,0.5c-0.1,0.2-0.3,0.4-0.5,0.6s-0.4,0.3-0.7,0.5c-0.2,0.1-0.4,0.2-0.6,0.3c-0.3,0.1-0.4,0-0.5-0.3
				c-0.1-0.2-0.1-0.4-0.1-0.5c0-0.2,0-0.3,0-0.5l0.3-3.2c-0.3,0.3-0.7,0.6-1.2,0.7L61.3,25c-0.3,0.1-0.6,0.2-0.8,0.4
				c-0.2,0.2-0.3,0.4-0.3,0.5l-0.3,2.7c0,0.3-0.1,0.5-0.2,0.8c-0.1,0.2-0.3,0.4-0.6,0.5c-0.1,0-0.2,0-0.3-0.1c0-0.1,0-0.4,0-0.8
				l0.4-5.1c0.1-0.8,0.1-1.2,0.1-1.3c0-0.1-0.1-0.2-0.2-0.1c0,0-0.1,0-0.2,0.1c-0.1,0.1-0.1,0.1-0.2,0.2c-0.1,0.1-0.1,0.1-0.2,0.2
				c-0.1,0.1-0.1,0.1-0.1,0.1c-0.1,0-0.2,0-0.3-0.2c0-0.1,0-0.2,0.2-0.5c0.1-0.2,0.3-0.4,0.5-0.7c0.2-0.2,0.5-0.4,0.7-0.6
				C59.7,20.7,60,20.6,60.2,20.6z"/>
			<path fill="#EC1558" stroke="#EC1558" stroke-width="0.5" stroke-miterlimit="10" d="M70.1,17.8c0.4-0.1,0.8-0.1,1.2-0.1
				c0.4,0,0.7,0.2,1,0.4c0.3,0.2,0.6,0.4,0.8,0.7c0.2,0.3,0.4,0.7,0.5,1c0.2,0.6,0.2,1.3,0.2,2c-0.1,0.7-0.2,1.4-0.5,2
				s-0.7,1.2-1.2,1.7s-1.1,0.9-1.8,1.1c-0.4,0.1-0.8,0.1-1.1,0.1c-0.4-0.1-0.7-0.2-1-0.4c-0.3-0.2-0.6-0.4-0.8-0.7
				c-0.2-0.3-0.4-0.6-0.5-1c-0.2-0.7-0.3-1.5-0.2-2.2c0.1-0.7,0.3-1.4,0.6-2.1c0.3-0.6,0.7-1.2,1.2-1.7
				C68.9,18.2,69.5,17.9,70.1,17.8z M70,18.5c-0.5,0.1-0.9,0.4-1.3,0.8c-0.3,0.4-0.6,0.8-0.8,1.4c-0.2,0.5-0.3,1.1-0.3,1.6
				c0,0.6,0.1,1.1,0.2,1.7c0.1,0.3,0.2,0.6,0.4,0.9c0.1,0.3,0.3,0.5,0.5,0.7s0.4,0.3,0.7,0.4c0.3,0.1,0.5,0.1,0.8,0
				c0.5-0.2,1-0.4,1.3-0.8s0.6-0.9,0.7-1.4c0.2-0.5,0.2-1.1,0.2-1.7s-0.1-1.1-0.2-1.7c-0.1-0.3-0.2-0.6-0.3-0.8
				c-0.1-0.3-0.3-0.5-0.5-0.7s-0.4-0.3-0.7-0.4C70.6,18.4,70.3,18.4,70,18.5z"/>
			<path fill="#EC1558" stroke="#EC1558" stroke-width="0.5" stroke-miterlimit="10" d="M79,15.2c0.4-0.1,0.7,0.3,1,1.3l1.1,3.8
				c0.1,0.4,0.2,0.6,0.3,0.7c0.1,0.1,0.1,0.1,0.2,0.1s0.3-0.4,0.5-1.2l1.2-4c0.2-0.6,0.4-1.1,0.6-1.5s0.5-0.6,0.9-0.7
				c0.2-0.1,0.4,0,0.4,0.2c0,0.1,0,0.2,0,0.3s0,0.3,0,0.5l0.1,4.9c0,0.4,0,0.6,0,0.9c0,0.2,0,0.3,0,0.4s0.1,0.2,0.2,0.1
				c0.1,0,0.2-0.1,0.4-0.3c0.1-0.2,0.2-0.3,0.3-0.3c0.1,0,0.2,0,0.3,0.2c0,0.1,0,0.2-0.2,0.4c-0.1,0.2-0.3,0.4-0.5,0.6
				s-0.4,0.4-0.6,0.6s-0.4,0.3-0.5,0.3c-0.2,0.1-0.3,0-0.4-0.2c0-0.1,0-0.2-0.1-0.4c0-0.2,0-0.3,0-0.5L84,15.7h-0.1l-1.6,5.6
				c-0.1,0.5-0.3,1-0.5,1.3s-0.4,0.5-0.7,0.6c-0.1,0-0.2,0-0.4-0.2c-0.1-0.2-0.2-0.5-0.4-0.9c0-0.1-0.1-0.2-0.1-0.5
				c-0.1-0.2-0.1-0.5-0.2-0.9c-0.1-0.3-0.2-0.7-0.3-1.1c-0.1-0.4-0.2-0.8-0.3-1.1c-0.1-0.3-0.2-0.6-0.2-0.9
				c-0.1-0.3-0.1-0.4-0.1-0.5l0,0l-0.3,3.1c-0.1,0.7-0.1,1.3-0.3,1.8c-0.1,0.5-0.2,0.9-0.4,1.3c-0.2,0.3-0.3,0.6-0.6,0.8
				c-0.2,0.2-0.5,0.3-0.7,0.4c-0.4,0.1-0.7,0.1-1-0.1c-0.3-0.1-0.5-0.3-0.5-0.6c0-0.1,0-0.2,0-0.4c0-0.1,0.1-0.2,0.3-0.3
				c0.1,0,0.2,0,0.3,0c0.1,0.1,0.2,0.1,0.2,0.2c0.1,0.1,0.1,0.1,0.2,0.2s0.2,0.1,0.3,0c0.2,0,0.3-0.1,0.4-0.2s0.2-0.3,0.4-0.5
				c0.1-0.3,0.2-0.6,0.3-1.1c0.1-0.5,0.2-1.1,0.3-2l0.3-2.6c0-0.1,0-0.2,0-0.3c0-0.1,0-0.1,0-0.1c0-0.1-0.1-0.1-0.3-0.1
				c-0.3,0.1-0.5,0.2-0.7,0.4c-0.1,0.2-0.3,0.3-0.3,0.3c-0.1,0-0.2,0-0.3-0.2c0-0.1,0-0.2,0.2-0.5c0.1-0.2,0.3-0.4,0.6-0.7
				c0.2-0.2,0.5-0.4,0.7-0.6C78.6,15.4,78.8,15.3,79,15.2z"/>
		</g>
	</g>
</g>
</svg>
